<svg width="865" height="584" viewBox="0 0 865 584" fill="none" xmlns="http://www.w3.org/2000/svg">
<path d="M432.5 579C633.231 579 795.956 560.031 795.956 536.632C795.956 513.233 633.231 494.265 432.5 494.265C231.769 494.265 69.0444 513.233 69.0444 536.632C69.0444 560.031 231.769 579 432.5 579Z" fill="#EBEBEB"/>
<path d="M480.024 544.538C483.622 545.749 586.626 546.113 590.571 543.639C592.076 542.705 592.993 527.705 593.598 509.558C593.737 505.631 593.84 501.582 593.944 497.448L602.283 442.52L533.429 442.07L526.924 497.033L527.183 509.143C527.183 509.143 487.688 526.65 483.657 529.816C479.626 532.982 476.443 543.31 480.024 544.538Z" fill="#EB9481"/>
<path d="M480.024 544.538C483.622 545.749 586.626 546.113 590.571 543.639C592.387 542.497 593.391 520.595 593.944 497.465L526.924 497.05L527.183 509.16C527.183 509.16 487.688 526.667 483.657 529.833C479.626 532.999 476.443 543.31 480.024 544.538Z" fill="white"/>
<path d="M480.024 544.538C483.622 545.749 586.626 546.113 590.571 543.639C592.076 542.705 592.993 527.705 593.598 509.558L527.183 509.125C527.183 509.125 487.688 526.633 483.657 529.799C479.626 532.965 476.443 543.31 480.024 544.538Z" fill="#FFA45A"/>
<path d="M481.528 540.421C498.828 540.058 568.478 540.213 585.571 541.165C585.709 541.165 585.709 541.269 585.571 541.286C568.461 542.013 498.776 541.286 481.511 540.698C481.148 540.68 481.165 540.421 481.528 540.421Z" fill="#263238"/>
<path d="M490.299 526.114C492.231 526.059 494.152 526.41 495.94 527.143C497.727 527.876 499.342 528.975 500.679 530.37C503.096 532.843 504.471 536.15 504.52 539.608C504.52 539.712 504.312 539.712 504.295 539.608C503.73 536.198 502.077 533.063 499.582 530.671C497.087 528.279 493.885 526.759 490.455 526.339C490.425 526.359 490.388 526.367 490.353 526.361C490.317 526.354 490.285 526.334 490.265 526.304C490.244 526.274 490.236 526.238 490.242 526.202C490.249 526.166 490.269 526.134 490.299 526.114Z" fill="#263238"/>
<path d="M520.488 510.821C527.408 510.821 535.4 513.225 539.673 518.882C539.846 519.107 539.535 519.332 539.327 519.228C533.27 516.041 526.891 513.507 520.297 511.668C520.185 511.643 520.087 511.574 520.025 511.477C519.964 511.38 519.943 511.262 519.969 511.149C519.994 511.037 520.063 510.939 520.16 510.877C520.257 510.816 520.375 510.795 520.488 510.821Z" fill="#263238"/>
<path d="M515.143 512.879C522.063 512.879 530.055 515.284 534.328 520.958C534.501 521.166 534.19 521.408 533.983 521.287C527.929 518.095 521.549 515.566 514.953 513.744C514.855 513.704 514.775 513.63 514.726 513.537C514.677 513.443 514.663 513.335 514.685 513.232C514.708 513.129 514.766 513.037 514.85 512.973C514.934 512.908 515.037 512.875 515.143 512.879Z" fill="#263238"/>
<path d="M509.797 514.955C516.717 514.869 524.71 517.343 529 523.017C529.156 523.225 528.844 523.467 528.637 523.363C522.588 520.158 516.206 517.623 509.607 515.803C509.494 515.778 509.397 515.709 509.335 515.612C509.273 515.514 509.253 515.396 509.278 515.284C509.303 515.172 509.372 515.074 509.47 515.012C509.567 514.95 509.685 514.93 509.797 514.955Z" fill="#263238"/>
<path d="M504.451 517.014C511.371 517.014 519.381 519.401 523.654 525.076C523.81 525.283 523.499 525.526 523.291 525.422C517.242 522.217 510.861 519.682 504.261 517.862C504.149 517.836 504.051 517.768 503.989 517.67C503.928 517.573 503.907 517.455 503.932 517.343C503.958 517.23 504.026 517.132 504.124 517.071C504.221 517.009 504.339 516.989 504.451 517.014Z" fill="#263238"/>
<path d="M581.28 524.747C589.048 524.747 588.979 536.857 581.28 536.857C573.582 536.857 573.461 524.695 581.28 524.747Z" fill="#263238"/>
<path d="M513.603 502.482C517.305 507.309 522.979 510.371 527.892 513.779C528.008 513.844 528.137 513.882 528.269 513.888C528.401 513.895 528.534 513.87 528.655 513.816C528.776 513.762 528.883 513.681 528.967 513.578C529.05 513.476 529.109 513.355 529.138 513.225C529.165 513.231 529.193 513.23 529.219 513.223C529.246 513.216 529.27 513.202 529.291 513.184C529.311 513.165 529.327 513.142 529.336 513.116C529.346 513.09 529.349 513.062 529.346 513.035C528.865 506.693 526.723 500.589 523.135 495.337C520.99 492.31 516.595 489.472 513.083 492.361C509.572 495.251 511.423 499.679 513.603 502.482ZM513.291 496.756C514.018 489.248 520.782 495.026 522.27 497.327C523.207 498.827 524.045 500.387 524.778 501.998C526.235 505.351 527.523 508.775 528.636 512.256C526.335 510.423 523.879 508.796 521.509 507.066C518.689 505.008 512.911 500.908 513.291 496.756Z" fill="#263238"/>
<path d="M553.911 508.71C553.392 504.195 548.237 503.209 544.604 503.883C538.381 505.188 532.607 508.098 527.858 512.326C527.832 512.341 527.812 512.363 527.798 512.389C527.783 512.414 527.776 512.443 527.776 512.473C527.776 512.502 527.783 512.531 527.798 512.557C527.812 512.583 527.832 512.604 527.858 512.62C527.784 512.731 527.739 512.859 527.726 512.991C527.712 513.124 527.731 513.258 527.78 513.382C527.83 513.505 527.908 513.616 528.009 513.703C528.109 513.79 528.23 513.852 528.359 513.883C534.276 514.817 540.469 516.564 546.507 515.613C550.036 515.128 554.413 512.983 553.911 508.71ZM537.632 513.467C534.708 513.087 531.837 512.551 528.982 512.274C532.252 510.63 535.435 508.814 538.86 507.551C540.506 506.897 542.194 506.354 543.912 505.925C546.576 505.319 555.468 505.821 550.832 511.737C548.116 514.99 541.109 513.9 537.632 513.467Z" fill="#263238"/>
<path d="M703.488 188.556C703.488 188.556 623.51 324.603 621.365 334.153C618.078 348.841 600.605 493.78 600.605 493.78L517.392 492.292C517.392 492.292 531.733 364.48 545.314 322.389C555.106 292.062 625.672 191.48 625.672 191.48L703.488 188.556Z" fill="#37474F"/>
<path d="M524.986 479.525C536.94 479.438 579.291 478.971 595.189 480.442C595.221 480.442 595.252 480.455 595.275 480.477C595.298 480.5 595.31 480.531 595.31 480.563C595.31 480.595 595.298 480.626 595.275 480.649C595.252 480.671 595.221 480.684 595.189 480.684C589.722 481.463 536.94 480.234 524.986 479.854C524.96 479.862 524.932 479.864 524.905 479.86C524.878 479.856 524.853 479.845 524.83 479.829C524.808 479.813 524.79 479.792 524.778 479.768C524.765 479.744 524.759 479.717 524.759 479.689C524.759 479.662 524.765 479.635 524.778 479.611C524.79 479.586 524.808 479.565 524.83 479.549C524.853 479.533 524.878 479.523 524.905 479.518C524.932 479.514 524.96 479.516 524.986 479.525Z" fill="#263238"/>
<path d="M689.837 201.047C684.647 209.264 679.059 217.309 673.696 225.457C668.333 233.605 663.005 241.771 657.729 249.989C647.199 266.389 636.911 282.939 626.865 299.64C621.995 307.326 617.821 315.431 614.392 323.859C611.269 332.331 608.924 341.069 607.386 349.965C605.742 358.909 604.669 367.923 603.666 376.936C602.582 386.532 601.509 396.127 600.448 405.723C598.257 425.33 596.066 444.971 593.874 464.647C593.597 467.052 593.338 469.474 593.096 471.878C593.096 472.242 593.684 472.311 593.736 471.878C596.175 452.364 598.217 432.798 600.448 413.249L603.77 384.15C604.791 375.102 605.777 366.054 607.23 357.041C608.528 348.176 610.489 339.421 613.095 330.849C615.947 321.967 619.782 313.431 624.53 305.4C634.166 288.775 644.373 272.427 654.58 256.13C664.787 239.833 675.253 223.26 686.031 207.119C687.346 205.13 688.696 203.14 690.08 201.185C690.27 201.03 689.941 200.891 689.837 201.047Z" fill="#263238"/>
<path d="M632.783 555.974C636.571 556.216 738.78 529.28 741.963 525.889C742.103 525.683 742.186 525.445 742.205 525.197C742.603 521.841 737.378 509.298 733.711 493.226C733.486 492.206 731.566 487.327 728.867 480.736C721.445 462.657 708.211 431.587 708.211 431.587L641.484 448.714L666.05 498.105L669.372 509.713C669.372 509.713 635.62 536.719 632.54 540.853C629.461 544.988 629.011 555.697 632.783 555.974Z" fill="#EB9481"/>
<path d="M632.782 555.974C636.571 556.216 738.779 529.28 741.962 525.889C742.102 525.683 742.186 525.445 742.204 525.197C742.602 521.841 737.378 509.298 733.71 493.227C733.485 492.206 731.565 487.327 728.866 480.736L666.067 498.036L669.389 509.644C669.389 509.644 635.636 536.65 632.557 540.784C629.478 544.919 629.01 555.697 632.782 555.974Z" fill="white"/>
<path d="M632.782 555.956C636.571 556.233 738.779 529.28 741.962 525.889C743.173 524.609 740.526 510.786 733.71 493.227L669.389 509.731C669.389 509.731 635.636 536.701 632.557 540.871C629.478 545.04 629.01 555.697 632.782 555.956Z" fill="#FFA45A"/>
<path d="M633.18 551.597C649.788 546.857 717.224 529.28 734.005 525.837C734.143 525.837 734.16 525.837 734.005 525.958C717.656 531.01 650.082 548.05 633.232 551.908C632.903 551.96 632.834 551.701 633.18 551.597Z" fill="#263238"/>
<path d="M638.041 535.542C639.886 535.01 641.822 534.867 643.725 535.123C645.629 535.379 647.458 536.029 649.096 537.03C652.058 538.811 654.225 541.659 655.151 544.988C655.151 545.092 654.978 545.144 654.944 544.988C653.52 541.824 651.107 539.207 648.069 537.531C645.03 535.856 641.529 535.213 638.093 535.698C638.083 535.714 638.067 535.727 638.05 535.735C638.032 535.743 638.013 535.746 637.993 535.743C637.974 535.741 637.956 535.733 637.941 535.72C637.926 535.708 637.915 535.692 637.909 535.673C637.902 535.655 637.902 535.635 637.906 535.616C637.911 535.597 637.92 535.58 637.934 535.566C637.948 535.553 637.965 535.543 637.984 535.539C638.003 535.535 638.023 535.536 638.041 535.542Z" fill="#263238"/>
<path d="M663.335 513.07C669.995 511.236 678.368 511.582 683.939 515.976C684.164 516.149 683.939 516.46 683.697 516.409C677.053 514.848 670.261 514.007 663.438 513.9C663.343 513.887 663.256 513.844 663.188 513.776C663.121 513.708 663.078 513.62 663.066 513.525C663.054 513.43 663.074 513.334 663.123 513.251C663.171 513.169 663.246 513.105 663.335 513.07Z" fill="#263238"/>
<path d="M658.697 516.426C665.358 514.592 673.731 514.938 679.302 519.332C679.527 519.505 679.302 519.817 679.042 519.765C672.395 518.238 665.603 517.431 658.784 517.36C658.66 517.372 658.537 517.333 658.441 517.254C658.345 517.174 658.285 517.06 658.273 516.936C658.262 516.812 658.3 516.689 658.38 516.593C658.459 516.498 658.573 516.437 658.697 516.426Z" fill="#263238"/>
<path d="M654.044 519.782C660.722 517.948 669.078 518.294 674.666 522.688C674.873 522.861 674.665 523.155 674.406 523.121C667.762 521.565 660.97 520.729 654.148 520.63C654.045 520.626 653.947 520.586 653.871 520.516C653.796 520.446 653.747 520.352 653.735 520.25C653.722 520.148 653.746 520.045 653.803 519.959C653.86 519.873 653.945 519.811 654.044 519.782Z" fill="#263238"/>
<path d="M649.407 523.121C656.068 521.304 664.441 521.65 670.011 526.045C670.236 526.218 670.011 526.512 669.769 526.46C663.123 524.92 656.332 524.09 649.511 523.986C649.396 524 649.281 523.967 649.19 523.896C649.099 523.825 649.04 523.72 649.027 523.605C649.013 523.491 649.045 523.375 649.117 523.284C649.188 523.193 649.292 523.135 649.407 523.121Z" fill="#263238"/>
<path d="M725.632 511.08C733.14 509.143 736.15 520.82 728.625 522.74C721.099 524.661 718.106 513 725.632 511.08Z" fill="#263238"/>
<path d="M654.546 506.755C659.373 510.475 665.635 511.945 671.241 514.038C671.369 514.074 671.504 514.078 671.634 514.052C671.765 514.026 671.887 513.969 671.992 513.886C672.096 513.804 672.18 513.698 672.235 513.577C672.291 513.456 672.318 513.324 672.313 513.191C672.342 513.19 672.37 513.183 672.394 513.169C672.419 513.155 672.44 513.135 672.456 513.111C672.471 513.087 672.481 513.06 672.483 513.032C672.485 513.003 672.48 512.975 672.469 512.949C670.389 506.926 666.761 501.556 661.95 497.379C659.113 495.008 654.131 493.365 651.467 497.067C648.802 500.769 651.743 504.593 654.546 506.755ZM652.816 501.306C651.605 493.849 659.615 497.742 661.639 499.576C662.932 500.782 664.14 502.077 665.255 503.451C667.526 506.313 669.645 509.293 671.604 512.378C668.905 511.201 666.12 510.267 663.386 509.177C660.099 507.897 653.473 505.406 652.799 501.306H652.816Z" fill="#263238"/>
<path d="M695.114 502.517C693.471 498.278 688.194 498.641 684.89 500.233C679.197 503.067 674.352 507.351 670.842 512.654C670.824 512.677 670.812 512.703 670.806 512.731C670.8 512.76 670.802 512.789 670.811 512.816C670.819 512.844 670.835 512.869 670.855 512.889C670.876 512.909 670.901 512.923 670.929 512.931C670.891 513.058 670.884 513.191 670.907 513.322C670.93 513.452 670.983 513.574 671.062 513.68C671.141 513.786 671.243 513.872 671.362 513.931C671.48 513.991 671.61 514.021 671.742 514.021C677.711 513.416 684.146 513.519 689.734 511.115C693.004 509.713 696.689 506.513 695.114 502.517ZM680.582 511.27C677.676 511.634 674.752 511.859 671.932 512.326C674.596 509.828 677.385 507.466 680.288 505.25C681.712 504.202 683.203 503.249 684.752 502.396C687.174 501.115 695.91 499.351 692.865 506.253C691.118 510.077 684.077 510.838 680.582 511.27Z" fill="#263238"/>
<path d="M661.484 494.87L736.254 475.252C736.254 475.252 664.667 334.378 665.324 324.655C665.843 316.005 717.76 240.439 720.684 226.288C725.372 203.123 714.093 182.432 703.159 169.63L625.828 191.428C625.828 191.428 631.987 204.801 643.301 213.243C643.301 213.243 594.706 294.38 593.46 321.091C592.214 347.803 661.484 494.87 661.484 494.87Z" fill="#37474F"/>
<path d="M660.065 481.03C670.895 477.933 667.746 478.677 678.628 475.684C683.956 474.231 718.954 464.664 724.144 464.163C724.265 464.163 724.317 464.336 724.144 464.387C719.369 466.533 684.216 475.494 678.87 476.843C667.936 479.611 671.033 478.695 660.065 481.359C659.944 481.376 659.857 481.03 660.065 481.03Z" fill="#263238"/>
<path d="M631.312 210.181C638.721 212.931 645.881 216.311 652.712 220.284C652.767 220.312 652.809 220.36 652.828 220.419C652.848 220.477 652.843 220.541 652.816 220.596C652.788 220.651 652.74 220.693 652.682 220.712C652.623 220.732 652.559 220.727 652.504 220.7C645.29 217.551 637.92 214.541 630.897 211.012C630.8 210.949 630.73 210.853 630.7 210.742C630.67 210.632 630.681 210.513 630.733 210.411C630.784 210.308 630.872 210.228 630.979 210.185C631.085 210.143 631.204 210.142 631.312 210.181Z" fill="#263238"/>
<path d="M640.394 208.278C640.943 209.637 641.406 211.03 641.778 212.448C642.184 213.554 642.366 214.73 642.315 215.908C642.292 215.947 642.259 215.98 642.22 216.003C642.18 216.026 642.135 216.038 642.09 216.038C642.044 216.038 641.999 216.026 641.96 216.003C641.92 215.98 641.887 215.947 641.865 215.908C641.216 214.873 640.727 213.748 640.412 212.569C639.944 211.271 639.443 209.991 639.028 208.693C638.733 207.863 640.1 207.448 640.394 208.278Z" fill="#263238"/>
<path d="M640.394 201.272C640.083 200.078 639.772 198.902 639.443 197.708C639.114 196.514 638.664 195.286 638.422 194.04C638.422 193.85 638.076 193.936 638.128 194.04C638.422 195.234 638.561 196.48 638.768 197.691C638.976 198.902 639.218 200.113 639.46 201.306C639.917 203.573 640.494 205.814 641.19 208.019C639.973 207.93 638.79 207.569 637.73 206.963C636.698 206.11 635.96 204.954 635.62 203.659C635.135 202.31 634.703 200.943 634.201 199.611C633.579 198.15 633.081 196.64 632.713 195.096C632.713 194.888 632.367 194.974 632.402 195.096C632.998 198.357 633.92 201.55 635.153 204.628C635.689 205.839 636.087 207.085 637.28 207.673C638.593 208.229 640.007 208.506 641.432 208.486C641.588 208.486 641.83 208.486 641.796 208.261C641.432 206.046 640.983 203.607 640.394 201.272Z" fill="#263238"/>
<path d="M641.675 215.942C638.734 221.253 635.378 226.322 632.229 231.512C629.08 236.702 626.243 241.754 623.371 246.944C617.593 257.428 612.23 268.188 607.334 279.122C604.912 284.531 602.606 290.003 600.414 295.539C598.135 301.048 596.256 306.714 594.792 312.493C593.416 318.261 593.157 324.24 594.031 330.105C595.125 336.119 596.675 342.041 598.667 347.82C602.675 361.056 607.553 374.013 613.268 386.607C613.458 387.022 614.15 386.71 613.995 386.278C609.912 374.756 605.691 363.269 602.006 351.678C598.459 340.364 594.238 328.634 596.193 316.611C597.285 310.844 598.93 305.195 601.106 299.743C603.205 294.138 605.443 288.596 607.819 283.118C612.524 272.306 617.783 261.804 623.181 251.338C626.191 245.473 629.357 239.678 632.419 233.83C635.481 227.983 638.492 221.928 641.934 216.254C642.038 215.925 641.83 215.786 641.675 215.942Z" fill="#263238"/>
<path d="M697.986 204.593C696.585 204.368 694.526 204.853 688.488 204.438C686.81 204.289 685.145 204.017 683.506 203.624C681.843 203.364 680.263 202.725 678.887 201.756C676.694 199.681 674.905 197.218 673.61 194.49C671.992 191.679 670.753 188.665 669.926 185.529C669.926 185.338 669.597 185.425 669.631 185.615C669.96 187.345 670.133 189.075 670.6 190.909C671.045 192.557 671.624 194.165 672.33 195.718C673.441 198.792 675.303 201.539 677.745 203.711C680.479 205.77 684.302 206.15 687.606 206.392C689.526 206.531 697.052 206.392 697.986 205.251C698.263 205.06 698.246 204.645 697.986 204.593Z" fill="#263238"/>
<path d="M717.69 459.163C708.256 439.994 699.03 420.705 690.01 401.294C680.991 381.884 672.238 362.329 663.749 342.63C661.401 338.005 659.529 333.153 658.161 328.15C657.002 322.666 658.697 317.77 661.016 312.805C665.329 303.801 670.152 295.05 675.461 286.595C680.651 278.084 686.256 269.762 691.74 261.407C697.412 253.222 702.61 244.719 707.31 235.941C711.566 227.447 713.936 218.399 712.725 208.884C711.514 199.369 707.414 190.58 703.037 182.224C701.878 180.027 700.685 177.848 699.577 175.633C699.491 175.477 699.231 175.633 699.335 175.789C704.214 184.543 708.902 193.729 711.186 203.469C712.362 208.323 712.724 213.339 712.258 218.312C711.65 223.333 710.236 228.222 708.072 232.792C704.006 241.719 698.332 249.954 692.986 258.137C687.64 266.32 681.949 274.831 676.62 283.308C671.207 291.794 666.235 300.554 661.725 309.552C659.753 313.583 657.59 317.787 657.106 322.303C656.587 327.268 658.369 332.008 660.289 336.489C668.593 355.968 677.347 375.292 686.239 394.513C695.131 413.733 704.352 433.023 713.711 452.122L717.171 459.336C717.396 459.734 717.829 459.457 717.69 459.163Z" fill="#263238"/>
<path d="M624.115 25.348C625.845 17.4419 634.634 -0.44627 651.986 3.04833C676.759 8.04803 680.34 55.7787 692.675 70.6567C715.009 97.6101 715.736 124.287 697.433 128.56C676.915 133.335 656.951 111.26 657.643 63.6848C658.11 33.8942 649.719 20.6943 643.803 21.5766C637.886 22.4589 634.616 29.9844 634.616 29.9844L624.115 25.348Z" fill="#263238"/>
<path d="M624.945 22.3897C626.171 18.7019 627.838 15.1759 629.91 11.8886C631.989 8.52048 634.747 5.62181 638.007 3.37701C641.382 1.09665 645.388 -0.0653015 649.459 0.0554127C653.497 0.177213 657.444 1.27539 660.964 3.25592C664.396 5.30902 667.346 8.07615 669.614 11.3696C671.856 14.6057 673.719 18.0885 675.167 21.7496C677.915 29.0083 679.842 36.552 680.911 44.2396C679.025 36.807 676.585 29.5263 673.61 22.4589C672.067 19.0033 670.171 15.7162 667.953 12.6498C665.799 9.62331 663.028 7.08792 659.822 5.21083C656.613 3.38044 653.012 2.34252 649.321 2.18333C645.668 2.01227 642.048 2.95328 638.941 4.88213C635.754 6.89188 632.987 9.5004 630.793 12.5633C629.646 14.0926 628.589 15.6869 627.627 17.3381C626.658 18.9297 625.776 20.6424 624.945 22.3897Z" fill="#263238"/>
<path d="M657.556 47.2671C657.815 51.99 657.556 56.7302 657.452 61.4531C657.348 66.176 657.158 70.8816 657.141 75.5872C657.123 80.2928 657.279 84.9811 657.764 89.6348C658.158 94.2675 659.004 98.8507 660.289 103.319C661.506 107.759 663.554 111.927 666.327 115.602C669.235 119.179 672.748 122.218 676.707 124.581C680.67 126.986 685.146 128.421 689.769 128.767C692.081 128.946 694.407 128.824 696.689 128.404C697.861 128.185 699.017 127.884 700.149 127.505C701.275 127.171 702.348 126.676 703.332 126.034C701.403 127.439 699.207 128.434 696.879 128.958C694.558 129.563 692.167 129.859 689.769 129.84C687.348 129.796 684.943 129.453 682.606 128.819C680.276 128.164 678.029 127.241 675.911 126.069C673.788 124.905 671.783 123.538 669.925 121.986L668.559 120.809L667.244 119.581C666.352 118.741 665.519 117.839 664.753 116.882C661.778 113.024 659.57 108.631 658.248 103.942C655.851 94.6811 654.929 85.1005 655.515 75.5526C655.653 70.8124 656.016 66.0895 656.431 61.3839C656.847 56.6783 657.4 51.99 657.556 47.2671Z" fill="#263238"/>
<path d="M622.696 25.4864C622.419 23.2893 623.751 20.2964 625.135 19.7601C626.519 19.2238 637.557 22.7703 638.716 25.4172C639.875 28.0641 635.411 30.884 635.411 30.884L622.696 25.4864Z" fill="#4648BC"/>
<path d="M635.914 103.406C629.115 113.111 579.949 153.264 553.134 154.752C541.024 155.409 493.656 150.254 483.103 145.912C470.146 140.583 495.767 108.492 503.863 109.858C514.001 111.588 549.95 115.377 557.113 115.568C568.6 115.862 603.823 96.5375 627.541 91.5032C639.807 88.9255 641.173 95.932 635.914 103.406Z" fill="#EB9481"/>
<path d="M635.378 105.239C627.869 118.336 601.366 140.791 601.366 140.791L596.851 132.452L581.903 104.928C581.903 104.928 607.023 94.9286 623.683 90.0673C625.639 89.4669 627.641 89.0272 629.669 88.7525C640.429 87.3685 641.831 93.9944 635.378 105.239Z" fill="#DBDBDB"/>
<path d="M635.377 105.239C627.869 118.336 601.366 140.791 601.366 140.791L596.85 132.452L593.771 126.778L581.886 104.945C581.886 104.945 607.023 94.9113 623.683 90.05C625.642 89.4663 627.643 89.0325 629.668 88.7525C629.881 88.7365 630.095 88.7365 630.308 88.7525C640.481 87.6453 641.726 94.2193 635.377 105.239Z" fill="#DBDBDB"/>
<path d="M604.047 98.1637C604.624 100.551 604.624 103.042 604.047 105.43C603.47 103.042 603.47 100.551 604.047 98.1637ZM596.937 112.419C595.718 112.399 594.501 112.545 593.321 112.851C594.503 113.15 595.718 113.295 596.937 113.284C598.161 113.294 599.382 113.149 600.57 112.851C599.384 112.546 598.162 112.4 596.937 112.419ZM633.682 92.1087C632.457 92.0902 631.236 92.2357 630.049 92.5412C631.236 92.8467 632.457 92.9922 633.682 92.9737C634.901 92.9827 636.116 92.8373 637.298 92.5412C636.116 92.2451 634.901 92.0998 633.682 92.1087ZM619.531 110.17C620.387 111.041 621.352 111.797 622.403 112.419C621.78 111.368 621.024 110.403 620.154 109.547C619.294 108.68 618.329 107.925 617.282 107.298C617.908 108.346 618.664 109.31 619.531 110.17ZM605.57 127.47C606.425 128.346 607.39 129.108 608.442 129.736C607.825 128.682 607.068 127.716 606.192 126.864C605.337 125.988 604.372 125.226 603.321 124.598C603.917 125.648 604.65 126.613 605.501 127.47H605.57Z" fill="white"/>
<path d="M605.985 134.649C603.476 129.581 592.404 109.167 589.723 104.911C589.533 104.617 589.308 104.651 589.446 104.911C594.351 115.11 599.802 125.038 605.777 134.649C605.847 134.857 606.054 134.788 605.985 134.649Z" fill="#263238"/>
<path d="M635.377 105.239C627.869 118.336 601.365 140.791 601.365 140.791L596.85 132.452L593.771 126.778C608.147 112.592 625.464 95.1362 630.308 88.7179C640.481 87.6453 641.726 94.2193 635.377 105.239Z" fill="#A6A6A6"/>
<path d="M610.864 165.565L614.791 208.815C620.081 208.571 625.353 208.039 630.586 207.223C644.385 205.153 658.056 202.305 671.535 198.694C684.908 195.234 700.581 190.459 718.504 184.093C718.504 184.093 677.97 110.983 649.996 90.8112C649.356 90.3441 648.733 89.9116 648.093 89.5137C647.972 89.4099 647.851 89.358 647.73 89.2715C635.014 81.227 623.51 87.5415 617.143 96.5029C615.535 98.7519 599.965 134.148 600.743 146.016C601.452 156.447 610.864 165.565 610.864 165.565Z" fill="#DBDBDB"/>
<path d="M633.354 119.27C633.66 120.45 633.806 121.666 633.786 122.885C633.805 124.11 633.659 125.332 633.354 126.518C633.048 125.332 632.903 124.11 632.921 122.885C632.91 121.667 633.056 120.452 633.354 119.27ZM642.782 164.561C642.772 165.786 642.917 167.006 643.215 168.194C643.529 167.009 643.674 165.786 643.647 164.561C643.666 163.336 643.52 162.114 643.215 160.928C642.917 162.116 642.772 163.337 642.782 164.561ZM672.971 138.784C672.952 140.009 673.098 141.231 673.403 142.417C673.98 140.029 673.98 137.539 673.403 135.151C673.098 136.337 672.952 137.559 672.971 138.784ZM617.611 159.042C617.592 160.267 617.738 161.489 618.043 162.675C618.62 160.288 618.62 157.797 618.043 155.409C617.738 156.596 617.592 157.818 617.611 159.042ZM652.487 127.159C651.263 127.148 650.042 127.294 648.854 127.591C651.242 128.167 653.733 128.167 656.121 127.591C654.938 127.295 653.723 127.15 652.505 127.159H652.487ZM678.23 159.423C677.005 159.396 675.782 159.541 674.597 159.856C676.985 160.432 679.475 160.432 681.863 159.856C680.682 159.552 679.466 159.406 678.247 159.423H678.23ZM639.097 184.992C637.878 184.973 636.662 185.118 635.482 185.425C636.662 185.732 637.878 185.877 639.097 185.857C640.322 185.876 641.544 185.73 642.73 185.425C641.548 185.129 640.333 184.984 639.115 184.992H639.097ZM684.683 180.01C683.464 180 682.249 180.145 681.067 180.443C683.449 181.019 685.934 181.019 688.316 180.443C687.128 180.145 685.907 180 684.683 180.01ZM633.682 92.0568C632.458 92.0383 631.236 92.1838 630.049 92.4893C631.236 92.7948 632.458 92.9403 633.682 92.9218C634.901 92.9308 636.116 92.7854 637.298 92.4893C636.114 92.2107 634.899 92.0828 633.682 92.1087V92.0568ZM652.193 100.067C653.049 100.943 654.014 101.705 655.065 102.333C654.453 101.276 653.696 100.309 652.816 99.4612C651.961 98.585 650.995 97.8232 649.944 97.1949C650.568 98.2648 651.33 99.2478 652.211 100.119L652.193 100.067ZM689.994 140.531C690.849 141.408 691.815 142.169 692.866 142.798C692.248 141.744 691.491 140.778 690.617 139.926C689.758 139.054 688.793 138.292 687.745 137.66C688.363 138.728 689.119 139.711 689.994 140.583V140.531ZM629.548 144.856C630.403 145.733 631.368 146.494 632.419 147.123C631.128 145.004 629.348 143.224 627.229 141.933C627.866 143.023 628.646 144.024 629.548 144.908V144.856ZM664.321 174.145C665.176 175.022 666.141 175.783 667.192 176.412C665.901 174.293 664.121 172.513 662.002 171.222C662.643 172.294 663.423 173.277 664.321 174.145ZM619.617 110.135C620.473 111.006 621.439 111.762 622.489 112.384C621.867 111.334 621.111 110.368 620.24 109.513C619.381 108.646 618.416 107.89 617.368 107.264C617.966 108.318 618.692 109.295 619.531 110.17L619.617 110.135ZM617.161 132.868C618.033 132.009 618.795 131.044 619.427 129.996C618.373 130.612 617.407 131.369 616.555 132.245C615.679 133.1 614.917 134.065 614.289 135.117C615.304 134.494 616.239 133.75 617.074 132.902L617.161 132.868ZM699.249 163.765C700.125 162.914 700.882 161.948 701.498 160.894C699.374 162.179 697.594 163.96 696.308 166.084C697.354 165.449 698.314 164.681 699.163 163.8L699.249 163.765ZM621.642 176.152C622.512 175.296 623.268 174.331 623.891 173.28C621.767 174.566 619.986 176.346 618.701 178.47C619.747 177.835 620.706 177.068 621.555 176.187L621.642 176.152ZM667.971 116.519C668.847 115.664 669.609 114.698 670.237 113.647C669.183 114.271 668.217 115.033 667.366 115.914C666.489 116.769 665.728 117.734 665.099 118.785C666.118 118.162 667.054 117.412 667.884 116.554L667.971 116.519ZM656.484 194.196C657.364 193.344 658.126 192.378 658.75 191.324C657.696 191.948 656.73 192.71 655.878 193.591C655.002 194.446 654.24 195.411 653.612 196.462C654.631 195.839 655.567 195.089 656.397 194.231L656.484 194.196ZM656.484 147.486C657.369 146.639 658.132 145.672 658.75 144.614C656.631 145.906 654.852 147.685 653.56 149.804C654.618 149.159 655.585 148.373 656.432 147.469L656.484 147.486Z" fill="white"/>
<path d="M639.789 88.5276C639.547 90.2576 632.662 101.503 625.153 101.797C622.697 101.883 621.607 88.5622 621.607 88.5622L621.296 87.5934L617.022 74.0821L632.316 62.37L634.547 60.7957C634.547 60.7957 635.464 64.5844 636.571 69.29L636.727 69.9647C636.727 70.2242 636.866 70.4664 636.917 70.7259L637.436 72.8538C637.558 73.4074 637.679 73.9437 637.782 74.5838L638.146 76.3138C638.972 80.3428 639.521 84.4236 639.789 88.5276Z" fill="#EB9481"/>
<path d="M636.64 69.29C635.584 73.2818 633.67 76.9952 631.032 80.1714C628.394 83.3475 625.094 85.9099 621.364 87.6799L617.091 74.1686L632.315 62.37L634.547 60.7957C634.547 60.7957 635.463 64.4979 636.64 69.29Z" fill="#263238"/>
<path d="M598.061 53.72C597.94 78.5974 612.835 81.4865 618.198 81.5038C623.06 81.5038 639.65 80.9675 642.418 56.2285C645.186 31.4895 633.578 23.5834 622.454 22.9433C611.33 22.3032 598.182 28.7907 598.061 53.72Z" fill="#EB9481"/>
<path d="M640.983 57.9066C636.917 58.3218 635.793 49.7929 635.793 49.7929C635.793 49.7929 627.506 50.0351 624.478 38.1673C624.799 41.7373 626.159 45.1353 628.388 47.9418C628.388 47.9418 613.701 46.8 607.23 34.69C607.23 34.69 609.843 40.8661 612.195 43.0286C608.461 41.9748 605.189 39.696 602.905 36.5584C602.905 36.5584 600.518 43.686 598.598 45.6755C598.598 45.6755 595.76 33.1503 600.968 26.6455C611.936 12.8055 629.945 24.9155 629.945 24.9155C629.945 24.9155 640.014 26.4379 643.612 33.9807C649.166 45.5198 640.983 57.9066 640.983 57.9066Z" fill="#263238"/>
<path d="M638.37 58.0623C638.37 58.0623 643.145 49.8794 646.83 51.5229C650.515 53.1664 647.349 64.7228 643.37 66.5912C642.878 66.8681 642.335 67.0432 641.774 67.1059C641.213 67.1686 640.646 67.1177 640.105 66.9563C639.564 66.7948 639.061 66.5261 638.626 66.1662C638.192 65.8062 637.834 65.3624 637.574 64.8612L638.37 58.0623Z" fill="#EB9481"/>
<path d="M601.175 48.6857C601.76 48.5842 602.338 48.4455 602.905 48.2705C603.516 48.202 604.088 47.9345 604.531 47.5093C604.653 47.3539 604.72 47.162 604.72 46.9644C604.72 46.7667 604.653 46.5748 604.531 46.4194C604.236 46.1602 603.877 45.9836 603.491 45.9077C603.105 45.8317 602.706 45.8591 602.334 45.9869C601.542 46.1371 600.834 46.5746 600.345 47.2152C600.25 47.3612 600.196 47.5304 600.191 47.7046C600.185 47.8787 600.228 48.051 600.313 48.2027C600.399 48.3544 600.525 48.4796 600.677 48.5648C600.829 48.65 601.001 48.6918 601.175 48.6857Z" fill="#263238"/>
<path d="M617.402 50.6233C616.821 50.5655 616.243 50.4731 615.672 50.3465C615.04 50.3345 614.43 50.1089 613.942 49.7064C613.817 49.5523 613.749 49.3599 613.749 49.1615C613.749 48.963 613.817 48.7706 613.942 48.6165C614.213 48.3333 614.556 48.129 614.933 48.0254C615.311 47.9218 615.71 47.9228 616.087 48.0283C616.889 48.117 617.632 48.4917 618.181 49.0836C618.293 49.226 618.362 49.3975 618.38 49.5778C618.398 49.7582 618.364 49.9399 618.282 50.1016C618.201 50.2634 618.074 50.3984 617.918 50.4908C617.762 50.5832 617.583 50.6292 617.402 50.6233Z" fill="#263238"/>
<path d="M614.151 55.7095C614.151 55.7095 614.272 55.7095 614.272 55.8652C614.272 57.5952 614.497 59.5328 616.002 60.0691V60.1729C614.151 59.9307 613.787 57.3357 614.151 55.7095Z" fill="#263238"/>
<path d="M615.587 53.9103C618.32 53.6508 618.631 59.1003 616.088 59.3944C613.545 59.6885 613.286 54.1179 615.587 53.9103Z" fill="#263238"/>
<path d="M616.676 54.1352C617.178 54.4293 617.68 54.9483 618.268 54.9829C618.856 55.0175 619.41 54.3947 619.825 53.8238H619.911C619.911 54.8791 619.635 55.9863 618.527 56.2112C617.42 56.4361 616.797 55.5192 616.382 54.4812C616.33 54.3255 616.486 54.0314 616.676 54.1352Z" fill="#263238"/>
<path d="M604.618 55.796C604.618 55.796 604.48 55.8825 604.497 55.9517C604.653 57.6817 604.497 59.6366 603.044 60.294C604.93 59.9999 605.033 57.3876 604.618 55.796Z" fill="#263238"/>
<path d="M602.974 54.1179C600.224 54.1179 600.362 59.5847 602.974 59.6193C605.587 59.6539 605.293 54.1525 602.974 54.1179Z" fill="#263238"/>
<path d="M601.849 54.4985C601.417 54.8099 601.002 55.3462 600.483 55.3981C599.964 55.45 599.41 54.8618 599.012 54.2909H598.926C598.926 55.3462 599.306 56.4361 600.327 56.6091C601.348 56.7821 601.901 55.8479 602.057 54.7926C602.178 54.6715 602.04 54.3774 601.849 54.4985Z" fill="#263238"/>
<path d="M607.472 63.3388C607.472 63.3388 607.23 65.83 607.23 67.0929C609.559 67.0221 611.886 67.2665 614.15 67.8195C614.686 67.9752 614.651 67.5254 614.046 67.1967C612.241 66.2249 610.188 65.8096 608.147 66.003C608.06 65.6743 608.596 62.0759 608.406 62.0759C607.477 62.1926 606.569 62.4371 605.707 62.8025C606.053 57.4568 607.264 52.1976 607.524 46.8692C607.524 46.8279 607.507 46.7883 607.478 46.7591C607.449 46.7299 607.409 46.7135 607.368 46.7135C607.327 46.7135 607.287 46.7299 607.258 46.7591C607.229 46.7883 607.212 46.8279 607.212 46.8692C605.75 52.4517 604.846 58.1657 604.514 63.927C604.566 64.5671 607.005 63.5637 607.472 63.3388Z" fill="#263238"/>
<path d="M610.05 67.0929C610.917 68.2321 612.132 69.058 613.51 69.4457C615.603 69.6533 615.742 67.7157 613.406 66.8334C612.285 66.6111 611.124 66.7008 610.05 67.0929Z" fill="#263238"/>
<path d="M613.545 69.4457C612.757 69.3134 612.02 68.9662 611.417 68.4423C611.798 67.7676 612.766 67.0064 615.05 68.0963C615.413 68.8921 614.877 69.5841 613.545 69.4457Z" fill="#FF99BA"/>
<path d="M636.139 85.552C639.184 85.552 644.305 86.3132 651.225 91.5724C651.225 91.5724 636.796 103.181 623.372 103.181C618.579 103.181 617.144 96.4856 617.144 96.4856C617.144 96.4856 623.596 85.6558 636.139 85.552Z" fill="#EB9481"/>
<path d="M864.066 583.654H807.547C766.477 583.654 741.358 555.264 736.842 503.728C734.611 478.314 733.244 447.554 731.808 414.996C727.379 314.95 721.307 177.986 682.364 177.986H637.609V167.606H682.364C731.22 167.606 736.79 293.152 742.171 414.563C743.606 447.018 744.973 477.674 747.188 502.793C750.007 534.937 762.758 573.256 807.547 573.256H864.066V583.654Z" fill="#4648BC"/>
<path opacity="0.2" d="M670.479 167.571L668.265 177.951H637.609V167.571H670.479Z" fill="black"/>
<path d="M553.254 110.637H535.158V237.083H553.254V110.637Z" fill="#4648BC"/>
<path d="M535.176 119.979H466.374V226.443H535.176V119.979Z" fill="#4648BC"/>
<path opacity="0.2" d="M535.159 119.996V226.461H518.066L510.402 119.996H535.159Z" fill="black"/>
<path d="M413.574 139.096H466.356V155.012H413.574C411.766 155.012 410.033 154.293 408.754 153.015C407.476 151.737 406.758 150.003 406.758 148.195V145.929C406.756 145.032 406.93 144.144 407.272 143.315C407.613 142.486 408.115 141.733 408.748 141.098C409.381 140.463 410.133 139.96 410.962 139.616C411.79 139.272 412.677 139.096 413.574 139.096Z" fill="#DBDBDB"/>
<path d="M466.356 139.096H447.828V154.994H466.356V139.096Z" fill="#A6A6A6"/>
<path d="M413.574 191.428H466.356V207.344H413.574C411.766 207.344 410.033 206.626 408.754 205.348C407.476 204.069 406.758 202.336 406.758 200.528V198.262C406.756 197.365 406.93 196.477 407.272 195.648C407.613 194.819 408.115 194.065 408.748 193.431C409.381 192.796 410.133 192.292 410.962 191.949C411.79 191.605 412.677 191.428 413.574 191.428Z" fill="#DBDBDB"/>
<path d="M466.356 191.428H447.828V207.327H466.356V191.428Z" fill="#A6A6A6"/>
<path d="M660.186 163.056H606.435V184.283H660.186V163.056Z" fill="#4648BC"/>
<path d="M660.186 163.073H606.435V184.3H660.186V163.073Z" fill="#4648BC"/>
<path opacity="0.2" d="M625.309 163.073L623.544 184.3H606.435V163.073H625.309Z" fill="black"/>
<path d="M553.254 123.993H595.795C598.616 123.993 601.323 125.114 603.318 127.109C605.313 129.104 606.434 131.81 606.434 134.632V211.807C606.434 214.629 605.313 217.335 603.318 219.331C601.323 221.326 598.616 222.447 595.795 222.447H553.254V123.993Z" fill="#4648BC"/>
<path opacity="0.2" d="M575.883 123.993L568.219 222.447H553.271V123.993H575.883Z" fill="black"/>
<g opacity="0.2">
<path d="M571.921 143.888H568.53V202.535H571.921V143.888Z" fill="black"/>
<path d="M581.54 143.888H578.149V202.535H581.54V143.888Z" fill="black"/>
<path d="M591.158 143.888H587.768V202.535H591.158V143.888Z" fill="black"/>
</g>
<path d="M655.203 103.665C661.154 120.36 652.625 181.515 642.54 194.473C627.558 213.676 597.957 231.339 586.643 236.858C581.695 239.262 559.534 203.832 564.361 200.528C574.741 193.418 607.801 176.446 610.604 173.073C613.406 169.699 628.492 137.296 634.53 119.079C642.643 94.6172 652.21 95.24 655.203 103.665Z" fill="#EB9481"/>
<path d="M586.609 236.962C570.917 245.923 539.691 244.608 535.435 243.311L529.934 241.581C523.377 239.73 521.612 236.114 521.612 236.114C521.612 236.114 513.412 236.218 512.513 231.27C511.509 225.717 523.221 226.651 529.986 223.225C545.556 215.389 565.312 199.888 569.551 197.189L586.609 236.962Z" fill="#EB9481"/>
<path d="M552.009 226.443C547.504 228.803 542.839 230.844 538.048 232.55C532.702 234.1 527.249 235.257 521.734 236.01C521.707 236.02 521.684 236.038 521.668 236.061C521.652 236.084 521.644 236.112 521.644 236.14C521.644 236.168 521.652 236.196 521.668 236.219C521.684 236.242 521.707 236.26 521.734 236.27C532.558 235.975 543.095 232.72 552.199 226.858C552.424 226.72 552.234 226.339 552.009 226.443Z" fill="#263238"/>
<path d="M558.099 235.111C553.497 237.014 545.383 240.301 529.917 241.442C529.917 241.442 529.917 241.529 529.917 241.546C539.739 242.225 549.557 240.158 558.272 235.578C558.549 235.37 558.41 234.989 558.099 235.111Z" fill="#263238"/>
<path d="M548.065 212.621C549.674 210.891 548.722 209.956 544.466 210.718C540.21 211.479 524.035 218.157 522.184 212.326C520.333 206.496 543.307 197.397 550.487 196.653C556.973 196.317 563.476 196.508 569.932 197.224C565.814 199.888 556.057 207.292 548.065 212.621Z" fill="#EB9481"/>
<path d="M638.508 107.869C648.975 85.8461 658.524 91.6762 659.441 113.457C659.75 128.582 659.068 143.712 657.4 158.748L619.461 147.884C619.461 147.884 631.813 121.969 638.508 107.869Z" fill="#DBDBDB"/>
<path d="M647.955 95.0324C650.074 96.3241 651.853 98.1036 653.145 100.222C651.026 98.9307 649.247 97.1513 647.955 95.0324ZM632.921 122.92C632.903 124.145 633.048 125.367 633.354 126.553C633.659 125.367 633.805 124.145 633.786 122.92C633.806 121.701 633.66 120.485 633.354 119.304C633.056 120.486 632.91 121.701 632.921 122.92ZM652.505 127.193C651.28 127.183 650.06 127.328 648.872 127.626C651.26 128.202 653.75 128.202 656.138 127.626C654.951 127.317 653.731 127.16 652.505 127.159V127.193ZM629.548 144.908C630.403 145.785 631.368 146.546 632.419 147.175C631.128 145.056 629.348 143.276 627.229 141.985C627.87 143.057 628.65 144.04 629.548 144.908ZM656.432 147.469C657.317 146.621 658.08 145.655 658.698 144.597C656.579 145.889 654.8 147.668 653.508 149.787C654.584 149.151 655.567 148.371 656.432 147.469Z" fill="white"/>
<path d="M634.91 114.581C633.492 117.47 632.004 120.308 630.516 123.231C630.77 121.882 630.978 120.515 631.139 119.131H631.035C630.828 120.204 630.568 121.277 630.361 122.349C630.274 122.868 630.17 123.387 630.066 123.906C630.066 124.01 630.066 124.114 630.066 124.235C628.907 126.449 627.766 128.681 626.606 130.93C625.292 133.629 624.063 136.345 622.818 139.061C621.572 141.777 620.413 145.099 619.012 147.849C620.204 148.346 621.445 148.717 622.714 148.957C623.043 149.078 623.216 148.749 622.87 148.697C622.524 148.645 619.686 147.521 619.652 147.503C620.897 144.753 622.437 142.158 623.752 139.459C625.067 136.76 626.416 134.096 627.679 131.38C630.239 125.878 632.488 120.221 635.032 114.703C635.032 114.564 634.91 114.512 634.91 114.581Z" fill="#263238"/>
<path d="M661.016 127.695C660.67 128.819 660.272 129.944 659.978 131.155C659.875 131.639 659.754 132.106 659.632 132.591C659.771 128.646 659.898 124.713 660.013 120.792C659.477 127.228 658.923 133.646 658.508 140.082C657.906 146.245 657.623 152.435 657.66 158.627C656.523 158.358 655.366 158.178 654.2 158.091C655.458 158.625 656.777 159.003 658.127 159.215C659.079 152.987 659.148 146.102 659.459 139.839C659.546 138.109 659.598 136.379 659.667 134.528C659.875 133.438 660.186 132.366 660.48 131.293C660.774 130.221 660.999 128.975 661.241 127.833C661.155 127.66 661.034 127.626 661.016 127.695Z" fill="#263238"/>
<path d="M655.86 153.005C650.515 151.102 628.371 144.113 623.492 142.919C623.146 142.832 623.008 143.023 623.354 143.144C633.967 147.088 644.791 150.443 655.774 153.195C655.912 153.247 655.999 153.039 655.86 153.005Z" fill="#263238"/>
<path d="M469.869 147.14C475.059 148.732 474.003 141.639 474.003 141.639C474.003 141.639 478.069 151.465 484.106 151.033C490.144 150.6 488.276 142.071 488.172 141.448C488.38 141.967 492.359 150.894 498.379 149.839C504.399 148.784 501.51 140.445 501.303 139.926C501.666 140.341 506.493 145.86 510.921 144.009C518.464 140.826 506.423 126.363 507.306 119.789L517.911 120.1C518.259 120.066 518.606 120.014 518.949 119.944L519.347 114.53C515.958 113.154 512.683 111.511 509.555 109.616C505.558 107.367 501.701 105.326 498.829 105.257C497.54 105.188 496.264 105.536 495.189 106.25C494.114 106.963 493.297 108.004 492.86 109.218C492.86 109.218 489.746 104.305 484.971 104.997C482.532 105.361 480.941 109.599 480.941 109.599C480.174 108.514 479.121 107.663 477.899 107.141C476.677 106.618 475.335 106.445 474.021 106.641C470.664 107.333 469.592 111.485 469.592 111.485C469.592 111.485 465.336 108.976 462.135 110.81C455.717 114.374 458.658 143.68 469.869 147.14Z" fill="#EB9481"/>
<path d="M508.62 119.166L517.858 120.014C518.207 119.98 518.553 119.928 518.896 119.858C530.557 117.747 537.823 104.392 529.276 103.44C522.858 102.696 515.903 111.225 509.416 109.513L508.62 119.166Z" fill="#EB9481"/>
<path d="M469.366 112.021H469.21C467.74 122.254 469.417 132.693 474.02 141.95C474.176 142.244 474.712 142.106 474.608 141.76C471.425 132.154 469.659 122.136 469.366 112.021Z" fill="#263238"/>
<path d="M480.941 109.374C480.941 109.253 480.75 109.253 480.733 109.374C479.175 120.657 481.703 132.126 487.861 141.708C488.086 142.037 488.622 142.106 488.38 141.708C484.539 135.03 480.941 118.872 480.941 109.374Z" fill="#263238"/>
<path d="M501.995 140.341C496.026 130.93 493.656 120.55 492.774 109.547C492.774 109.409 492.566 109.443 492.532 109.547C491.511 115.049 492.808 122.003 494.262 127.332C495.531 132.3 498.078 136.851 501.649 140.531C501.822 140.687 502.133 140.549 501.995 140.341Z" fill="#263238"/>
<path d="M355.861 534.66C352.28 535.854 249.743 535.56 245.833 533.086C244.362 532.152 243.532 517.204 243.048 499.126C242.927 495.233 242.857 491.202 242.788 487.102C242.788 482.258 242.65 477.345 242.615 472.57C242.494 451.153 242.788 432.296 242.788 432.296H309.549V472.57V487.102L309.203 499.126C309.203 499.126 348.405 516.806 352.453 519.99C356.501 523.173 359.442 533.553 355.861 534.66Z" fill="#AD6359"/>
<path d="M355.861 534.66C352.28 535.854 249.743 535.56 245.833 533.086C244.363 532.151 243.532 517.204 243.048 499.126C242.927 495.233 242.857 491.202 242.788 487.102C242.788 482.258 242.65 477.345 242.615 472.57H309.514V487.102L309.168 499.126C309.168 499.126 348.37 516.806 352.418 519.99C356.467 523.173 359.442 533.553 355.861 534.66Z" fill="white"/>
<path d="M356.173 534.885C353.837 535.663 310.172 535.819 278.323 535.162C270.953 534.989 264.223 534.798 258.808 534.556C251.317 534.21 246.3 533.812 245.487 533.293C243.671 532.134 242.823 510.198 242.408 487.05H309.48L309.134 499.16C309.134 499.16 348.561 516.945 352.574 520.145C356.588 523.346 359.84 533.674 356.173 534.885Z" fill="#4648BC"/>
<path d="M354.65 530.767C337.35 530.283 267.631 530.006 250.504 530.854C250.366 530.854 250.366 530.94 250.504 530.958C267.631 531.805 337.367 531.511 354.65 531.044C355.065 531.027 355.083 530.767 354.65 530.767Z" fill="#263238"/>
<path d="M311.642 495.32C304.844 494.04 296.522 495.06 291.315 499.887C291.107 500.077 291.315 500.354 291.609 500.285C298.114 498.201 304.825 496.826 311.625 496.185C311.74 496.187 311.851 496.144 311.933 496.064C312.016 495.985 312.064 495.876 312.066 495.761C312.069 495.646 312.025 495.535 311.946 495.453C311.866 495.37 311.757 495.322 311.642 495.32Z" fill="#263238"/>
<path d="M316.59 498.33C309.791 497.032 301.47 498.053 296.245 502.897C296.055 503.07 296.245 503.364 296.539 503.295C303.055 501.199 309.777 499.812 316.59 499.16C316.68 499.134 316.759 499.08 316.815 499.005C316.871 498.93 316.902 498.839 316.902 498.745C316.902 498.652 316.871 498.56 316.815 498.486C316.759 498.411 316.68 498.356 316.59 498.33Z" fill="#263238"/>
<path d="M321.451 501.271C314.652 499.973 306.331 500.994 301.124 505.821C300.916 506.011 301.124 506.305 301.401 506.236C307.908 504.158 314.618 502.778 321.417 502.119C321.516 502.103 321.606 502.054 321.673 501.979C321.739 501.904 321.778 501.809 321.782 501.709C321.786 501.609 321.755 501.511 321.695 501.431C321.635 501.351 321.549 501.294 321.451 501.271Z" fill="#263238"/>
<path d="M326.347 504.247C319.548 502.949 311.227 503.97 306.019 508.796C305.812 508.987 306.019 509.281 306.314 509.212C312.812 507.124 319.517 505.743 326.312 505.094C326.411 505.079 326.502 505.03 326.568 504.955C326.635 504.88 326.674 504.785 326.678 504.685C326.682 504.585 326.651 504.486 326.591 504.406C326.53 504.327 326.444 504.27 326.347 504.247Z" fill="#263238"/>
<path d="M324.254 479.629C321.59 475.944 316.607 477.587 313.77 479.957C308.959 484.135 305.332 489.505 303.252 495.527C303.24 495.554 303.236 495.582 303.238 495.61C303.24 495.639 303.249 495.666 303.265 495.69C303.28 495.714 303.301 495.734 303.326 495.748C303.351 495.762 303.379 495.769 303.407 495.77C303.407 496.289 303.892 496.842 304.463 496.617C310.085 494.559 316.365 493.054 321.175 489.317C323.994 487.137 326.78 483.123 324.254 479.629ZM312.352 491.739C309.618 492.811 306.833 493.763 304.134 494.939C306.097 491.852 308.216 488.866 310.483 485.995C311.593 484.617 312.801 483.322 314.099 482.12C316.123 480.269 324.15 476.376 322.922 483.85C322.247 487.95 315.621 490.441 312.352 491.739Z" fill="#263238"/>
<path d="M285.969 493.676C291.557 496.081 298.079 495.977 303.961 496.583C304.093 496.582 304.224 496.551 304.342 496.492C304.461 496.433 304.564 496.347 304.644 496.242C304.724 496.137 304.779 496.014 304.805 495.884C304.83 495.755 304.826 495.621 304.791 495.493C304.813 495.477 304.83 495.456 304.842 495.432C304.854 495.408 304.861 495.381 304.861 495.354C304.861 495.328 304.854 495.301 304.842 495.277C304.83 495.253 304.813 495.232 304.791 495.216C301.3 489.914 296.481 485.619 290.813 482.76C287.457 481.168 282.163 480.822 280.571 485.061C278.98 489.299 282.699 492.275 285.969 493.676ZM282.907 488.832C279.862 481.912 288.599 483.642 291.021 484.94C292.573 485.801 294.07 486.76 295.501 487.812C298.413 490.023 301.208 492.385 303.874 494.887C300.968 494.42 298.044 494.195 295.121 493.832C291.626 493.399 284.585 492.638 282.907 488.832Z" fill="#263238"/>
<path d="M319.029 482.345L236.301 483.833C236.301 483.833 225.038 410.636 217.634 365.12C214.831 348.01 212.617 334.793 211.717 330.814C209.572 321.316 167.654 170.564 167.654 170.564L227.789 170.478H248.341C248.341 170.478 247.027 195.684 247.805 198.331C258.531 234.816 280.45 299.518 287.301 322.06C297.802 356.712 319.029 482.345 319.029 482.345Z" fill="#A6A6A6"/>
<path d="M311.504 469.664C299.636 469.577 257.528 469.11 241.716 470.581C241.693 470.59 241.674 470.605 241.66 470.625C241.647 470.645 241.64 470.669 241.64 470.693C241.64 470.717 241.647 470.741 241.66 470.761C241.674 470.781 241.693 470.797 241.716 470.806C247.165 471.584 299.636 470.373 311.521 469.993C311.548 470 311.575 470 311.602 469.995C311.629 469.989 311.654 469.977 311.675 469.96C311.696 469.943 311.713 469.921 311.724 469.896C311.735 469.871 311.74 469.844 311.739 469.816C311.737 469.789 311.729 469.763 311.716 469.739C311.702 469.715 311.683 469.695 311.66 469.68C311.637 469.665 311.611 469.656 311.584 469.653C311.557 469.651 311.529 469.654 311.504 469.664Z" fill="#263238"/>
<path d="M237.65 407.28C234.79 388.354 231.601 369.474 228.083 350.64C226.353 341.384 224.467 332.146 222.045 322.96C219.623 313.774 216.544 304.691 213.395 295.678C207.202 277.755 201.285 259.746 195.732 241.615C190.179 223.485 185.006 205.285 180.162 186.93C179.539 184.612 178.934 182.294 178.259 180.01C178.259 179.82 177.93 179.906 177.965 180.01C179.851 189.248 182.29 198.4 184.625 207.534C186.961 216.669 189.469 225.769 192.082 234.834C197.341 253.033 203.044 271.106 209.191 289.052C212.254 297.979 215.437 306.888 218.153 315.936C220.869 324.984 222.98 334.153 224.865 343.391C228.689 362.144 231.941 381.019 234.951 399.893C237.961 418.767 240.539 437.953 243.065 456.983C243.394 459.388 243.705 461.81 244.016 464.232C244.103 464.906 245.175 464.906 245.106 464.232C243.151 445.254 240.47 426.241 237.65 407.28Z" fill="#263238"/>
<path d="M227.789 170.443L217.634 365.12C214.831 348.01 212.617 334.793 211.717 330.814C209.572 321.316 167.654 170.564 167.654 170.564L227.789 170.443Z" fill="#263238"/>
<path d="M253.255 551.06C249.673 552.254 147.136 551.96 143.227 549.469C141.756 548.552 140.926 533.605 140.441 515.526C140.32 511.616 140.251 507.603 140.182 503.503C140.182 498.641 140.043 493.746 140.009 488.971C139.888 467.553 140.182 448.696 140.182 448.696H206.925V503.52L206.579 515.544C206.579 515.544 245.781 533.224 249.829 536.407C253.877 539.591 256.836 549.884 253.255 551.06Z" fill="#AD6359"/>
<path d="M253.255 551.06C249.673 552.254 147.136 551.96 143.227 549.469C141.756 548.552 140.926 533.605 140.441 515.526C140.32 511.616 140.251 507.603 140.182 503.503C140.182 498.641 140.043 493.746 140.009 488.971H206.908V503.52L206.562 515.544C206.562 515.544 245.764 533.224 249.812 536.407C253.86 539.591 256.836 549.884 253.255 551.06Z" fill="white"/>
<path d="M253.566 551.216C251.23 551.977 207.548 552.133 175.716 551.476C168.363 551.32 161.634 551.112 156.201 550.887C148.728 550.541 143.711 550.126 142.88 549.607C141.15 548.448 140.216 526.529 139.818 503.382H206.89L206.544 515.492C206.544 515.492 246.006 533.259 250.019 536.39C254.033 539.521 257.164 550.005 253.566 551.216Z" fill="#4648BC"/>
<path d="M252.096 547.081C234.796 546.614 165.059 546.32 147.95 547.168C147.811 547.168 147.811 547.272 147.95 547.289C165.059 548.119 234.813 547.843 252.096 547.376C252.459 547.358 252.459 547.099 252.096 547.081Z" fill="#263238"/>
<path d="M209.036 511.651C202.237 510.353 193.916 511.374 188.708 516.201C188.501 516.391 188.708 516.685 188.985 516.616C195.492 514.538 202.202 513.158 209.001 512.499C209.1 512.483 209.191 512.434 209.257 512.359C209.324 512.284 209.362 512.189 209.366 512.089C209.371 511.989 209.34 511.891 209.28 511.811C209.219 511.731 209.133 511.674 209.036 511.651Z" fill="#263238"/>
<path d="M213.932 514.627C207.133 513.329 198.812 514.35 193.604 519.176C193.397 519.367 193.604 519.661 193.899 519.592C200.403 517.502 207.114 516.122 213.915 515.474C214.013 515.457 214.102 515.405 214.167 515.329C214.232 515.253 214.268 515.157 214.27 515.058C214.272 514.958 214.24 514.86 214.178 514.782C214.116 514.703 214.029 514.648 213.932 514.627Z" fill="#263238"/>
<path d="M218.845 517.585C212.046 516.305 203.725 517.325 198.5 522.152C198.31 522.342 198.5 522.619 198.794 522.55C205.302 520.476 212.012 519.101 218.81 518.45C218.925 518.454 219.037 518.413 219.121 518.335C219.206 518.258 219.256 518.149 219.26 518.035C219.265 517.92 219.224 517.808 219.146 517.724C219.068 517.639 218.96 517.589 218.845 517.585Z" fill="#263238"/>
<path d="M223.741 520.561C216.942 519.28 208.621 520.301 203.413 525.128C203.206 525.318 203.413 525.595 203.69 525.526C210.198 523.453 216.908 522.079 223.706 521.426C223.821 521.43 223.933 521.389 224.017 521.311C224.102 521.233 224.152 521.125 224.156 521.01C224.161 520.896 224.12 520.784 224.042 520.699C223.964 520.615 223.856 520.565 223.741 520.561Z" fill="#263238"/>
<path d="M221.647 495.96C218.983 492.258 214.001 493.901 211.146 496.289C206.335 500.466 202.708 505.836 200.628 511.859C200.62 511.886 200.619 511.915 200.623 511.943C200.628 511.971 200.639 511.998 200.656 512.021C200.673 512.045 200.694 512.064 200.719 512.078C200.744 512.091 200.772 512.099 200.801 512.101C200.793 512.233 200.817 512.365 200.871 512.486C200.925 512.607 201.007 512.714 201.11 512.797C201.213 512.88 201.335 512.937 201.465 512.963C201.594 512.99 201.729 512.985 201.856 512.949C207.479 510.89 213.741 509.385 218.568 505.648C221.44 503.52 224.156 499.437 221.647 495.96ZM209.745 508.07C206.994 509.16 204.226 510.094 201.527 511.288C203.586 508.26 205.506 505.164 207.859 502.344C208.978 500.969 210.186 499.668 211.475 498.451C213.516 496.617 221.526 492.725 220.315 500.181C219.71 504.281 213.015 506.772 209.745 508.053V508.07Z" fill="#263238"/>
<path d="M183.38 510.007C188.985 512.412 195.49 512.308 201.389 512.914C201.523 512.915 201.656 512.884 201.776 512.824C201.896 512.764 201.999 512.676 202.079 512.568C202.158 512.46 202.211 512.335 202.232 512.202C202.254 512.07 202.244 511.934 202.202 511.807C202.229 511.798 202.254 511.783 202.274 511.763C202.295 511.744 202.31 511.72 202.32 511.693C202.33 511.667 202.334 511.638 202.332 511.61C202.329 511.582 202.321 511.554 202.306 511.53C198.781 506.234 193.932 501.952 188.241 499.109C184.885 497.517 179.591 497.171 178 501.409C176.408 505.648 180.076 508.606 183.38 510.007ZM180.335 505.146C177.29 498.226 186.027 499.956 188.449 501.271C190.005 502.12 191.502 503.074 192.93 504.126C195.838 506.348 198.632 508.715 201.303 511.219C198.379 510.734 195.455 510.526 192.532 510.163C189.02 509.731 181.979 508.97 180.301 505.146H180.335Z" fill="#263238"/>
<path d="M216.25 497.69H135.303C135.303 497.69 152.897 246.702 150.06 232.637C145.406 209.61 148.503 183.159 159.402 170.357H231.422C231.422 170.357 232.858 190.563 225.419 202.638C225.419 202.638 218.655 206.912 215.385 208.797L216.25 497.69Z" fill="#A6A6A6"/>
<path d="M208.707 484.594C197.497 484.317 200.732 484.231 189.504 484.075C184.02 483.988 147.984 483.487 142.794 484.3C142.673 484.3 142.673 484.507 142.794 484.525C147.984 485.407 184.003 485.286 189.504 485.251C200.715 485.251 197.497 485.096 208.707 484.923C208.742 484.911 208.772 484.889 208.794 484.86C208.815 484.83 208.826 484.795 208.826 484.758C208.826 484.722 208.815 484.686 208.794 484.657C208.772 484.627 208.742 484.605 208.707 484.594Z" fill="#263238"/>
<path d="M229.917 199.472C222.836 202.886 216.059 206.897 209.659 211.461C209.606 211.493 209.568 211.545 209.553 211.605C209.539 211.665 209.549 211.729 209.581 211.781C209.613 211.834 209.665 211.872 209.725 211.887C209.785 211.901 209.848 211.891 209.901 211.859C216.821 208.071 223.741 204.403 230.384 200.251C230.487 200.189 230.562 200.089 230.591 199.972C230.62 199.855 230.602 199.731 230.54 199.628C230.478 199.525 230.377 199.451 230.261 199.421C230.144 199.392 230.02 199.411 229.917 199.472Z" fill="#263238"/>
<path d="M220.731 198.434C220.32 199.832 219.997 201.253 219.762 202.69C219.468 203.819 219.392 204.993 219.537 206.15C219.537 206.375 219.9 206.358 220.004 206.15C220.547 205.06 220.92 203.893 221.111 202.69C221.457 201.358 221.838 200.043 222.132 198.711C222.34 197.864 221.007 197.569 220.731 198.434Z" fill="#263238"/>
<path d="M220.091 191.497C220.281 190.286 220.471 189.093 220.696 187.899C220.921 186.705 221.232 185.408 221.354 184.162C221.354 183.954 221.7 184.024 221.665 184.162C221.475 185.373 221.457 186.619 221.354 187.83C221.25 189.041 221.146 190.269 221.025 191.48C220.781 193.763 220.423 196.032 219.952 198.279C221.147 198.075 222.282 197.609 223.274 196.912C224.194 195.965 224.798 194.756 225.004 193.452C225.35 192.068 225.661 190.684 226.025 189.3C226.515 187.801 226.868 186.261 227.08 184.698C227.08 184.491 227.426 184.56 227.391 184.698C227.11 187.987 226.496 191.239 225.558 194.404C225.355 195.659 224.711 196.8 223.741 197.621C222.492 198.288 221.121 198.694 219.71 198.815C219.554 198.815 219.312 198.815 219.329 198.625C219.465 196.238 219.719 193.859 220.091 191.497Z" fill="#263238"/>
<path d="M161.755 231.72C161.236 226.426 160.371 221.167 159.8 215.873C158.718 205.275 159.361 194.572 161.703 184.179C161.703 183.989 161.444 183.903 161.409 184.179C159.361 193.306 158.408 202.645 158.572 211.998C159.039 221.34 160.7 230.543 160.838 239.903C160.977 249.262 160.25 258.846 159.644 268.292C159.039 277.738 158.416 287.322 157.811 296.82C155.354 335.035 153.088 373.251 150.752 411.484C150.106 422.141 149.484 432.809 148.884 443.489C148.261 454.336 147.5 465.201 147.154 476.082C147.154 477.016 148.503 476.947 148.59 476.082C150.216 456.897 151.15 437.642 152.378 418.456C153.607 399.27 154.697 380.396 155.838 361.366C156.98 342.336 158.139 323.306 159.298 304.276C159.852 294.772 160.429 285.269 161.028 275.766C161.582 266.302 162.274 256.822 162.412 247.342C162.489 242.126 162.269 236.91 161.755 231.72Z" fill="#263238"/>
<path d="M187.255 183.47C187.24 183.445 187.218 183.424 187.193 183.41C187.167 183.396 187.138 183.388 187.108 183.388C187.079 183.388 187.05 183.396 187.024 183.41C186.998 183.424 186.977 183.445 186.961 183.47C186.532 184.724 186.304 186.037 186.287 187.362C186.063 188.781 185.733 190.18 185.301 191.549C184.506 194.302 183.017 196.804 180.976 198.815C176.443 203.054 170.371 204.628 164.523 206.047C164.485 206.059 164.451 206.083 164.427 206.115C164.403 206.148 164.39 206.188 164.39 206.228C164.39 206.269 164.403 206.308 164.427 206.341C164.451 206.374 164.485 206.398 164.523 206.41C167.998 206.566 171.468 206.025 174.73 204.818C177.64 203.929 180.324 202.424 182.602 200.407C184.776 198.338 186.262 195.65 186.858 192.708C187.167 191.17 187.329 189.606 187.342 188.037C187.342 187.293 187.342 186.549 187.342 185.788C187.466 185.017 187.436 184.23 187.255 183.47Z" fill="#263238"/>
<path d="M221.163 86.3824C222.651 98.1464 245.695 141.881 270.226 161.257C279.222 168.367 326.918 172.571 338.855 171.637C352.816 170.564 354.91 137.331 347.09 134.736C337.315 131.501 292.093 127.505 283.218 124.356C272.423 120.446 252.77 95.3438 234.086 79.8084C224.485 71.7639 220.021 77.3345 221.163 86.3824Z" fill="#AD6359"/>
<path d="M338.855 171.654C343.266 171.533 363.456 169.215 368.94 167.312C374.424 165.409 389.7 158.8 388.731 154.458C387.762 150.116 383.056 151.69 383.056 151.69C383.056 151.69 389.094 147.867 387.658 143.594C386.222 139.32 379.008 142.019 379.008 142.019C379.008 142.019 384.925 137.642 383.178 133.473C381.43 129.304 374.701 133.231 374.701 133.231C374.701 133.231 380.306 129.477 377.434 126.639C373.974 123.179 364.424 131.328 358.231 132.971C356.812 133.352 329.132 138.525 329.132 138.525L338.855 171.654Z" fill="#AD6359"/>
<path d="M375.41 132.902C368.369 138.819 364.269 140.203 355.308 141.431C355.277 141.442 355.251 141.462 355.232 141.488C355.213 141.514 355.203 141.546 355.203 141.578C355.203 141.61 355.213 141.642 355.232 141.668C355.251 141.695 355.277 141.714 355.308 141.725C364.183 141.31 369.58 140.324 375.704 133.231C375.964 132.885 375.687 132.625 375.41 132.902Z" fill="#263238"/>
<path d="M379.614 141.535C371.777 147.14 367.348 148.576 358.11 150.6C357.989 150.6 358.024 150.859 358.11 150.842C367.383 149.648 372.746 148.541 379.856 142.002C380.15 141.673 379.977 141.275 379.614 141.535Z" fill="#263238"/>
<path d="M382.572 151.776C374.597 156.568 369.805 158.454 360.532 159.233C360.486 159.233 360.442 159.251 360.41 159.283C360.377 159.316 360.359 159.36 360.359 159.406C360.359 159.452 360.377 159.496 360.41 159.528C360.442 159.56 360.486 159.579 360.532 159.579C368.617 160.066 376.569 157.357 382.676 152.036C383.143 151.673 383.074 151.482 382.572 151.776Z" fill="#263238"/>
<path d="M322.731 134.892C327.391 131.88 332.266 129.215 337.315 126.916C342.194 125.186 362.781 125.186 363.006 129.65C363.317 135.393 351.432 137.694 345.464 138.075C345.464 138.075 346.208 151.344 338.025 154.856C329.842 158.368 322.731 134.892 322.731 134.892Z" fill="#AD6359"/>
<path d="M362.591 131.259C359.131 136.691 351.224 136.673 345.464 137.469C345.376 137.474 345.292 137.5 345.217 137.546C345.143 137.592 345.082 137.655 345.038 137.731C344.995 137.807 344.972 137.893 344.971 137.98C344.97 138.067 344.99 138.153 345.031 138.23C345.031 143.818 343.301 151.673 338.371 154.977C338.215 155.081 338.371 155.306 338.492 155.219C344.218 152.382 346.536 144.839 346.207 138.663C352.124 137.954 360.047 137.625 362.642 131.276C362.66 131.241 362.608 131.224 362.591 131.259Z" fill="#263238"/>
<path d="M297.647 171.014C297.647 171.014 273.219 164.336 270.243 162.001C266.997 159.449 263.901 156.711 260.971 153.801C238.74 131.951 225.315 102.16 221.682 91.78C217.842 80.7253 221.371 70.1377 231.664 77.2653C232.493 77.8516 233.29 78.481 234.052 79.151C246.162 89.704 278.547 121.796 282.492 123.439C286.436 125.083 305.449 127.574 305.449 127.574L297.647 171.014Z" fill="#455A64"/>
<path d="M260.971 153.801C238.74 131.951 225.315 102.16 221.682 91.78C217.842 80.7253 221.371 70.1377 231.664 77.2653L260.971 153.801Z" fill="#263238"/>
<path d="M297.56 126.813C296.423 130.151 295.481 133.554 294.74 137.002C293.892 140.462 293.01 143.922 292.301 147.382C290.76 154.168 289.605 161.036 288.841 167.952C288.841 167.993 288.857 168.033 288.886 168.062C288.916 168.091 288.955 168.108 288.997 168.108C289.038 168.108 289.077 168.091 289.107 168.062C289.136 168.033 289.152 167.993 289.152 167.952C291.021 161.17 292.405 154.233 293.823 147.348C294.533 143.888 295.173 140.531 295.882 137.141C296.591 133.75 297.439 130.221 297.819 126.864C297.826 126.83 297.819 126.794 297.8 126.765C297.78 126.736 297.75 126.716 297.716 126.709C297.681 126.702 297.646 126.709 297.616 126.728C297.587 126.748 297.567 126.778 297.56 126.813Z" fill="#263238"/>
<path d="M244.864 110.343C245.435 112.903 245.885 115.533 246.231 118.232C246.222 118.128 246.222 118.024 246.231 117.92C246.369 116.45 246.473 114.945 246.732 113.492C246.732 113.492 246.871 113.405 246.871 113.492C246.96 114.987 246.902 116.488 246.698 117.972C246.611 118.682 246.525 119.391 246.421 120.083C246.542 121.277 246.646 122.47 246.715 123.647C246.854 125.896 247.286 135.497 247.234 137.141C247.234 137.487 246.836 137.521 246.75 137.141C246.421 135.411 245.556 125.567 245.314 123.301C244.861 118.979 244.642 114.636 244.656 110.291C244.691 110.239 244.829 110.256 244.864 110.343Z" fill="#263238"/>
<path d="M247.615 182.207C244.155 185.321 239.934 189.871 215.645 191.566C214.122 191.566 212.565 191.687 211.008 191.566C187.619 190.909 154.801 172.536 152.846 171.083C152.846 171.083 178.052 102.887 211.389 76.7117C216.146 72.9576 226.353 74.8087 232.737 78.6666C235.021 80.0506 242.564 92.6623 244.086 104.149C245.608 115.637 251.058 179.093 247.615 182.207Z" fill="#455A64"/>
<path d="M228.671 95.759C222.789 96.2434 214.364 86.071 211.596 78.459C211.406 77.94 212.928 72.9749 214.485 66.8507C215.42 63.1312 216.371 58.9792 216.959 55.1213C217.08 54.3255 219.554 56.1939 219.554 56.1939L224.364 58.1661L240.28 64.7055C238.153 69.319 236.602 74.1763 235.661 79.1683C235.609 79.7092 235.609 80.2536 235.661 80.7945C235.668 80.8808 235.668 80.9677 235.661 81.054C235.609 84.1161 234.346 95.24 228.671 95.759Z" fill="#AD6359"/>
<path d="M235.591 80.7772C235.599 80.8635 235.599 80.9504 235.591 81.0367C234.75 81.026 233.911 80.945 233.083 80.7945C216.821 77.94 217.98 56.8859 217.98 56.8859L224.381 58.1488L240.297 64.6882C238.17 69.3016 236.619 74.159 235.678 79.151C235.598 79.6891 235.569 80.2336 235.591 80.7772Z" fill="#263238"/>
<path d="M215.316 29.7768C212.219 38.323 215.524 63.6156 221.406 69.5668C229.934 78.2168 244.553 79.6527 251.975 69.2381C259.189 59.1695 254.293 26.2649 247.667 20.7981C237.892 12.7882 219.883 17.1651 215.316 29.7768Z" fill="#AD6359"/>
<path d="M238.36 47.2844C238.36 47.2844 238.238 47.3882 238.256 47.4574C238.515 49.1874 238.55 51.1423 237.062 51.9035C237.062 51.9035 237.062 52.0073 237.062 51.99C238.948 51.4883 238.896 48.8414 238.36 47.2844Z" fill="#263238"/>
<path d="M236.612 45.6928C233.844 45.8312 234.328 51.3499 236.889 51.2288C239.449 51.1077 238.93 45.5717 236.612 45.6928Z" fill="#263238"/>
<path d="M248.843 46.1426C248.843 46.1426 248.982 46.1426 248.982 46.281C249.085 48.011 249.483 49.9486 251.075 50.3984C249.12 50.3811 248.653 47.7861 248.843 46.1426Z" fill="#263238"/>
<path d="M250.227 44.2223C252.961 43.7898 253.687 49.2912 251.11 49.7064C248.532 50.1216 247.926 44.6029 250.227 44.2223Z" fill="#263238"/>
<path d="M234.467 41.61C235.193 41.3505 235.833 40.9872 236.543 40.6585C237.314 40.4335 237.99 39.959 238.463 39.3091C238.578 39.0763 238.611 38.8117 238.558 38.5576C238.505 38.3035 238.368 38.0747 238.169 37.9078C237.719 37.6481 237.209 37.5115 236.69 37.5115C236.17 37.5115 235.66 37.6481 235.211 37.9078C234.218 38.2826 233.402 39.0176 232.927 39.9665C232.84 40.186 232.818 40.4255 232.862 40.6573C232.906 40.8891 233.015 41.1036 233.176 41.2758C233.338 41.448 233.545 41.5708 233.773 41.63C234.002 41.6891 234.242 41.6822 234.467 41.61Z" fill="#263238"/>
<path d="M251.957 42.3539C251.201 42.2706 250.45 42.1435 249.708 41.9733C248.899 41.9473 248.121 41.6555 247.494 41.1429C247.339 40.9387 247.256 40.6896 247.256 40.4336C247.256 40.1776 247.339 39.9286 247.494 39.7243C247.85 39.3462 248.302 39.0722 248.802 38.932C249.302 38.7918 249.83 38.7906 250.331 38.9285C251.39 39.0381 252.37 39.5376 253.082 40.3298C253.231 40.5251 253.32 40.7598 253.338 41.005C253.356 41.2502 253.302 41.4953 253.182 41.7102C253.063 41.9251 252.883 42.1005 252.666 42.2148C252.448 42.3292 252.202 42.3775 251.957 42.3539Z" fill="#263238"/>
<path d="M246.439 55.45C246.612 56.695 246.722 57.948 246.767 59.2041C244.427 59.2136 242.1 59.5395 239.847 60.1729C239.328 60.3459 239.328 59.8961 239.847 59.5501C241.609 58.5014 243.649 58.0127 245.695 58.1488C245.695 57.8201 245.106 54.239 245.297 54.2217C246.226 54.3163 247.139 54.5315 248.013 54.8618C247.477 49.5334 246.093 44.3261 245.625 39.015C245.625 38.8247 245.885 38.7555 245.937 38.9285C247.608 44.4595 248.716 50.1456 249.241 55.8998C249.397 56.5745 246.923 55.6403 246.439 55.45Z" fill="#263238"/>
<path d="M217.15 50.8655C221.509 50.5541 220.956 39.8973 220.956 39.8973C220.956 39.8973 227.599 38.6171 230.73 29.5173C230.73 29.5173 239.38 34.7073 246.525 33.3925C257.735 31.2127 257.251 16.5942 253.013 13.6705C246.992 9.5185 236.439 15.7984 236.439 15.7984C236.439 15.7984 220.316 11.5253 215.679 22.4589C213.598 22.6295 211.658 23.5831 210.252 25.1274C208.846 26.6717 208.077 28.6917 208.102 30.7802C207.687 38.6517 213.915 51.0904 217.15 50.8655Z" fill="#263238"/>
<path d="M219.416 41.1775C222.642 40.5806 225.576 38.9247 227.754 36.4719C228.925 35.146 229.758 33.5571 230.182 31.8403C230.607 30.1235 230.611 28.3295 230.194 26.6109C230.204 26.5804 230.224 26.5539 230.25 26.5352C230.277 26.5164 230.308 26.5064 230.341 26.5064C230.373 26.5064 230.405 26.5164 230.431 26.5352C230.457 26.5539 230.477 26.5804 230.488 26.6109C231.005 28.4103 231.119 30.3019 230.82 32.1503C230.521 33.9987 229.817 35.758 228.758 37.3023C227.7 38.766 226.279 39.9285 224.634 40.6749C222.99 41.4212 221.179 41.7257 219.381 41.5581C219.277 41.4716 219.225 41.2121 219.416 41.1775Z" fill="#263238"/>
<path d="M236.007 16.2828C237.396 13.9889 239.573 12.2793 242.131 11.4734C245.241 10.5907 248.567 10.8864 251.473 12.3038C252.629 12.9096 253.605 13.8088 254.303 14.911C255.001 16.0133 255.398 17.2799 255.452 18.5837C255.487 21.6086 254.479 24.5533 252.597 26.9223C252.597 26.9223 252.442 26.9223 252.493 26.9223C253.995 24.6858 254.762 22.0375 254.691 19.3449C254.644 18.0637 254.235 16.8219 253.513 15.7628C252.791 14.7037 251.783 13.8704 250.608 13.3591C245.971 11.3696 239.224 11.7848 236.249 16.5077C236.162 16.6115 235.903 16.4385 236.007 16.2828Z" fill="#263238"/>
<path d="M219.71 50.4676C219.71 50.4676 214.295 42.1809 210.541 44.1012C206.787 46.0215 210.714 57.9412 214.987 59.6712C215.519 59.931 216.098 60.0807 216.689 60.1112C217.28 60.1418 217.871 60.0525 218.427 59.849C218.983 59.6454 219.492 59.3316 219.923 58.9265C220.355 58.5214 220.7 58.0332 220.938 57.4914L219.71 50.4676Z" fill="#AD6359"/>
<path d="M211.666 47.4747C211.666 47.4747 211.666 47.5612 211.666 47.5958C213.033 48.3313 214.231 49.3457 215.182 50.5736C216.132 51.8014 216.815 53.2152 217.184 54.7234C217.019 54.4127 216.787 54.1419 216.506 53.9299C216.225 53.7178 215.901 53.5695 215.557 53.4954C215.213 53.4213 214.857 53.4231 214.513 53.5008C214.17 53.5784 213.847 53.73 213.569 53.9449C213.569 53.9449 213.569 54.1179 213.569 54.1006C214.106 53.948 214.677 53.9658 215.204 54.1518C215.731 54.3377 216.187 54.6825 216.51 55.1386C217.046 55.9066 217.499 56.7302 217.859 57.5952C217.997 57.872 218.482 57.7336 218.395 57.4222C218.637 53.4951 215.8 47.9937 211.666 47.4747Z" fill="#263238"/>
<path d="M56.5191 583.654H0V573.274H56.5191C101.291 573.274 114.059 534.954 116.879 502.811C119.093 477.639 120.443 446.984 121.878 414.581C127.259 293.169 132.829 167.623 181.685 167.623H226.457V178.003H181.65C142.725 178.003 136.67 315.002 132.224 415.013C130.771 447.589 129.404 478.349 127.19 503.762C122.692 555.264 97.5893 583.654 56.5191 583.654Z" fill="#FFA45A"/>
<path opacity="0.2" d="M226.457 167.571V177.951H190.75L188.535 167.571H226.457Z" fill="black"/>
<path d="M381.776 239.816H400.841V106.641H381.776V239.816Z" fill="#FFA45A"/>
<path d="M381.777 112.955H309.324V232.118H381.777V112.955Z" fill="#FFA45A"/>
<path opacity="0.2" d="M381.776 112.955V232.118H363.784L355.705 112.955H381.776Z" fill="black"/>
<path d="M199.573 183.366H253.324V162.139H199.573V183.366Z" fill="#4648BC"/>
<path d="M253.324 162.156H199.573V183.383H253.324V162.156Z" fill="#4648BC"/>
<path opacity="0.2" d="M234.45 183.366L236.214 162.156H253.324V183.366H234.45Z" fill="black"/>
<path d="M309.324 225.059H263.964C261.142 225.059 258.436 223.938 256.44 221.943C254.445 219.948 253.324 217.242 253.324 214.42V132.003C253.324 129.181 254.445 126.475 256.44 124.479C258.436 122.484 261.142 121.363 263.964 121.363H309.324V225.059Z" fill="#FFA45A"/>
<path opacity="0.2" d="M285.484 225.059L293.563 121.38H309.324V225.059H285.484Z" fill="black"/>
<g opacity="0.2">
<path d="M289.654 204.092H293.235V142.331H289.654V204.092Z" fill="black"/>
<path d="M279.533 204.092H283.114V142.331H279.533V204.092Z" fill="black"/>
<path d="M269.395 204.092H272.977V142.331H269.395V204.092Z" fill="black"/>
</g>
<path d="M196.268 100.689C194.538 125.671 192.566 176.55 203.604 191.48C218.084 211.063 258.964 222.949 271.074 226.512C276.264 228.052 288.702 193.642 285.623 188.695C282.544 183.747 240.349 173.125 237.027 170.218C233.706 167.312 223.187 126.761 218.188 106.104C211.717 80.0506 196.978 90.8285 196.268 100.689Z" fill="#AD6359"/>
<path d="M316.797 201.912C323.458 203.503 333.561 200.078 333.89 205.182C334.184 209.714 326.97 211.392 326.97 211.392C326.97 211.392 335.724 212.136 334.651 217.101C333.578 222.066 325.274 222.291 325.274 222.291C325.274 222.291 333.302 223.381 331.866 228.26C330.43 233.138 322.731 233.813 322.731 233.813C322.731 233.813 324.755 235.318 322.195 238.311C318.545 242.601 306.366 242.1 300.086 240.335C293.806 238.57 272.06 227.429 268.755 225.647L279.775 185.165C279.775 185.165 292.422 183.159 298.961 182.916C305.501 182.674 327.247 187.864 326.33 193.296C325.413 198.729 310.102 194.853 306.141 194.715C302.179 194.577 301.487 195.459 303.217 196.912C304.341 197.933 313.839 201.203 316.797 201.912Z" fill="#AD6359"/>
<path d="M326.572 211.306C316.348 213.036 311.573 211.894 302.196 207.846C302.006 207.759 301.85 208.019 302.041 208.122C310.864 212.88 316.659 215.042 326.676 211.773C327.178 211.634 327.074 211.236 326.572 211.306Z" fill="#263238"/>
<path d="M325.673 222.118C314.895 222.897 309.722 221.807 299.584 218.312C299.446 218.312 299.342 218.503 299.48 218.572C309.151 222.81 314.964 224.869 325.638 222.672C326.122 222.585 326.174 222.084 325.673 222.118Z" fill="#263238"/>
<path d="M322.593 233.744C312.092 233.744 306.366 232.775 296.955 228.139C296.911 228.117 296.861 228.113 296.815 228.127C296.769 228.141 296.73 228.172 296.705 228.214C296.681 228.256 296.674 228.305 296.685 228.352C296.696 228.399 296.724 228.44 296.764 228.467C305.899 234.142 313.044 235.387 322.559 234.073C323.199 233.969 323.251 233.744 322.593 233.744Z" fill="#263238"/>
<path d="M239.155 218.399C239.155 218.399 206.164 201.825 201.095 189.127C194.867 173.28 192.324 127.072 194.746 103.371C197.168 79.67 213.672 82.611 218.966 103.561C224.156 124.01 235.868 164.855 237.079 166.776C238.619 169.249 257.441 173.903 257.441 173.903" fill="#455A64"/>
<path d="M235.851 161.482C235.28 159.527 234.276 155.115 233.706 153.212C232.546 149.406 231.387 145.583 230.246 141.777C229.104 137.971 227.875 134.148 226.613 130.359C226.388 129.719 226.18 129.061 225.972 128.421C226.076 128.006 225.609 122.989 225.644 121.761C225.644 121.571 225.332 121.553 225.35 121.761C225.396 122.991 225.355 124.222 225.229 125.446C225.229 125.671 225.229 125.913 225.229 126.138C224.433 123.647 223.637 121.173 222.824 118.751C222.824 118.578 222.478 118.647 222.53 118.751C224.087 123.941 224.848 127.21 225.99 131.414C227.132 135.618 228.308 139.528 229.45 143.524C230.592 147.521 231.924 151.586 233.186 155.634C233.897 158.033 234.728 160.395 235.678 162.71C236.404 164.267 236.439 163.54 235.851 161.482Z" fill="#263238"/>
<path d="M198.639 175.443C197.964 171.17 197.289 166.793 196.77 162.572C195.715 153.922 195.04 145.41 194.66 136.76C194.435 131.812 194.071 126.899 193.795 121.968C193.795 121.918 193.774 121.87 193.739 121.834C193.703 121.798 193.655 121.778 193.604 121.778C193.554 121.778 193.505 121.798 193.47 121.834C193.434 121.87 193.414 121.918 193.414 121.968C193.414 126.363 193.258 130.74 193.414 135.134C193.414 135.774 193.414 136.414 193.414 137.054L193.206 136.154C192.566 133.646 191.667 131.189 191.113 128.646C191.098 128.617 191.073 128.594 191.042 128.581C191.012 128.569 190.978 128.568 190.946 128.578C190.915 128.589 190.888 128.61 190.871 128.638C190.854 128.667 190.848 128.7 190.854 128.733C191.476 131.259 191.805 133.923 192.393 136.397C192.705 137.66 193.016 138.922 193.362 140.185L193.535 140.722C193.639 143.247 193.76 145.773 193.933 148.299C194.402 156.968 195.402 165.599 196.926 174.145C197.971 179.734 199.481 185.226 201.441 190.563C201.451 190.589 201.469 190.612 201.492 190.628C201.515 190.645 201.543 190.653 201.571 190.653C201.599 190.653 201.627 190.645 201.65 190.628C201.673 190.612 201.691 190.589 201.701 190.563C200.68 186.29 199.331 179.716 198.639 175.443Z" fill="#263238"/>
<path d="M251.317 173.886C249.51 176.992 247.893 180.204 246.473 183.505C244.951 186.757 243.411 190.009 241.975 193.296C239.064 199.769 236.516 206.4 234.346 213.157C234.342 213.195 234.35 213.233 234.37 213.265C234.39 213.298 234.42 213.323 234.455 213.337C234.49 213.35 234.53 213.352 234.566 213.342C234.603 213.331 234.635 213.309 234.657 213.278C237.875 206.877 240.626 200.216 243.428 193.625C244.812 190.373 246.144 187.086 247.511 183.833C248.878 180.581 250.435 177.311 251.49 173.955C251.525 173.851 251.369 173.799 251.317 173.886Z" fill="#263238"/>
</svg>
