<svg width="634" height="578" viewBox="0 0 634 578" fill="none" xmlns="http://www.w3.org/2000/svg">
<path d="M605.923 345.969C586.158 399.117 545.797 456.646 489 473.683C403.125 499.428 392.928 568.913 239.212 562.47C216.759 561.633 194.462 558.352 172.713 552.684C162.088 549.867 151.65 546.377 141.463 542.238C51.6841 505.696 4.84225 425.28 0.96448 341.144C-4.16115 230.467 72.6965 177.724 122.651 146.843C172.606 115.963 232.812 -3.73108 383.964 1.41791C407.047 2.11362 429.973 5.4786 452.288 11.4463C503.155 25.2758 554.855 55.9272 584.911 100.57C587.165 103.922 589.321 107.354 591.378 110.868C631.605 179.409 632.853 273.506 605.923 345.969Z" fill="#92E3A9"/>
<path opacity="0.7" d="M605.923 345.969C586.159 399.117 545.798 456.646 489 473.683C403.125 499.428 392.928 568.913 239.212 562.47C216.759 561.633 194.462 558.352 172.713 552.684C162.088 549.866 151.65 546.377 141.463 542.238C51.6841 505.696 4.84225 425.28 0.96448 341.144C-4.16115 230.467 72.6965 177.724 122.651 146.843C172.606 115.963 232.812 -3.73108 383.964 1.41791C407.047 2.11362 429.973 5.4786 452.288 11.4463C503.155 25.2758 554.855 55.9272 584.911 100.57C587.165 103.922 589.321 107.354 591.378 110.868C631.605 179.409 632.853 273.506 605.923 345.969Z" fill="#2124C5"/>
<g opacity="0.2">
<path d="M252.522 1H104.282V420.009H252.522V1Z" stroke="black" stroke-miterlimit="10" stroke-linecap="round"/>
<path d="M105.074 13.7376H252.228L248.766 2.2265" stroke="black" stroke-miterlimit="10" stroke-linecap="round"/>
<path d="M105.074 27.6885H252.228L248.766 16.1774" stroke="black" stroke-miterlimit="10" stroke-linecap="round"/>
<path d="M105.074 41.6393H252.228L248.766 30.1147" stroke="black" stroke-miterlimit="10" stroke-linecap="round"/>
<path d="M105.074 55.5901H252.228L248.766 44.0656" stroke="black" stroke-miterlimit="10" stroke-linecap="round"/>
<path d="M105.074 69.5409H252.228L248.766 58.0164" stroke="black" stroke-miterlimit="10" stroke-linecap="round"/>
<path d="M105.074 83.4917H252.228L248.766 71.9671" stroke="black" stroke-miterlimit="10" stroke-linecap="round"/>
<path d="M105.074 97.4426H252.228L248.766 85.918" stroke="black" stroke-miterlimit="10" stroke-linecap="round"/>
<path d="M105.074 111.393H252.228L248.766 99.8688" stroke="black" stroke-miterlimit="10" stroke-linecap="round"/>
<path d="M105.074 125.344H252.228L248.766 113.82" stroke="black" stroke-miterlimit="10" stroke-linecap="round"/>
<path d="M105.074 139.295H252.228L248.766 127.77" stroke="black" stroke-miterlimit="10" stroke-linecap="round"/>
<path d="M105.074 153.246H252.228L248.766 141.721" stroke="black" stroke-miterlimit="10" stroke-linecap="round"/>
<path d="M105.074 167.197H252.228L248.766 155.672" stroke="black" stroke-miterlimit="10" stroke-linecap="round"/>
<path d="M105.074 181.147H252.228L248.766 169.623" stroke="black" stroke-miterlimit="10" stroke-linecap="round"/>
<path d="M105.074 195.098H252.228L248.766 183.574" stroke="black" stroke-miterlimit="10" stroke-linecap="round"/>
<path d="M105.074 209.035H252.228L248.766 197.524" stroke="black" stroke-miterlimit="10" stroke-linecap="round"/>
<path d="M105.074 222.986H252.228L248.766 211.475" stroke="black" stroke-miterlimit="10" stroke-linecap="round"/>
<path d="M105.074 236.937H252.228L248.766 225.426" stroke="black" stroke-miterlimit="10" stroke-linecap="round"/>
<path d="M105.074 250.888H252.228L248.766 239.377" stroke="black" stroke-miterlimit="10" stroke-linecap="round"/>
<path d="M105.074 264.839H252.228L248.766 253.328" stroke="black" stroke-miterlimit="10" stroke-linecap="round"/>
<path d="M105.074 278.79H252.228L248.766 267.278" stroke="black" stroke-miterlimit="10" stroke-linecap="round"/>
<path d="M105.074 292.74H252.228L248.766 281.229" stroke="black" stroke-miterlimit="10" stroke-linecap="round"/>
<path d="M105.074 306.691H252.228L248.766 295.18" stroke="black" stroke-miterlimit="10" stroke-linecap="round"/>
<path d="M105.074 320.642H252.228L248.766 309.117" stroke="black" stroke-miterlimit="10" stroke-linecap="round"/>
<path d="M105.074 334.593H252.228L248.766 323.068" stroke="black" stroke-miterlimit="10" stroke-linecap="round"/>
<path d="M105.074 348.544H252.228L248.766 337.019" stroke="black" stroke-miterlimit="10" stroke-linecap="round"/>
<path d="M105.074 362.494H252.228L248.766 350.97" stroke="black" stroke-miterlimit="10" stroke-linecap="round"/>
<path d="M105.074 376.445H252.228L248.766 364.921" stroke="black" stroke-miterlimit="10" stroke-linecap="round"/>
<path d="M105.074 390.396H252.228L248.766 378.871" stroke="black" stroke-miterlimit="10" stroke-linecap="round"/>
<path d="M105.074 404.347H252.228L248.766 392.822" stroke="black" stroke-miterlimit="10" stroke-linecap="round"/>
</g>
<g opacity="0.2">
<path d="M411.927 1H263.687V420.009H411.927V1Z" stroke="black" stroke-miterlimit="10" stroke-linecap="round"/>
<path d="M264.479 13.7376H411.632L408.184 2.2265" stroke="black" stroke-miterlimit="10" stroke-linecap="round"/>
<path d="M264.479 27.6885H411.632L408.184 16.1774" stroke="black" stroke-miterlimit="10" stroke-linecap="round"/>
<path d="M264.479 41.6393H411.632L408.184 30.1147" stroke="black" stroke-miterlimit="10" stroke-linecap="round"/>
<path d="M264.479 55.5901H411.632L408.184 44.0656" stroke="black" stroke-miterlimit="10" stroke-linecap="round"/>
<path d="M264.479 69.5409H411.632L408.184 58.0164" stroke="black" stroke-miterlimit="10" stroke-linecap="round"/>
<path d="M264.479 83.4917H411.632L408.184 71.9671" stroke="black" stroke-miterlimit="10" stroke-linecap="round"/>
<path d="M264.479 97.4426H411.632L408.184 85.918" stroke="black" stroke-miterlimit="10" stroke-linecap="round"/>
<path d="M264.479 111.393H411.632L408.184 99.8688" stroke="black" stroke-miterlimit="10" stroke-linecap="round"/>
<path d="M264.479 125.344H411.632L408.184 113.82" stroke="black" stroke-miterlimit="10" stroke-linecap="round"/>
<path d="M264.479 139.295H411.632L408.184 127.77" stroke="black" stroke-miterlimit="10" stroke-linecap="round"/>
<path d="M264.479 153.246H411.632L408.184 141.721" stroke="black" stroke-miterlimit="10" stroke-linecap="round"/>
<path d="M264.479 167.197H411.632L408.184 155.672" stroke="black" stroke-miterlimit="10" stroke-linecap="round"/>
<path d="M264.479 181.147H411.632L408.184 169.623" stroke="black" stroke-miterlimit="10" stroke-linecap="round"/>
<path d="M264.479 195.098H411.632L408.184 183.574" stroke="black" stroke-miterlimit="10" stroke-linecap="round"/>
<path d="M264.479 209.035H411.632L408.184 197.524" stroke="black" stroke-miterlimit="10" stroke-linecap="round"/>
<path d="M264.479 222.986H411.632L408.184 211.475" stroke="black" stroke-miterlimit="10" stroke-linecap="round"/>
<path d="M264.479 236.937H411.632L408.184 225.426" stroke="black" stroke-miterlimit="10" stroke-linecap="round"/>
<path d="M264.479 250.888H411.632L408.184 239.377" stroke="black" stroke-miterlimit="10" stroke-linecap="round"/>
<path d="M264.479 264.839H411.632L408.184 253.328" stroke="black" stroke-miterlimit="10" stroke-linecap="round"/>
<path d="M264.479 278.79H411.632L408.184 267.278" stroke="black" stroke-miterlimit="10" stroke-linecap="round"/>
<path d="M264.479 292.74H411.632L408.184 281.229" stroke="black" stroke-miterlimit="10" stroke-linecap="round"/>
<path d="M264.479 306.691H411.632L408.184 295.18" stroke="black" stroke-miterlimit="10" stroke-linecap="round"/>
<path d="M264.479 320.642H411.632L408.184 309.117" stroke="black" stroke-miterlimit="10" stroke-linecap="round"/>
<path d="M264.479 334.593H411.632L408.184 323.068" stroke="black" stroke-miterlimit="10" stroke-linecap="round"/>
<path d="M264.479 348.544H411.632L408.184 337.019" stroke="black" stroke-miterlimit="10" stroke-linecap="round"/>
<path d="M264.479 362.494H411.632L408.184 350.97" stroke="black" stroke-miterlimit="10" stroke-linecap="round"/>
<path d="M264.479 376.445H411.632L408.184 364.921" stroke="black" stroke-miterlimit="10" stroke-linecap="round"/>
<path d="M264.479 390.396H411.632L408.184 378.871" stroke="black" stroke-miterlimit="10" stroke-linecap="round"/>
<path d="M264.479 404.347H411.632L408.184 392.822" stroke="black" stroke-miterlimit="10" stroke-linecap="round"/>
</g>
<g opacity="0.3">
<path d="M38.0911 27.5134H13.939V51.7756H38.0911V27.5134Z" stroke="black" stroke-miterlimit="10" stroke-linecap="round"/>
<path d="M38.0911 68.8401H13.939V93.1024H38.0911V68.8401Z" stroke="black" stroke-miterlimit="10" stroke-linecap="round"/>
<path d="M47.0273 40.0893H83.7118" stroke="black" stroke-miterlimit="10" stroke-linecap="round"/>
<path d="M47.0273 80.5264H83.7118" stroke="black" stroke-miterlimit="10" stroke-linecap="round"/>
<path d="M19.3071 34.6977L22.8763 41.882L38.9777 17.6198" stroke="black" stroke-miterlimit="10" stroke-linecap="round"/>
</g>
<g opacity="0.3">
<path d="M395.005 511.411H370.853V535.673H395.005V511.411Z" stroke="black" stroke-miterlimit="10" stroke-linecap="round"/>
<path d="M395.005 552.738H370.853V577H395.005V552.738Z" stroke="black" stroke-miterlimit="10" stroke-linecap="round"/>
<path d="M403.941 523.987H440.626" stroke="black" stroke-miterlimit="10" stroke-linecap="round"/>
<path d="M403.941 564.424H440.626" stroke="black" stroke-miterlimit="10" stroke-linecap="round"/>
<path d="M376.221 518.595L379.79 525.78L395.892 501.517" stroke="black" stroke-miterlimit="10" stroke-linecap="round"/>
</g>
<g opacity="0.3">
<path d="M475.957 14.4791H451.805V38.7413H475.957V14.4791Z" stroke="black" stroke-miterlimit="10" stroke-linecap="round"/>
<path d="M475.957 55.8193H451.805V80.0816H475.957V55.8193Z" stroke="black" stroke-miterlimit="10" stroke-linecap="round"/>
<path d="M484.906 27.0551H521.577" stroke="black" stroke-miterlimit="10" stroke-linecap="round"/>
<path d="M484.906 67.4921H521.577" stroke="black" stroke-miterlimit="10" stroke-linecap="round"/>
<path d="M457.171 21.6634L460.753 28.8612L476.855 4.59894" stroke="black" stroke-miterlimit="10" stroke-linecap="round"/>
</g>
<path d="M613.517 549.408H633.483" stroke="#0F0F0F" stroke-linecap="round" stroke-linejoin="round"/>
<path d="M15.7241 549.408H604.219" stroke="#0F0F0F" stroke-linecap="round" stroke-linejoin="round"/>
<path d="M610.728 58.232H296.374V504.766H610.728V58.232Z" fill="#0F0F0F"/>
<path d="M602.959 50.4277H288.604V496.962H602.959V50.4277Z" fill="#FEFEFE" stroke="#0F0F0F" stroke-linecap="round" stroke-linejoin="round"/>
<path d="M587.528 94.7468H301.848V175.635H587.528V94.7468Z" fill="#FEFEFE" stroke="#0F0F0F" stroke-linecap="round" stroke-linejoin="round"/>
<path d="M395.599 78.1271H301.848V94.7468H395.599V78.1271Z" fill="#FEFEFE" stroke="#0F0F0F" stroke-linecap="round" stroke-linejoin="round"/>
<path d="M587.515 78.1271H493.764V94.7468H587.515V78.1271Z" fill="#FEFEFE" stroke="#0F0F0F" stroke-linecap="round" stroke-linejoin="round"/>
<path d="M301.848 121.341H587.528" stroke="#0F0F0F" stroke-linecap="round" stroke-linejoin="round"/>
<path d="M301.848 146.83H587.528" stroke="#0F0F0F" stroke-linecap="round" stroke-linejoin="round"/>
<path d="M587.528 200.544H301.848V281.432H587.528V200.544Z" fill="#FEFEFE" stroke="#0F0F0F" stroke-linecap="round" stroke-linejoin="round"/>
<path d="M301.848 227.138H587.528" stroke="#0F0F0F" stroke-linecap="round" stroke-linejoin="round"/>
<path d="M301.848 252.627H587.528" stroke="#0F0F0F" stroke-linecap="round" stroke-linejoin="round"/>
<path d="M306.503 101.244H341.242" stroke="#0F0F0F" stroke-linecap="round" stroke-linejoin="round"/>
<path d="M483.674 101.244H518.413" stroke="#0F0F0F" stroke-linecap="round" stroke-linejoin="round"/>
<path d="M306.503 82.3192H341.242" stroke="#0F0F0F" stroke-linecap="round" stroke-linejoin="round"/>
<path d="M495.226 82.3192H529.965" stroke="#0F0F0F" stroke-linecap="round" stroke-linejoin="round"/>
<path d="M306.503 126.463H341.242" stroke="#0F0F0F" stroke-linecap="round" stroke-linejoin="round"/>
<path d="M306.503 154.203H341.242" stroke="#0F0F0F" stroke-linecap="round" stroke-linejoin="round"/>
<path d="M413.793 154.203H448.518" stroke="#0F0F0F" stroke-linecap="round" stroke-linejoin="round"/>
<path d="M408.197 79.3807H477.661" stroke="#0F0F0F" stroke-linecap="round" stroke-linejoin="round"/>
<path d="M408.197 86.5246H477.661" stroke="#0F0F0F" stroke-linecap="round" stroke-linejoin="round"/>
<path d="M401.194 169.286H416.946" stroke="#0F0F0F" stroke-linecap="round" stroke-linejoin="round"/>
<path d="M420.877 169.286H436.63" stroke="#0F0F0F" stroke-linecap="round" stroke-linejoin="round"/>
<path d="M440.561 169.286H456.313" stroke="#0F0F0F" stroke-linecap="round" stroke-linejoin="round"/>
<path d="M587.528 298.429H301.848V379.316H587.528V298.429Z" fill="#FEFEFE" stroke="#0F0F0F" stroke-linecap="round" stroke-linejoin="round"/>
<path d="M308.113 319.24C308.113 319.24 313.48 305.896 310.233 309.091C306.986 312.285 304.383 323.513 312.353 320.844C320.323 318.176 325.637 306.422 323.517 311.234C321.397 316.046 322.457 319.766 328.884 316.032C335.311 312.299 336.317 312.299 336.854 314.428C337.391 316.558 338.974 316.032 344.824 313.903C350.674 311.773 350.191 315.507 350.191 317.097C350.191 318.688 357.638 318.176 360.295 317.097C362.952 316.019 365.072 312.838 365.662 316.572C366.253 320.305 371.499 320.305 371.499 320.305H385.843" stroke="#92E3A9" stroke-linecap="round" stroke-linejoin="round"/>
<path d="M301.848 325.023H587.528" stroke="#0F0F0F" stroke-linecap="round" stroke-linejoin="round"/>
<path d="M301.848 350.512H587.528" stroke="#0F0F0F" stroke-linecap="round" stroke-linejoin="round"/>
<path d="M306.503 304.926H341.242" stroke="#0F0F0F" stroke-linecap="round" stroke-linejoin="round"/>
<path d="M483.674 304.926H518.413" stroke="#0F0F0F" stroke-linecap="round" stroke-linejoin="round"/>
<path d="M306.503 330.145H341.242" stroke="#0F0F0F" stroke-linecap="round" stroke-linejoin="round"/>
<path d="M306.503 357.885H341.242" stroke="#0F0F0F" stroke-linecap="round" stroke-linejoin="round"/>
<path d="M413.793 357.885H448.518" stroke="#0F0F0F" stroke-linecap="round" stroke-linejoin="round"/>
<path d="M401.194 372.968H416.946" stroke="#0F0F0F" stroke-linecap="round" stroke-linejoin="round"/>
<path d="M420.877 372.968H436.63" stroke="#0F0F0F" stroke-linecap="round" stroke-linejoin="round"/>
<path d="M440.561 372.968H456.313" stroke="#0F0F0F" stroke-linecap="round" stroke-linejoin="round"/>
<path d="M308.677 208.833H390.365" stroke="#0F0F0F" stroke-linecap="round" stroke-linejoin="round"/>
<path d="M308.677 235.522H358.874" stroke="#0F0F0F" stroke-linecap="round" stroke-linejoin="round"/>
<path d="M435.638 235.522H485.834" stroke="#0F0F0F" stroke-linecap="round" stroke-linejoin="round"/>
<path d="M514.386 269.152H564.582" stroke="#0F0F0F" stroke-linecap="round" stroke-linejoin="round"/>
<path d="M503.558 235.522H553.754" stroke="#0F0F0F" stroke-linecap="round" stroke-linejoin="round"/>
<path d="M505.518 263.208H493.71V275.07H505.518V263.208Z" stroke="#0F0F0F" stroke-linecap="round" stroke-linejoin="round"/>
<path d="M432.686 269.152H482.882" stroke="#0F0F0F" stroke-linecap="round" stroke-linejoin="round"/>
<path d="M423.83 263.208H412.022V275.07H423.83V263.208Z" stroke="#0F0F0F" stroke-linecap="round" stroke-linejoin="round"/>
<path d="M350.998 269.152H401.194" stroke="#0F0F0F" stroke-linecap="round" stroke-linejoin="round"/>
<path d="M342.128 263.208H330.32V275.07H342.128V263.208Z" stroke="#0F0F0F" stroke-linecap="round" stroke-linejoin="round"/>
<path d="M553.312 394.709H586.226" stroke="#0F0F0F" stroke-linecap="round" stroke-linejoin="round"/>
<path d="M422.676 394.709H549.073" stroke="#0F0F0F" stroke-linecap="round" stroke-linejoin="round"/>
<path d="M341.243 394.709H418.866" stroke="#0F0F0F" stroke-linecap="round" stroke-linejoin="round"/>
<path d="M303.752 394.709H338.263" stroke="#0F0F0F" stroke-linecap="round" stroke-linejoin="round"/>
<path d="M514.292 402.379H586.225" stroke="#0F0F0F" stroke-linecap="round" stroke-linejoin="round"/>
<path d="M376.867 402.379H510.898" stroke="#0F0F0F" stroke-linecap="round" stroke-linejoin="round"/>
<path d="M303.752 402.379H372.626" stroke="#0F0F0F" stroke-linecap="round" stroke-linejoin="round"/>
<path d="M532.959 410.049H586.228" stroke="#0F0F0F" stroke-linecap="round" stroke-linejoin="round"/>
<path d="M418.435 410.049H529.991" stroke="#0F0F0F" stroke-linecap="round" stroke-linejoin="round"/>
<path d="M353.117 410.049H412.491" stroke="#0F0F0F" stroke-linecap="round" stroke-linejoin="round"/>
<path d="M303.752 410.049H349.292" stroke="#0F0F0F" stroke-linecap="round" stroke-linejoin="round"/>
<path d="M562.222 417.718H586.226" stroke="#0F0F0F" stroke-linecap="round" stroke-linejoin="round"/>
<path d="M321.719 417.718H557.981" stroke="#0F0F0F" stroke-linecap="round" stroke-linejoin="round"/>
<path d="M303.752 417.718H318.337" stroke="#0F0F0F" stroke-linecap="round" stroke-linejoin="round"/>
<path d="M567.737 425.388H586.227" stroke="#0F0F0F" stroke-linecap="round" stroke-linejoin="round"/>
<path d="M508.778 425.388H563.925" stroke="#0F0F0F" stroke-linecap="round" stroke-linejoin="round"/>
<path d="M418.435 425.388H505.812" stroke="#0F0F0F" stroke-linecap="round" stroke-linejoin="round"/>
<path d="M334.022 425.388H415.04" stroke="#0F0F0F" stroke-linecap="round" stroke-linejoin="round"/>
<path d="M303.752 425.388H329.353" stroke="#0F0F0F" stroke-linecap="round" stroke-linejoin="round"/>
<path d="M552.895 433.057H586.225" stroke="#0F0F0F" stroke-linecap="round" stroke-linejoin="round"/>
<path d="M446.009 433.057H548.227" stroke="#0F0F0F" stroke-linecap="round" stroke-linejoin="round"/>
<path d="M376.867 433.057H440.495" stroke="#0F0F0F" stroke-linecap="round" stroke-linejoin="round"/>
<path d="M303.752 433.057H372.626" stroke="#0F0F0F" stroke-linecap="round" stroke-linejoin="round"/>
<path d="M504.109 440.74H586.227" stroke="#0F0F0F" stroke-linecap="round" stroke-linejoin="round"/>
<path d="M341.243 440.74H498.179" stroke="#0F0F0F" stroke-linecap="round" stroke-linejoin="round"/>
<path d="M303.752 440.74H336.572" stroke="#0F0F0F" stroke-linecap="round" stroke-linejoin="round"/>
<path d="M306.706 463.924H342.142" stroke="#0F0F0F" stroke-linecap="round" stroke-linejoin="round"/>
<path d="M481.901 463.924H517.338" stroke="#0F0F0F" stroke-linecap="round" stroke-linejoin="round"/>
<path d="M350.998 463.924H470.095" stroke="#0F0F0F" stroke-linecap="round" stroke-linejoin="round"/>
<path d="M527.174 463.924H585.246" stroke="#0F0F0F" stroke-linecap="round" stroke-linejoin="round"/>
<path d="M311.133 223.822C311.133 223.822 316.607 225.089 317.842 218.74C319.076 212.392 314.044 215.775 314.044 219.158C314.044 222.542 315.735 225.898 322.095 220.857C328.455 215.816 326.724 216.624 330.522 220.425C334.319 224.226 330.938 225.089 338.572 222.124C346.207 219.158 346.623 220.425 346.153 222.973C345.684 225.52 344.047 224.24 351.212 221.706C358.377 219.172 361.745 217.042 360.9 220.358C360.054 223.674 357.102 224.59 362.577 220.789C368.051 216.988 371.433 204.709 366.79 214.05C362.148 223.391 360.47 222.137 367.22 220.789C373.969 219.441 376.062 214.859 376.062 218.242C376.062 221.625 370.587 223.755 376.062 221.639C381.536 219.522 383.643 217.406 383.643 219.522C383.643 221.638 378.584 225.44 385.75 222.056C392.915 218.673 395.021 214.859 395.021 217.824C395.021 220.789 393.747 219.94 395.021 220.789C396.296 221.638 393.747 219.091 397.544 220.358C401.341 221.625 399.651 224.173 405.125 222.056C410.6 219.94 410.184 216.975 413.176 219.94C416.168 222.906 413.176 227.138 421.227 223.323C429.277 219.509 431.33 221.639 433.866 222.056C435.957 222.378 438.071 222.518 440.186 222.474C441.863 222.474 441.447 220.789 445.66 222.474C448.162 223.703 450.929 224.287 453.711 224.173H458.515" stroke="#92E3A9" stroke-linecap="round" stroke-linejoin="round"/>
<path d="M484.25 224.24C486.268 223.364 488.234 222.374 490.14 221.274C493.938 219.158 503.625 211.974 504.041 216.624C504.457 221.274 493.508 227.205 494.783 222.124C496.058 217.042 503.625 219.59 509.1 221.706C514.574 223.822 515.809 221.274 522.585 221.274C529.361 221.274 528.475 223.391 531.843 224.24C535.211 225.089 533.95 224.24 539.894 221.706C545.838 219.172 541.571 206.879 537.787 215.357C534.003 223.836 532.729 227.205 541.571 222.973C550.414 218.74 547.891 223.822 549.152 223.822C550.414 223.822 548.307 224.24 553.366 222.124C558.424 220.007 552.104 222.973 555.901 223.822C559.699 224.671 561.792 220.425 565.16 219.158C568.528 217.891 568.957 221.706 568.957 221.706H572.325" stroke="#92E3A9" stroke-linecap="round" stroke-linejoin="round"/>
<path d="M308.597 142.53C308.597 142.53 310.704 141.681 314.072 136.613C317.44 131.545 311.965 129.873 310.704 135.346C309.442 140.818 306.491 147.194 315.762 142.53C325.034 137.866 321.653 129.051 318.714 135.79C315.776 142.53 316.608 149.337 325.423 144.255C334.239 139.174 335.111 136.168 336.372 138.756C337.633 141.344 333.004 142.139 340.585 142.557C348.166 142.975 349.428 140.441 352.796 139.174C356.164 137.907 357.854 139.174 357.854 139.174C358.811 139.464 359.806 139.609 360.806 139.605C362.483 139.605 364.59 138.257 365.435 139.605C366.281 140.953 357.009 142.557 367.971 140.872C378.934 139.187 381.389 131.976 382.288 137.489C383.187 143.002 374.707 147.639 374.707 142.557C374.707 137.475 379.766 132.407 387.763 137.057C395.76 141.708 395.344 142.988 399.557 143.797C403.77 144.606 410.506 139.996 410.506 139.996C410.506 139.996 410.09 140.414 412.613 141.681C415.135 142.948 414.303 142.961 418.932 141.681C423.562 140.4 419.778 141.263 426.098 140.414C432.417 139.565 435.356 139.996 432.806 142.112C430.257 144.228 423.119 141.263 432.391 139.578C441.662 137.893 442.91 140.845 442.91 142.112C442.91 143.379 445.446 143.797 447.553 142.961C449.61 142.318 451.728 141.889 453.873 141.681" stroke="#92E3A9" stroke-linecap="round" stroke-linejoin="round"/>
<path d="M319.545 117.607C322.933 117.041 326.271 116.208 329.528 115.114C332.305 114.13 334.895 112.836 335.982 111.259C338.92 107.026 330.078 108.293 324.603 113.806C319.129 119.319 327.971 119.723 339.363 115.922C350.755 112.121 350.312 102.376 342.731 109.574C335.15 116.772 338.102 118.456 349.896 115.922C361.69 113.388 376.423 110.409 371.794 114.574C367.165 118.739 365.904 116.691 373.901 115.006C381.898 113.321 386.956 109.506 385.695 112.458C384.434 115.41 381.066 119.198 387.386 116.273C393.706 113.348 392.86 116.273 392.86 116.273C404.225 115.006 410.545 100.61 402.548 105.692C394.551 110.773 394.497 117.54 401.703 117.122C408.908 116.704 415.604 109.924 412.236 113.307C408.868 116.691 403.393 119.238 415.174 116.273C426.955 113.307 430.766 106.959 429.934 111.191C429.102 115.424 428.673 115.006 432.886 115.006C437.099 115.006 444.68 109.075 442.158 113.307C439.635 117.54 438.36 117.958 442.158 117.122C445.955 116.286 451.416 113.307 453.107 113.307C454.797 113.307 449.739 117.958 454.784 117.54C459.829 117.122 470.375 110.8 470.375 110.8" stroke="#92E3A9" stroke-linecap="round" stroke-linejoin="round"/>
<path d="M458.514 110.841C458.514 110.841 469.047 118.025 471.57 118.025" stroke="#92E3A9" stroke-linecap="round" stroke-linejoin="round"/>
<path d="M414.879 266.241L416.127 272.118L429.075 256.603" stroke="#92E3A9" stroke-linecap="round" stroke-linejoin="round"/>
<path d="M271.699 522.235L282.245 532.56C282.245 532.56 306.317 541.523 307.404 543.154C308.49 544.785 307.404 549.408 307.404 549.408H251.961L253.423 527.222L271.699 522.235Z" fill="#FEFEFE" stroke="#0F0F0F" stroke-linecap="round" stroke-linejoin="round"/>
<path d="M307.873 545.877H252.202L251.961 549.408H307.404C307.66 548.247 307.818 547.065 307.873 545.877Z" fill="#FEFEFE" stroke="#0F0F0F" stroke-linecap="round" stroke-linejoin="round"/>
<path d="M157.779 344.999L165.387 435.308C165.387 435.308 159.295 489.696 159.295 495.088C159.295 500.479 156.612 518.002 156.612 518.002L174.954 520.253L199.415 427.248L202.997 389.506L232.96 457.347L253.462 527.249L271.737 522.262L257.568 432.639L231.282 348.166L229.39 338.286L157.819 339.176L157.779 344.999Z" fill="#0F0F0F" stroke="#0F0F0F" stroke-linecap="round" stroke-linejoin="round"/>
<path d="M156.612 518.002L151.245 532.721C151.245 532.721 141.249 544.394 142.054 546.578C142.278 547.197 142.634 547.759 143.098 548.225C143.561 548.691 144.121 549.049 144.738 549.274H169.614C170.243 549.124 170.812 548.786 171.245 548.305C171.679 547.823 171.957 547.221 172.043 546.578C172.395 544.603 172.575 542.6 172.58 540.593L174.928 520.253L156.612 518.002Z" fill="#FEFEFE" stroke="#0F0F0F" stroke-linecap="round" stroke-linejoin="round"/>
<path d="M172.029 546.578C172.11 546.227 172.177 545.863 172.231 545.486H142.134C141.984 545.829 141.942 546.21 142.014 546.578C142.237 547.197 142.594 547.759 143.057 548.225C143.521 548.691 144.081 549.049 144.697 549.274H169.574C170.208 549.129 170.782 548.793 171.221 548.311C171.66 547.83 171.942 547.225 172.029 546.578Z" fill="#FEFEFE" stroke="#0F0F0F" stroke-linecap="round" stroke-linejoin="round"/>
<path d="M183.274 215.708C183.274 215.708 159.793 217.056 152.749 221.773C145.704 226.491 111.489 254.797 111.489 254.797L113.247 284.235L151.072 256.819L156.439 351.846L231.243 348.139L229.566 295.234L228.56 293.549C228.56 293.549 252.712 318.485 261.769 317.811C270.826 317.138 272.839 301.974 266.13 292.538C259.421 283.103 249.357 269.624 242.313 259.515C235.269 249.405 235.269 234.578 224.87 227.502C214.471 220.425 196.357 216.382 196.357 216.382L183.274 215.708Z" fill="#FFA45A" stroke="#0F0F0F" stroke-linecap="round" stroke-linejoin="round"/>
<path d="M229.566 295.234L228.103 264.812" stroke="#0F0F0F" stroke-linecap="round" stroke-linejoin="round"/>
<path d="M232.894 276.93L233.753 271.713" stroke="#0F0F0F" stroke-linecap="round" stroke-linejoin="round"/>
<path d="M230.116 293.644L232.276 280.677" stroke="#0F0F0F" stroke-linecap="round" stroke-linejoin="round"/>
<path d="M198.867 313.08L202.235 316.774" stroke="#0F0F0F" stroke-linecap="round" stroke-linejoin="round"/>
<path d="M162.638 273.344L196.746 310.748" stroke="#0F0F0F" stroke-linecap="round" stroke-linejoin="round"/>
<path d="M174.888 297.687L188.091 310.694" stroke="#0F0F0F" stroke-linecap="round" stroke-linejoin="round"/>
<path d="M168.288 291.204L172.085 294.937" stroke="#0F0F0F" stroke-linecap="round" stroke-linejoin="round"/>
<path d="M162.235 249.392L151.071 256.819L161.832 255.889" stroke="#0F0F0F" stroke-linecap="round" stroke-linejoin="round"/>
<path d="M180.953 188.224C181.695 193.368 182.098 198.555 182.161 203.752C182.107 208.846 181.703 213.931 180.953 218.97C180.953 218.97 196.102 242.113 198.826 243.933C201.55 245.752 203.374 237.84 203.374 234.497C203.374 231.155 203.683 221.409 203.683 221.409V210.451L180.953 188.224Z" fill="#B0B0B0" stroke="#0F0F0F" stroke-linecap="round" stroke-linejoin="round"/>
<path d="M203.575 222.906C203.575 221.989 203.575 221.409 203.575 221.409V210.451L198.423 205.423L185.85 200.315L203.575 222.906Z" fill="#0F0F0F" stroke="#0F0F0F" stroke-linecap="round" stroke-linejoin="round"/>
<path d="M217.92 157.775C217.92 157.775 221.557 169.65 221.865 174.516C222.174 179.382 219.437 183.048 219.437 184.571C219.437 186.094 223.677 192.173 223.677 194.316C223.677 196.46 218.524 199.182 218.524 199.182C218.524 199.182 216.404 210.451 210.957 214.104C205.509 217.757 193.071 208.928 188.227 204.358C184.176 200.682 181.233 195.937 179.733 190.664C178.217 185.784 180.042 174.489 183.074 165.39C184.182 161.616 186.339 158.236 189.29 155.649C192.242 153.061 195.866 151.372 199.739 150.779C206.703 149.553 216.995 153.515 217.92 157.775Z" fill="#B0B0B0" stroke="#0F0F0F" stroke-linecap="round" stroke-linejoin="round"/>
<path d="M213.371 186.553C213.371 187.981 212.902 189.141 212.311 189.141C211.721 189.141 211.251 187.981 211.251 186.553C211.251 185.124 211.734 183.965 212.311 183.965C212.888 183.965 213.371 185.124 213.371 186.553Z" fill="#0F0F0F"/>
<path d="M210.284 181.215C210.284 181.215 214.538 179.085 216.993 181.835" stroke="#0F0F0F" stroke-linecap="round" stroke-linejoin="round"/>
<path d="M212.767 203.752C212.767 203.752 206.407 201.622 206.058 197.012" stroke="#0F0F0F" stroke-linecap="round" stroke-linejoin="round"/>
<path d="M182.106 187.105C182.106 187.105 187.862 188.022 188.466 184.976C189.07 181.929 185.433 181.323 189.378 178.586C193.323 175.85 196.087 175.891 197.255 174.017C198.422 172.143 196.772 169.245 198.892 164.38C201.012 159.514 203.561 160.767 209.626 161.684C213.171 162.182 216.586 163.373 219.676 165.188C219.676 165.188 223.406 157.263 219.461 152.693C215.516 148.124 202.997 143.487 189.056 147.746C175.115 152.006 170.889 162.142 169.681 173.1C168.473 184.059 172.713 190.151 176.739 191.365C180.764 192.578 182.106 187.105 182.106 187.105Z" fill="#0F0F0F" stroke="#0F0F0F" stroke-linecap="round" stroke-linejoin="round"/>
<path d="M185.194 186.391C185.194 186.391 181.558 175.136 178.485 180.918C175.412 186.701 176.969 191.567 180.001 193.4C180.364 193.65 180.78 193.81 181.216 193.867C181.652 193.924 182.095 193.876 182.509 193.727C182.923 193.578 183.296 193.333 183.597 193.011C183.898 192.69 184.119 192.301 184.241 191.877" fill="#B0B0B0"/>
<path d="M185.194 186.391C185.194 186.391 181.558 175.136 178.485 180.918C175.412 186.701 176.969 191.567 180.001 193.4C180.364 193.65 180.78 193.81 181.216 193.867C181.652 193.924 182.095 193.876 182.509 193.727C182.923 193.578 183.296 193.333 183.597 193.011C183.898 192.69 184.119 192.301 184.241 191.877" stroke="#0F0F0F" stroke-linecap="round" stroke-linejoin="round"/>
<path d="M252.176 301.691C256.04 294.56 273.148 273.573 273.148 273.573L284.298 278.965C284.298 278.965 275.858 309.859 271.806 314.266C267.754 318.674 263.299 320.17 258.563 316.774" fill="#B0B0B0"/>
<path d="M252.176 301.691C256.04 294.56 273.148 273.573 273.148 273.573L284.298 278.965C284.298 278.965 275.858 309.859 271.806 314.266C267.754 318.674 263.299 320.17 258.563 316.774" stroke="#0F0F0F" stroke-linecap="round" stroke-linejoin="round"/>
<path d="M258.804 316.571C260.958 317.761 263.457 318.161 265.873 317.704C268.289 317.247 270.472 315.96 272.047 314.064C273.268 312.716 274.892 308.983 276.556 304.413C272.66 305.266 268.59 304.751 265.026 302.956C261.461 301.161 258.617 298.193 256.966 294.547C254.949 297.128 253.209 299.916 251.773 302.863C251.639 303.281 252.752 308.443 252.685 308.821" fill="#FFA45A"/>
<path d="M258.804 316.571C260.958 317.761 263.457 318.161 265.873 317.704C268.289 317.247 270.472 315.96 272.047 314.064C273.268 312.716 274.892 308.983 276.556 304.413C272.66 305.266 268.59 304.751 265.026 302.956C261.461 301.161 258.617 298.193 256.966 294.547C254.949 297.128 253.209 299.916 251.773 302.863C251.639 303.281 252.752 308.443 252.685 308.821" stroke="#0F0F0F" stroke-linecap="round" stroke-linejoin="round"/>
<path d="M385.684 320.736C385.421 320.74 385.161 320.689 384.919 320.588L370.602 314.617C370.352 314.519 370.124 314.372 369.931 314.185C369.739 313.998 369.585 313.774 369.48 313.526C369.375 313.278 369.32 313.012 369.319 312.742C369.318 312.473 369.37 312.206 369.473 311.957C369.575 311.708 369.727 311.483 369.918 311.294C370.108 311.104 370.335 310.955 370.584 310.855C370.833 310.755 371.099 310.706 371.367 310.711C371.635 310.716 371.9 310.774 372.145 310.883L386.462 316.854C386.888 317.037 387.238 317.361 387.454 317.772C387.67 318.184 387.738 318.658 387.646 319.114C387.555 319.57 387.31 319.98 386.952 320.276C386.595 320.571 386.147 320.734 385.684 320.736Z" fill="#FEFEFE" stroke="#0F0F0F" stroke-linecap="round" stroke-linejoin="round"/>
<path d="M340.988 310.277L22.7697 166.792C20.3353 165.691 18.4353 163.665 17.4869 161.158C16.5385 158.651 16.6191 155.868 17.7112 153.421C18.8044 150.977 20.8192 149.068 23.3126 148.115C25.806 147.162 28.5741 147.243 31.0083 148.339L349.227 291.824L340.988 310.277Z" fill="#DBFF8D" stroke="#0F0F0F" stroke-linecap="round" stroke-linejoin="round"/>
<path d="M65.9614 164.096L31.0749 148.339C28.639 147.233 25.8653 147.144 23.3641 148.092C20.8629 149.04 18.8389 150.947 17.7375 153.394C16.6361 155.841 16.5475 158.627 17.4911 161.14C18.4347 163.653 20.3333 165.686 22.7692 166.792L56.8506 182.266L65.9614 164.096Z" fill="#FEFEFE" stroke="#0F0F0F" stroke-linecap="round" stroke-linejoin="round"/>
<path d="M349.226 291.824L381.08 313.741L379.095 318L340.988 310.277L349.226 291.824Z" fill="#92E3A9" stroke="#0F0F0F" stroke-linecap="round" stroke-linejoin="round"/>
<path d="M57.51 160.309L31.0097 148.366C28.6004 147.404 25.9144 147.414 23.5116 148.392C21.1089 149.371 19.1748 151.243 18.1125 153.619C17.0502 155.995 16.9417 158.691 17.8096 161.145C18.6775 163.599 20.4548 165.622 22.7711 166.792L48.1577 178.236L57.51 160.309Z" fill="#92E3A9" stroke="#0F0F0F" stroke-linecap="round" stroke-linejoin="round"/>
<path d="M89.6836 181.336C89.6836 181.336 87 195.826 89.0127 198.522C91.0254 201.218 102.095 211.327 102.095 211.327C102.095 211.327 97.7343 270.298 98.7406 275.689C99.747 281.081 111.152 285.125 114.842 284.114C118.532 283.103 121.216 279.059 124.57 271.646C127.925 264.232 112.829 212.338 112.829 209.979C112.829 207.62 105.785 189.424 105.785 189.424C105.785 189.424 111.488 185.38 112.494 184.032C113.5 182.684 108.469 183.695 107.462 183.695C104.166 183.312 100.911 182.636 97.7343 181.673C96.3925 180.999 89.6836 181.336 89.6836 181.336Z" fill="#B0B0B0" stroke="#0F0F0F" stroke-linecap="round" stroke-linejoin="round"/>
<path d="M105.921 183.614C105.921 183.614 101.171 184.814 101.345 186C101.519 187.186 101.519 194.694 101.519 194.694" fill="#FEFEFE"/>
<path d="M105.921 183.614C105.921 183.614 101.171 184.814 101.345 186C101.519 187.186 101.519 194.694 101.519 194.694" stroke="#0F0F0F" stroke-linecap="round" stroke-linejoin="round"/>
<path d="M98.6338 182.428C98.6338 182.428 94.6084 182.253 94.6084 184.477V193.845" fill="#FEFEFE"/>
<path d="M98.6338 182.428C98.6338 182.428 94.6084 182.253 94.6084 184.477V193.845" stroke="#0F0F0F" stroke-linecap="round" stroke-linejoin="round"/>
<path d="M89.6313 182.253L90.3157 193.845" stroke="#0F0F0F" stroke-linecap="round" stroke-linejoin="round"/>
<path d="M114.843 284.06C118.533 283.049 121.216 279.005 124.571 271.592C125.846 268.802 124.477 259.676 122.303 249.271C118.979 251.517 115.169 252.934 111.19 253.403C107.211 253.872 103.177 253.379 99.4258 251.966C98.7684 263.545 98.3524 273.614 98.7415 275.703C99.7479 281.081 111.153 285.125 114.843 284.06Z" fill="#FFA45A" stroke="#0F0F0F" stroke-linecap="round" stroke-linejoin="round"/>
<path d="M273.026 257.425C274.416 256.249 276.187 255.625 278.004 255.673C280.688 255.929 281.238 259.932 280.983 263.424C280.728 266.915 276.958 267.683 276.502 265.432C276.045 263.181 275.509 259.676 275.509 259.676L273.026 257.425Z" fill="#B0B0B0" stroke="#0F0F0F" stroke-linecap="round" stroke-linejoin="round"/>
<path d="M280.487 257.183C281.414 256.911 282.408 256.989 283.281 257.404C284.154 257.819 284.845 258.541 285.224 259.434C286.713 262.682 284.969 266.928 283.225 267.184C281.48 267.44 280.984 263.424 280.984 263.424L280.487 257.183Z" fill="#B0B0B0" stroke="#0F0F0F" stroke-linecap="round" stroke-linejoin="round"/>
<path d="M285.224 259.434C285.56 259.262 285.932 259.171 286.31 259.169C286.687 259.167 287.06 259.254 287.398 259.424C287.736 259.593 288.03 259.839 288.256 260.143C288.482 260.446 288.634 260.799 288.699 261.173C289.706 264.178 290.699 267.912 288.458 267.912C286.217 267.912 285.466 263.868 285.466 263.868L285.224 259.434Z" fill="#B0B0B0" stroke="#0F0F0F" stroke-linecap="round" stroke-linejoin="round"/>
<path d="M288.698 261.146C288.698 261.146 291.945 260.903 292.724 262.898C293.502 264.893 294.964 268.653 292.227 268.653C291.489 268.653 289.745 265.149 289.745 265.149L288.698 261.146Z" fill="#B0B0B0" stroke="#0F0F0F" stroke-linecap="round" stroke-linejoin="round"/>
</svg>
