<svg width="592" height="496" viewBox="0 0 592 496" fill="none" xmlns="http://www.w3.org/2000/svg">
<path opacity="0.1" d="M496.845 496C549.359 496 591.931 490.627 591.931 484C591.931 477.373 549.359 472 496.845 472C444.33 472 401.758 477.373 401.758 484C401.758 490.627 444.33 496 496.845 496Z" fill="white"/>
<path opacity="0.1" d="M508.928 175H486.863V196H508.928V175Z" fill="#F9A826"/>
<path opacity="0.1" d="M508.928 227H486.863V248H508.928V227Z" fill="#F9A826"/>
<path opacity="0.1" d="M508.928 279H486.863V300H508.928V279Z" fill="#F9A826"/>
<path opacity="0.1" d="M508.928 332H486.863V353H508.928V332Z" fill="#F9A826"/>
<path d="M577.27 264.323C577.27 264.323 564.36 203.233 569.302 195.632C569.302 195.632 569.482 188.566 569.184 179.56C569.184 179.218 569.184 178.876 569.184 178.526C570.054 179.077 570.961 179.574 571.898 180.013C576.452 182.238 581.679 182.88 586.678 181.828L582.768 177.686C581.829 176.696 580.852 175.625 580.649 174.316C580.445 173.007 581.008 171.84 581.493 170.672C585.208 161.747 585.403 150.524 578.248 143.712C572.203 137.985 570.733 130.592 564.172 125.364C559.378 121.533 556.743 115.918 554.256 110.489C552.153 105.9 550.033 101.274 548.829 96.41C547.891 92.6095 547.515 88.6752 546.225 84.9639C544.935 81.2527 542.518 77.6456 538.741 75.987C537.396 75.3995 535.903 75.0648 534.675 74.2839C533.064 73.2501 532.094 71.5692 530.929 70.0966C525.009 62.6593 505.185 67.0399 495.801 70.0594C493.25 70.8199 490.888 72.0647 488.857 73.7186L488.943 73.5848C489.014 73.4732 489.1 73.3616 489.178 73.2501C488.151 74.04 487.264 74.9817 486.55 76.0391C485.182 78.0992 484.611 80.5015 483.469 82.7327C482.093 85.373 474.437 92.7434 477.729 95.7109C477.96 95.9102 478.224 96.0711 478.511 96.1869C479.747 96.6761 481.108 96.8055 482.421 96.5588L482.281 96.8786C481.156 99.4968 480.58 102.298 480.584 105.127C480.584 117.346 491.18 127.253 504.263 127.253C506.722 127.255 509.167 126.896 511.512 126.189C511.567 126.472 511.614 126.754 511.668 127.037C511.668 127.149 511.707 127.26 511.723 127.372L511.309 127.922C511.288 127.888 511.264 127.856 511.238 127.825L498.961 144.143C497.084 145.4 486.277 152.837 485.667 158.415C485.025 164.521 484.384 171.669 484.384 171.669L484.298 173.201C483.762 173.627 483.134 173.938 482.459 174.111C481.784 174.285 481.077 174.316 480.388 174.205C476.556 173.61 476.556 187.592 476.556 187.592C476.556 187.592 474.007 189.823 472.255 187.89C470.504 185.956 465.874 192.508 465.874 192.508L436.862 193.698L436.197 193.735L434.633 189.132C434.465 188.646 434.102 188.243 433.623 188.011C433.144 187.778 432.588 187.735 432.076 187.89C431.955 187.928 431.837 187.975 431.724 188.031L431.615 188.09L431.411 188.224L431.31 188.314C431.254 188.362 431.201 188.414 431.153 188.47L431.059 188.574L431.013 188.618C430.832 188.856 430.712 189.13 430.663 189.42C430.615 189.709 430.638 190.005 430.731 190.284L432.076 194.234C426.477 195.305 420.753 198.324 425.421 206.639L401.758 202.482L409.414 208.595L448.936 216.352C448.412 217.245 448.756 218.539 450.391 220.361C457.429 228.222 470.253 230.357 475.415 230.907C476.778 233.807 478.48 236.551 480.49 239.088L480.044 246.92C480.044 246.92 466.977 306.612 464.584 309.639C465.792 308.337 466.898 306.953 467.892 305.497C464.099 317.761 458.797 334.547 457.405 337.061C455.169 341.077 453.096 357.328 455.646 358.369C456.428 358.689 458.664 358.532 461.855 358.302V359.648L461.714 410.661C461.714 410.661 462.355 441.95 460.596 444.932C458.836 447.915 458.367 454.17 458.367 454.17C458.367 454.17 451.329 466.508 445.753 471.469C445.715 471.507 445.673 471.542 445.628 471.573L445.456 470.413C445.456 470.413 438.754 478.46 423.928 478.006C423.928 478.006 415.005 483.525 428.236 483.822C441.468 484.12 458.367 483.376 458.367 483.376C458.367 483.376 470.167 466.27 480.052 468.501V481.465H483.078V468.293C484.482 467.414 485.683 466.274 486.609 464.94C487.535 463.607 488.167 462.108 488.466 460.536C488.725 458.915 488.536 457.258 487.916 455.728C487.296 454.198 486.267 452.848 484.932 451.812C484.332 451.296 483.85 450.668 483.518 449.966C483.185 449.265 483.009 448.506 483 447.736L482.891 447.825C482.891 447.565 482.82 447.297 482.789 447.022C481.921 440.329 480.834 426.517 484.674 416.298C489.936 402.286 491.532 382.771 487.7 371.154C486.464 367.44 485.448 363.664 484.658 359.841C484.564 359.358 484.478 358.897 484.4 358.466C487.019 358.803 489.613 359.299 492.165 359.953C501.041 362.281 520.458 362.712 537.036 362.586C537.076 363.017 537.122 363.471 537.177 363.925C537.473 367.078 538.091 370.197 539.023 373.236C541.103 379.186 542.057 405.418 542.057 405.418C542.057 405.418 544.739 426.986 543.277 435.762C542.495 440.641 541.713 445.542 541.267 450.466V450.562C541.267 450.562 536.872 462.462 533.658 468.925C533.58 469.089 533.494 469.252 533.416 469.409C532.559 469.483 531.715 469.66 530.906 469.937C530.906 469.937 526.597 478.118 522.303 479.471C518.01 480.825 519.434 485.28 529.154 483.644C538.874 482.008 553.552 480.669 553.552 480.669L554.186 472.324L557.173 468.769L556.391 477.091L559.574 476.497L559.151 466.374L564.039 460.558C564.039 460.558 569.943 455.56 561.169 445.728V445.944C561.075 445.802 560.989 445.654 560.887 445.512V445.468C559.433 443.326 558.276 439.332 560.395 432.244C564.227 419.437 566.455 407.812 566.455 407.812C566.455 407.812 575.01 376.672 564.727 361.939H565.181C564.127 359.866 563.382 357.663 562.968 355.394C562.915 355.126 562.869 354.851 562.827 354.568C570.436 354.152 577.904 352.843 583.996 350.017C583.972 349.987 580.305 276.089 577.27 264.323ZM480.67 212.782V212.931L479.106 213.006L480.67 212.782ZM475.305 213.489C475.048 213.543 474.807 213.653 474.601 213.809C473.929 214.714 473.507 215.765 473.374 216.866L470.934 216.345C470.934 216.345 469.221 215.995 466.758 215.601L465.593 214.486C468.799 214.233 472.13 213.861 475.305 213.489Z" fill="url(#paint0_linear_555_1523)"/>
<path d="M556.098 466.484L555.158 477L558.31 476.406L557.836 465L556.098 466.484Z" fill="#1D2366"/>
<path d="M485.022 416.41C481.284 426.651 482.341 440.472 483.18 447.185C483.491 449.666 483.779 451.176 483.779 451.176C483.779 451.176 478.19 463.42 477.724 463.884C477.258 464.347 461.277 473.728 461.277 473.728L450.108 480C450.108 480 438.776 475.223 444.209 473.579C445.319 473.151 446.319 472.495 447.139 471.658C452.58 466.687 459.412 454.331 459.412 454.331C459.412 454.331 459.878 448.059 461.588 445.077C463.298 442.094 462.676 410.752 462.676 410.752L462.808 359.66V353L484.066 353.15C484.2 355.411 484.507 357.659 484.984 359.877C485.747 363.705 486.735 367.489 487.945 371.209C491.691 382.863 490.137 402.38 485.022 416.41Z" fill="#FFB0B1"/>
<path opacity="0.1" d="M483.711 451.001C483.711 451.001 478.132 463.32 477.666 463.786C477.201 464.252 461.247 473.69 461.247 473.69L450.096 480C450.096 480 438.782 475.194 444.206 473.54C445.314 473.109 446.313 472.449 447.132 471.607L447.613 474.894L451.33 474.743L483.145 447C483.424 449.482 483.711 451.001 483.711 451.001Z" fill="black"/>
<path d="M483.541 448L451.298 475.622L447.552 475.771L446.77 470.565C446.77 470.565 440.217 478.582 425.656 478.136C425.656 478.136 416.913 483.632 429.871 483.93C442.829 484.227 459.377 483.484 459.377 483.484C459.377 483.484 470.935 466.378 480.609 468.609V481.528H483.58V468.49C484.962 467.605 486.141 466.464 487.047 465.135C487.953 463.806 488.566 462.316 488.851 460.755C489.108 459.147 488.926 457.504 488.322 455.982C487.718 454.461 486.713 453.113 485.402 452.068C484.817 451.546 484.35 450.916 484.03 450.217C483.71 449.517 483.544 448.763 483.541 448Z" fill="#1D2366"/>
<path d="M558.691 432.265C556.631 439.307 557.754 443.273 559.163 445.4V445.444C560.97 448.071 562.227 451.009 562.863 454.095L562.987 454.762L548.464 475.035L540.582 478C540.582 478 527.909 473.856 530.224 472.67C530.805 472.381 531.71 470.84 532.748 468.712C535.844 462.3 540.118 450.47 540.118 450.47V450.374C540.567 445.489 541.279 440.619 542.069 435.771C543.486 427.047 540.884 405.632 540.884 405.632C540.884 405.632 539.955 379.592 537.942 373.67C537.034 370.658 536.43 367.57 536.139 364.448C535.721 360.742 535.628 357.688 535.628 357.688C535.628 357.688 543.973 346.57 559.271 358.578C560.495 359.535 561.571 360.653 562.469 361.899C573.036 376.294 564.528 408.004 564.528 408.004C564.528 408.004 562.399 419.538 558.691 432.265Z" fill="#FFB0B1"/>
<path opacity="0.1" d="M563.563 454.605L548.786 475.015L540.768 478C540.768 478 527.874 473.828 530.229 472.634C530.82 472.343 531.741 470.791 532.797 468.649C538.255 468.604 541.083 473.53 541.083 473.53L547.999 472.485C547.999 472.485 557.12 455.5 559.168 454.463C561.216 453.425 559.483 446.709 559.483 446.709V445C559.538 445.06 559.585 445.127 559.649 445.187V445.231C561.487 447.876 562.766 450.834 563.414 453.94L563.563 454.605Z" fill="black"/>
<path d="M541.579 474.329C541.579 474.329 537.658 467.528 530.146 470.04C530.146 470.04 525.92 478.189 521.693 479.507C517.467 480.826 518.878 485.271 528.429 483.648C537.98 482.026 552.376 480.685 552.376 480.685L553.004 472.395L562.711 460.713C562.711 460.713 568.498 455.757 559.888 446V447.697C559.888 447.697 561.613 454.364 559.575 455.394C557.536 456.423 548.487 473.292 548.487 473.292L541.579 474.329Z" fill="#1D2366"/>
<path opacity="0.1" d="M483.85 353.152C483.983 355.454 484.288 357.742 484.762 360C476.063 358.745 467.989 359.368 462.697 359.779V353L483.85 353.152Z" fill="black"/>
<path opacity="0.1" d="M563.563 363.331C563.563 363.331 550.863 363.886 535.718 364C535.29 360.439 535.194 357.505 535.194 357.505C535.194 357.505 543.751 346.821 559.435 358.359C560.689 359.28 561.793 360.354 562.713 361.55C562.959 362.157 563.243 362.752 563.563 363.331Z" fill="black"/>
<path d="M563.563 362.291C563.563 362.291 508.856 364.805 492.181 360.364C475.507 355.923 458.981 359.771 456.49 358.74C454 357.709 456.022 341.569 458.208 337.572C460.394 333.576 472.384 293.161 472.384 293.161L483.922 236.027L496.077 232.846L496.935 232.616L518.114 227.07L533.633 223C533.633 223 564.492 337.424 561.846 345.862C560.885 349.092 560.73 352.491 561.393 355.789C561.797 358.041 562.528 360.229 563.563 362.291Z" fill="#1D2366"/>
<path d="M532.043 122.917C532.043 122.917 530.777 124.053 528.871 125.728C526.154 128.125 522.133 131.629 518.567 134.564C513.628 138.622 509.553 141.601 511.012 139.059C512.47 136.516 512.192 132.088 511.467 127.943C511.413 127.666 511.367 127.389 511.313 127.12C510.712 124.076 509.915 121.069 508.928 118.116C508.928 118.116 516.908 108.384 521.323 104.546C522.967 103.089 524.117 102.491 524.186 103.504C524.263 104.866 525.344 107.875 526.687 111.065C526.725 111.167 526.764 111.262 526.81 111.364C527.705 113.549 528.716 115.793 529.604 117.73C530.962 120.702 532.043 122.917 532.043 122.917Z" fill="#FFB0B1"/>
<path opacity="0.1" d="M526.789 111.377C526.04 115.194 524.223 118.751 521.527 121.675C518.831 124.599 515.356 126.783 511.464 128C510.851 124.666 510.004 121.375 508.928 118.148C508.928 118.148 523.937 99.7792 524.168 103.497C524.222 104.906 525.394 108.032 526.789 111.377Z" fill="black"/>
<path opacity="0.1" d="M509.586 133.624L511.539 131C511.539 131 512.834 138.524 517.594 135.205C522.354 131.887 522.587 160.179 522.587 160.179L517.478 233L480.56 230.894L481.606 195.706L485.785 177.968L496.119 152.182L502.267 143.66L509.586 133.624Z" fill="black"/>
<path d="M522.587 160.491L517.933 226.957L517.444 234L496.849 232.814L496.074 232.769L480.56 231.874L481.607 196.347L485.788 178.441L496.128 152.412L502.279 143.81L509.602 133.641L511.556 131C511.556 131 512.852 138.595 517.615 135.245L517.715 135.178C522.37 132.343 522.587 160.491 522.587 160.491Z" fill="#1D2366"/>
<path d="M485.701 172C485.701 172 483.833 175.742 480.083 175.136C476.332 174.53 476.34 188.607 476.34 188.607C476.34 188.607 473.847 190.852 472.128 188.906C470.409 186.96 465.877 193.538 465.877 193.538L437.481 194.736C437.481 194.736 450.117 200.266 447.64 217C447.64 217 490.538 214.455 491.944 210.571C493.351 206.687 485.701 172 485.701 172Z" fill="white"/>
<path opacity="0.03" d="M485.701 172C485.701 172 483.833 175.742 480.083 175.136C476.332 174.53 476.34 188.607 476.34 188.607C476.34 188.607 473.847 190.852 472.128 188.906C470.409 186.96 465.877 193.538 465.877 193.538L437.481 194.736C437.481 194.736 450.117 200.266 447.64 217C447.64 217 490.538 214.455 491.944 210.571C493.351 206.687 485.701 172 485.701 172Z" fill="black"/>
<path d="M510.009 135.931C508.972 137.414 506.002 145.004 503.523 151.631C501.456 157.154 499.73 162.01 499.73 162.01C499.73 162.01 495.699 186.576 493.64 191.016C491.581 195.456 492.698 212.773 492.698 212.773L485.024 255.538C485.024 255.538 481.548 277.591 476.179 290.764C470.881 303.729 464.981 309.807 464.799 310C467.175 306.99 480.122 247.732 480.122 247.732L484.399 172.995C484.399 172.995 485.024 165.894 485.658 159.823C486.291 153.752 499.12 145.464 499.12 145.464L511.49 129C512.733 130.557 511.902 133.27 510.009 135.931Z" fill="white"/>
<path d="M477.549 232C477.549 232 460.12 231.231 451.678 220.946C443.237 210.661 471.191 216.841 471.191 216.841L478.458 218.532L477.549 232Z" fill="#FFB0B1"/>
<path opacity="0.1" d="M562.351 345.328C561.386 348.562 561.231 351.964 561.896 355.265C542.232 356.586 521.196 351.555 521.196 351.555C517.277 354.968 506.955 360 506.955 360L501.328 293.951C497.73 285.046 496.319 238.389 496.319 238.389C496.319 238.389 496.641 235.947 497.103 232.289C497.103 232.2 497.103 232.103 497.142 232.014C498.545 221.795 501.328 202.611 502.691 200.021C504.572 196.459 496.907 186.982 496.907 186.982L500.395 158.819L500.818 155.42C508.17 152.311 513.805 142.381 513.805 142.381L518.131 135.205C522.834 132.348 523.077 160.348 523.077 160.348L518.374 226.463L533.955 222.389C533.955 222.389 565.008 336.883 562.351 345.328Z" fill="black"/>
<path d="M582.475 350.766C561.082 360.895 522.198 351.512 522.198 351.512C518.287 354.943 507.985 360 507.985 360L502.361 293.615C498.778 284.664 497.37 237.769 497.37 237.769C497.37 237.769 501.891 202.779 503.769 199.206C504.316 198.162 504.05 196.61 503.401 194.939C500.209 186.987 499.035 178.427 499.975 169.959L501.477 157.793L501.891 154.385C509.236 151.252 514.861 141.272 514.861 141.272L518.772 134.738L525.968 122.699L529.378 117L529.957 117.5L534.377 121.319C534.377 121.319 536.254 122.811 539.07 125.048C545.195 129.971 555.778 138.639 561.238 143.942C566.041 148.611 567.558 166.774 567.997 180.446C568.286 189.449 568.114 196.506 568.114 196.506C563.272 204.106 575.936 265.129 575.936 265.129C578.885 276.921 582.475 350.766 582.475 350.766Z" fill="white"/>
<path opacity="0.03" d="M541.326 141.054C541.326 141.054 526.601 167.757 528.311 177.906C530.021 188.055 534.885 199.542 532.539 202.225C531.733 203.242 530.692 204.067 529.495 204.636C528.299 205.205 526.981 205.503 525.644 205.506C523.29 205.655 517.014 209.833 517.014 210.281C517.014 210.73 511.217 210.73 506.032 212.822C500.846 214.915 493.19 216.103 493.19 216.103C493.19 216.103 478.285 215.655 476.896 217C475.508 218.345 474.08 226.394 477.053 232.814C480.026 239.234 483.329 244.025 485.823 244.899C488.318 245.773 504.149 240.721 516.991 239.525C529.833 238.33 543.773 228.636 543.773 228.636C543.773 228.636 559.125 223.405 561.816 214.609C564.507 205.812 558.529 157.466 558.529 157.466C558.529 157.466 554.011 134.933 541.326 141.054Z" fill="black"/>
<path opacity="0.03" d="M539.239 139.052C539.239 139.052 524.506 165.763 526.233 175.905C527.96 186.047 532.81 197.541 530.456 200.232C529.652 201.249 528.611 202.075 527.415 202.645C526.22 203.214 524.901 203.511 523.564 203.513C521.209 203.662 514.93 207.84 514.93 208.288C514.93 208.737 509.129 208.737 503.941 210.822C498.752 212.907 491.091 214.103 491.091 214.103C491.091 214.103 476.178 213.654 474.796 215C473.415 216.345 471.97 224.402 474.953 230.814C477.936 237.226 481.233 242.024 483.729 242.899C486.225 243.773 502.065 238.721 514.914 237.533C527.763 236.344 541.712 226.636 541.712 226.636C541.712 226.636 557.065 221.405 559.726 212.616C562.387 203.826 556.437 155.464 556.437 155.464C556.437 155.464 551.931 132.939 539.239 139.052Z" fill="black"/>
<path d="M540.256 140.034C540.256 140.034 525.532 166.493 527.258 176.539C528.984 186.585 533.832 197.97 531.486 200.628C530.683 201.639 529.642 202.459 528.446 203.024C527.249 203.59 525.929 203.884 524.591 203.886C522.238 204.034 515.962 208.172 515.962 208.609C515.962 209.046 510.173 209.053 504.98 211.126C499.787 213.199 492.138 214.376 492.138 214.376C492.138 214.376 477.234 213.932 475.845 215.264C474.457 216.597 473.029 224.577 476.002 230.929C478.975 237.281 482.278 242.034 484.772 242.9C487.267 243.766 503.097 238.762 515.938 237.577C528.78 236.393 542.72 226.791 542.72 226.791C542.72 226.791 558.071 221.609 560.762 212.895C563.453 204.182 557.514 156.291 557.514 156.291C557.514 156.291 552.933 134.008 540.256 140.034Z" fill="white"/>
<path opacity="0.1" d="M540.361 211.665C540.361 211.665 528.896 209.43 532.886 213.155C536.876 216.881 536.853 220.144 541.737 219.995C546.621 219.846 540.361 211.665 540.361 211.665Z" fill="black"/>
<path opacity="0.1" d="M559.802 291C559.802 291 554.088 294.367 565.019 302.129C575.951 309.89 559.802 291 559.802 291Z" fill="black"/>
<path opacity="0.1" d="M550.126 319C550.126 319.451 548.299 335.535 555.134 339.555C561.97 343.576 550.126 319 550.126 319Z" fill="black"/>
<path opacity="0.1" d="M538.347 125.906C532.471 129.746 527.543 132.986 526.579 133.659C523.947 135.524 518.927 146.473 515.691 152.061C513.112 156.559 504.733 157.715 501.573 158L501.979 154.658C509.164 151.586 514.665 141.8 514.665 141.8L528.867 118L533.756 122.249C533.756 122.249 535.593 123.712 538.347 125.906Z" fill="black"/>
<path d="M538.347 125.104C532.471 129.04 527.543 132.361 526.579 133.058C523.947 134.962 518.927 146.185 515.691 151.913C513.112 156.523 504.733 157.708 501.573 158L501.979 154.574C509.164 151.425 514.665 141.395 514.665 141.395L528.867 117L533.756 121.341C533.756 121.341 535.593 122.825 538.347 125.104Z" fill="#DCE7FF"/>
<path d="M526.79 105.996C526.793 110.449 525.374 114.797 522.721 118.465C519.589 122.801 514.926 125.925 509.58 127.27C504.235 128.614 498.559 128.091 493.585 125.793C488.61 123.496 484.665 119.578 482.466 114.749C480.267 109.92 479.96 104.502 481.599 99.4757C483.239 94.4498 486.718 90.1498 491.404 87.3561C496.089 84.5623 501.672 83.4598 507.139 84.2486C512.606 85.0374 517.595 87.6653 521.2 91.6554C524.806 95.6455 526.789 100.734 526.79 105.996Z" fill="#FFB0B1"/>
<path opacity="0.1" d="M567.766 181C564.594 179.127 562.01 176.464 560.29 173.294C558.985 170.821 558.118 167.965 555.891 166.211C553.883 164.637 551.203 164.254 548.703 163.55C540.484 161.218 533.593 154.022 533.335 145.807C533.21 141.939 534.468 138.079 533.898 134.248C533.573 132.081 532.675 130.029 531.288 128.289C530.6 127.457 529.845 126.678 529.03 125.958C527.937 124.969 526.788 124.009 525.788 122.96C525.158 122.31 524.608 121.593 524.147 120.823C523.776 120.193 523.475 119.528 523.249 118.837C521.686 114.249 523.108 108.808 521.389 104.168L521.296 103.913C520.647 102.264 519.327 100.615 517.491 100.487C515.655 100.36 514.084 101.821 512.334 102.474C508.67 103.838 504.717 101.514 501.662 99.1454C498.607 96.7767 495.162 94.0707 491.279 94.5954C488.708 94.9477 486.677 96.6267 484.31 97.4963C483.775 97.6948 483.224 97.8478 482.661 97.9535C484.665 93.16 488.345 89.1855 493.071 86.7129C497.797 84.2402 503.273 83.4238 508.558 84.4039C513.843 85.384 518.608 88.0993 522.033 92.0835C525.458 96.0677 527.33 101.072 527.327 106.236C527.33 107.796 527.16 109.351 526.819 110.876C526.858 110.981 526.897 111.079 526.944 111.184C527.851 113.432 528.874 115.741 529.773 117.735L534.187 121.573C534.187 121.573 536.062 123.072 538.875 125.321C544.992 130.268 555.563 138.978 561.016 144.308C565.813 149.015 567.313 167.26 567.766 181Z" fill="black"/>
<path d="M483.816 83.7489C484.933 81.5824 485.487 79.1554 486.823 77.1006C488.782 74.1226 492.203 72.2167 495.716 71.0628C504.891 68.0476 524.28 63.67 530.074 71.0628C531.214 72.5517 532.159 74.2045 533.736 75.2319C534.938 76.0136 536.391 76.3486 537.71 76.9368C541.404 78.5896 543.762 82.1929 545.019 85.8707C546.276 89.5485 546.651 93.4942 547.572 97.2837C548.752 102.145 550.821 106.754 552.882 111.332C555.311 116.737 557.887 122.343 562.573 126.162C568.968 131.374 570.381 138.752 576.315 144.47C583.343 151.259 583.117 162.464 579.493 171.36C579.017 172.529 578.478 173.75 578.666 174.994C578.853 176.237 579.822 177.369 580.735 178.359L584.577 182.491C575.488 184.583 565.204 180.056 560.972 172.112C559.668 169.656 558.801 166.827 556.568 165.077C554.569 163.514 551.883 163.141 549.392 162.442C541.177 160.119 534.29 152.964 534.033 144.805C533.908 140.97 535.165 137.136 534.595 133.339C534.278 131.172 533.376 129.12 531.979 127.383C529.832 124.711 526.591 122.917 524.842 119.939C521.883 114.958 524.131 108.488 522 103.143C521.344 101.505 520.032 99.8671 518.197 99.7405C516.362 99.614 514.793 101.066 513.036 101.713C509.381 103.068 505.43 100.768 502.377 98.4079C499.324 96.0479 495.88 93.3677 491.992 93.8963C489.423 94.2387 487.4 95.9064 485.034 96.7775C483.285 97.4177 479.74 97.991 478.21 96.5839C474.977 93.7474 482.465 86.3993 483.816 83.7489Z" fill="#EEF213"/>
<path opacity="0.1" d="M563.314 169.716C562.002 167.277 561.143 164.469 558.91 162.74C556.911 161.188 554.224 160.811 551.726 160.116C543.519 157.818 536.631 150.715 536.366 142.615C536.241 138.809 537.498 134.996 536.936 131.227C536.609 129.089 535.708 127.066 534.32 125.351C532.165 122.698 528.924 120.917 527.183 117.961C524.223 113.024 526.472 106.602 524.333 101.288C523.684 99.6694 522.365 98.0435 520.537 97.9105C518.71 97.7774 517.125 99.2334 515.376 99.8763C511.721 101.221 507.762 98.9303 504.717 96.595C501.672 94.2596 498.212 91.5916 494.331 92.1089C491.762 92.4563 489.732 94.1117 487.374 94.969C485.625 95.6046 482.072 96.1811 480.541 94.7843C477.324 91.8281 484.813 84.5485 486.156 81.9322C487.272 79.7742 487.827 77.3723 489.17 75.3326C489.24 75.2217 489.318 75.1109 489.396 75C488.392 75.7877 487.525 76.7205 486.827 77.764C485.492 79.8038 484.937 82.1983 483.821 84.3637C482.47 86.9799 474.981 94.2817 478.206 97.2157C479.768 98.6199 483.282 98.0435 485.031 97.4079C487.374 96.5432 489.42 94.8877 491.989 94.5478C495.893 94.0231 499.329 96.691 502.374 99.0264C505.42 101.362 509.402 103.653 513.041 102.308C514.79 101.665 516.321 100.216 518.195 100.349C520.069 100.482 521.318 102.101 521.998 103.727C524.129 109.033 521.881 115.455 524.84 120.4C526.589 123.304 529.83 125.122 531.977 127.79C533.375 129.514 534.276 131.551 534.593 133.702C535.163 137.472 533.906 141.278 534.031 145.084C534.289 153.213 541.176 160.286 549.391 162.592C551.866 163.287 554.568 163.656 556.567 165.208C558.808 166.945 559.69 169.753 560.971 172.192C565.203 180.078 575.487 184.571 584.577 182.494L582.765 180.558C574.886 180.669 566.913 176.427 563.314 169.716Z" fill="black"/>
<path opacity="0.1" d="M509.024 136.096C508.016 137.598 505.131 145.287 502.722 152C500.468 151.144 498.421 145.685 498.421 145.685L510.44 129C511.671 130.652 510.863 133.393 509.024 136.096Z" fill="black"/>
<path d="M510.075 135.091C509.067 136.593 506.182 144.285 503.773 151C501.518 150.151 499.472 144.683 499.472 144.683L511.491 128C512.722 129.645 511.914 132.394 510.075 135.091Z" fill="#DCE7FF"/>
<path d="M396 206.716L405.58 214.896L484.44 231.466L474.66 221.486L396 206.716Z" fill="white"/>
<path d="M440.52 194.916C433.28 195.166 417.64 197.376 425.75 212.506C432.92 225.896 444.97 216.946 451.75 210.156C450.096 203.826 446.077 198.371 440.52 194.916Z" fill="#FFB0B1"/>
<path d="M440.94 217.636L432.28 190.326C432.177 190.007 432.139 189.67 432.167 189.335C432.195 189.001 432.289 188.675 432.443 188.376C432.597 188.078 432.809 187.813 433.066 187.597C433.323 187.381 433.62 187.217 433.94 187.116C434.584 186.915 435.282 186.977 435.882 187.288C436.481 187.598 436.933 188.134 437.14 188.776L445.8 216.056L444.94 221.766L440.94 217.636Z" fill="#BE8B87"/>
<path d="M432.23 200.026C432.23 200.026 449.6 199.926 445.51 207.316C441.42 214.706 435.03 215.596 435.03 215.596L432.23 200.026Z" fill="#FFB0B1"/>
<path d="M142.5 353C221.201 353 285 289.201 285 210.5C285 131.799 221.201 68 142.5 68C63.7994 68 0 131.799 0 210.5C0 289.201 63.7994 353 142.5 353Z" fill="#F6F6F6"/>
<path opacity="0.2" d="M142.5 314.511C118.437 314.511 95.118 306.167 76.5169 290.902C57.9158 275.636 45.1832 254.393 40.4888 230.792C35.7944 207.191 39.4286 182.692 50.772 161.47C62.1155 140.248 80.4665 123.616 102.698 114.407C124.93 105.199 149.667 103.984 172.694 110.969C195.721 117.954 215.614 132.708 228.983 152.716C242.352 172.724 248.369 196.748 246.011 220.696C243.652 244.643 233.063 267.032 216.048 284.047C206.412 293.736 194.95 301.417 182.325 306.646C169.701 311.875 156.165 314.549 142.5 314.511ZM142.5 112.904C88.6853 112.904 44.9038 156.685 44.9038 210.5C44.9038 264.315 88.6853 308.096 142.5 308.096C196.315 308.096 240.097 264.315 240.097 210.5C240.097 156.685 196.315 112.904 142.5 112.904Z" fill="#0066FF"/>
<path d="M142.499 311.304C198.172 311.304 243.303 266.172 243.303 210.5C243.303 154.827 198.172 109.696 142.499 109.696C86.8267 109.696 41.6953 154.827 41.6953 210.5C41.6953 266.172 86.8267 311.304 142.499 311.304Z" fill="#DFDFDF"/>
<path d="M83.1154 249.228C82.2438 247.906 81.6414 246.425 81.3426 244.869C81.0437 243.314 81.0544 241.715 81.3738 240.164C81.6933 238.613 82.3153 237.14 83.2044 235.83C84.0935 234.519 85.2321 233.397 86.5552 232.527C87.8784 231.656 89.3601 231.056 90.9156 230.758C92.4711 230.461 94.0699 230.474 95.6206 230.795C97.1714 231.116 98.6436 231.739 99.9532 232.63C101.263 233.52 102.384 234.66 103.253 235.984L135.737 285.378C136.609 286.7 137.212 288.181 137.51 289.736C137.809 291.291 137.799 292.89 137.479 294.441C137.16 295.992 136.538 297.465 135.649 298.776C134.759 300.086 133.621 301.209 132.298 302.079C130.975 302.949 129.493 303.55 127.937 303.847C126.382 304.144 124.783 304.132 123.232 303.811C121.682 303.49 120.932 302.786 119.623 301.895C118.313 301.005 117.192 299.865 116.323 298.541L83.1154 249.228Z" fill="#E97F28"/>
<path d="M47.2252 200.942C46.3158 199.574 46.9186 197.8 46.7015 196.233C46.4844 194.666 47.0229 192.658 47.5312 191.131C48.0394 189.604 48.5072 188.589 49.6633 187.335C50.8194 186.081 52.2523 185.029 53.88 184.239C55.5077 183.449 57.2984 182.936 59.1496 182.731C61.0009 182.525 62.8764 182.63 64.6689 183.041C66.4614 183.451 69.4091 184.014 70.8696 184.977C72.6783 186.17 72.364 185.856 73.8968 187.082L107.065 239.756C107.975 241.124 130.701 277.501 130.918 279.068C131.135 280.635 108.839 247.361 108.331 248.888C107.822 250.415 106.966 251.846 105.81 253.1C104.654 254.354 103.221 255.406 101.593 256.196C99.9653 256.986 98.1747 257.499 96.3234 257.704C94.4722 257.91 92.5967 257.805 90.8042 257.395C89.0116 256.984 115.221 295.347 113.761 294.384C112.3 293.42 83.198 253.15 82.292 251.78L47.2252 200.942Z" fill="#E97F28"/>
<path opacity="0.2" d="M74.5411 210.833L73.7789 210.003C76.8832 207.852 80.6156 206.109 84.806 204.663L85.5682 205.493C80.9913 206.684 77.1723 208.37 74.5411 210.833Z" fill="#401D00"/>
<path opacity="0.2" d="M98.0325 273.026L97.4508 272.176C99.6544 270.125 102.329 268.5 105.347 267.185L105.929 268.034C102.621 269.084 99.8811 270.65 98.0325 273.026Z" fill="#401D00"/>
<path opacity="0.2" d="M123.297 284.184L122.715 283.334C124.919 281.283 127.594 279.658 130.612 278.342L131.194 279.192C127.885 280.242 125.146 281.808 123.297 284.184Z" fill="#401D00"/>
<path opacity="0.2" d="M119.721 271.095L119.364 270.627C120.755 269.469 122.437 268.544 124.331 267.789L124.688 268.257C122.615 268.867 120.893 269.759 119.721 271.095Z" fill="#401D00"/>
<path opacity="0.2" d="M70.6454 234.73L69.6547 233.214C73.3554 229.593 77.8557 226.731 82.9392 224.424L83.9299 225.94C78.3541 227.772 73.7434 230.527 70.6454 234.73Z" fill="#401D00"/>
<path opacity="0.2" d="M87.2636 258.581L86.2729 257.065C89.9736 253.443 94.4739 250.582 99.5574 248.275L100.548 249.791C94.9722 251.623 90.3615 254.378 87.2636 258.581Z" fill="#401D00"/>
<path opacity="0.2" d="M48.6913 203.092L47.7006 201.576C51.4013 197.955 55.9016 195.093 60.9851 192.786L61.9758 194.302C56.4 196.134 51.7893 198.889 48.6913 203.092Z" fill="#401D00"/>
<path opacity="0.2" d="M98.04 245.013L97.417 244.067C99.7487 241.801 102.583 240.01 105.785 238.566L106.408 239.512C102.897 240.66 99.9925 242.385 98.04 245.013Z" fill="#401D00"/>
<path opacity="0.2" d="M62.243 203.298L61.2034 201.432C65.6762 197.398 71.0175 194.321 76.9923 191.942L78.0319 193.808C71.5228 195.589 66.0616 198.533 62.243 203.298Z" fill="black"/>
<path d="M96.7967 225.341C96.0322 223.844 95.5703 222.211 95.4375 220.535C95.3046 218.859 95.5034 217.173 96.0224 215.574C96.5414 213.975 97.3705 212.494 98.4623 211.216C99.5541 209.937 100.887 208.887 102.385 208.124C103.883 207.361 105.517 206.901 107.193 206.77C108.869 206.639 110.555 206.839 112.153 207.36C113.752 207.881 115.232 208.711 116.509 209.804C117.786 210.898 118.836 212.232 119.597 213.731L148.077 269.656C148.841 271.153 149.303 272.786 149.436 274.462C149.569 276.138 149.37 277.824 148.851 279.423C148.332 281.022 147.503 282.503 146.411 283.781C145.319 285.06 143.986 286.111 142.488 286.873C140.99 287.636 139.356 288.097 137.68 288.228C136.004 288.359 134.319 288.158 132.72 287.637C131.122 287.117 130.414 286.286 129.136 285.193C127.859 284.1 126.81 282.766 126.048 281.267L96.7967 225.341Z" fill="#F88B31"/>
<path d="M64.5934 170.185C63.7944 168.635 64.6385 166.834 64.5932 165.156C64.5479 163.477 65.3518 161.421 66.0671 159.87C66.7824 158.319 67.3952 157.303 68.7621 156.115C70.1289 154.928 71.7641 153.986 73.5742 153.343C75.3843 152.7 77.3337 152.37 79.311 152.37C81.2884 152.37 83.2548 152.701 85.098 153.344C86.9412 153.987 89.9851 154.927 91.4131 156.115C93.1814 157.586 92.8867 157.218 94.36 158.691L123.176 218.158C123.975 219.708 143.686 260.754 143.731 262.433C143.776 264.112 124.156 226.39 123.44 227.941C122.725 229.492 121.653 230.902 120.286 232.089C118.919 233.277 117.284 234.219 115.474 234.861C113.664 235.504 111.715 235.834 109.737 235.834C107.76 235.834 105.794 235.503 103.95 234.86C102.107 234.217 125.26 277.767 123.832 276.58C122.404 275.392 96.4231 229.489 95.6279 227.938L64.5934 170.185Z" fill="#F88B31"/>
<path opacity="0.2" d="M92.2547 183.825L91.5479 182.861C95.0755 180.955 99.2179 179.554 103.809 178.52L104.516 179.485C99.5469 180.205 95.3197 181.536 92.2547 183.825Z" fill="#401D00"/>
<path opacity="0.2" d="M109.745 252.201L109.23 251.236C111.796 249.331 114.809 247.929 118.147 246.896L118.662 247.861C115.048 248.58 111.974 249.911 109.745 252.201Z" fill="#401D00"/>
<path opacity="0.2" d="M135.092 266.937L134.578 265.972C137.144 264.067 140.156 262.665 143.495 261.632L144.009 262.597C140.396 263.316 137.321 264.647 135.092 266.937Z" fill="#401D00"/>
<path opacity="0.2" d="M132.854 252.707L132.533 252.171C134.137 251.113 136.02 250.334 138.106 249.76L138.428 250.296C136.169 250.696 134.248 251.435 132.854 252.707Z" fill="#401D00"/>
<path opacity="0.2" d="M85.3411 208.582L84.4736 206.867C88.803 203.48 93.8869 200.988 99.5211 199.151L100.389 200.866C94.2906 202.145 89.1027 204.511 85.3411 208.582Z" fill="#401D00"/>
<path opacity="0.2" d="M100.077 235.696L99.21 233.981C103.539 230.594 108.623 228.103 114.257 226.265L115.125 227.981C109.027 229.259 103.839 231.625 100.077 235.696Z" fill="#401D00"/>
<path opacity="0.2" d="M65.8909 172.626L65.0234 170.911C69.3528 167.524 74.4367 165.032 80.0709 163.195L80.9384 164.91C74.8405 166.189 69.6525 168.555 65.8909 172.626Z" fill="#401D00"/>
<path opacity="0.2" d="M113.038 222.646L112.492 221.574C115.218 219.457 118.419 217.9 121.967 216.751L122.513 217.823C118.673 218.622 115.407 220.101 113.038 222.646Z" fill="#401D00"/>
<path opacity="0.2" d="M73.9942 183.238L73.1162 181.148C78.3086 177.416 84.3051 174.796 90.8881 172.987L91.7662 175.077C84.6895 176.193 78.5822 178.658 73.9942 183.238Z" fill="black"/>
<path d="M214.878 156.31C217.487 149.673 213.932 142.036 207.283 139.455L145.577 115.5C139.032 112.96 131.301 116.112 128.685 122.625C127.94 124.475 127.634 126.473 127.793 128.462C127.951 130.45 128.57 132.375 129.599 134.084C129.867 134.511 130.018 135.001 130.038 135.505C130.057 136.009 129.943 136.509 129.709 136.956C129.431 137.458 129.188 137.978 128.98 138.513L112.417 181.181C111.807 182.752 111.513 184.427 111.551 186.112C111.589 187.796 111.958 189.457 112.638 190.998C113.318 192.54 114.295 193.933 115.513 195.098C116.731 196.262 118.166 197.175 119.737 197.785L170.444 217.469C173.617 218.701 177.149 218.622 180.263 217.25C183.378 215.879 185.819 213.326 187.05 210.154L203.614 167.486C203.796 167.018 203.95 166.54 204.076 166.053C204.206 165.574 204.463 165.139 204.818 164.792C205.174 164.446 205.615 164.201 206.098 164.082C208.072 163.573 209.897 162.603 211.423 161.252C212.95 159.901 214.134 158.207 214.878 156.31Z" fill="#EB996E"/>
<path d="M213.025 154.369C213.611 151.944 213.285 149.384 212.106 147.173C210.928 144.961 208.979 143.25 206.628 142.362L144.658 118.306C142.475 117.436 140.063 117.331 137.82 118.009C135.576 118.687 133.636 120.106 132.32 122.033C131.141 123.816 130.564 125.928 130.671 128.064C130.778 130.201 131.565 132.252 132.917 133.922C133.308 134.401 133.528 134.996 133.543 135.612C133.558 136.228 133.367 136.83 132.999 137.324C132.47 138.036 132.04 138.815 131.72 139.642L115.22 182.146C114.377 184.319 114.325 186.719 115.072 188.934C115.819 191.148 117.32 193.038 119.314 194.275C119.846 194.604 120.407 194.884 120.991 195.11L171.868 214.861C172.727 215.196 173.627 215.411 174.544 215.499C176.727 215.714 178.917 215.213 180.781 214.074C182.645 212.935 184.08 211.22 184.869 209.189L201.372 166.676C201.673 165.903 201.875 165.094 201.973 164.27C202.001 164.042 202.057 163.818 202.139 163.603C202.322 163.134 202.63 162.723 203.03 162.415C203.43 162.107 203.908 161.913 204.412 161.855L204.417 161.853C206.448 161.619 208.357 160.779 209.894 159.443C211.43 158.108 212.522 156.339 213.025 154.369Z" fill="#FFD0AB"/>
<path opacity="0.2" d="M199.24 170.534L200.791 166.538L193.988 163.896L202.908 140.918L198.906 139.364L189.986 162.343L168.574 154.031L177.495 131.052L173.493 129.499L164.572 152.478L143.161 144.166L152.082 121.187L148.08 119.634L139.159 142.612L131.555 139.66L130.004 143.657L137.608 146.609L132.954 158.597L125.35 155.646L123.799 159.642L131.402 162.594L126.748 174.583L119.144 171.631L117.593 175.627L125.197 178.579L119.131 194.204C119.66 194.532 120.218 194.81 120.798 195.035L123.071 195.918L129.199 180.132L150.61 188.444L144.482 204.23L148.484 205.783L154.612 189.998L176.023 198.31L169.896 214.095L171.372 214.668C172.226 215.001 173.121 215.214 174.033 215.301L180.025 199.863L186.829 202.504L188.38 198.508L181.577 195.867L186.231 183.878L193.034 186.519L194.586 182.523L187.782 179.882L192.436 167.893L199.24 170.534ZM141.61 148.162L163.021 156.474L158.367 168.463L136.956 160.151L141.61 148.162ZM130.75 176.136L135.405 164.147L156.816 172.459L152.162 184.448L130.75 176.136ZM177.575 194.313L156.164 186.002L160.818 174.013L182.229 182.324L177.575 194.313ZM183.78 178.328L162.369 170.016L167.023 158.027L188.434 166.339L183.78 178.328Z" fill="#505050"/>
<path d="M220.129 236.373L220.219 236.373C223.287 236.399 226.291 235.5 228.839 233.792C231.388 232.085 233.363 229.65 234.507 226.803C236.859 220.858 238.044 214.515 237.998 208.121C237.838 181.06 215.822 158.859 188.762 158.484C177.238 158.323 166.013 162.152 156.989 169.321C147.965 176.491 141.698 186.56 139.251 197.823C136.803 209.085 138.325 220.847 143.559 231.116C148.793 241.384 157.417 249.526 167.969 254.163C170.757 255.397 173.853 255.76 176.852 255.204C179.85 254.648 182.611 253.199 184.771 251.047C189.405 246.389 194.915 242.694 200.983 240.176C207.052 237.657 213.559 236.365 220.129 236.373Z" fill="white"/>
<path d="M194.471 221.253C203.581 221.253 210.966 213.867 210.966 204.757C210.966 195.647 203.581 188.262 194.471 188.262C185.361 188.262 177.976 195.647 177.976 204.757C177.976 213.867 185.361 221.253 194.471 221.253Z" fill="#F9A825"/>
<path d="M75.3153 136.537C74.4278 146.317 76.1918 158.536 76.1918 158.536C76.1918 158.536 79.3947 154.894 80.2793 145.111C81.1638 135.328 79.4028 123.113 79.4028 123.113C79.4028 123.113 76.2029 126.758 75.3153 136.537Z" fill="#4B920E"/>
<path d="M72.5311 138.531C72.8153 148.203 75.9067 159.997 75.9067 159.997C75.9067 159.997 78.5364 156.106 78.2489 146.432C77.9614 136.757 74.8733 124.965 74.8733 124.965C74.8733 124.965 72.2468 128.859 72.5311 138.531Z" fill="#44840F"/>
<path d="M66.9013 140.889C70.0396 150.042 76.4881 160.391 76.4881 160.391C76.4881 160.391 77.8464 155.895 74.704 146.74C71.5617 137.585 65.1172 127.239 65.1172 127.239C65.1172 127.239 63.7629 131.736 66.9013 140.889Z" fill="#4B920E"/>
<path d="M61.0193 145.203C67.2685 152.591 77.0357 159.889 77.0357 159.889C77.0357 159.889 76.668 155.207 70.4145 147.819C64.161 140.432 54.3981 133.133 54.3981 133.133C54.3981 133.133 54.7702 137.816 61.0193 145.203Z" fill="#4B920E"/>
<path d="M57.5829 149.66C65.4734 155.261 76.7492 159.9 76.7492 159.9C76.7492 159.9 75.2283 155.457 67.3335 149.857C59.4388 144.257 48.1672 139.617 48.1672 139.617C48.1672 139.617 49.6924 144.06 57.5829 149.66Z" fill="#44840F"/>
<path d="M63.6371 156.04C55.4682 151.643 46.7503 143.891 46.7503 143.891C46.7503 143.891 51.2801 143.269 59.45 147.671C67.6199 152.072 76.3368 159.82 76.3368 159.82C76.3368 159.82 71.806 160.437 63.6371 156.04Z" fill="#4B920E"/>
<path d="M52.672 167.73C53.93 177.448 57.4401 189.214 57.4401 189.214C57.4401 189.214 58.9095 185.221 57.6487 175.5C56.388 165.78 52.8806 154.016 52.8806 154.016C52.8806 154.016 51.4139 158.012 52.672 167.73Z" fill="#4B920E"/>
<path d="M51.1716 170.051C53.1998 179.51 57.5247 190.686 57.5247 190.686C57.5247 190.686 58.5601 186.523 56.5292 177.062C54.4982 167.6 50.1761 156.426 50.1761 156.426C50.1761 156.426 49.1435 160.592 51.1716 170.051Z" fill="#44840F"/>
<path d="M47.8227 173.101C51.6778 181.678 57.9929 190.996 57.9929 190.996C57.9929 190.996 58.0557 186.405 54.1976 177.827C50.3395 169.249 44.0274 159.931 44.0274 159.931C44.0274 159.931 43.9676 164.524 47.8227 173.101Z" fill="#4B920E"/>
<path d="M44.6705 178.103C50.2891 184.541 58.2641 190.433 58.2641 190.433C58.2641 190.433 57.1271 185.884 51.5056 179.446C45.8841 173.009 37.912 167.117 37.912 167.117C37.912 167.117 39.052 171.666 44.6705 178.103Z" fill="#4B920E"/>
<path d="M43.1986 182.927C49.5852 187.397 58.073 190.48 58.073 190.48C58.073 190.48 56.2034 186.316 49.8141 181.848C43.4248 177.381 34.9397 174.295 34.9397 174.295C34.9397 174.295 36.812 178.458 43.1986 182.927Z" fill="#44840F"/>
<path d="M48.4951 188.402C42.1492 185.15 34.796 178.676 34.796 178.676C34.796 178.676 37.734 177.475 44.0812 180.731C50.4285 183.986 57.7803 190.456 57.7803 190.456C57.7803 190.456 54.8409 191.653 48.4951 188.402Z" fill="#4B920E"/>
<path d="M208.5 270C215.404 270 221 264.404 221 257.5C221 250.596 215.404 245 208.5 245C201.596 245 196 250.596 196 257.5C196 264.404 201.596 270 208.5 270Z" fill="#B81A11"/>
<path d="M200.5 282C207.404 282 213 276.404 213 269.5C213 262.596 207.404 257 200.5 257C193.596 257 188 262.596 188 269.5C188 276.404 193.596 282 200.5 282Z" fill="#C11D14"/>
<path d="M187.5 293C194.404 293 200 287.404 200 280.5C200 273.596 194.404 268 187.5 268C180.596 268 175 273.596 175 280.5C175 287.404 180.596 293 187.5 293Z" fill="#CB2219"/>
<path d="M353.365 111.098L353.241 111.081C348.323 110.415 343.622 112.428 340.601 115.929C338.619 111.751 334.622 108.56 329.705 107.895L329.581 107.878C325.886 107.414 322.157 108.426 319.204 110.696C316.251 112.965 314.314 116.308 313.812 119.998C313.192 124.581 314.319 131.355 317.509 137.235C323.585 148.439 334.766 159.036 334.766 159.036C334.766 159.036 348.361 151.795 357.196 142.607C361.836 137.787 364.722 131.556 365.342 126.974C365.84 123.283 364.861 119.546 362.618 116.573C360.375 113.6 357.05 111.633 353.365 111.098ZM347.37 142.076C346.811 141.998 346.288 141.753 345.87 141.372C345.452 140.992 345.159 140.494 345.029 139.943L342.09 139.546C341.896 139.518 341.716 139.431 341.575 139.296C341.433 139.162 341.337 138.986 341.3 138.794L340.765 135.952L336.556 145.549C336.475 145.733 336.335 145.887 336.159 145.985C335.983 146.084 335.779 146.123 335.579 146.096L335.522 146.088C335.314 146.05 335.126 145.942 334.989 145.781C334.852 145.621 334.774 145.419 334.768 145.208L334.221 127.098L330.65 137.287C330.574 137.48 330.435 137.641 330.256 137.745C330.078 137.85 329.869 137.891 329.664 137.864L325.523 137.303C325.398 137.291 325.277 137.255 325.166 137.195C325.056 137.135 324.959 137.054 324.881 136.956C324.803 136.858 324.745 136.745 324.712 136.624C324.679 136.503 324.67 136.377 324.687 136.253C324.704 136.128 324.746 136.009 324.81 135.901C324.874 135.794 324.959 135.7 325.061 135.626C325.162 135.552 325.277 135.5 325.4 135.472C325.522 135.443 325.648 135.44 325.772 135.462L329.188 135.925L334.144 122.247C334.222 122.045 334.368 121.877 334.557 121.771C334.745 121.665 334.965 121.628 335.177 121.666C335.39 121.704 335.583 121.815 335.724 121.979C335.864 122.144 335.943 122.352 335.947 122.568L336.508 141.042L340.279 132.456C340.357 132.275 340.493 132.124 340.664 132.027C340.835 131.929 341.034 131.889 341.23 131.913L341.248 131.916C341.441 131.942 341.622 132.029 341.763 132.164C341.905 132.299 342 132.475 342.036 132.667L343.004 137.8L345.242 138.103C345.466 137.641 345.814 137.25 346.247 136.974C346.679 136.697 347.18 136.545 347.693 136.535C348.207 136.525 348.713 136.657 349.156 136.916C349.6 137.176 349.963 137.553 350.205 138.005C350.448 138.458 350.56 138.969 350.531 139.481C350.501 139.994 350.331 140.489 350.038 140.911C349.745 141.332 349.342 141.665 348.872 141.872C348.402 142.079 347.883 142.152 347.375 142.083L347.37 142.076Z" fill="#CB6969"/>
<path d="M295.742 14L279.711 14.1273L280.282 86L296.313 85.8727L295.742 14Z" fill="white"/>
<path d="M252 42.2578L252.127 58.2889L324 57.7181L323.872 41.687L252 42.2578Z" fill="white"/>
<path d="M288.5 0C261.204 0 239 22.428 239 50C238.992 57.0578 240.472 64.0364 243.34 70.472C251.098 87.864 268.419 100 288.5 100C301.626 99.9926 314.212 94.7225 323.494 85.3472C332.775 75.972 337.993 63.2586 338 50C338 22.428 315.792 0 288.5 0ZM329.454 70.1C325.716 77.8597 319.895 84.4023 312.654 88.9817C305.413 93.5611 297.043 95.993 288.5 96C269.203 96 252.67 83.812 246.053 66.656C244.002 61.3476 242.953 55.6983 242.96 50C242.96 24.636 263.39 4 288.5 4C313.61 4 334.04 24.636 334.04 50C334.049 56.9655 332.48 63.8408 329.454 70.1Z" fill="white"/>
<path d="M347.952 185.93L345.98 264.744L343.538 362.477H260.414L257.552 247.971L256 185.93H347.952Z" fill="white"/>
<path d="M307.492 144H295.723V299.95H307.492V144Z" fill="#FEFEFE"/>
<path d="M342.067 245.316L339.841 357.336H264.074L261.466 226.092C268.292 224.175 275.44 223.684 282.464 224.65C289.488 225.616 296.238 228.019 302.293 231.707C314.952 239.195 329.173 243.225 342.067 245.316Z" fill="#038062"/>
<path d="M282.831 257.926H272.031V268.726H282.831V257.926Z" fill="#75FF00"/>
<path d="M290.187 235.858H279.387V246.658H290.187V235.858Z" fill="#53B500"/>
<path d="M313.378 251.136L304.703 244.702L298.27 253.377L306.944 259.81L313.378 251.136Z" fill="#75FF00"/>
<path d="M332.89 270.271L324.216 263.837L317.782 272.512L326.457 278.945L332.89 270.271Z" fill="#648945"/>
<path d="M285.35 292.796L275 295.881L278.085 306.231L288.435 303.146L285.35 292.796Z" fill="#53B500"/>
<path d="M299.788 281.306L291.113 274.872L284.68 283.547L293.354 289.98L299.788 281.306Z" fill="#75FF00"/>
<path d="M325.147 231.538C326.366 231.538 327.354 230.55 327.354 229.331C327.354 228.112 326.366 227.124 325.147 227.124C323.928 227.124 322.94 228.112 322.94 229.331C322.94 230.55 323.928 231.538 325.147 231.538Z" fill="#75CE2A"/>
<path d="M280.275 216.826C281.494 216.826 282.482 215.838 282.482 214.619C282.482 213.4 281.494 212.412 280.275 212.412C279.056 212.412 278.068 213.4 278.068 214.619C278.068 215.838 279.056 216.826 280.275 216.826Z" fill="#2513F0"/>
<path d="M317.792 201.378C319.011 201.378 319.999 200.39 319.999 199.171C319.999 197.952 319.011 196.964 317.792 196.964C316.573 196.964 315.585 197.952 315.585 199.171C315.585 200.39 316.573 201.378 317.792 201.378Z" fill="#648945"/>
<defs>
<linearGradient id="paint0_linear_555_1523" x1="494.19" y1="484.001" x2="494.19" y2="66.021" gradientUnits="userSpaceOnUse">
<stop stop-color="#808080" stop-opacity="0.25"/>
<stop offset="0.54" stop-color="#808080" stop-opacity="0.12"/>
<stop offset="1" stop-color="#808080" stop-opacity="0.1"/>
</linearGradient>
</defs>
</svg>
