<svg width="633" height="364" viewBox="0 0 633 364" fill="none" xmlns="http://www.w3.org/2000/svg">
<g clip-path="url(#clip0_478_1690)">
<path d="M595.312 88.7804C597.147 86.7896 598.814 84.6905 600.303 82.4989L565.098 77.5613L603.173 77.8006C606.827 71.0073 608.821 63.6478 609.031 56.173C609.242 48.6981 607.666 41.265 604.399 34.329L553.319 56.9811L600.428 27.3807C596.014 20.8619 590.077 15.1899 582.987 10.7179C575.897 6.24592 567.805 3.0698 559.217 1.38738C550.628 -0.295031 541.726 -0.4477 533.066 0.938886C524.405 2.32547 516.171 5.22161 508.877 9.4469C501.583 13.6722 495.385 19.1361 490.668 25.4983C485.952 31.8606 482.819 38.9848 481.464 46.4272C480.109 53.8697 480.561 61.4709 482.792 68.7575C485.023 76.0441 488.986 82.8599 494.432 88.7804C491.581 91.8809 489.127 95.2344 487.114 98.7829L532.811 119.078L484.089 105.1C480.665 113.745 479.818 122.984 481.623 131.979C483.428 140.975 487.828 149.444 494.426 156.619C487.606 164.034 483.136 172.826 481.448 182.147C479.761 191.468 480.913 201.004 484.794 209.834C488.674 218.663 495.152 226.489 503.601 232.555C512.051 238.621 522.187 242.722 533.031 244.463C532.182 246.509 531.753 248.665 531.763 250.836C531.725 254.049 532.689 257.211 534.556 259.999C532.725 262.799 531.763 265.954 531.763 269.162C531.763 272.37 532.725 275.524 534.556 278.324C532.725 281.124 531.763 284.279 531.763 287.487C531.763 290.695 532.725 293.849 534.556 296.65C532.725 299.45 531.763 302.604 531.763 305.812C531.763 309.02 532.725 312.175 534.556 314.975C532.689 317.763 531.725 320.925 531.763 324.137C531.763 332.419 537.759 339.128 545.161 339.128C552.563 339.128 558.56 332.419 558.56 324.137C558.595 320.925 557.629 317.762 555.761 314.975C557.596 312.176 558.559 309.021 558.559 305.812C558.559 302.604 557.596 299.449 555.761 296.65C557.596 293.85 558.559 290.696 558.559 287.487C558.559 284.278 557.596 281.123 555.761 278.324C557.596 275.525 558.559 272.37 558.559 269.162C558.559 265.953 557.596 262.798 555.761 259.999C557.629 257.212 558.595 254.049 558.56 250.836C558.569 248.635 558.127 246.449 557.255 244.377C568.036 242.563 578.092 238.414 586.459 232.327C594.827 226.241 601.227 218.419 605.046 209.613C608.865 200.806 609.976 191.309 608.271 182.03C606.567 172.751 602.105 164.002 595.312 156.619C604.212 146.95 609.05 135.003 609.05 122.7C609.05 110.396 604.212 98.4501 595.312 88.7804Z" fill="#F2F2F2"/>
<path d="M383.09 147.167C381.867 145.834 380.752 144.431 379.755 142.967L403.294 139.664L377.837 139.821C375.394 135.279 374.061 130.359 373.92 125.361C373.778 120.363 374.832 115.393 377.016 110.756L411.178 125.904L379.677 106.108C382.624 101.74 386.592 97.9388 391.334 94.9405C396.076 91.9422 401.49 89.8117 407.238 88.6818C412.986 87.5519 418.945 87.447 424.742 88.3737C430.54 89.3003 436.052 91.2385 440.934 94.0673C445.816 96.8962 449.964 100.555 453.118 104.815C456.273 109.076 458.366 113.846 459.267 118.829C460.168 123.811 459.859 128.899 458.357 133.775C456.855 138.651 454.194 143.21 450.539 147.167C452.449 149.239 454.09 151.481 455.434 153.856L424.874 167.426L457.471 158.075C459.762 163.857 460.329 170.035 459.121 176.051C457.912 182.067 454.967 187.73 450.551 192.527C455.114 197.484 458.105 203.363 459.235 209.596C460.365 215.829 459.595 222.206 457.001 228.111C454.407 234.016 450.075 239.25 444.425 243.306C438.774 247.363 431.996 250.106 424.743 251.269C425.309 252.638 425.595 254.079 425.589 255.53C425.611 257.672 424.966 259.78 423.719 261.638C424.945 263.51 425.589 265.619 425.589 267.765C425.589 269.91 424.945 272.019 423.719 273.891C424.945 275.763 425.589 277.874 425.589 280.02C425.589 282.166 424.945 284.276 423.719 286.148C424.945 288.02 425.589 290.129 425.589 292.275C425.589 294.42 424.945 296.529 423.719 298.401C424.965 300.259 425.611 302.367 425.589 304.509C425.589 310.042 421.581 314.532 416.657 314.532C411.732 314.532 407.725 310.042 407.725 304.509C407.703 302.367 408.348 300.259 409.594 298.401C408.368 296.529 407.724 294.42 407.724 292.275C407.724 290.129 408.368 288.02 409.594 286.148C408.368 284.276 407.724 282.166 407.724 280.02C407.724 277.874 408.368 275.763 409.594 273.891C408.368 272.019 407.724 269.91 407.724 267.765C407.724 265.619 408.368 263.51 409.594 261.638C408.348 259.78 407.702 257.672 407.725 255.53C407.719 254.057 408.015 252.594 408.6 251.208C401.391 249.996 394.666 247.222 389.07 243.153C383.474 239.083 379.194 233.853 376.639 227.964C374.084 222.075 373.341 215.725 374.48 209.52C375.619 203.315 378.602 197.464 383.143 192.527C377.195 186.06 373.961 178.073 373.961 169.847C373.961 161.621 377.195 153.633 383.143 147.167H383.09Z" fill="#F2F2F2"/>
<path d="M334.754 364C499.471 364 633 349.642 633 331.931C633 314.22 499.471 299.862 334.754 299.862C170.038 299.862 36.5088 314.22 36.5088 331.931C36.5088 349.642 170.038 364 334.754 364Z" fill="#F2F2F2"/>
<path d="M426.345 259.801C426.345 260.819 426.309 261.837 426.243 262.814C426.243 262.962 426.243 263.104 426.243 263.252C425.925 267.552 425.012 271.805 423.522 275.922C423.48 276.049 423.427 276.187 423.379 276.314C421.853 280.411 419.804 284.353 417.27 288.067L417.013 288.434C414.291 292.349 411.098 296.01 407.486 299.358L407.117 299.694C403.058 303.417 398.562 306.774 393.7 309.711C393.534 309.818 393.361 309.925 393.194 310.022C388.101 313.07 382.684 315.701 377.015 317.881C376.235 318.182 375.449 318.477 374.633 318.767L373.919 319.022C365.244 322.074 356.155 324.182 346.866 325.298L345.729 325.43C340.513 326.019 335.257 326.313 329.996 326.311C291.004 326.311 257.419 310.317 242.264 287.304C241.244 285.767 240.313 284.199 239.471 282.6L239.126 281.944C235.909 275.687 234.078 268.975 233.725 262.147C233.725 261.979 233.725 261.816 233.725 261.638C233.725 261.027 233.695 260.412 233.695 259.796C233.693 255.036 234.422 250.297 235.863 245.7C235.905 245.558 235.946 245.421 235.994 245.283C237.508 240.599 239.709 236.098 242.544 231.885C242.622 231.768 242.699 231.646 242.782 231.529C245.576 227.449 248.883 223.643 252.643 220.178C252.742 220.073 252.847 219.972 252.959 219.877L253.007 219.836C253.477 219.409 253.954 218.976 254.442 218.554L255.174 217.922C255.657 217.51 256.151 217.108 256.645 216.701H256.675C257.866 215.744 259.079 214.816 260.313 213.916C262.028 212.674 263.821 211.478 265.673 210.328L266.071 210.073C270.988 207.076 276.214 204.467 281.685 202.28C281.846 202.214 282.012 202.142 282.173 202.086C288.337 199.653 294.755 197.721 301.342 196.314C301.55 196.263 301.753 196.222 301.937 196.182C310.096 194.48 318.445 193.532 326.84 193.357C327.12 193.357 327.4 193.357 327.686 193.357C328.448 193.357 329.216 193.331 329.984 193.331C368.625 193.331 401.954 209.045 417.305 231.712C417.442 231.916 417.573 232.119 417.71 232.318L418.306 233.209C418.633 233.718 418.943 234.227 419.252 234.766C419.395 235.011 419.532 235.25 419.669 235.494C419.753 235.637 419.842 235.779 419.919 235.927C422.166 239.92 423.851 244.127 424.939 248.459C424.987 248.627 425.023 248.79 425.064 248.968C425.913 252.534 426.342 256.162 426.345 259.801Z" fill="#F9A826"/>
<g opacity="0.2">
<path d="M417.728 232.272C413.325 230.847 408.959 229.364 404.627 227.823C377.6 218.259 351.591 206.717 326.888 193.326H327.733C356.054 208.607 386.074 221.456 417.353 231.687C417.466 231.885 417.597 232.074 417.728 232.272Z" fill="#F2F2F2"/>
</g>
<g opacity="0.2">
<path d="M425.058 248.907C414.34 245.853 403.734 242.46 393.242 238.727C365.937 229.071 339.67 217.397 314.74 203.838C310.04 201.282 305.574 198.762 301.342 196.278L301.937 196.151C306.07 198.564 310.437 201.021 315.038 203.522C349.43 222.203 386.327 237.277 424.933 248.419C424.981 248.582 425.017 248.745 425.058 248.907Z" fill="#F2F2F2"/>
</g>
<g opacity="0.2">
<path d="M426.244 262.814C426.244 262.962 426.244 263.109 426.244 263.252C411.281 259.353 396.503 254.826 381.91 249.671C354.601 240.007 328.33 228.325 303.396 214.756C295.506 210.465 288.265 206.26 281.703 202.249L282.191 202.051C288.7 206.026 295.887 210.195 303.688 214.441C341.831 235.169 383.049 251.438 426.244 262.814Z" fill="#F2F2F2"/>
</g>
<g opacity="0.2">
<path d="M423.493 275.917C423.451 276.054 423.397 276.187 423.35 276.319C405.403 271.94 387.764 266.689 370.519 260.59C343.212 250.93 316.945 239.249 292.017 225.68C282.215 220.351 273.42 215.148 265.673 210.297L266.072 210.048C273.813 214.879 282.555 220.055 292.309 225.365C332.991 247.48 377.167 264.503 423.493 275.917Z" fill="#F2F2F2"/>
</g>
<g opacity="0.2">
<path d="M417.241 288.067L416.984 288.434C397.315 283.831 378.001 278.18 359.158 271.514C331.851 261.85 305.582 250.17 280.65 236.604C270.145 230.888 260.784 225.314 252.662 220.167C252.757 220.071 252.865 219.969 252.978 219.872C261.112 225.013 270.467 230.562 280.965 236.288C312.15 253.265 358.86 274.384 417.241 288.067Z" fill="#F2F2F2"/>
</g>
<g opacity="0.2">
<path d="M407.463 299.358L407.094 299.694C386.915 295.034 367.109 289.27 347.796 282.438C320.488 272.775 294.219 261.095 269.288 247.528C259.331 242.102 250.399 236.813 242.545 231.885C242.622 231.768 242.7 231.651 242.783 231.534C250.637 236.467 259.593 241.771 269.58 247.207C301.069 264.346 348.344 285.69 407.463 299.358Z" fill="#F2F2F2"/>
</g>
<g opacity="0.2">
<path d="M393.677 309.711C393.511 309.818 393.338 309.925 393.171 310.022C373.878 305.465 354.93 299.901 336.434 293.361C309.126 283.7 282.857 272.019 257.926 258.452C249.887 254.074 242.509 249.798 235.846 245.7C235.887 245.563 235.929 245.426 235.977 245.288C242.688 249.396 250.113 253.723 258.224 258.136C289.278 275.036 335.69 296.024 393.677 309.711Z" fill="#F2F2F2"/>
</g>
<g opacity="0.2">
<path d="M374.627 318.767L373.913 319.022C357.343 314.85 341.044 309.931 325.084 304.285C309.601 298.813 294.351 292.639 279.476 285.833C268.281 280.702 257.314 275.216 246.576 269.376C242.086 266.932 237.81 264.523 233.749 262.147C233.749 261.979 233.749 261.817 233.749 261.638C237.909 264.065 242.294 266.535 246.903 269.05C256.687 274.38 268.001 280.111 280.72 285.899C310.646 299.535 342.108 310.547 374.627 318.767Z" fill="#F2F2F2"/>
</g>
<g opacity="0.2">
<path d="M346.866 325.298L345.729 325.431C334.943 322.346 324.264 318.937 313.692 315.204C290.817 307.109 268.667 297.59 247.422 286.724C244.77 285.366 242.13 283.992 239.502 282.6L239.156 281.944C242.05 283.485 245.063 285.054 248.196 286.652C279.374 302.515 312.454 315.471 346.866 325.298Z" fill="#F2F2F2"/>
</g>
<path opacity="0.1" d="M376.992 317.881C376.212 318.182 375.426 318.477 374.61 318.767L373.895 319.022C365.228 322.072 356.148 324.181 346.866 325.298L345.729 325.43C340.513 326.019 335.258 326.313 329.997 326.311C291.005 326.311 257.42 310.317 242.265 287.304C243.968 287.08 245.677 286.891 247.392 286.723L248.166 286.652C252.775 286.235 257.42 286.001 262.052 285.833C267.848 285.573 273.656 285.573 279.452 285.833C279.857 285.833 280.262 285.873 280.643 285.904C284.593 286.143 288.516 286.633 292.38 287.37C304.141 289.65 314.919 294.603 325.602 299.383C342.103 306.744 358.973 313.921 376.992 317.881Z" fill="black"/>
<path opacity="0.1" d="M417.329 231.667C401.978 208.999 368.649 193.285 330.008 193.285C329.24 193.285 328.472 193.285 327.71 193.285H326.864C318.468 193.459 310.119 194.406 301.961 196.111L301.366 196.238C294.78 197.649 288.363 199.582 282.197 202.01L281.709 202.209C276.237 204.396 271.011 207.006 266.095 210.007L265.696 210.257C261.121 213.076 256.879 216.271 253.031 219.796C252.53 224.138 251.673 228.388 249.458 232.303C247.898 235.052 246.284 237.699 248.493 240.447C249.976 242.295 253.185 244.637 255.919 244.728C263.428 244.988 267.602 236.406 271.139 232.13C276.558 225.584 284.591 221.038 292.439 216.645C295.792 214.767 299.18 212.873 302.962 211.748C306.15 210.866 309.467 210.367 312.817 210.267C321.945 209.829 331.277 211.015 339.613 214.247C349.141 217.938 357.597 224.301 367.994 225.181C372.704 225.579 377.521 224.8 382.136 225.721C390.336 227.365 396.023 233.978 404.002 236.289C409.165 237.785 414.721 237.307 419.973 235.841C419.294 234.619 418.566 233.416 417.788 232.232C417.597 232.074 417.466 231.885 417.329 231.667Z" fill="black"/>
<path d="M183.789 257.174C180.966 259.719 177.798 261.954 174.886 264.423C164.102 273.586 157.188 285.492 147.494 295.474C144.88 298.167 142.039 300.753 140.092 303.827C138.145 306.902 137.168 310.643 138.562 313.932C139.753 316.752 142.498 318.864 145.166 320.814C146.811 322.105 148.619 323.237 150.555 324.189C155.033 326.225 160.333 326.337 165.406 326.403C168.205 326.439 171.617 326.169 172.814 324.005C168.279 322.158 164.101 319.727 160.428 316.797C158.326 315.118 156.343 313.193 155.491 310.847C154.038 306.846 156.188 302.488 159.231 299.205C162.274 295.922 166.198 293.29 169.169 289.961C172.141 286.632 174.058 282.809 177.637 280.091C180.114 278.213 183.193 277.037 185.974 275.474C190.035 273.188 193.388 270.114 196.693 267.07L214.259 250.918C214.683 250.609 214.974 250.188 215.087 249.722C215.158 249.116 214.634 248.587 214.134 248.149C210.311 244.795 203.106 238.905 197.854 243.323C192.792 247.579 188.689 252.756 183.789 257.174Z" fill="#A0616A"/>
<path opacity="0.1" d="M183.789 257.174C180.966 259.719 177.798 261.954 174.886 264.423C164.102 273.586 157.188 285.492 147.494 295.474C144.88 298.167 142.039 300.753 140.092 303.827C138.145 306.902 137.168 310.643 138.562 313.932C139.753 316.752 142.498 318.864 145.166 320.814C146.811 322.105 148.619 323.237 150.555 324.189C155.033 326.225 160.333 326.337 165.406 326.403C168.205 326.439 171.617 326.169 172.814 324.005C168.279 322.158 164.101 319.727 160.428 316.797C158.326 315.118 156.343 313.193 155.491 310.847C154.038 306.846 156.188 302.488 159.231 299.205C162.274 295.922 166.198 293.29 169.169 289.961C172.141 286.632 174.058 282.809 177.637 280.091C180.114 278.213 183.193 277.037 185.974 275.474C190.035 273.188 193.388 270.114 196.693 267.07L214.259 250.918C214.683 250.609 214.974 250.188 215.087 249.722C215.158 249.116 214.634 248.587 214.134 248.149C210.311 244.795 203.106 238.905 197.854 243.323C192.792 247.579 188.689 252.756 183.789 257.174Z" fill="black"/>
<path d="M208.894 227.813C212.437 227.172 216.254 228.785 219.678 227.783C221.619 227.212 223.102 225.889 224.501 224.606L230.218 219.399C231.831 217.928 233.475 216.426 234.469 214.594C235.351 212.975 235.66 211.188 236.089 209.437C237.137 204.957 238.93 200.366 242.866 197.281C247.772 193.423 255.335 192.7 261.635 194.543C267.935 196.385 273.062 200.498 276.832 205.202C273.461 208.663 269.686 211.86 266.322 215.321C265.246 216.533 263.982 217.614 262.564 218.533C260.995 219.351 259.308 219.99 257.544 220.432C251.488 222.265 245.039 224.917 242.544 229.982C241.675 231.743 241.353 233.662 240.877 235.53C239.96 239.063 238.286 242.56 235.261 245.09C232.236 247.62 227.669 249.004 223.638 247.91C219.177 246.698 216.444 242.962 214.146 239.48C211.702 235.846 209.93 231.91 208.894 227.813Z" fill="#A0616A"/>
<path opacity="0.1" d="M208.894 227.813C212.437 227.172 216.254 228.785 219.678 227.783C221.619 227.212 223.102 225.889 224.501 224.606L230.218 219.399C231.831 217.928 233.475 216.426 234.469 214.594C235.351 212.975 235.66 211.188 236.089 209.437C237.137 204.957 238.93 200.366 242.866 197.281C247.772 193.423 255.335 192.7 261.635 194.543C267.935 196.385 273.062 200.498 276.832 205.202C273.461 208.663 269.686 211.86 266.322 215.321C265.246 216.533 263.982 217.614 262.564 218.533C260.995 219.351 259.308 219.99 257.544 220.432C251.488 222.265 245.039 224.917 242.544 229.982C241.675 231.743 241.353 233.662 240.877 235.53C239.96 239.063 238.286 242.56 235.261 245.09C232.236 247.62 227.669 249.004 223.638 247.91C219.177 246.698 216.444 242.962 214.146 239.48C211.702 235.846 209.93 231.91 208.894 227.813Z" fill="black"/>
<path d="M364.022 207.594C386.401 214.441 408.648 222.55 427.143 235.337C435.611 241.196 443.156 247.956 451.207 254.232C455.423 257.52 459.775 260.671 464.128 263.827L495.028 286.225C498.851 288.999 502.692 291.778 506.937 294.099C516.924 299.587 528.833 302.376 538.611 308.276C538.593 311.322 539.177 314.35 540.338 317.23C540.781 318.29 541.618 319.197 542.722 319.812C543.825 320.428 545.134 320.717 546.447 320.635C561.847 319.877 577.46 326.265 592.972 324.657C593.42 324.615 593.85 324.485 594.229 324.278C594.608 324.07 594.926 323.791 595.158 323.461C596.2 321.903 594.419 320.447 592.859 319.516L571.797 306.912C568.325 304.835 564.854 302.758 561.317 300.768C548.526 293.58 534.865 287.477 523.009 279.225C520.479 277.464 518.043 275.611 515.602 273.753C502.692 263.949 489.776 254.135 477.539 243.72C459.752 228.577 442.929 211.682 425.297 196.406C423.621 194.882 421.814 193.468 419.89 192.176C418.009 191.03 416.038 189.998 413.989 189.086L391.605 178.574C388.217 176.981 384.459 175.337 380.678 175.963C379.741 175.766 378.762 175.769 377.827 175.974C376.892 176.178 376.03 176.576 375.319 177.134C373.878 178.269 372.937 179.77 371.984 181.242C370.74 183.023 369.76 184.929 369.066 186.917C368.268 189.62 368.53 192.517 367.607 195.174C367.012 196.93 365.904 198.533 365.154 200.264C364.17 202.611 363.784 205.11 364.022 207.594Z" fill="#A0616A"/>
<path opacity="0.1" d="M364.022 207.594C386.401 214.441 408.648 222.55 427.143 235.337C435.611 241.196 443.156 247.956 451.207 254.232C455.423 257.52 459.775 260.671 464.128 263.827L495.028 286.225C498.851 288.999 502.692 291.778 506.937 294.099C516.924 299.587 528.833 302.376 538.611 308.276C538.593 311.322 539.177 314.35 540.338 317.23C540.781 318.29 541.618 319.197 542.722 319.812C543.825 320.428 545.134 320.717 546.447 320.635C561.847 319.877 577.46 326.265 592.972 324.657C593.42 324.615 593.85 324.485 594.229 324.278C594.608 324.07 594.926 323.791 595.158 323.461C596.2 321.903 594.419 320.447 592.859 319.516L571.797 306.912C568.325 304.835 564.854 302.758 561.317 300.768C548.526 293.58 534.865 287.477 523.009 279.225C520.479 277.464 518.043 275.611 515.602 273.753C502.692 263.949 489.776 254.135 477.539 243.72C459.752 228.577 442.929 211.682 425.297 196.406C423.621 194.882 421.814 193.468 419.89 192.176C418.009 191.03 416.038 189.998 413.989 189.086L391.605 178.574C388.217 176.981 384.459 175.337 380.678 175.963C379.741 175.766 378.762 175.769 377.827 175.974C376.892 176.178 376.03 176.576 375.319 177.134C373.878 178.269 372.937 179.77 371.984 181.242C370.74 183.023 369.76 184.929 369.066 186.917C368.268 189.62 368.53 192.517 367.607 195.174C367.012 196.93 365.904 198.533 365.154 200.264C364.17 202.611 363.784 205.11 364.022 207.594Z" fill="black"/>
<path d="M212.187 267.401C226.102 267.401 237.382 257.758 237.382 245.863C237.382 233.969 226.102 224.326 212.187 224.326C198.272 224.326 186.992 233.969 186.992 245.863C186.992 257.758 198.272 267.401 212.187 267.401Z" fill="#A0616A"/>
<path d="M365.087 166.936C368.776 166.993 372.965 167.253 375.288 169.847C377.61 172.44 377.086 175.995 376.499 179.193C374.663 189.302 372.753 199.592 367.646 208.735C367.289 209.56 366.653 210.262 365.83 210.742C364.362 211.425 362.621 210.623 361.216 209.837C350.984 204.085 340.752 197.892 329.09 195.145C328.387 195.063 327.741 194.752 327.273 194.269C327.113 193.966 327.022 193.637 327.003 193.301C326.985 192.966 327.041 192.63 327.167 192.314C328.328 187.63 329.795 183.002 330.707 178.266C331.256 175.441 330.239 168.66 333.004 166.908C335.932 165.043 344.366 166.62 347.831 166.671L365.087 166.936Z" fill="#FF6584"/>
<path d="M377.361 210.129C399.739 216.976 421.986 225.085 440.452 237.866C448.92 243.731 456.465 250.49 464.516 256.767C468.732 260.055 473.085 263.206 477.438 266.357L508.337 288.755C512.16 291.524 516.001 294.308 520.246 296.624C530.274 302.132 542.184 304.911 551.926 310.786C551.908 313.834 552.492 316.863 553.653 319.745C554.097 320.804 554.934 321.711 556.037 322.326C557.141 322.941 558.449 323.23 559.762 323.15C575.162 322.386 590.775 328.78 606.287 327.171C606.735 327.129 607.166 326.998 607.545 326.79C607.924 326.581 608.241 326.301 608.473 325.97C609.515 324.443 607.734 322.957 606.174 322.025L585.112 309.426C581.64 307.35 578.169 305.273 574.632 303.282C561.864 296.095 548.204 289.992 536.348 281.745C533.817 279.984 531.382 278.126 528.94 276.273C516.031 266.469 503.115 256.655 490.872 246.24C473.091 231.096 456.268 214.201 438.636 198.9C436.95 197.396 435.137 196.001 433.211 194.726C431.329 193.584 429.357 192.553 427.31 191.641L404.926 181.13C401.538 179.536 397.78 177.892 393.999 178.518C393.063 178.319 392.083 178.321 391.148 178.525C390.213 178.728 389.351 179.126 388.64 179.684C387.199 180.819 386.258 182.326 385.305 183.797C384.062 185.577 383.082 187.482 382.387 189.467C381.589 192.17 381.851 195.067 380.928 197.729C380.333 199.485 379.225 201.089 378.475 202.819C377.5 205.161 377.12 207.653 377.361 210.129Z" fill="#A0616A"/>
<path d="M384.787 211.707L385.496 202.896C385.698 200.432 385.9 197.938 386.788 195.591C387.794 192.929 389.628 190.562 391.492 188.261C392.487 186.919 393.688 185.699 395.065 184.632C397.095 183.171 399.722 182.377 401.615 180.794C402.157 180.341 402.663 179.674 402.342 179.088C402.193 178.87 401.99 178.682 401.746 178.539C397.078 175.265 391.48 173.138 385.954 171.046L375.509 167.095C371.115 172.186 366.643 177.434 364.38 183.471C364.038 184.544 363.61 185.595 363.1 186.617C361.76 189.004 359.217 190.745 357.603 193.005C356.085 195.133 355.454 197.622 354.852 200.061C354.495 201.491 354.15 203.018 354.751 204.387C355.418 205.914 357.133 206.902 358.693 207.793C365.607 211.666 372.907 215.662 381.155 216.212C382.667 216.309 384.68 216.955 385.162 215.703C385.502 214.863 384.71 212.735 384.787 211.707Z" fill="#3F3D56"/>
<path d="M178.399 236.467C175.791 239.455 177.542 243.807 180.245 246.734C182.949 249.661 186.563 252.114 188.076 255.612C191.702 263.975 181.585 272.41 181.93 281.308C182.24 289.238 190.44 294.985 197.413 300.254C212.228 311.453 224.888 327.06 223.221 343.919C229.96 342.231 235.783 338.558 239.656 333.55C241.918 337.792 242.873 342.458 242.431 347.105C257.961 338.019 266.804 321.221 264.464 305.263C263.35 297.709 259.944 290.343 260.474 282.748C260.76 278.63 262.195 274.644 263.231 270.613C264.551 265.415 265.21 260.111 265.196 254.792C265.196 248.724 263.88 241.985 258.283 238.253C253.519 235.082 246.969 234.975 240.93 235.001C234.553 235.036 228.175 235.062 221.81 235.403C215.313 235.749 208.614 237.582 202.218 237.719C195.096 237.872 185.063 228.831 178.399 236.467Z" fill="#3F3D56"/>
<path d="M273.623 196.625C269.412 197.812 265.62 199.891 262.601 202.667C260.701 204.428 259.129 206.439 257.158 208.144C254.812 210.18 251.947 211.707 249.202 213.336C243.956 216.441 239.043 219.928 234.137 223.41L209.96 240.564C206.179 243.247 202.398 245.935 198.831 248.826C194.43 252.389 190.369 256.278 185.671 259.561C182.92 261.486 179.96 263.201 177.435 265.344C175.053 267.38 173.124 269.727 171.171 272.053C163.214 281.495 154.666 290.562 145.565 299.215C141.7 302.896 137.705 306.52 133.006 309.396C123.264 315.397 115.869 324.382 107.306 331.585C106.579 332.196 105.781 333.066 106.228 333.855C106.494 334.233 106.921 334.508 107.419 334.624C113.683 336.619 119.078 327.93 125.605 329.162C128.582 329.722 130.41 332.129 132.542 333.967C134.674 335.805 138.33 337.159 140.557 335.402C139.794 330.291 140.571 325.098 142.814 320.315C146.464 312.572 153.705 306.469 161.435 301.358C169.164 296.248 177.578 291.89 184.837 286.296C197.014 276.914 205.911 264.117 220.357 257.495C226.014 254.899 232.267 253.382 237.906 250.725C248.821 245.563 256.455 236.472 262.422 227.121C263.124 225.839 264.075 224.667 265.233 223.654C266.478 222.816 267.863 222.142 269.341 221.654C277.014 218.627 283.898 214.315 289.588 208.974C287.801 207.879 286.128 206.708 284.347 205.609C282.898 204.789 281.572 203.819 280.399 202.723C279.208 201.521 278.434 200.081 277.422 198.768C276.41 197.454 275.35 197.098 273.623 196.625Z" fill="#A0616A"/>
<path d="M254 198.5C258.075 198.5 262.302 201.227 264 202.341L258 207L236 221.5L237 213.318C237 212.682 237.611 210.168 240.057 205.205C243.113 199 248.906 198.5 254 198.5Z" fill="#FF6584" stroke="#FF6584"/>
<path d="M338.679 198.197C337.106 197.118 337.053 195.143 337.13 193.397C337.388 188.042 337.642 182.689 337.893 177.337C338.065 173.565 338.488 169.34 341.817 166.866C332.19 165.214 322.484 163.946 312.698 163.064C308.815 162.713 304.879 162.423 301.009 162.906C296.346 163.486 291.975 165.156 287.676 166.81C282.912 168.643 278.118 170.491 273.849 173.061C272.205 174.147 270.491 175.153 268.716 176.075C265.476 177.602 261.755 178.111 258.265 179.129C250.202 181.474 243.46 186.318 239.37 192.705C235.28 199.091 234.14 206.556 236.173 213.626C237.364 210.995 238.197 208.241 239.591 205.68C240.984 203.12 243.039 200.702 245.962 199.394C249.011 198.04 252.691 198.05 256.008 198.829C259.325 199.607 262.308 201.109 265.286 202.626C271.919 206.062 278.696 210.073 281.846 216.126C288.396 211.962 295.095 207.981 301.658 203.797C304.504 201.99 307.392 200.167 310.691 199.073C315.026 197.632 319.784 197.546 324.435 197.47C329.085 197.393 334.129 197.169 338.679 198.197Z" fill="#FF6584"/>
<path d="M236.149 213.138L235.357 222.529L238.216 220.513L236.787 212.206L236.149 213.138Z" fill="#FF6584"/>
<path d="M128.82 92.5323L119.578 97.5412L125.188 88.8469C123.598 87.7621 121.63 87.162 119.596 87.1416H119.447C118.805 87.1496 118.164 87.1088 117.53 87.0194L114.398 88.7196L115.744 86.6326C113.523 85.9693 111.605 84.7219 110.265 83.0693L104.656 86.1235L108.199 80.6209C104.918 77.2562 100.499 75.1946 95.6402 75.1946C89.8105 75.1946 84.6179 78.1572 81.2653 82.7741C80.2724 84.1595 78.8674 85.2951 77.1937 86.065C75.5199 86.8349 73.6373 87.2117 71.7377 87.1569H71.4221C64.985 87.1569 59.7686 93.3925 59.7686 101.089C59.7686 108.786 64.985 115.021 71.4221 115.021C72.8382 115.016 74.2316 114.717 75.4832 114.151C77.6734 113.241 80.0688 112.749 82.5036 112.708C84.9384 112.668 87.3543 113.08 89.5842 113.917C91.4707 114.638 93.514 115.011 95.5807 115.011C97.6473 115.011 99.6907 114.638 101.577 113.917C103.791 113.096 106.185 112.693 108.598 112.733C111.01 112.773 113.384 113.257 115.559 114.151C116.798 114.705 118.174 114.997 119.572 115.001C126.01 115.001 131.226 108.76 131.226 101.069C131.277 98.0956 130.45 95.1594 128.82 92.5323Z" fill="#F2F2F2"/>
<path opacity="0.03" d="M111.402 112.919C108.04 112.372 104.563 112.694 101.416 113.845C99.5268 114.561 97.4826 114.929 95.4162 114.924C93.3499 114.92 91.3078 114.544 89.4229 113.82C87.1926 112.984 84.7764 112.572 82.3417 112.614C79.9069 112.655 77.5117 113.148 75.322 114.059C74.0696 114.623 72.6763 114.92 71.2608 114.924C65.5442 114.924 60.7863 110.002 59.7979 103.507C60.9402 102.795 61.9108 101.902 62.6562 100.875C66.0027 96.2582 71.2013 93.2905 77.031 93.2905C82.8608 93.2905 87.9878 96.2175 91.3225 100.789C92.325 102.172 93.7295 103.31 95.3992 104.091C97.0688 104.873 98.9468 105.271 100.85 105.248H100.999C105.543 105.248 109.485 108.368 111.402 112.919Z" fill="black"/>
<path d="M293.75 122L289.141 124.479L291.94 120.132C291.148 119.59 290.167 119.291 289.153 119.282H289.105C288.786 119.285 288.467 119.264 288.152 119.221L286.586 120.066L287.259 119.048C286.151 118.718 285.194 118.096 284.526 117.271L281.727 118.798L283.514 116.055C282.765 115.226 281.809 114.552 280.716 114.082C279.623 113.611 278.42 113.357 277.196 113.336C274.29 113.336 271.699 114.813 270.05 117.119C269.553 117.811 268.851 118.378 268.014 118.761C267.177 119.145 266.235 119.332 265.286 119.302H265.131C261.922 119.302 259.319 122.413 259.319 126.251C259.319 130.089 261.922 133.199 265.131 133.199C265.837 133.196 266.532 133.048 267.156 132.766C268.247 132.31 269.442 132.063 270.657 132.043C271.872 132.022 273.077 132.229 274.188 132.649C275.125 133.007 276.139 133.194 277.166 133.199C278.192 133.2 279.206 133.016 280.143 132.659C281.247 132.25 282.441 132.048 283.645 132.069C284.848 132.089 286.032 132.33 287.116 132.776C287.736 133.053 288.424 133.197 289.123 133.199C292.333 133.199 294.935 130.089 294.935 126.251C294.964 124.771 294.556 123.309 293.75 122Z" fill="#F2F2F2"/>
<path opacity="0.03" d="M285.062 132.171C283.385 131.898 281.652 132.059 280.084 132.634C279.145 132.987 278.131 133.17 277.106 133.173C276.07 133.174 275.045 132.987 274.099 132.624C272.986 132.207 271.781 132.003 270.567 132.024C269.353 132.045 268.158 132.291 267.066 132.746C266.442 133.028 265.748 133.177 265.042 133.178C262.189 133.178 259.819 130.72 259.325 127.482C259.894 127.127 260.377 126.681 260.748 126.169C262.422 123.863 265.012 122.387 267.894 122.387C270.776 122.387 273.361 123.848 275.04 126.123C275.541 126.815 276.244 127.383 277.078 127.774C277.913 128.165 278.852 128.364 279.804 128.353H279.875C282.138 128.343 284.109 129.9 285.062 132.171Z" fill="black"/>
<path d="M315.901 43.7158L323.303 47.7321L318.807 40.743C320.081 39.876 321.657 39.3961 323.285 39.3788H323.404C323.919 39.3828 324.432 39.3505 324.941 39.2821L327.454 40.6412L326.358 38.9614C328.135 38.4318 329.671 37.4359 330.747 36.1159L335.242 38.5491L332.402 34.1408C335.028 31.443 338.571 29.7937 342.466 29.7937C347.14 29.7937 351.297 32.1658 353.982 35.8665C354.776 36.9739 355.899 37.8817 357.237 38.4978C358.575 39.1138 360.08 39.416 361.598 39.3737H361.848C367.005 39.3737 371.186 44.3673 371.186 50.5368C371.186 56.7063 367.017 61.6949 361.848 61.6949C360.715 61.6916 359.6 61.4541 358.597 61.0026C356.84 60.2705 354.918 59.8744 352.964 59.8419C351.01 59.8094 349.072 60.1412 347.283 60.8142C345.763 61.393 344.118 61.6929 342.454 61.6949C340.812 61.694 339.19 61.3992 337.69 60.8295C335.916 60.173 333.998 59.85 332.065 59.8825C330.133 59.915 328.231 60.3022 326.489 61.0178C325.493 61.4592 324.389 61.6912 323.267 61.6949C318.11 61.6949 313.93 56.7012 313.93 50.5368C313.908 48.1579 314.586 45.8124 315.901 43.7158Z" fill="#F2F2F2"/>
<path opacity="0.03" d="M329.836 60.0507C332.531 59.6119 335.317 59.8707 337.839 60.7939C339.35 61.3711 340.987 61.6694 342.642 61.6694C344.297 61.6694 345.933 61.3711 347.444 60.7939C349.234 60.1236 351.172 59.7933 353.125 59.8258C355.079 59.8583 357.001 60.2529 358.758 60.9823C359.759 61.4377 360.876 61.6771 362.01 61.6797C366.589 61.6797 370.4 57.7347 371.198 52.5171C370.281 51.9466 369.502 51.2291 368.905 50.4046C366.22 46.709 362.057 44.3318 357.389 44.3318C352.72 44.3318 348.605 46.6784 345.92 50.3384C345.117 51.442 343.995 52.3499 342.662 52.9741C341.329 53.5983 339.83 53.9178 338.31 53.9016H338.19C334.534 53.9067 331.384 56.4061 329.836 60.0507Z" fill="black"/>
<path d="M193.078 157.775C192.768 157.373 191.25 157.775 189.69 158.645C189.416 158.803 189.154 158.966 188.916 159.129C187.83 158.647 186.659 158.321 185.45 158.162L185.515 158.121C187.09 157.239 188.549 156.215 189.868 155.067H186.516L191.381 153.469C191.976 152.659 192.167 151.982 191.839 151.56C190.958 150.43 186.706 151.519 182.312 154.003C180.331 155.082 178.551 156.409 177.03 157.938C173.457 158.294 170.95 159.19 170.95 160.234C170.95 160.957 172.141 161.608 174.076 162.061L173.963 162.122C169.592 164.601 166.758 167.533 167.639 168.663C168.413 169.681 171.807 168.928 175.607 167.039L173.088 166.021L177.06 166.256L177.143 166.21C177.566 165.97 177.971 165.726 178.364 165.482L175.386 164.301L179.751 164.555C180.577 163.971 181.35 163.333 182.062 162.647C186.129 162.463 189.309 161.628 189.862 160.549C190.2 160.418 190.53 160.272 190.851 160.112C191.411 159.8 191.93 159.439 192.399 159.032H191.208L192.941 158.462C193.132 158.167 193.197 157.928 193.078 157.775Z" fill="#F2F2F2"/>
<path d="M77.4003 312.399C77.4142 314.141 77.2147 315.88 76.8048 317.586C76.7215 317.907 76.6381 318.223 76.5547 318.528C74.3336 326.138 68.0691 331.707 60.5959 332.063C60.3458 332.063 60.0957 332.063 59.8337 332.063C51.9317 332.063 45.2504 326.235 43.0412 318.207C42.9816 317.994 42.928 317.78 42.8685 317.566C42.4486 315.86 42.2391 314.122 42.2432 312.379C42.2432 301.506 50.1214 292.695 59.8337 292.695C69.5459 292.695 77.4003 301.526 77.4003 312.399Z" fill="#3F3D56"/>
<path opacity="0.1" d="M77.4003 312.399C77.4142 314.141 77.2147 315.88 76.8048 317.586C76.7215 317.907 76.6381 318.223 76.5547 318.528C76.2868 318.528 76.0307 318.528 75.7627 318.502C73.827 318.41 71.9032 318.184 70.0104 317.825C68.3315 318.274 66.6157 318.614 64.8774 318.844C63.5457 319.015 62.2037 319.122 60.8579 319.164C60.4053 319.164 59.9528 319.164 59.5002 319.164C57.889 319.165 56.2795 319.074 54.6828 318.889C52.1021 318.596 49.5676 318.058 47.1262 317.286C45.787 317.666 44.423 317.979 43.0412 318.222C42.9816 318.009 42.928 317.795 42.8685 317.581C42.4486 315.876 42.2391 314.137 42.2432 312.394C42.2432 301.521 50.1214 292.71 59.8337 292.71C69.5459 292.71 77.4003 301.526 77.4003 312.399Z" fill="black"/>
<path d="M114.928 275.728C114.93 270.954 113.619 266.246 111.099 261.985L90.406 267.487L108.568 258.355C105.524 254.592 101.529 251.462 96.8798 249.196C92.2304 246.93 87.0448 245.586 81.7061 245.263C80.8534 244.146 79.9165 243.078 78.9014 242.066L49.1632 249.971L73.5421 237.744C68.8834 234.686 63.4144 232.656 57.6191 231.835C51.8239 231.014 45.8813 231.427 40.3174 233.038C34.7535 234.648 29.7401 237.407 25.7209 241.069C21.7018 244.731 18.8009 249.184 17.2753 254.033L42.732 279.078L15.0899 262.015C8.06839 266.245 3.06305 272.495 0.9893 279.621C-1.08445 286.747 -0.0880116 294.273 3.79637 300.823C7.68076 307.372 14.1935 312.508 22.1434 315.289C30.0933 318.071 38.949 318.314 47.0909 315.973C54.4463 318.276 62.4812 318.458 69.9692 316.492C75.1932 317.473 80.608 317.441 85.8156 316.398C91.0232 315.355 95.891 313.327 100.061 310.464C104.231 307.601 107.598 303.976 109.913 299.854C112.228 295.732 113.433 291.219 113.439 286.647C113.439 285.965 113.409 285.293 113.356 284.611C114.39 281.733 114.919 278.739 114.928 275.728Z" fill="#57B894"/>
<path opacity="0.1" d="M114.308 281.399C103.383 279.63 92.18 279.508 81.2055 281.038C68.7838 282.799 56.0882 286.662 43.9404 283.837C36.7946 282.178 30.6374 278.345 23.6941 276.202C16.9678 274.2 9.7228 273.837 2.76898 275.153C0.116532 280.571 -0.654338 286.528 0.548539 292.311C1.75142 298.093 4.87714 303.458 9.55199 307.762C14.2268 312.066 20.253 315.129 26.9099 316.583C33.5669 318.037 40.573 317.822 47.0905 315.962C54.4446 318.269 62.4795 318.455 69.9688 316.492C75.1927 317.473 80.6076 317.441 85.8152 316.398C91.0228 315.355 95.8906 313.327 100.061 310.464C104.231 307.601 107.597 303.976 109.913 299.854C112.228 295.732 113.433 291.219 113.439 286.647C113.439 285.965 113.409 285.293 113.355 284.611C113.744 283.557 114.062 282.484 114.308 281.399Z" fill="black"/>
<path d="M438.5 244C425.7 231.6 397.5 219.5 385 215L383.5 211.5L390.5 211L406 215L440.5 232L462 247.5L512.5 285L535.5 303L534.5 306L516.5 299L507.5 294.5L499.5 289.5C493.167 285 478.5 274.8 472.5 270C465 264 454.5 259.5 438.5 244Z" fill="#393751"/>
<path d="M507.5 288C518.3 297.6 530.666 302 535.5 303L539.25 294.75L543 286.5L533 279.5L484 240L459 217L446 205L440 199L432 194L402 179C401 179.667 396.652 182.088 392 185.5C384.5 191 385 195.5 384 199.5C383.2 202.7 384 210.333 384 213.5C387.667 214.5 400.3 219.6 419.5 228C438.7 236.4 465 258.667 476.5 268.5C481.667 271.5 496.7 278.4 507.5 288Z" fill="#3F3D56"/>
<path d="M284.5 213.5C285.7 211.1 270.667 205.5 264.5 202.5C262.167 204.333 256.7 208.6 253.5 211C250.3 213.4 225.833 229.667 214 237.5C216.5 238.167 222.1 239.9 224.5 241.5C226.9 243.1 228.833 250.5 229.5 254C231.167 253.333 235.6 251.6 240 250C244.4 248.4 250.833 242.333 253.5 239.5L264.5 223.5C269.667 221.5 283.3 215.9 284.5 213.5Z" fill="#FF6584" stroke="#FF6584"/>
</g>
<defs>
<clipPath id="clip0_478_1690">
<rect width="633" height="364" fill="white"/>
</clipPath>
</defs>
</svg>
