<svg width="160" height="158" viewBox="0 0 160 158" fill="none" xmlns="http://www.w3.org/2000/svg">
<circle cx="80" cy="78" r="78" fill="#FEFEFE"/>
<path d="M70.2956 20.4312C70.2956 20.4312 53.8446 22.271 52.7843 47.5188C51.9013 68.5571 50.0931 80.2835 58.7286 84.6715C61.8163 86.2404 65.4447 86.3773 68.7427 85.3056L103.997 73.8175C103.997 73.8175 104.528 35.9472 92.3214 26.7424C80.1145 17.5376 70.2986 20.4312 70.2986 20.4312H70.2956Z" fill="#2F2E41"/>
<path d="M89 78.2895L72 84V59H87.4231L89 78.2895Z" fill="#F6A6A9"/>
<path d="M113 146.247C110.641 147.218 108.235 148.09 105.784 148.857C103.941 149.438 102.072 149.956 100.181 150.418C93.2841 152.107 86.0801 153 78.6756 153C76.5938 153 74.5296 152.931 72.486 152.79C70.3953 152.649 68.3252 152.437 66.2788 152.152C65.4472 152.038 64.6215 151.915 63.7988 151.778C61.4545 151.391 59.1367 150.909 56.8543 150.343C56.0847 150.154 55.318 149.953 54.5542 149.737C54.2918 149.669 54.0293 149.594 53.7698 149.519C52.6935 149.21 51.6231 148.884 50.5615 148.533C50.4907 148.512 50.417 148.488 50.3462 148.464C49.3967 148.153 48.4531 147.823 47.5154 147.478C46.672 147.17 45.8345 146.846 45 146.511L63.1972 85.6602L63.9551 83.1286L66.6444 74.1378L66.665 74.0659L66.6857 74H98.4652L98.6775 75.0516L103.888 100.949L107.642 119.613L111.334 137.957L112.853 145.507L113 146.247Z" fill="#EB996E"/>
<path d="M72 74.0119L69.813 82.9473L69.5083 84.2L69.3484 84.8516L59.6471 124.518L53.6591 149C52.5581 148.694 51.463 148.369 50.3771 148.021C50.3047 148 50.2293 147.976 50.1569 147.953C49.1855 147.643 48.2202 147.316 47.2609 146.974C46.3982 146.667 45.5415 146.346 44.6878 146.013C41.7134 144.855 38.8145 143.549 36 142.109C42.2836 111.432 48.5913 81.2691 49.6169 78.7429C50.0664 77.6331 51.3243 76.7821 53.0287 76.1275C53.5204 75.937 54.0513 75.7645 54.6093 75.6068C58.2685 74.5772 63.1523 74.1994 66.8145 74.0655H66.8507C68.3107 74.0149 69.5747 74 70.4857 74C71.3967 74 72 74.0149 72 74.0149V74.0119Z" fill="#EB996E"/>
<path d="M74 66C83.9411 66 92 58.165 92 48.5C92 38.835 83.9411 31 74 31C64.0589 31 56 38.835 56 48.5C56 58.165 64.0589 66 74 66Z" fill="#F6A6A9"/>
<path d="M68.9559 27C68.9559 27 59.6394 66.5203 70 85L55.4059 81.7607C55.4059 81.7607 49.7508 38.502 61.124 30.6398L68.9588 27H68.9559Z" fill="#2F2E41"/>
<path opacity="0.1" d="M66 152C65.1489 151.888 64.3038 151.767 63.4618 151.632C61.0624 151.252 58.6901 150.777 56.3541 150.221C55.5664 150.035 54.7817 149.838 54 149.625L55.005 142.101L57.6881 122L58.8954 126.354L60.006 130.364L66 152Z" fill="#272223"/>
<path opacity="0.1" d="M115.997 145.238C115.356 145.527 114.712 145.806 114.062 146.076C113.965 146.118 113.867 146.16 113.77 146.201C113.6 146.272 113.429 146.344 113.256 146.412C110.902 147.375 108.502 148.239 106.058 149C100.252 144.849 95.7776 139.067 93.195 132.37L91.8184 128.802L83 103L102.537 123.706L106.108 129.417L111.594 138.188L116 145.236H115.997V145.238Z" fill="#272223"/>
<path d="M134.997 133.607C129.874 137.617 124.32 141.091 118.412 143.948C117.676 144.304 116.932 144.649 116.184 144.987C116.051 145.047 115.921 145.106 115.788 145.163C115.144 145.451 114.497 145.73 113.844 146C113.522 145.875 113.203 145.742 112.887 145.602C109.646 144.177 106.751 142.009 104.196 139.476C100.763 136.063 97.9503 131.983 95.7434 128.128C94.6562 126.231 93.7168 124.387 92.9221 122.706L92.9102 122.679C90.7684 118.127 89.7078 114.777 89.7078 114.777L86.8569 103.008L86.074 99.7798L81.619 81.4034L80 74.7216L82.4166 74.6147L89.0194 74.3237L96.3018 74C97.9798 74.1277 99.6165 74.4425 101.191 74.9354C106.246 76.4945 110.642 79.8265 113.528 84.4117C121.463 97.024 134.17 119.27 135 133.607H134.997Z" fill="#EB996E"/>
<path d="M52.2394 66.0193C56.0029 64.6389 65.9645 64.633 70.4331 66.1701C71.3008 66.4686 71.826 67.3672 71.6751 68.2865L71.4981 69.3772C71.8869 69.3181 72.267 69.2058 72.6268 69.0373C73.6918 68.5407 75.7897 67.8668 77.908 68.9427C79.3878 69.6935 80.4296 71.1094 80.7952 72.7558C81.6686 76.693 79.4662 78.8715 79.4662 78.8715L76.5325 81.6767C74.0748 84.0236 71.3936 86.1164 68.5296 87.9195L68.4716 87.955L69.5162 81.5525C70.1052 82.6078 71.4371 82.9536 72.4498 82.3151C75.0091 80.7012 79.1905 77.4675 78.6827 73.7963C78.3287 71.2365 76.933 70.6926 75.5924 70.8079C74.0922 70.9379 72.7835 71.8986 72.1423 73.2849C71.9885 73.616 71.736 73.8879 71.4226 74.0653L70.6682 74.485L68.4571 88.0555C68.3584 88.6644 67.9754 89.1905 67.4328 89.4625C62.2329 92.0607 56.621 90.7128 54.6797 90.1068C54.2358 89.9679 53.8557 89.6694 53.6177 89.2615L53.1999 88.555C53.0548 88.3126 52.9677 88.0377 52.9387 87.7569L51.0091 68.0057C50.9249 67.1337 51.4327 66.3179 52.2423 66.0193H52.2394Z" fill="#6C63FF"/>
<path d="M70 67C70 67.5528 65.9705 68 61 68C56.0295 68 52 67.5528 52 67C52 66.4472 56.0295 66 61 66C65.9705 66 70 66.4472 70 67Z" fill="#DEDFE0"/>
<path d="M74.6253 85.8031C71.235 80.8808 71.1124 75.0918 74.3502 72.8692C77.588 70.6466 82.9574 72.8329 86.3477 77.7583C87.7289 79.7061 88.6078 81.9649 88.9128 84.3475L103 105.387L92.6618 112L79.8721 90.5593C77.7524 89.4238 75.9527 87.7931 74.6253 85.8061V85.8031Z" fill="#F6A6A9"/>
<path d="M83 102.696L94.4203 92L117 113.395L96.0011 128L83 102.696Z" fill="#DDDEDF"/>
<path opacity="0.1" d="M115.1 116.03L116 123L110 116.03V109L115.1 116.03Z" fill="#272223"/>
<path d="M157.5 79C157.5 121.22 122.832 155.5 80 155.5C37.1682 155.5 2.5 121.22 2.5 79C2.5 36.7798 37.1682 2.5 80 2.5C122.832 2.5 157.5 36.7798 157.5 79Z" stroke="#FFA45A" stroke-width="5"/>
</svg>
