<svg width="242" height="312" viewBox="0 0 242 312" fill="none" xmlns="http://www.w3.org/2000/svg">
<g filter="url(#filter0_d_609_1312)">
<rect x="4" width="233.221" height="303.33" rx="20" fill="#5C6DFF"/>
<path d="M34.5006 57.8905C33.0126 57.8905 31.8606 57.7385 31.0446 57.4345C30.2446 57.1305 29.6846 56.6585 29.3646 56.0185C29.0446 55.3625 28.8606 54.5385 28.8126 53.5465L28.3086 40.2025H31.6686L32.1726 51.9385C32.2046 52.6745 32.2846 53.2265 32.4126 53.5945C32.5406 53.9625 32.7806 54.2105 33.1326 54.3385C33.5006 54.4665 34.0366 54.5305 34.7406 54.5305C35.3486 54.5305 35.7806 54.6905 36.0366 55.0105C36.3086 55.3145 36.4446 55.6985 36.4446 56.1625C36.4446 56.6585 36.2766 57.0745 35.9406 57.4105C35.6046 57.7305 35.1246 57.8905 34.5006 57.8905ZM44.3012 57.9625C43.5812 57.9625 42.8372 57.8745 42.0692 57.6985C41.3172 57.5225 40.5892 57.2585 39.8852 56.9065C39.1812 56.5545 38.5492 56.1145 37.9892 55.5865C37.4292 55.0585 36.9812 54.4505 36.6452 53.7625C36.3252 53.0585 36.1652 52.2665 36.1652 51.3865C36.1652 50.6665 36.3172 50.0025 36.6212 49.3945C36.9252 48.7865 37.3732 48.2985 37.9652 47.9305C38.5732 47.5465 39.3092 47.3545 40.1732 47.3545C40.9892 47.3545 41.6932 47.5545 42.2852 47.9545C42.8932 48.3385 43.3652 48.8425 43.7012 49.4665C44.0372 50.0745 44.2052 50.7145 44.2052 51.3865C44.2052 52.4585 43.9412 53.4025 43.4132 54.2185C42.8852 55.0185 42.1572 55.6905 41.2292 56.2345C40.3172 56.7785 39.2852 57.1945 38.1332 57.4825C36.9812 57.7545 35.7812 57.8905 34.5332 57.8905L34.7732 54.5305C35.6852 54.5305 36.4772 54.5065 37.1492 54.4585C37.8372 54.4105 38.4292 54.3065 38.9252 54.1465C39.4212 53.9865 39.8532 53.7465 40.2212 53.4265C40.5892 53.1065 40.8692 52.7545 41.0612 52.3705C41.2692 51.9705 41.3732 51.5785 41.3732 51.1945C41.3732 50.9385 41.3332 50.6985 41.2532 50.4745C41.1892 50.2505 41.0772 50.0665 40.9172 49.9225C40.7732 49.7625 40.5812 49.6825 40.3412 49.6825C40.0852 49.6825 39.8692 49.7625 39.6932 49.9225C39.5332 50.0665 39.4052 50.2585 39.3092 50.4985C39.2292 50.7385 39.1892 50.9945 39.1892 51.2665C39.1892 51.8265 39.3332 52.3305 39.6212 52.7785C39.9252 53.2265 40.3252 53.6025 40.8212 53.9065C41.3172 54.2105 41.8612 54.4425 42.4532 54.6025C43.0612 54.7625 43.6772 54.8425 44.3012 54.8425C44.7972 54.8425 45.1492 54.7625 45.3572 54.6025C45.5652 54.4425 45.6692 54.2265 45.6692 53.9545C45.6692 53.7625 45.6212 53.5625 45.5252 53.3545C45.4452 53.1305 45.2612 52.8585 44.9732 52.5385C44.6852 52.2185 44.2452 51.8265 43.6532 51.3625C43.0612 50.8825 42.2692 50.2905 41.2772 49.5865C40.2852 48.8825 39.0372 48.0265 37.5332 47.0185L39.3812 44.4025C41.0772 45.6025 42.4932 46.6505 43.6292 47.5465C44.7812 48.4425 45.7092 49.2265 46.4132 49.8985C47.1172 50.5705 47.6532 51.1625 48.0212 51.6745C48.4052 52.1705 48.6612 52.6265 48.7892 53.0425C48.9172 53.4585 48.9812 53.8745 48.9812 54.2905C48.9812 55.0585 48.7972 55.7145 48.4292 56.2585C48.0612 56.8025 47.5252 57.2265 46.8212 57.5305C46.1332 57.8185 45.2932 57.9625 44.3012 57.9625ZM60.1082 58.2745L60.7322 54.9145C61.8842 54.9145 62.9882 54.8585 64.0442 54.7465C65.1162 54.6345 66.1322 54.4105 67.0922 54.0745C68.0682 53.7385 68.9802 53.2425 69.8282 52.5865C70.6762 51.9305 71.4442 51.0505 72.1322 49.9465L74.8202 51.1705C74.7242 51.4745 74.6442 51.7705 74.5802 52.0585C74.5162 52.3305 74.4842 52.5545 74.4842 52.7305C74.4842 53.0985 74.5722 53.4185 74.7482 53.6905C74.9402 53.9625 75.2602 54.1705 75.7082 54.3145C76.1562 54.4585 76.7722 54.5305 77.5562 54.5305C78.1642 54.5305 78.5962 54.6905 78.8522 55.0105C79.1082 55.3145 79.2362 55.6985 79.2362 56.1625C79.2362 56.6585 79.0682 57.0745 78.7322 57.4105C78.4122 57.7305 77.9402 57.8905 77.3162 57.8905C76.2122 57.8905 75.2522 57.7385 74.4362 57.4345C73.6362 57.1305 73.0042 56.7065 72.5402 56.1625C72.0922 55.6025 71.8282 54.9625 71.7482 54.2425L72.7082 54.3385C72.1322 55.0265 71.4122 55.6185 70.5482 56.1145C69.7002 56.6105 68.7322 57.0185 67.6442 57.3385C66.5722 57.6585 65.3962 57.8905 64.1162 58.0345C62.8522 58.1945 61.5162 58.2745 60.1082 58.2745ZM60.0842 58.2745C58.3562 58.2745 56.8922 58.1385 55.6922 57.8665C54.5082 57.6105 53.5402 57.2425 52.7882 56.7625C52.0522 56.2665 51.5162 55.6905 51.1802 55.0345C50.8442 54.3785 50.6762 53.6585 50.6762 52.8745C50.6762 52.3625 50.7162 51.8505 50.7962 51.3385C50.8922 50.8105 51.0042 50.2985 51.1322 49.8025C51.2762 49.3065 51.4042 48.8585 51.5162 48.4585L54.5162 49.1545C54.4522 49.4425 54.3802 49.7545 54.3002 50.0905C54.2202 50.4265 54.1562 50.7545 54.1082 51.0745C54.0602 51.3785 54.0362 51.6585 54.0362 51.9145C54.0362 52.5065 54.2442 53.0345 54.6602 53.4985C55.0922 53.9465 55.7962 54.2985 56.7722 54.5545C57.7482 54.7945 59.0602 54.9145 60.7082 54.9145L61.1882 57.5065L60.0842 58.2745ZM64.5482 47.3065C64.0842 47.3065 63.6842 47.1465 63.3482 46.8265C63.0282 46.4905 62.8682 46.0985 62.8682 45.6505C62.8682 45.1865 63.0282 44.7865 63.3482 44.4505C63.6842 44.1145 64.0842 43.9465 64.5482 43.9465C64.9962 43.9465 65.3802 44.1145 65.7002 44.4505C66.0202 44.7865 66.1802 45.1865 66.1802 45.6505C66.1802 46.0985 66.0202 46.4905 65.7002 46.8265C65.3802 47.1465 64.9962 47.3065 64.5482 47.3065ZM60.3962 47.2825C59.9322 47.2825 59.5322 47.1225 59.1962 46.8025C58.8762 46.4665 58.7162 46.0745 58.7162 45.6265C58.7162 45.1625 58.8762 44.7625 59.1962 44.4265C59.5322 44.0905 59.9322 43.9225 60.3962 43.9225C60.8442 43.9225 61.2282 44.0905 61.5482 44.4265C61.8682 44.7625 62.0282 45.1625 62.0282 45.6265C62.0282 46.0745 61.8682 46.4665 61.5482 46.8025C61.2282 47.1225 60.8442 47.2825 60.3962 47.2825ZM77.3066 57.8905L77.5466 54.5305C78.1226 54.5305 78.6186 54.4745 79.0346 54.3625C79.4506 54.2505 79.8026 54.0265 80.0906 53.6905C80.3786 53.3385 80.6186 52.8265 80.8106 52.1545C81.0186 51.4825 81.2026 50.5865 81.3626 49.4665L84.5066 49.9945C84.4746 50.2345 84.4266 50.5145 84.3626 50.8345C84.3146 51.1545 84.2666 51.4825 84.2186 51.8185C84.1866 52.1385 84.1706 52.4425 84.1706 52.7305C84.1706 53.0185 84.2266 53.2745 84.3386 53.4985C84.4506 53.7225 84.6266 53.9145 84.8666 54.0745C85.1226 54.2185 85.4506 54.3305 85.8506 54.4105C86.2666 54.4905 86.7706 54.5305 87.3626 54.5305C87.9706 54.5305 88.4026 54.6905 88.6586 55.0105C88.9146 55.3145 89.0426 55.6985 89.0426 56.1625C89.0426 56.6585 88.8746 57.0745 88.5386 57.4105C88.2186 57.7305 87.7466 57.8905 87.1226 57.8905C86.4026 57.8905 85.7466 57.8345 85.1546 57.7225C84.5786 57.6105 84.0746 57.4265 83.6426 57.1705C83.2266 56.8985 82.8826 56.5465 82.6106 56.1145C82.3546 55.6665 82.1946 55.1225 82.1306 54.4825H83.2826C82.9946 55.2505 82.6266 55.8665 82.1786 56.3305C81.7466 56.7785 81.2586 57.1145 80.7146 57.3385C80.1706 57.5625 79.6026 57.7065 79.0106 57.7705C78.4346 57.8505 77.8666 57.8905 77.3066 57.8905ZM84.0026 63.4585C83.5386 63.4585 83.1386 63.2905 82.8026 62.9545C82.4826 62.6345 82.3226 62.2505 82.3226 61.8025C82.3226 61.3385 82.4826 60.9385 82.8026 60.6025C83.1386 60.2665 83.5386 60.0985 84.0026 60.0985C84.4506 60.0985 84.8346 60.2665 85.1546 60.6025C85.4746 60.9385 85.6346 61.3385 85.6346 61.8025C85.6346 62.2505 85.4746 62.6345 85.1546 62.9545C84.8346 63.2905 84.4506 63.4585 84.0026 63.4585ZM79.8506 63.4585C79.3866 63.4585 78.9866 63.2905 78.6506 62.9545C78.3306 62.6345 78.1706 62.2505 78.1706 61.8025C78.1706 61.3385 78.3306 60.9385 78.6506 60.6025C78.9866 60.2665 79.3866 60.0985 79.8506 60.0985C80.2986 60.0985 80.6826 60.2665 81.0026 60.6025C81.3226 60.9385 81.4826 61.3385 81.4826 61.8025C81.4826 62.2505 81.3226 62.6345 81.0026 62.9545C80.6826 63.2905 80.2986 63.4585 79.8506 63.4585ZM87.127 57.8905L87.367 54.5305C88.103 54.5305 88.631 54.4585 88.951 54.3145C89.271 54.1545 89.463 53.8665 89.527 53.4505C89.591 53.0185 89.607 52.3945 89.575 51.5785L89.143 40.2025H92.527L93.007 51.8185C93.039 52.7465 92.999 53.5865 92.887 54.3385C92.791 55.0745 92.543 55.7065 92.143 56.2345C91.759 56.7625 91.159 57.1705 90.343 57.4585C89.543 57.7465 88.471 57.8905 87.127 57.8905ZM101.86 57.8905C100.372 57.8905 99.22 57.7385 98.404 57.4345C97.604 57.1305 97.044 56.6585 96.724 56.0185C96.404 55.3625 96.22 54.5385 96.172 53.5465L95.668 40.2025H99.028L99.532 51.9385C99.564 52.6745 99.644 53.2265 99.772 53.5945C99.9 53.9625 100.14 54.2105 100.492 54.3385C100.86 54.4665 101.396 54.5305 102.1 54.5305C102.708 54.5305 103.14 54.6905 103.396 55.0105C103.668 55.3145 103.804 55.6985 103.804 56.1625C103.804 56.6585 103.636 57.0745 103.3 57.4105C102.964 57.7305 102.484 57.8905 101.86 57.8905ZM101.797 57.8905L102.037 54.5305C103.157 54.5305 104.165 54.4585 105.061 54.3145C105.957 54.1545 106.741 53.9465 107.413 53.6905C108.101 53.4345 108.669 53.1385 109.117 52.8025C109.581 52.4665 109.925 52.1145 110.149 51.7465C110.389 51.3625 110.509 50.9865 110.509 50.6185C110.509 50.4105 110.453 50.2185 110.341 50.0425C110.245 49.8505 110.077 49.6985 109.837 49.5865C109.597 49.4585 109.269 49.3945 108.853 49.3945C108.645 49.3945 108.397 49.4185 108.109 49.4665C107.821 49.5145 107.533 49.5865 107.245 49.6825C106.957 49.7625 106.685 49.8745 106.429 50.0185C106.765 50.2745 107.133 50.6025 107.533 51.0025C107.933 51.3865 108.333 51.7945 108.733 52.2265C109.133 52.6425 109.477 53.0505 109.765 53.4505C110.101 53.5945 110.469 53.7385 110.869 53.8825C111.285 54.0105 111.733 54.1225 112.213 54.2185C112.693 54.3145 113.197 54.3945 113.725 54.4585C114.253 54.5065 114.797 54.5305 115.357 54.5305C115.965 54.5305 116.397 54.6905 116.653 55.0105C116.925 55.3145 117.061 55.6985 117.061 56.1625C117.061 56.6585 116.893 57.0745 116.557 57.4105C116.221 57.7305 115.741 57.8905 115.117 57.8905C113.837 57.8905 112.701 57.7945 111.709 57.6025C110.717 57.3945 109.829 57.0985 109.045 56.7145C108.277 56.3145 107.557 55.8345 106.885 55.2745C106.693 54.9385 106.421 54.5785 106.069 54.1945C105.733 53.7945 105.373 53.4105 104.989 53.0425C104.621 52.6745 104.285 52.3705 103.981 52.1305C103.901 52.0665 103.805 51.8985 103.693 51.6265C103.597 51.3385 103.509 51.0425 103.429 50.7385C103.349 50.4185 103.309 50.1945 103.309 50.0665C103.309 49.6985 103.477 49.3065 103.813 48.8905C104.165 48.4745 104.629 48.0905 105.205 47.7385C105.797 47.3705 106.445 47.0745 107.149 46.8505C107.869 46.6105 108.597 46.4905 109.333 46.4905C110.325 46.4905 111.149 46.6425 111.805 46.9465C112.477 47.2345 112.981 47.6425 113.317 48.1705C113.653 48.6825 113.821 49.2825 113.821 49.9705C113.821 50.7385 113.653 51.5065 113.317 52.2745C112.981 53.0265 112.485 53.7385 111.829 54.4105C111.189 55.0825 110.381 55.6825 109.405 56.2105C108.445 56.7225 107.325 57.1305 106.045 57.4345C104.781 57.7385 103.365 57.8905 101.797 57.8905ZM115.135 57.8905L115.375 54.5545C116.703 54.5545 117.767 54.5465 118.567 54.5305C119.383 54.5145 120.015 54.4825 120.463 54.4345C120.927 54.3705 121.271 54.2985 121.495 54.2185C121.719 54.1225 121.911 54.0185 122.071 53.9065C122.263 53.7625 122.423 53.5705 122.551 53.3305C122.695 53.0745 122.807 52.7385 122.887 52.3225C122.967 51.9065 123.007 51.3865 123.007 50.7625C123.007 49.9785 122.935 49.3225 122.791 48.7945C122.663 48.2505 122.471 47.8425 122.215 47.5705C121.975 47.2985 121.679 47.1625 121.327 47.1625C121.071 47.1625 120.831 47.2505 120.607 47.4265C120.383 47.5865 120.199 47.8105 120.055 48.0985C119.911 48.3865 119.839 48.7145 119.839 49.0825C119.839 49.2905 119.895 49.4745 120.007 49.6345C120.119 49.7945 120.295 49.9145 120.535 49.9945C120.775 50.0745 121.079 50.1145 121.447 50.1145C121.799 50.1145 122.167 50.0745 122.551 49.9945C122.951 49.8985 123.319 49.7705 123.655 49.6105L123.751 52.4665C123.495 52.6425 123.199 52.8025 122.863 52.9465C122.527 53.0905 122.167 53.2025 121.783 53.2825C121.415 53.3465 121.039 53.3785 120.655 53.3785C119.807 53.3785 119.071 53.2665 118.447 53.0425C117.839 52.8025 117.367 52.4185 117.031 51.8905C116.695 51.3625 116.527 50.6425 116.527 49.7305C116.527 49.0265 116.647 48.3305 116.887 47.6425C117.127 46.9385 117.471 46.3065 117.919 45.7465C118.367 45.1705 118.895 44.7145 119.503 44.3785C120.111 44.0265 120.783 43.8505 121.519 43.8505C122.607 43.8505 123.503 44.1705 124.207 44.8105C124.927 45.4345 125.455 46.2825 125.791 47.3545C126.143 48.4105 126.319 49.5865 126.319 50.8825C126.319 52.0185 126.151 53.0105 125.815 53.8585C125.479 54.6905 125.079 55.3465 124.615 55.8265C124.231 56.2265 123.791 56.5625 123.295 56.8345C122.799 57.1065 122.191 57.3225 121.471 57.4825C120.767 57.6265 119.895 57.7305 118.855 57.7945C117.831 57.8585 116.591 57.8905 115.135 57.8905ZM121.471 41.6185C120.975 41.6185 120.551 41.4505 120.199 41.1145C119.863 40.7785 119.695 40.3625 119.695 39.8665C119.695 39.3705 119.863 38.9465 120.199 38.5945C120.551 38.2425 120.975 38.0665 121.471 38.0665C121.951 38.0665 122.359 38.2425 122.695 38.5945C123.047 38.9465 123.223 39.3705 123.223 39.8665C123.223 40.3625 123.047 40.7785 122.695 41.1145C122.359 41.4505 121.951 41.6185 121.471 41.6185Z" fill="white"/>
<circle cx="191.435" cy="50.0784" r="22.8929" fill="#2536D0"/>
<rect x="8.29199" y="81.5557" width="228.929" height="221.775" rx="20" fill="#5C6DFF"/>
<path d="M36.6895 100.801V117.864H32.7402V105.254L28.8496 106.391V103.391L36.3262 100.801H36.6895ZM54.0215 111.196V114.243H41.7402L41.5059 111.829L48.3613 100.801H51.4785L48.0918 106.344L45.2793 111.196H54.0215ZM52.2988 100.801V117.864H48.3496V100.801H52.2988ZM67.6387 107.774V110.891C67.6387 112.118 67.4941 113.184 67.2051 114.09C66.9238 114.997 66.5176 115.747 65.9863 116.34C65.4629 116.934 64.8379 117.375 64.1113 117.665C63.3848 117.954 62.584 118.098 61.709 118.098C61.0059 118.098 60.3496 118.008 59.7402 117.829C59.1309 117.641 58.5801 117.36 58.0879 116.985C57.6035 116.602 57.1855 116.125 56.834 115.555C56.4824 114.985 56.2129 114.313 56.0254 113.54C55.8379 112.758 55.7441 111.875 55.7441 110.891V107.774C55.7441 106.54 55.8848 105.473 56.166 104.575C56.4551 103.668 56.8652 102.918 57.3965 102.325C57.9277 101.731 58.5566 101.29 59.2832 101C60.0098 100.711 60.8105 100.567 61.6855 100.567C62.3887 100.567 63.041 100.661 63.6426 100.848C64.252 101.028 64.8027 101.309 65.2949 101.692C65.7871 102.067 66.2051 102.54 66.5488 103.11C66.9004 103.68 67.1699 104.356 67.3574 105.137C67.5449 105.911 67.6387 106.79 67.6387 107.774ZM63.6895 111.372V107.27C63.6895 106.723 63.6582 106.247 63.5957 105.84C63.541 105.434 63.4551 105.09 63.3379 104.809C63.2285 104.528 63.0918 104.301 62.9277 104.129C62.7637 103.95 62.5762 103.821 62.3652 103.743C62.1621 103.657 61.9355 103.614 61.6855 103.614C61.373 103.614 61.0918 103.68 60.8418 103.813C60.5996 103.938 60.3926 104.141 60.2207 104.422C60.0488 104.704 59.916 105.079 59.8223 105.547C59.7363 106.016 59.6934 106.59 59.6934 107.27V111.372C59.6934 111.926 59.7207 112.411 59.7754 112.825C59.8379 113.231 59.9238 113.579 60.0332 113.868C60.1504 114.149 60.291 114.379 60.4551 114.559C60.6191 114.731 60.8066 114.856 61.0176 114.934C61.2285 115.012 61.459 115.051 61.709 115.051C62.0137 115.051 62.2871 114.989 62.5293 114.864C62.7715 114.739 62.9785 114.536 63.1504 114.254C63.3301 113.965 63.4629 113.586 63.5488 113.118C63.6426 112.641 63.6895 112.059 63.6895 111.372ZM81.6191 114.817V117.864H69.7129V115.286L75.1973 109.52C75.6816 108.965 76.0723 108.469 76.3691 108.032C76.666 107.586 76.8809 107.184 77.0137 106.825C77.1543 106.465 77.2246 106.141 77.2246 105.852C77.2246 105.36 77.1504 104.95 77.002 104.622C76.8613 104.286 76.6504 104.032 76.3691 103.86C76.0957 103.688 75.7559 103.602 75.3496 103.602C74.9434 103.602 74.5879 103.719 74.2832 103.954C73.9785 104.188 73.7402 104.508 73.5684 104.915C73.4043 105.321 73.3223 105.778 73.3223 106.286H69.3613C69.3613 105.239 69.6152 104.282 70.123 103.415C70.6387 102.547 71.3535 101.856 72.2676 101.34C73.1816 100.817 74.2402 100.555 75.4434 100.555C76.7012 100.555 77.7559 100.75 78.6074 101.141C79.459 101.532 80.0996 102.098 80.5293 102.84C80.9668 103.575 81.1855 104.461 81.1855 105.5C81.1855 106.094 81.0918 106.665 80.9043 107.211C80.7168 107.758 80.4473 108.301 80.0957 108.84C79.7441 109.372 79.3145 109.918 78.8066 110.481C78.3066 111.043 77.7363 111.641 77.0957 112.274L74.8926 114.817H81.6191ZM90.8887 100.801L85.0527 119.329H82.2402L88.0762 100.801H90.8887ZM100.814 100.801V117.864H96.8652V105.254L92.9746 106.391V103.391L100.451 100.801H100.814ZM117.9 114.817V117.864H105.994V115.286L111.479 109.52C111.963 108.965 112.354 108.469 112.65 108.032C112.947 107.586 113.162 107.184 113.295 106.825C113.436 106.465 113.506 106.141 113.506 105.852C113.506 105.36 113.432 104.95 113.283 104.622C113.143 104.286 112.932 104.032 112.65 103.86C112.377 103.688 112.037 103.602 111.631 103.602C111.225 103.602 110.869 103.719 110.564 103.954C110.26 104.188 110.021 104.508 109.85 104.915C109.686 105.321 109.604 105.778 109.604 106.286H105.643C105.643 105.239 105.896 104.282 106.404 103.415C106.92 102.547 107.635 101.856 108.549 101.34C109.463 100.817 110.521 100.555 111.725 100.555C112.982 100.555 114.037 100.75 114.889 101.141C115.74 101.532 116.381 102.098 116.811 102.84C117.248 103.575 117.467 104.461 117.467 105.5C117.467 106.094 117.373 106.665 117.186 107.211C116.998 107.758 116.729 108.301 116.377 108.84C116.025 109.372 115.596 109.918 115.088 110.481C114.588 111.043 114.018 111.641 113.377 112.274L111.174 114.817H117.9ZM127.17 100.801L121.334 119.329H118.521L124.357 100.801H127.17ZM137.096 100.801V117.864H133.146V105.254L129.256 106.391V103.391L136.732 100.801H137.096ZM154.123 107.774V110.891C154.123 112.118 153.979 113.184 153.689 114.09C153.408 114.997 153.002 115.747 152.471 116.34C151.947 116.934 151.322 117.375 150.596 117.665C149.869 117.954 149.068 118.098 148.193 118.098C147.49 118.098 146.834 118.008 146.225 117.829C145.615 117.641 145.064 117.36 144.572 116.985C144.088 116.602 143.67 116.125 143.318 115.555C142.967 114.985 142.697 114.313 142.51 113.54C142.322 112.758 142.229 111.875 142.229 110.891V107.774C142.229 106.54 142.369 105.473 142.65 104.575C142.939 103.668 143.35 102.918 143.881 102.325C144.412 101.731 145.041 101.29 145.768 101C146.494 100.711 147.295 100.567 148.17 100.567C148.873 100.567 149.525 100.661 150.127 100.848C150.736 101.028 151.287 101.309 151.779 101.692C152.271 102.067 152.689 102.54 153.033 103.11C153.385 103.68 153.654 104.356 153.842 105.137C154.029 105.911 154.123 106.79 154.123 107.774ZM150.174 111.372V107.27C150.174 106.723 150.143 106.247 150.08 105.84C150.025 105.434 149.939 105.09 149.822 104.809C149.713 104.528 149.576 104.301 149.412 104.129C149.248 103.95 149.061 103.821 148.85 103.743C148.646 103.657 148.42 103.614 148.17 103.614C147.857 103.614 147.576 103.68 147.326 103.813C147.084 103.938 146.877 104.141 146.705 104.422C146.533 104.704 146.4 105.079 146.307 105.547C146.221 106.016 146.178 106.59 146.178 107.27V111.372C146.178 111.926 146.205 112.411 146.26 112.825C146.322 113.231 146.408 113.579 146.518 113.868C146.635 114.149 146.775 114.379 146.939 114.559C147.104 114.731 147.291 114.856 147.502 114.934C147.713 115.012 147.943 115.051 148.193 115.051C148.498 115.051 148.771 114.989 149.014 114.864C149.256 114.739 149.463 114.536 149.635 114.254C149.814 113.965 149.947 113.586 150.033 113.118C150.127 112.641 150.174 112.059 150.174 111.372Z" fill="white"/>
<path d="M28.2402 156.996H29.3359L32.1309 163.951L34.9199 156.996H36.0215L32.5527 165.527H31.6973L28.2402 156.996ZM27.8828 156.996H28.8496L29.0078 162.199V165.527H27.8828V156.996ZM35.4062 156.996H36.373V165.527H35.248V162.199L35.4062 156.996ZM39.373 159.187V165.527H38.2832V159.187H39.373ZM38.2012 157.506C38.2012 157.33 38.2539 157.181 38.3594 157.06C38.4688 156.939 38.6289 156.879 38.8398 156.879C39.0469 156.879 39.2051 156.939 39.3145 157.06C39.4277 157.181 39.4844 157.33 39.4844 157.506C39.4844 157.674 39.4277 157.818 39.3145 157.939C39.2051 158.056 39.0469 158.115 38.8398 158.115C38.6289 158.115 38.4688 158.056 38.3594 157.939C38.2539 157.818 38.2012 157.674 38.2012 157.506ZM42.1973 160.541V165.527H41.1133V159.187H42.1387L42.1973 160.541ZM41.9395 162.117L41.4883 162.099C41.4922 161.666 41.5566 161.265 41.6816 160.898C41.8066 160.527 41.9824 160.205 42.209 159.931C42.4355 159.658 42.7051 159.447 43.0176 159.299C43.334 159.146 43.6836 159.07 44.0664 159.07C44.3789 159.07 44.6602 159.113 44.9102 159.199C45.1602 159.281 45.373 159.414 45.5488 159.597C45.7285 159.781 45.8652 160.019 45.959 160.312C46.0527 160.601 46.0996 160.955 46.0996 161.373V165.527H45.0098V161.361C45.0098 161.029 44.9609 160.763 44.8633 160.564C44.7656 160.361 44.623 160.215 44.4355 160.125C44.248 160.031 44.0176 159.984 43.7441 159.984C43.4746 159.984 43.2285 160.041 43.0059 160.154C42.7871 160.267 42.5977 160.424 42.4375 160.623C42.2812 160.822 42.1582 161.051 42.0684 161.308C41.9824 161.562 41.9395 161.832 41.9395 162.117ZM51.625 164.062V159.187H52.7148V165.527H51.6777L51.625 164.062ZM51.8301 162.726L52.2812 162.715C52.2812 163.136 52.2363 163.527 52.1465 163.886C52.0605 164.242 51.9199 164.551 51.7246 164.812C51.5293 165.074 51.2734 165.279 50.957 165.427C50.6406 165.572 50.2559 165.644 49.8027 165.644C49.4941 165.644 49.2109 165.599 48.9531 165.51C48.6992 165.42 48.4805 165.281 48.2969 165.094C48.1133 164.906 47.9707 164.662 47.8691 164.361C47.7715 164.06 47.7227 163.699 47.7227 163.277V159.187H48.8066V163.289C48.8066 163.574 48.8379 163.81 48.9004 163.998C48.9668 164.181 49.0547 164.328 49.1641 164.437C49.2773 164.543 49.4023 164.617 49.5391 164.66C49.6797 164.703 49.8242 164.724 49.9727 164.724C50.4336 164.724 50.7988 164.636 51.0684 164.461C51.3379 164.281 51.5312 164.041 51.6484 163.74C51.7695 163.435 51.8301 163.097 51.8301 162.726ZM57.0215 159.187V160.019H53.5938V159.187H57.0215ZM54.7539 157.646H55.8379V163.957C55.8379 164.172 55.8711 164.334 55.9375 164.443C56.0039 164.552 56.0898 164.625 56.1953 164.66C56.3008 164.695 56.4141 164.713 56.5352 164.713C56.625 164.713 56.7188 164.705 56.8164 164.689C56.918 164.67 56.9941 164.654 57.0449 164.642L57.0508 165.527C56.9648 165.554 56.8516 165.58 56.7109 165.603C56.5742 165.631 56.4082 165.644 56.2129 165.644C55.9473 165.644 55.7031 165.592 55.4805 165.486C55.2578 165.381 55.0801 165.205 54.9473 164.959C54.8184 164.709 54.7539 164.373 54.7539 163.951V157.646ZM60.9238 165.644C60.4824 165.644 60.082 165.57 59.7227 165.422C59.3672 165.269 59.0605 165.056 58.8027 164.783C58.5488 164.51 58.3535 164.185 58.2168 163.81C58.0801 163.435 58.0117 163.025 58.0117 162.58V162.334C58.0117 161.818 58.0879 161.359 58.2402 160.957C58.3926 160.551 58.5996 160.207 58.8613 159.926C59.123 159.644 59.4199 159.431 59.752 159.287C60.084 159.142 60.4277 159.07 60.7832 159.07C61.2363 159.07 61.627 159.148 61.9551 159.304C62.2871 159.461 62.5586 159.679 62.7695 159.961C62.9805 160.238 63.1367 160.566 63.2383 160.945C63.3398 161.32 63.3906 161.73 63.3906 162.176V162.662H58.6562V161.777H62.3066V161.695C62.291 161.414 62.2324 161.14 62.1309 160.875C62.0332 160.609 61.877 160.39 61.6621 160.219C61.4473 160.047 61.1543 159.961 60.7832 159.961C60.5371 159.961 60.3105 160.013 60.1035 160.119C59.8965 160.22 59.7188 160.373 59.5703 160.576C59.4219 160.779 59.3066 161.027 59.2246 161.32C59.1426 161.613 59.1016 161.951 59.1016 162.334V162.58C59.1016 162.881 59.1426 163.164 59.2246 163.429C59.3105 163.691 59.4336 163.922 59.5938 164.121C59.7578 164.32 59.9551 164.476 60.1855 164.59C60.4199 164.703 60.6855 164.76 60.9824 164.76C61.3652 164.76 61.6895 164.681 61.9551 164.525C62.2207 164.369 62.4531 164.16 62.6523 163.898L63.3086 164.42C63.1719 164.627 62.998 164.824 62.7871 165.011C62.5762 165.199 62.3164 165.351 62.0078 165.469C61.7031 165.586 61.3418 165.644 60.9238 165.644ZM68.3477 163.845C68.3477 163.689 68.3125 163.545 68.2422 163.412C68.1758 163.275 68.0371 163.152 67.8262 163.043C67.6191 162.929 67.3066 162.832 66.8887 162.75C66.5371 162.676 66.2188 162.588 65.9336 162.486C65.6523 162.385 65.4121 162.261 65.2129 162.117C65.0176 161.972 64.8672 161.802 64.7617 161.607C64.6562 161.412 64.6035 161.183 64.6035 160.922C64.6035 160.672 64.6582 160.435 64.7676 160.213C64.8809 159.99 65.0391 159.793 65.2422 159.621C65.4492 159.449 65.6973 159.314 65.9863 159.217C66.2754 159.119 66.5977 159.07 66.9531 159.07C67.4609 159.07 67.8945 159.16 68.2539 159.34C68.6133 159.519 68.8887 159.76 69.0801 160.06C69.2715 160.357 69.3672 160.687 69.3672 161.051H68.2832C68.2832 160.875 68.2305 160.705 68.125 160.541C68.0234 160.373 67.873 160.234 67.6738 160.125C67.4785 160.015 67.2383 159.961 66.9531 159.961C66.6523 159.961 66.4082 160.008 66.2207 160.101C66.0371 160.191 65.9023 160.306 65.8164 160.447C65.7344 160.588 65.6934 160.736 65.6934 160.892C65.6934 161.01 65.7129 161.115 65.752 161.209C65.7949 161.299 65.8691 161.383 65.9746 161.461C66.0801 161.535 66.2285 161.605 66.4199 161.672C66.6113 161.738 66.8555 161.804 67.1523 161.871C67.6719 161.988 68.0996 162.129 68.4355 162.293C68.7715 162.457 69.0215 162.658 69.1855 162.896C69.3496 163.135 69.4316 163.424 69.4316 163.763C69.4316 164.041 69.373 164.295 69.2559 164.525C69.1426 164.756 68.9766 164.955 68.7578 165.123C68.543 165.287 68.2852 165.416 67.9844 165.51C67.6875 165.599 67.3535 165.644 66.9824 165.644C66.4238 165.644 65.9512 165.545 65.5645 165.345C65.1777 165.146 64.8848 164.888 64.6855 164.572C64.4863 164.256 64.3867 163.922 64.3867 163.57H65.4766C65.4922 163.867 65.5781 164.103 65.7344 164.279C65.8906 164.451 66.082 164.574 66.3086 164.648C66.5352 164.719 66.7598 164.754 66.9824 164.754C67.2793 164.754 67.5273 164.715 67.7266 164.636C67.9297 164.558 68.084 164.451 68.1895 164.314C68.2949 164.177 68.3477 164.021 68.3477 163.845Z" fill="white"/>
<path d="M198.374 105.324C199.524 105.324 200.465 106.73 200.465 108.449C200.465 110.168 199.524 111.574 198.374 111.574C197.225 111.574 196.284 110.168 196.284 108.449C196.284 106.73 197.225 105.324 198.374 105.324ZM207.781 116.262H201.51V136.574H199.419V127.199H197.329V136.574H195.239V116.262H188.968V113.137H207.781V116.262Z" fill="white"/>
</g>
<path d="M138.624 288.576C138.133 286.827 137.728 285.163 137.408 283.584C137.088 282.027 136.853 280.608 136.704 279.328C136.555 278.069 136.48 277.013 136.48 276.16C136.48 274.261 136.779 272.576 137.376 271.104C137.995 269.611 138.784 268.331 139.744 267.264C140.725 266.176 141.771 265.28 142.88 264.576C144.011 263.872 145.099 263.349 146.144 263.008C147.211 262.667 148.117 262.496 148.864 262.496C149.632 262.496 150.261 262.699 150.752 263.104C151.264 263.509 151.712 264.096 152.096 264.864C152.501 265.611 152.928 266.517 153.376 267.584C153.888 268.736 154.336 269.611 154.72 270.208C155.125 270.784 155.541 271.179 155.968 271.392C156.395 271.584 156.875 271.68 157.408 271.68C158.219 271.68 158.805 271.893 159.168 272.32C159.531 272.725 159.712 273.237 159.712 273.856C159.712 274.517 159.488 275.072 159.04 275.52C158.592 275.947 157.941 276.16 157.088 276.16C156.043 276.16 155.136 275.989 154.368 275.648C153.6 275.285 152.907 274.773 152.288 274.112L153.184 273.12C152.992 273.781 152.725 274.379 152.384 274.912C152.064 275.424 151.627 275.829 151.072 276.128C150.539 276.427 149.867 276.576 149.056 276.576C148.331 276.576 147.605 276.469 146.88 276.256C146.176 276.043 145.483 275.723 144.8 275.296C144.139 274.869 143.499 274.347 142.88 273.728C142.261 273.088 141.675 272.352 141.12 271.52L142.304 271.296C141.835 272.021 141.493 272.832 141.28 273.728C141.067 274.624 140.96 275.509 140.96 276.384C140.96 277.067 141.013 277.856 141.12 278.752C141.248 279.669 141.408 280.629 141.6 281.632C141.792 282.656 142.005 283.659 142.24 284.64C142.496 285.643 142.741 286.56 142.976 287.392L138.624 288.576ZM148.992 272.064C149.397 272.064 149.717 272.011 149.952 271.904C150.208 271.776 150.368 271.595 150.432 271.36C150.517 271.125 150.496 270.848 150.368 270.528C150.155 269.952 149.941 269.451 149.728 269.024C149.536 268.597 149.344 268.235 149.152 267.936C148.981 267.637 148.8 267.413 148.608 267.264C148.437 267.115 148.256 267.04 148.064 267.04C147.787 267.04 147.445 267.136 147.04 267.328C146.635 267.499 146.229 267.712 145.824 267.968C145.419 268.224 145.077 268.48 144.8 268.736C144.523 268.971 144.363 269.152 144.32 269.28L143.936 268.224C144.32 268.971 144.779 269.643 145.312 270.24C145.867 270.816 146.464 271.264 147.104 271.584C147.744 271.904 148.373 272.064 148.992 272.064ZM157.156 276.16L157.476 271.68C158.756 271.68 159.738 271.616 160.42 271.488C161.103 271.36 161.572 271.125 161.828 270.784C162.106 270.421 162.244 269.909 162.244 269.248C162.244 268.651 162.159 267.936 161.988 267.104C161.839 266.272 161.636 265.408 161.38 264.512C161.146 263.616 160.89 262.795 160.612 262.048L165.028 260.832C165.306 261.557 165.572 262.4 165.828 263.36C166.084 264.32 166.298 265.312 166.468 266.336C166.639 267.339 166.724 268.309 166.724 269.248C166.724 270.699 166.49 271.883 166.02 272.8C165.551 273.696 164.89 274.389 164.036 274.88C163.204 275.371 162.202 275.712 161.028 275.904C159.855 276.075 158.564 276.16 157.156 276.16ZM165.06 283.584C164.442 283.584 163.908 283.36 163.46 282.912C163.034 282.485 162.82 281.973 162.82 281.376C162.82 280.757 163.034 280.224 163.46 279.776C163.908 279.328 164.442 279.104 165.06 279.104C165.658 279.104 166.17 279.328 166.596 279.776C167.023 280.224 167.236 280.757 167.236 281.376C167.236 281.973 167.023 282.485 166.596 282.912C166.17 283.36 165.658 283.584 165.06 283.584ZM159.524 283.584C158.906 283.584 158.372 283.36 157.924 282.912C157.498 282.485 157.284 281.973 157.284 281.376C157.284 280.757 157.498 280.224 157.924 279.776C158.372 279.328 158.906 279.104 159.524 279.104C160.122 279.104 160.634 279.328 161.06 279.776C161.487 280.224 161.7 280.757 161.7 281.376C161.7 281.973 161.487 282.485 161.06 282.912C160.634 283.36 160.122 283.584 159.524 283.584ZM170.48 283.36L169.552 278.88C171.067 278.688 172.39 278.453 173.52 278.176C174.651 277.92 175.6 277.557 176.368 277.088C177.136 276.619 177.712 275.979 178.096 275.168C178.48 274.336 178.672 273.269 178.672 271.968C178.672 270.709 178.48 269.707 178.096 268.96C177.712 268.213 177.2 267.84 176.56 267.84C176.112 267.84 175.739 268 175.44 268.32C175.142 268.619 174.918 268.981 174.768 269.408C174.64 269.813 174.576 270.176 174.576 270.496C174.576 270.688 174.63 270.891 174.736 271.104C174.843 271.317 175.078 271.499 175.44 271.648C175.803 271.797 176.368 271.883 177.136 271.904C177.926 271.925 178.992 271.851 180.336 271.68H185.712C186.523 271.68 187.099 271.893 187.44 272.32C187.803 272.725 187.984 273.237 187.984 273.856C187.984 274.517 187.76 275.072 187.312 275.52C186.864 275.947 186.224 276.16 185.392 276.16H176.592C175.248 276.16 174.096 276 173.136 275.68C172.176 275.36 171.44 274.848 170.928 274.144C170.416 273.419 170.16 272.459 170.16 271.264C170.16 270.304 170.32 269.344 170.64 268.384C170.982 267.424 171.451 266.549 172.048 265.76C172.646 264.949 173.339 264.309 174.128 263.84C174.939 263.349 175.814 263.104 176.752 263.104C178.032 263.104 179.152 263.499 180.112 264.288C181.072 265.077 181.819 266.123 182.352 267.424C182.907 268.725 183.184 270.144 183.184 271.68C183.184 274.091 182.672 276.139 181.648 277.824C180.624 279.509 179.163 280.811 177.264 281.728C175.366 282.667 173.104 283.211 170.48 283.36ZM185.438 276.16L185.758 271.712C186.59 271.733 187.358 271.723 188.062 271.68C188.766 271.637 189.395 271.573 189.95 271.488C190.526 271.403 191.027 271.307 191.454 271.2C191.902 271.093 192.275 270.997 192.574 270.912C193.299 270.677 193.918 270.4 194.43 270.08C194.942 269.739 195.336 269.355 195.614 268.928C195.891 268.501 196.03 268.043 196.03 267.552C196.03 267.168 195.944 266.784 195.774 266.4C195.624 265.995 195.4 265.664 195.102 265.408C194.803 265.152 194.451 265.024 194.046 265.024C193.662 265.024 193.31 265.141 192.99 265.376C192.67 265.611 192.414 265.931 192.222 266.336C192.03 266.72 191.934 267.168 191.934 267.68C191.934 268.128 192.04 268.555 192.254 268.96C192.467 269.344 192.766 269.717 193.15 270.08C193.534 270.443 193.992 270.784 194.526 271.104L190.27 272.736C189.8 272.288 189.352 271.808 188.926 271.296C188.52 270.784 188.179 270.208 187.902 269.568C187.646 268.907 187.518 268.171 187.518 267.36C187.518 266.379 187.71 265.483 188.094 264.672C188.478 263.861 188.99 263.168 189.63 262.592C190.27 261.995 190.984 261.536 191.774 261.216C192.563 260.896 193.352 260.736 194.142 260.736C195.422 260.736 196.531 261.035 197.47 261.632C198.408 262.229 199.134 263.008 199.646 263.968C200.179 264.928 200.446 265.973 200.446 267.104C200.446 268.149 200.254 269.088 199.87 269.92C199.486 270.731 198.963 271.456 198.302 272.096C197.662 272.715 196.947 273.259 196.158 273.728C195.39 274.197 194.611 274.592 193.822 274.912C193.438 275.083 192.958 275.243 192.382 275.392C191.806 275.541 191.155 275.68 190.43 275.808C189.704 275.915 188.926 276 188.094 276.064C187.262 276.128 186.376 276.16 185.438 276.16ZM202.333 276.16C201.096 276.16 199.88 276.096 198.686 275.968C197.491 275.84 196.382 275.648 195.358 275.392C194.355 275.136 193.48 274.827 192.734 274.464L194.942 271.008C195.582 271.179 196.328 271.317 197.182 271.424C198.056 271.509 198.963 271.573 199.902 271.616C200.862 271.659 201.779 271.68 202.654 271.68C203.464 271.68 204.04 271.893 204.382 272.32C204.744 272.725 204.926 273.237 204.926 273.856C204.926 274.517 204.702 275.072 204.253 275.52C203.806 275.947 203.166 276.16 202.333 276.16ZM196.958 257.824C196.339 257.824 195.806 257.611 195.358 257.184C194.931 256.736 194.718 256.213 194.718 255.616C194.718 254.997 194.931 254.464 195.358 254.016C195.806 253.568 196.339 253.344 196.958 253.344C197.555 253.344 198.067 253.568 198.494 254.016C198.92 254.464 199.134 254.997 199.134 255.616C199.134 256.213 198.92 256.736 198.494 257.184C198.067 257.611 197.555 257.824 196.958 257.824ZM191.422 257.792C190.803 257.792 190.27 257.579 189.822 257.152C189.395 256.704 189.182 256.181 189.182 255.584C189.182 254.965 189.395 254.432 189.822 253.984C190.27 253.536 190.803 253.312 191.422 253.312C192.019 253.312 192.531 253.536 192.958 253.984C193.384 254.432 193.598 254.965 193.598 255.584C193.598 256.181 193.384 256.704 192.958 257.152C192.531 257.579 192.019 257.792 191.422 257.792ZM202.375 276.16L202.695 271.68C203.975 271.68 204.956 271.616 205.639 271.488C206.322 271.36 206.791 271.125 207.047 270.784C207.324 270.421 207.463 269.909 207.463 269.248C207.463 268.651 207.378 267.936 207.207 267.104C207.058 266.272 206.855 265.408 206.599 264.512C206.364 263.616 206.108 262.795 205.831 262.048L210.247 260.832C210.524 261.557 210.791 262.4 211.047 263.36C211.303 264.32 211.516 265.312 211.687 266.336C211.858 267.339 211.943 268.309 211.943 269.248C211.943 270.699 211.708 271.883 211.239 272.8C210.77 273.696 210.108 274.389 209.255 274.88C208.423 275.371 207.42 275.712 206.247 275.904C205.074 276.075 203.783 276.16 202.375 276.16ZM211.047 258.24C210.428 258.24 209.895 258.027 209.447 257.6C209.02 257.152 208.807 256.629 208.807 256.032C208.807 255.413 209.02 254.88 209.447 254.432C209.895 253.984 210.428 253.76 211.047 253.76C211.644 253.76 212.156 253.984 212.583 254.432C213.01 254.88 213.223 255.413 213.223 256.032C213.223 256.629 213.01 257.152 212.583 257.6C212.156 258.027 211.644 258.24 211.047 258.24ZM205.511 258.208C204.892 258.208 204.359 257.995 203.911 257.568C203.484 257.12 203.271 256.597 203.271 256C203.271 255.381 203.484 254.848 203.911 254.4C204.359 253.952 204.892 253.728 205.511 253.728C206.108 253.728 206.62 253.952 207.047 254.4C207.474 254.848 207.687 255.381 207.687 256C207.687 256.597 207.474 257.12 207.047 257.568C206.62 257.995 206.108 258.208 205.511 258.208Z" fill="#F9F8F4"/>
<defs>
<filter id="filter0_d_609_1312" x="0" y="0" width="241.221" height="311.331" filterUnits="userSpaceOnUse" color-interpolation-filters="sRGB">
<feFlood flood-opacity="0" result="BackgroundImageFix"/>
<feColorMatrix in="SourceAlpha" type="matrix" values="0 0 0 0 0 0 0 0 0 0 0 0 0 0 0 0 0 0 127 0" result="hardAlpha"/>
<feOffset dy="4"/>
<feGaussianBlur stdDeviation="2"/>
<feComposite in2="hardAlpha" operator="out"/>
<feColorMatrix type="matrix" values="0 0 0 0 0 0 0 0 0 0 0 0 0 0 0 0 0 0 0.25 0"/>
<feBlend mode="normal" in2="BackgroundImageFix" result="effect1_dropShadow_609_1312"/>
<feBlend mode="normal" in="SourceGraphic" in2="effect1_dropShadow_609_1312" result="shape"/>
</filter>
</defs>
</svg>
