<svg width="18" height="18" viewBox="0 0 18 18" fill="none" xmlns="http://www.w3.org/2000/svg">
<path d="M4.89514 8.85434H4.90488M8.79029 8.85434H8.80002M12.6757 8.85434H12.6854M1 8.85434C1 4.51651 4.48783 1 8.79029 1C13.0927 1 16.5806 4.51651 16.5806 8.85434C16.5806 10.0314 16.3238 11.148 15.8636 12.1502L16.9552 15.7274C17.1959 16.5161 16.4228 17.2341 15.6629 16.9277L13.0357 15.8682C12.8104 15.7773 12.5594 15.7745 12.3322 15.8605L12.2666 15.8853C11.7882 16.1262 11.2818 16.3189 10.7536 16.4571C10.6862 16.4814 10.6189 16.4977 10.5525 16.5069C9.98627 16.6389 9.39636 16.7087 8.79029 16.7087C4.48783 16.7087 1 13.1922 1 8.85434Z" stroke="white" stroke-width="2" stroke-linecap="round" stroke-linejoin="round"/>
</svg>
