<svg width="601" height="601" viewBox="0 0 601 601" fill="none" xmlns="http://www.w3.org/2000/svg">
<path d="M557.656 215.675C542.55 180.106 516.461 150.302 483.204 130.621C427.419 97.362 321.571 52.0706 210.951 98.2515C49.2819 165.732 17.9338 428.585 24.9895 460.763C32.0453 492.94 323.939 598.848 392.982 583.162C462.025 567.476 568.738 446.639 579.725 392.489C588.006 351.657 584.244 278.696 557.656 215.675Z" fill="#9597F7"/>
<path opacity="0.7" d="M557.656 215.675C542.55 180.106 516.461 150.302 483.204 130.621C427.419 97.362 321.571 52.0706 210.951 98.2515C49.2819 165.732 17.9338 428.585 24.9895 460.763C32.0453 492.94 323.939 598.848 392.982 583.162C462.025 567.476 568.738 446.639 579.725 392.489C588.006 351.657 584.244 278.696 557.656 215.675Z" fill="#FEFEFE"/>
<path d="M225.543 373.618H65.8576C65.6982 373.618 65.5453 373.554 65.4326 373.442C65.3199 373.329 65.2566 373.176 65.2566 373.017V263.562C65.2566 263.403 65.3199 263.25 65.4326 263.137C65.5453 263.025 65.6982 262.961 65.8576 262.961H225.543C225.703 262.961 225.856 263.025 225.968 263.137C226.081 263.25 226.144 263.403 226.144 263.562V373.017C226.144 373.176 226.081 373.329 225.968 373.442C225.856 373.554 225.703 373.618 225.543 373.618ZM66.4586 372.416H224.942V264.163H66.4586V372.416Z" fill="#0F0F0F"/>
<path d="M78.0218 331.199H56.7704C56.611 331.199 56.4582 331.136 56.3455 331.023C56.2328 330.91 56.1694 330.758 56.1694 330.598V308.481C56.1694 308.322 56.2328 308.169 56.3455 308.056C56.4582 307.944 56.611 307.88 56.7704 307.88H78.0218C78.1802 307.883 78.3313 307.948 78.4434 308.06C78.5554 308.172 78.6197 308.323 78.6228 308.481V330.55C78.6294 330.633 78.6188 330.716 78.5916 330.795C78.5644 330.873 78.5212 330.945 78.4647 331.006C78.4082 331.067 78.3397 331.116 78.2635 331.149C78.1872 331.182 78.1049 331.199 78.0218 331.199ZM57.3714 329.997H77.4208V309.082H57.3714V329.997Z" fill="#0F0F0F"/>
<path d="M225.543 500.236H65.8576C65.6992 500.233 65.5481 500.169 65.436 500.057C65.324 499.945 65.2597 499.793 65.2566 499.635V390.169C65.2597 390.01 65.324 389.859 65.436 389.747C65.5481 389.635 65.6992 389.571 65.8576 389.568H225.543C225.702 389.571 225.853 389.635 225.965 389.747C226.077 389.859 226.141 390.01 226.144 390.169V499.635C226.141 499.793 226.077 499.945 225.965 500.057C225.853 500.169 225.702 500.233 225.543 500.236ZM66.4586 499.034H224.942V390.77H66.4586V499.034Z" fill="#0F0F0F"/>
<path d="M78.0218 457.806H56.7704C56.611 457.806 56.4582 457.742 56.3455 457.63C56.2328 457.517 56.1694 457.364 56.1694 457.205V435.124C56.1694 434.965 56.2328 434.812 56.3455 434.699C56.4582 434.586 56.611 434.523 56.7704 434.523H78.0218C78.1802 434.526 78.3313 434.59 78.4434 434.702C78.5554 434.814 78.6197 434.966 78.6228 435.124V457.241C78.6136 457.394 78.5462 457.538 78.4345 457.643C78.3228 457.748 78.1751 457.806 78.0218 457.806ZM57.3714 456.604H77.4208V435.689H57.3714V456.604Z" fill="#0F0F0F"/>
<path d="M425.664 373.618H265.991C265.831 373.618 265.678 373.554 265.566 373.442C265.453 373.329 265.39 373.176 265.39 373.017V263.562C265.39 263.403 265.453 263.25 265.566 263.137C265.678 263.025 265.831 262.961 265.991 262.961H425.664C425.824 262.961 425.976 263.025 426.089 263.137C426.202 263.25 426.265 263.403 426.265 263.562V373.017C426.265 373.176 426.202 373.329 426.089 373.442C425.976 373.554 425.824 373.618 425.664 373.618ZM266.592 372.416H425.063V264.163H266.592V372.416Z" fill="#0F0F0F"/>
<path d="M278.143 331.199H256.903C256.744 331.199 256.591 331.136 256.479 331.023C256.366 330.91 256.302 330.758 256.302 330.598V308.481C256.302 308.322 256.366 308.169 256.479 308.056C256.591 307.944 256.744 307.88 256.903 307.88H278.143C278.302 307.88 278.455 307.944 278.568 308.056C278.681 308.169 278.744 308.322 278.744 308.481V330.55C278.75 330.633 278.74 330.716 278.713 330.795C278.685 330.873 278.642 330.945 278.586 331.006C278.529 331.067 278.461 331.116 278.385 331.149C278.308 331.182 278.226 331.199 278.143 331.199ZM257.504 329.997H277.542V309.082H257.504V329.997Z" fill="#0F0F0F"/>
<path d="M425.664 500.236H265.991C265.832 500.233 265.681 500.169 265.569 500.057C265.457 499.945 265.393 499.793 265.39 499.635V390.169C265.393 390.01 265.457 389.859 265.569 389.747C265.681 389.635 265.832 389.571 265.991 389.568H425.664C425.824 389.568 425.976 389.631 426.089 389.744C426.202 389.857 426.265 390.009 426.265 390.169V499.635C426.265 499.794 426.202 499.947 426.089 500.06C425.976 500.173 425.824 500.236 425.664 500.236ZM266.592 499.034H425.063V390.77H266.592V499.034Z" fill="#0F0F0F"/>
<path d="M278.143 457.806H256.903C256.744 457.806 256.591 457.742 256.479 457.63C256.366 457.517 256.302 457.364 256.302 457.205V435.124C256.302 434.965 256.366 434.812 256.479 434.699C256.591 434.586 256.744 434.523 256.903 434.523H278.143C278.302 434.523 278.455 434.586 278.568 434.699C278.681 434.812 278.744 434.965 278.744 435.124V457.241C278.735 457.394 278.667 457.538 278.556 457.643C278.444 457.748 278.296 457.806 278.143 457.806ZM257.504 456.604H277.542V435.689H257.504V456.604Z" fill="#0F0F0F"/>
<path d="M591.913 504.419H11.3589C11.2005 504.416 11.0494 504.352 10.9374 504.24C10.8253 504.128 10.761 503.977 10.7579 503.818C10.7579 503.659 10.8213 503.506 10.934 503.393C11.0467 503.281 11.1995 503.217 11.3589 503.217H591.925C592.084 503.217 592.237 503.281 592.35 503.393C592.463 503.506 592.526 503.659 592.526 503.818C592.526 503.898 592.51 503.977 592.479 504.051C592.448 504.125 592.403 504.192 592.346 504.248C592.289 504.304 592.221 504.348 592.147 504.377C592.072 504.407 591.993 504.421 591.913 504.419Z" fill="#0F0F0F"/>
<path d="M466.664 500.789L394.28 513.867L500.729 545.491L554.098 522.677L466.664 500.789Z" fill="#A3A3A3"/>
<path d="M500.729 546.093C500.674 546.104 500.616 546.104 500.561 546.093L394.112 514.456C393.983 514.414 393.871 514.332 393.793 514.222C393.715 514.111 393.675 513.978 393.679 513.843C393.69 513.71 393.744 513.583 393.833 513.484C393.921 513.384 394.041 513.316 394.172 513.29L466.556 500.212C466.639 500.194 466.726 500.194 466.809 500.212L554.242 522.089C554.364 522.119 554.474 522.188 554.554 522.286C554.634 522.383 554.68 522.504 554.687 522.63C554.697 522.755 554.668 522.88 554.603 522.988C554.539 523.096 554.442 523.181 554.326 523.231L500.97 546.069C500.892 546.093 500.81 546.102 500.729 546.093ZM396.876 514.011L500.693 544.855L552.211 522.87L466.652 501.45L396.876 514.011Z" fill="#0F0F0F"/>
<path d="M469.201 503.386L404.557 515.057L499.623 543.316L547.283 522.93L469.201 503.386Z" fill="#FEFEFE"/>
<path d="M499.623 543.917H499.455L404.389 515.658C404.26 515.62 404.147 515.541 404.069 515.432C403.991 515.323 403.951 515.191 403.956 515.057C403.966 514.922 404.02 514.794 404.108 514.692C404.197 514.59 404.317 514.52 404.449 514.492L469.105 502.821C469.188 502.803 469.274 502.803 469.357 502.821L547.427 522.365C547.55 522.397 547.659 522.466 547.741 522.563C547.823 522.66 547.873 522.78 547.884 522.906C547.894 523.031 547.865 523.157 547.8 523.264C547.735 523.372 547.638 523.457 547.523 523.507L499.864 543.941C499.783 543.945 499.702 543.937 499.623 543.917ZM407.153 515.201L499.587 542.679L545.408 523.074L469.189 503.998L407.153 515.201Z" fill="#0F0F0F"/>
<path d="M534.529 525.382L507.172 536.357L520.538 540.143L548.737 528.255L534.529 525.382Z" fill="#0F0F0F"/>
<path d="M520.538 540.744H520.37L507.004 536.934C506.884 536.899 506.779 536.829 506.701 536.732C506.624 536.635 506.578 536.516 506.571 536.393C506.562 536.268 506.594 536.143 506.661 536.037C506.728 535.931 506.827 535.849 506.943 535.804L534.313 524.817C534.422 524.782 534.54 524.782 534.65 524.817L548.857 527.678C548.983 527.703 549.098 527.768 549.184 527.862C549.271 527.957 549.325 528.077 549.338 528.205C549.352 528.332 549.324 528.461 549.259 528.572C549.194 528.682 549.095 528.769 548.977 528.82L520.766 540.708C520.693 540.732 520.616 540.745 520.538 540.744ZM509.023 536.26L520.502 539.506L546.718 528.459L534.589 526.055L509.023 536.26Z" fill="#0F0F0F"/>
<path d="M487.255 534.649C487.095 534.677 486.932 534.639 486.8 534.546C486.668 534.452 486.579 534.31 486.552 534.151C486.524 533.991 486.562 533.828 486.655 533.696C486.749 533.564 486.891 533.475 487.05 533.447L522.642 520.574C522.792 520.523 522.955 520.532 523.099 520.599C523.242 520.667 523.354 520.787 523.411 520.935C523.465 521.084 523.457 521.25 523.39 521.394C523.322 521.538 523.2 521.65 523.05 521.704L487.459 534.577C487.396 534.614 487.327 534.639 487.255 534.649Z" fill="#0F0F0F"/>
<path d="M466.376 529.733C466.297 529.745 466.217 529.741 466.139 529.722C466.062 529.703 465.989 529.668 465.925 529.621C465.86 529.574 465.806 529.514 465.765 529.446C465.724 529.377 465.697 529.301 465.685 529.222C465.673 529.144 465.677 529.063 465.696 528.986C465.715 528.908 465.75 528.835 465.797 528.771C465.845 528.707 465.904 528.653 465.973 528.612C466.041 528.57 466.117 528.543 466.196 528.531L502.712 516.595C502.864 516.546 503.029 516.559 503.171 516.631C503.313 516.703 503.42 516.829 503.47 516.98C503.516 517.132 503.501 517.295 503.43 517.436C503.358 517.577 503.235 517.685 503.085 517.737L466.568 529.673C466.509 529.705 466.443 529.726 466.376 529.733Z" fill="#0F0F0F"/>
<path d="M443.25 522.954C443.118 522.953 442.99 522.91 442.886 522.829C442.782 522.749 442.707 522.637 442.673 522.509C442.635 522.355 442.657 522.192 442.735 522.054C442.813 521.915 442.941 521.812 443.093 521.764L485.235 510.537C485.311 510.516 485.391 510.509 485.469 510.519C485.547 510.528 485.623 510.554 485.691 510.593C485.759 510.632 485.819 510.685 485.867 510.747C485.915 510.81 485.949 510.882 485.969 510.958C486.009 511.111 485.988 511.274 485.909 511.411C485.83 511.549 485.7 511.649 485.548 511.691L443.406 522.93L443.25 522.954Z" fill="#0F0F0F"/>
<path d="M379.94 300.416C379.804 300.421 379.671 300.373 379.568 300.284C379.478 300.213 379.41 300.117 379.374 300.008C379.338 299.899 379.334 299.782 379.363 299.671C379.52 299.07 383.114 284.994 384.82 280.715C384.877 280.576 384.983 280.463 385.119 280.399C385.255 280.334 385.41 280.323 385.554 280.367C386.816 280.751 397.886 284.261 399.1 287.29C400.314 290.319 386.287 297.447 380.205 300.368C380.121 300.402 380.031 300.419 379.94 300.416ZM385.746 281.677C384.304 285.571 381.743 295.26 380.854 298.721C390.566 293.913 398.463 288.937 397.982 287.747C397.261 285.92 390.314 283.143 385.746 281.677Z" fill="#0F0F0F"/>
<path d="M426.974 375.024C426.974 375.024 450.822 418.549 451.652 420.22C452.481 421.89 494.022 491.462 494.022 491.462L497.075 497.292L506.222 488.133C508.008 486.414 510.2 485.173 512.593 484.527L506.499 475.091C506.499 475.091 493.746 442.637 485.428 422.419C477.11 402.202 471.845 393.872 471.845 393.03C471.845 392.189 462.145 361.153 462.145 361.153L426.974 375.024Z" fill="#FEFEFE"/>
<path d="M497.123 497.893H497.027C496.934 497.879 496.845 497.844 496.767 497.79C496.69 497.735 496.627 497.664 496.582 497.58L493.541 491.751C491.858 488.938 451.952 422.167 451.111 420.496C450.269 418.825 426.71 375.746 426.458 375.313C426.425 375.235 426.408 375.151 426.408 375.066C426.408 374.982 426.425 374.898 426.458 374.82C426.489 374.741 426.536 374.67 426.596 374.61C426.656 374.55 426.727 374.503 426.806 374.471L461.965 360.6C462.041 360.568 462.122 360.551 462.205 360.551C462.288 360.551 462.369 360.568 462.445 360.6C462.52 360.635 462.587 360.685 462.641 360.747C462.695 360.809 462.735 360.882 462.758 360.961C465.691 370.325 472.494 392.213 472.494 393.018C472.494 393.223 473.119 394.353 473.864 395.783C475.944 399.81 480.271 408.164 486.029 422.227C494.25 442.24 506.98 474.586 507.1 474.911L513.11 484.226C513.154 484.312 513.177 484.406 513.177 484.503C513.177 484.599 513.154 484.694 513.11 484.779C513.072 484.867 513.015 484.946 512.942 485.008C512.869 485.071 512.782 485.116 512.689 485.14C510.405 485.771 508.312 486.956 506.595 488.589L497.448 497.737C497.358 497.82 497.245 497.874 497.123 497.893ZM427.828 375.289C430.821 380.734 451.411 418.332 452.192 419.895C452.974 421.458 494.166 490.416 494.587 491.114L497.267 496.234L505.838 487.664C507.501 486.058 509.507 484.85 511.703 484.13L506.042 475.439C505.862 475.007 493.145 442.661 484.923 422.66C479.177 408.692 474.874 400.363 472.795 396.36C471.593 393.956 471.292 393.439 471.292 393.042C471.16 392.093 465.619 374.159 461.808 361.959L427.828 375.289Z" fill="#0F0F0F"/>
<path d="M462.614 364.182L434.956 390.842L426.974 375.024L462.614 364.182Z" fill="#0F0F0F"/>
<path d="M434.956 391.443H434.86C434.766 391.425 434.678 391.387 434.601 391.331C434.524 391.275 434.461 391.202 434.415 391.119L426.446 375.301C426.41 375.221 426.391 375.135 426.391 375.048C426.391 374.961 426.41 374.875 426.446 374.796C426.482 374.714 426.535 374.641 426.602 374.581C426.668 374.521 426.746 374.476 426.83 374.447L462.458 363.629C462.587 363.588 462.726 363.592 462.852 363.64C462.979 363.688 463.085 363.777 463.155 363.894C463.224 364.011 463.252 364.148 463.234 364.283C463.217 364.418 463.155 364.543 463.059 364.639L435.413 391.299C435.35 391.352 435.277 391.392 435.199 391.417C435.12 391.442 435.038 391.451 434.956 391.443ZM427.84 375.397L435.124 389.821L460.366 365.456L427.84 375.397Z" fill="#0F0F0F"/>
<path d="M510.021 480.992C510.021 480.992 507.232 478.757 502.4 481.918C497.568 485.079 493.842 494.743 494.587 496.979C495.332 499.215 500.717 504.191 503.506 505.718C506.294 507.244 517.269 507.941 522.281 507.196C527.293 506.451 536.417 505.345 538.46 505.525C540.503 505.706 542.919 507.761 543.472 505.898L544.037 504.047C544.037 504.047 550.348 509.059 551.466 508.855C551.837 508.744 552.179 508.554 552.467 508.296C552.756 508.038 552.985 507.72 553.136 507.364C553.136 507.364 555.192 509.035 556.117 508.11L557.043 507.172C557.043 507.172 558.906 506.246 559.086 505.129C559.267 504.011 559.832 493.241 558.714 490.452C557.596 487.663 552.031 487.663 552.031 487.663C551.77 487.045 551.329 486.519 550.765 486.154C550.201 485.79 549.541 485.604 548.869 485.62C546.465 485.62 526.56 486.173 522.425 485.981C519.934 485.869 517.45 485.624 514.985 485.247L510.021 480.992Z" fill="#FFA45A"/>
<path d="M551.454 509.48C550.252 509.48 546.754 506.932 544.35 505.057L544.049 506.078C543.996 506.299 543.895 506.506 543.754 506.685C543.613 506.863 543.435 507.009 543.232 507.112C542.762 507.235 542.273 507.263 541.792 507.195C541.311 507.127 540.849 506.964 540.431 506.715C539.782 506.432 539.1 506.234 538.4 506.126C536.489 505.946 527.714 507.004 522.377 507.797C517.353 508.542 506.21 507.797 503.229 506.247C500.537 504.804 494.815 499.684 494.022 497.171C493.229 494.659 496.979 484.743 502.063 481.413C507.148 478.084 510.261 480.415 510.393 480.524L515.285 484.683C517.675 485.048 520.083 485.289 522.497 485.404C525.322 485.524 535.779 485.296 542.703 485.139C545.756 485.079 548.124 485.031 548.869 485.031C549.59 485.01 550.302 485.19 550.926 485.551C551.551 485.912 552.062 486.439 552.403 487.075C553.761 487.075 558.197 487.531 559.279 490.236C560.481 493.217 559.88 504.059 559.687 505.249C559.495 506.439 557.848 507.448 557.403 507.653L556.538 508.518C555.6 509.456 554.134 508.747 553.329 508.218C552.921 508.83 552.292 509.261 551.574 509.42L551.454 509.48ZM544.037 503.47C544.173 503.472 544.304 503.518 544.41 503.602C547.223 505.838 550.696 508.278 551.405 508.314C552.115 508.35 552.607 507.196 552.607 507.184C552.647 507.1 552.704 507.026 552.774 506.966C552.845 506.905 552.927 506.861 553.016 506.835C553.108 506.813 553.203 506.812 553.295 506.833C553.387 506.853 553.472 506.896 553.545 506.956C554.206 507.497 555.36 508.086 555.709 507.737L556.646 506.811C556.69 506.765 556.743 506.728 556.802 506.703C557.319 506.439 558.413 505.706 558.521 505.093C558.69 504.059 559.219 493.337 558.185 490.729C557.391 488.757 553.485 488.325 552.055 488.325C551.931 488.323 551.812 488.284 551.711 488.213C551.61 488.143 551.533 488.043 551.49 487.928C551.272 487.424 550.909 486.998 550.446 486.704C549.982 486.41 549.441 486.263 548.893 486.281C548.148 486.281 545.792 486.281 542.751 486.389C535.816 486.546 525.322 486.774 522.461 486.642C519.95 486.524 517.446 486.275 514.961 485.897C514.855 485.878 514.756 485.832 514.672 485.764L509.648 481.461C509.48 481.329 507.028 479.61 502.737 482.423C497.989 485.536 494.539 494.9 495.164 496.787C495.789 498.674 501.114 503.746 503.806 505.201C506.499 506.655 517.028 507.388 522.209 506.619C526.813 505.934 536.332 504.744 538.52 504.936C539.328 505.054 540.117 505.281 540.864 505.609C541.561 505.874 542.415 506.198 542.715 506.054C542.818 505.98 542.887 505.867 542.907 505.742L543.472 503.879C543.499 503.784 543.55 503.698 543.619 503.629C543.689 503.559 543.775 503.509 543.869 503.482C543.922 503.456 543.979 503.439 544.037 503.434V503.47Z" fill="#0F0F0F"/>
<path d="M499.046 499.623H498.854C498.779 499.599 498.71 499.56 498.651 499.508C498.591 499.457 498.543 499.394 498.508 499.323C498.473 499.253 498.453 499.176 498.448 499.097C498.444 499.019 498.455 498.94 498.481 498.866C500.765 491.991 511.703 487.531 512.208 487.351C512.283 487.309 512.365 487.284 512.451 487.276C512.536 487.269 512.622 487.28 512.702 487.308C512.783 487.336 512.856 487.382 512.918 487.441C512.98 487.5 513.028 487.571 513.06 487.651C513.092 487.73 513.107 487.815 513.103 487.901C513.1 487.986 513.078 488.07 513.039 488.146C513.001 488.222 512.946 488.289 512.88 488.343C512.813 488.397 512.736 488.435 512.653 488.457C512.545 488.457 501.739 492.904 499.623 499.275C499.573 499.384 499.491 499.475 499.388 499.538C499.285 499.6 499.166 499.63 499.046 499.623Z" fill="#0F0F0F"/>
<path d="M499.611 492.928H499.419C499.269 492.876 499.146 492.768 499.074 492.627C499.003 492.486 498.988 492.322 499.034 492.171C499.68 490.093 500.757 488.174 502.194 486.54C503.632 484.906 505.397 483.593 507.376 482.687C507.524 482.628 507.69 482.63 507.837 482.694C507.983 482.757 508.099 482.875 508.158 483.024C508.217 483.172 508.214 483.338 508.151 483.484C508.088 483.631 507.969 483.746 507.821 483.805C506.014 484.657 504.402 485.872 503.086 487.376C501.771 488.88 500.78 490.639 500.176 492.544C500.134 492.658 500.057 492.757 499.955 492.826C499.854 492.895 499.734 492.931 499.611 492.928Z" fill="#0F0F0F"/>
<path d="M544.037 504.636C543.91 504.638 543.786 504.599 543.682 504.526C543.579 504.452 543.501 504.348 543.46 504.227C542.94 502.871 542.048 501.688 540.888 500.814C539.049 499.479 533.147 498.878 531.212 498.878C529.277 498.878 519.264 497.087 518.831 497.015C518.672 496.987 518.53 496.896 518.438 496.763C518.346 496.63 518.31 496.466 518.339 496.306C518.367 496.147 518.458 496.005 518.591 495.913C518.724 495.821 518.888 495.785 519.048 495.813C522.654 496.462 529.782 497.664 531.212 497.664C532.847 497.664 539.337 498.181 541.597 499.828C542.963 500.85 544.006 502.244 544.602 503.843C544.652 503.993 544.641 504.156 544.571 504.298C544.501 504.439 544.379 504.548 544.23 504.6C544.168 504.623 544.103 504.635 544.037 504.636Z" fill="#0F0F0F"/>
<path d="M553.136 507.99C553.014 507.986 552.895 507.947 552.794 507.876C552.694 507.806 552.616 507.707 552.571 507.593L548.352 496.21L540.467 489.058C540.36 488.949 540.299 488.802 540.295 488.649C540.292 488.496 540.348 488.347 540.451 488.234C540.554 488.12 540.696 488.05 540.849 488.038C541.002 488.026 541.153 488.073 541.273 488.169L549.266 495.381C549.342 495.445 549.4 495.528 549.434 495.621L553.701 507.148C553.756 507.296 553.75 507.46 553.685 507.604C553.62 507.748 553.5 507.861 553.353 507.917C553.285 507.953 553.212 507.978 553.136 507.99Z" fill="#0F0F0F"/>
<path d="M557.043 507.797C556.904 507.797 556.77 507.749 556.663 507.662C556.555 507.574 556.482 507.452 556.454 507.316C556.454 507.316 555.516 502.653 554.603 499.371C553.689 496.09 551.478 489.238 551.454 489.166C551.404 489.007 551.42 488.834 551.498 488.687C551.576 488.539 551.709 488.428 551.868 488.379C552.028 488.329 552.2 488.345 552.348 488.423C552.496 488.501 552.606 488.634 552.656 488.793C552.656 488.866 554.903 495.729 555.829 499.047C556.754 502.364 557.68 507.04 557.692 507.088C557.708 507.165 557.708 507.245 557.693 507.322C557.678 507.4 557.648 507.474 557.605 507.54C557.561 507.605 557.505 507.662 557.439 507.706C557.374 507.75 557.301 507.781 557.223 507.797H557.043Z" fill="#0F0F0F"/>
<path d="M559.651 494.936C559.651 494.936 563.918 498.842 564.856 499.575C565.793 500.308 570.433 503.854 567.645 504.227C564.856 504.6 559.459 501.823 559.459 501.823L559.651 494.936Z" fill="#FFA45A"/>
<path d="M567.104 504.84C564.087 504.84 559.399 502.436 559.182 502.316C559.083 502.266 558.999 502.189 558.942 502.093C558.884 501.997 558.855 501.887 558.858 501.775L559.05 494.888C559.051 494.774 559.086 494.663 559.15 494.569C559.215 494.475 559.305 494.402 559.411 494.359C559.516 494.313 559.632 494.299 559.746 494.318C559.859 494.337 559.964 494.389 560.048 494.467C560.048 494.467 564.327 498.362 565.228 499.083L565.397 499.227C568.294 501.511 569.351 502.833 569.075 503.855C568.979 504.215 568.666 504.672 567.717 504.804C567.513 504.829 567.308 504.841 567.104 504.84ZM560.132 501.439C561.334 502.028 565.433 503.927 567.62 503.626C567.756 503.624 567.888 503.586 568.005 503.518C568.005 503.446 567.897 502.701 564.712 500.189L564.531 500.044C563.87 499.516 561.598 497.46 560.276 496.258L560.132 501.439Z" fill="#0F0F0F"/>
<path d="M384.327 291.269L385.385 280.944C385.385 280.944 375.649 288.949 358.484 300.969C341.32 312.989 313.578 322.136 308.71 335.01C303.842 347.883 290.403 446.303 290.403 461.749C290.403 477.194 294.25 503.819 294.25 503.819H425.724C425.724 503.819 428.297 465.475 430.292 438.911C432.287 412.346 437.167 375.974 437.167 375.974L479.79 358.797C479.79 358.797 466.051 335.959 460.053 321.608C454.055 307.256 439.74 289.286 431.446 288.709C423.152 288.132 395.963 295.861 394.532 296.726C393.102 297.592 384.327 291.269 384.327 291.269Z" fill="#FFC794"/>
<path d="M425.712 504.407H294.25C294.106 504.406 293.967 504.353 293.859 504.258C293.751 504.163 293.681 504.033 293.661 503.89C293.661 503.626 289.802 477.062 289.802 461.748C289.802 445.365 303.433 347.282 308.145 334.793C311.402 326.199 324.24 319.408 337.834 312.232C344.845 308.723 351.644 304.806 358.196 300.5C375.132 288.636 384.953 280.583 385.049 280.499C385.14 280.423 385.251 280.376 385.368 280.363C385.486 280.35 385.605 280.372 385.71 280.427C385.815 280.485 385.901 280.573 385.957 280.68C386.012 280.787 386.035 280.908 386.022 281.028L385.013 291.004C388.871 293.733 393.427 296.413 394.304 296.173C395.722 295.319 423.152 287.506 431.566 288.083C440.208 288.684 454.56 306.774 460.691 321.355C466.604 335.454 480.247 358.244 480.391 358.473C480.427 358.55 480.445 358.634 480.445 358.719C480.445 358.804 480.427 358.888 480.391 358.965C480.365 359.048 480.321 359.123 480.263 359.188C480.205 359.252 480.134 359.303 480.055 359.338L437.744 376.37C437.252 380.157 432.804 414.017 430.929 438.874C428.958 465.174 426.385 503.434 426.349 503.782C426.353 503.866 426.339 503.95 426.308 504.028C426.277 504.107 426.23 504.178 426.17 504.236C426.11 504.295 426.038 504.341 425.959 504.37C425.88 504.4 425.796 504.412 425.712 504.407ZM294.779 503.205H425.159C425.484 498.397 427.852 463.371 429.691 438.814C431.674 412.49 436.518 376.202 436.566 375.841C436.579 375.735 436.62 375.634 436.686 375.549C436.752 375.464 436.839 375.399 436.939 375.361L478.913 358.46C476.701 354.734 464.91 334.685 459.501 321.799C453.491 307.616 439.403 289.814 431.398 289.261C423.393 288.708 396.275 296.341 394.845 297.195C393.415 298.048 387.381 294.19 384.027 291.761C383.941 291.698 383.873 291.615 383.829 291.518C383.785 291.421 383.766 291.315 383.775 291.209L384.688 282.314C381.647 284.718 372.596 291.858 358.881 301.462C352.312 305.809 345.489 309.758 338.447 313.289C325.069 320.369 312.424 327.04 309.335 335.226C304.635 347.655 291.064 445.413 291.064 461.748C291.004 475.8 294.238 499.419 294.779 503.205Z" fill="#0F0F0F"/>
<path d="M367.043 429.355C366.886 429.353 366.736 429.293 366.622 429.186C366.566 429.13 366.521 429.064 366.49 428.991C366.46 428.917 366.444 428.839 366.444 428.76C366.444 428.68 366.46 428.602 366.49 428.528C366.521 428.455 366.566 428.389 366.622 428.333C383.654 410.7 410.411 353.088 410.687 352.511C410.714 352.43 410.757 352.356 410.815 352.294C410.872 352.231 410.942 352.181 411.02 352.148C411.098 352.114 411.182 352.097 411.267 352.099C411.352 352.1 411.435 352.119 411.512 352.155C411.589 352.191 411.657 352.243 411.713 352.307C411.768 352.371 411.809 352.446 411.834 352.528C411.858 352.609 411.865 352.694 411.854 352.778C411.843 352.863 411.814 352.943 411.769 353.016C411.505 353.593 384.652 411.385 367.488 429.174C367.429 429.233 367.36 429.279 367.284 429.31C367.207 429.341 367.125 429.356 367.043 429.355Z" fill="#0F0F0F"/>
<path d="M437.167 376.527H437.095C436.938 376.509 436.794 376.429 436.695 376.305C436.596 376.181 436.55 376.023 436.566 375.866L440.894 339.722C440.915 339.564 440.997 339.421 441.123 339.324C441.25 339.227 441.409 339.184 441.567 339.205C441.644 339.214 441.719 339.238 441.788 339.276C441.856 339.314 441.915 339.366 441.964 339.427C442.012 339.489 442.047 339.559 442.068 339.634C442.088 339.71 442.094 339.788 442.084 339.866L437.756 375.998C437.739 376.142 437.67 376.276 437.561 376.373C437.453 376.47 437.313 376.525 437.167 376.527Z" fill="#0F0F0F"/>
<path d="M486.81 264.861C486.81 264.861 492.267 286.701 488.902 295.596C485.536 304.491 468.468 306.666 468.468 306.666L469.429 288.384L486.81 264.861Z" fill="#FAFF00"/>
<path d="M468.504 307.267C468.422 307.266 468.342 307.248 468.267 307.215C468.192 307.182 468.125 307.134 468.069 307.075C468.013 307.016 467.97 306.946 467.941 306.87C467.912 306.793 467.899 306.712 467.903 306.63L468.864 288.348C468.869 288.23 468.911 288.116 468.984 288.023L486.353 264.512C486.42 264.419 486.512 264.347 486.619 264.304C486.725 264.262 486.842 264.25 486.954 264.272C487.066 264.296 487.168 264.351 487.251 264.429C487.333 264.507 487.393 264.607 487.423 264.717C487.651 265.618 492.892 286.845 489.503 295.812C486.113 304.779 469.285 307.171 468.576 307.255L468.504 307.267ZM470.054 288.6L469.141 305.957C472.374 305.428 485.56 302.832 488.373 295.392C491.185 287.951 487.627 271.015 486.546 266.267L470.054 288.6Z" fill="#0F0F0F"/>
<path d="M424.967 235.953C424.967 235.953 420.4 223.933 412.707 220.567C405.014 217.201 393.944 214.797 383.366 228.741C372.788 242.684 378.318 251.35 378.318 251.35L383.847 247.023C383.847 247.023 380.481 256.879 386.251 261.928C392.02 266.976 404.533 265.293 408.139 263.13C411.745 260.966 414.39 254.716 417.515 249.187C419.673 245.527 422.255 242.134 425.208 239.078L424.967 235.953Z" fill="#FAFF00"/>
<path d="M397.549 265.81C393.258 265.81 388.763 264.921 385.854 262.385C381.31 258.406 382.092 251.771 382.801 248.61L378.69 251.819C378.625 251.871 378.549 251.908 378.468 251.929C378.388 251.949 378.304 251.953 378.221 251.939C378.138 251.929 378.058 251.899 377.987 251.853C377.916 251.808 377.857 251.747 377.813 251.675C377.572 251.302 372.175 242.504 382.885 228.38C393.871 213.896 405.302 216.673 412.935 219.966C420.772 223.392 425.328 235.196 425.52 235.7C425.532 235.756 425.532 235.813 425.52 235.869L425.76 238.994C425.767 239.079 425.755 239.165 425.726 239.246C425.697 239.327 425.651 239.401 425.592 239.463C422.677 242.474 420.127 245.819 417.995 249.427C417.322 250.629 416.661 251.831 416.024 253.033C413.62 257.541 411.372 261.796 408.404 263.575C406.564 264.777 402.177 265.81 397.549 265.81ZM383.847 246.41C383.971 246.411 384.092 246.448 384.195 246.518C384.302 246.593 384.381 246.7 384.42 246.824C384.459 246.948 384.456 247.081 384.412 247.204C384.412 247.3 381.25 256.747 386.647 261.471C392.044 266.195 404.317 264.717 407.827 262.601C410.507 260.99 412.635 256.892 415.039 252.54C415.688 251.338 416.349 250.076 417.034 248.874C419.163 245.246 421.713 241.881 424.631 238.85L424.414 236.085C424.005 235.051 419.606 224.197 412.502 221.108C405.29 217.923 394.352 215.29 383.883 229.089C375.216 240.508 377.596 248.321 378.558 250.413L383.51 246.53C383.608 246.457 383.725 246.415 383.847 246.41Z" fill="#0F0F0F"/>
<path d="M474.514 288.865C474.514 288.865 470.667 303.529 468.504 306.667C466.34 309.804 457.193 311.955 456.712 313.638C455.834 316.698 455.27 319.84 455.029 323.014C455.029 325.658 455.991 328.543 454.548 329.264C453.106 329.985 448.298 329.264 446.134 328.543L443.971 327.822C440.716 329.909 437.144 331.451 433.393 332.389C427.852 333.591 426.181 332.389 423.284 329.024C420.387 325.658 414.39 317.725 414.39 317.725C409.626 321.042 405.88 325.62 403.572 330.947C401.547 335.746 401.208 341.088 402.61 346.104C402.61 346.104 391.299 341.777 386.984 318.927C382.669 296.077 384.34 291.281 384.34 291.281C384.34 291.281 395.638 286.713 400.458 279.021C405.278 271.328 408.632 260.498 423.056 265.306C437.48 270.114 429.306 282.134 451.904 285.511L474.514 288.865Z" fill="#FEFEFE"/>
<path d="M402.67 346.705H402.454C401.973 346.513 390.782 341.993 386.443 319.059C382.104 296.125 383.751 291.293 383.823 291.101C383.849 291.02 383.893 290.946 383.951 290.884C384.01 290.821 384.08 290.772 384.159 290.74C384.279 290.74 395.338 286.148 399.99 278.72C400.651 277.662 401.3 276.52 401.937 275.403C405.903 268.407 410.411 260.462 423.296 264.765C429.691 266.892 431.831 270.462 433.91 273.924C436.615 278.42 439.403 283.059 452.06 284.934L474.658 288.312C474.743 288.321 474.825 288.348 474.898 288.392C474.971 288.437 475.034 288.497 475.081 288.568C475.128 288.639 475.159 288.72 475.171 288.805C475.183 288.889 475.176 288.976 475.151 289.057C474.994 289.658 471.256 303.866 469.057 307.087C467.77 308.95 464.441 310.381 461.508 311.655C459.825 312.388 457.529 313.386 457.349 313.891C456.496 316.898 455.94 319.982 455.69 323.098C455.704 323.878 455.761 324.656 455.859 325.43C456.063 327.365 456.267 329.204 454.885 329.889C453.19 330.731 448.178 329.889 446.002 329.204L444.115 328.567C440.87 330.63 437.309 332.149 433.573 333.063C427.756 334.337 425.845 332.954 422.888 329.457C420.484 326.584 415.676 320.321 414.317 318.578C409.875 321.812 406.377 326.173 404.185 331.211C402.232 335.876 401.898 341.06 403.235 345.936C403.268 346.027 403.278 346.124 403.266 346.22C403.253 346.315 403.217 346.406 403.162 346.485C403.106 346.564 403.033 346.629 402.947 346.673C402.862 346.718 402.767 346.741 402.67 346.741V346.705ZM384.904 291.714C384.664 292.916 383.907 299.202 387.621 318.819C391.011 336.693 398.776 343.087 401.72 344.914C400.745 340.158 401.214 335.219 403.067 330.731C405.41 325.278 409.243 320.595 414.125 317.22C414.253 317.138 414.407 317.107 414.556 317.134C414.705 317.161 414.839 317.243 414.93 317.364C414.991 317.437 420.94 325.322 423.801 328.639C426.662 331.957 428.056 332.954 433.321 331.812C436.997 330.883 440.499 329.369 443.694 327.329C443.771 327.276 443.858 327.242 443.95 327.23C444.042 327.217 444.136 327.226 444.223 327.257L446.387 327.978C448.791 328.771 453.214 329.3 454.344 328.735C454.981 328.411 454.825 326.98 454.669 325.466C454.567 324.668 454.507 323.866 454.488 323.062C454.73 319.831 455.302 316.633 456.195 313.518C456.484 312.532 458.046 311.811 461.003 310.513C463.647 309.311 466.941 307.941 468.035 306.366C469.85 303.734 473.011 292.267 473.78 289.406L451.82 286.076C438.598 284.117 435.665 279.225 432.828 274.501C430.773 271.075 428.826 267.842 422.864 265.859C410.904 261.868 406.841 269.032 402.922 275.956C402.285 277.073 401.624 278.227 400.951 279.309C396.468 286.497 386.683 290.884 384.844 291.714H384.904Z" fill="#0F0F0F"/>
<path d="M416.553 278.768C416.553 278.768 418.476 283.336 421.602 283.336H424.727C424.727 283.336 427.131 289.586 441.555 293.913C455.979 298.24 471.857 291.509 471.857 291.509C471.857 291.509 487.555 278.287 487.555 266.796C487.555 255.305 475.054 234.811 453.154 229.029C431.254 223.248 410.76 238.837 406.432 250.869C402.105 262.902 402.105 265.534 401.144 271.556C400.182 277.578 394.16 282.133 397.297 282.614C400.434 283.095 408.115 278.768 409.077 278.287C410.038 277.806 416.553 278.768 416.553 278.768Z" fill="#FAFF00"/>
<path d="M452.036 295.957C448.434 295.985 444.847 295.491 441.386 294.49C428.717 290.692 425.135 285.403 424.354 283.937H421.602C418.597 283.937 416.673 280.403 416.144 279.309C413.909 278.898 411.636 278.737 409.365 278.828C409.201 278.904 409.04 278.988 408.884 279.081C406.733 280.21 400.218 283.672 397.225 283.203C396.957 283.194 396.697 283.114 396.471 282.97C396.244 282.826 396.061 282.625 395.939 282.386C395.518 281.485 396.263 280.319 397.369 278.552C398.91 276.432 399.998 274.018 400.567 271.46C400.699 270.643 400.807 269.897 400.915 269.176C401.624 264.488 402.117 261.111 405.891 250.665C410.435 238.044 431.662 222.743 453.322 228.452C474.982 234.162 488.18 254.62 488.18 266.796C488.18 278.48 472.915 291.425 472.266 291.966C472.221 292.009 472.168 292.042 472.11 292.062C465.702 294.54 458.905 295.858 452.036 295.957ZM410.351 277.554C412.457 277.631 414.556 277.836 416.637 278.167C416.739 278.183 416.836 278.224 416.918 278.287C417 278.35 417.065 278.433 417.106 278.528C417.106 278.528 418.921 282.735 421.602 282.735H424.727C424.849 282.734 424.968 282.77 425.069 282.839C425.17 282.908 425.248 283.005 425.292 283.119C425.292 283.179 427.852 289.129 441.735 293.336C455.258 297.399 470.295 291.497 471.545 290.992C472.675 290.019 486.966 277.53 486.966 266.796C486.966 255.005 474.045 235.16 453.022 229.618C431.999 224.077 411.421 238.862 407.021 251.074C403.295 261.411 402.802 264.741 402.105 269.344C401.997 270.078 401.889 270.823 401.757 271.64C401.15 274.36 400.006 276.93 398.391 279.201C397.79 280.15 396.876 281.605 397.033 281.893C397.033 281.893 397.105 281.977 397.405 282.013C399.124 282.278 402.802 280.944 408.319 278.011L408.836 277.746C409.324 277.587 409.838 277.522 410.351 277.554Z" fill="#0F0F0F"/>
<path d="M417.996 282.855C417.996 282.855 420.159 272.037 413.188 270.583C406.216 269.128 403.812 279.249 404.293 285.259C404.774 291.269 411.986 292.231 412.947 291.509" fill="#FEFEFE"/>
<path d="M411.877 292.315C410.612 292.278 409.366 291.992 408.211 291.473C406.956 290.972 405.866 290.128 405.067 289.038C404.268 287.948 403.792 286.655 403.692 285.307C403.307 280.499 404.617 274.261 407.827 271.412C408.557 270.749 409.437 270.273 410.392 270.026C411.347 269.779 412.348 269.768 413.308 269.993C419.318 271.195 419.318 279.02 418.585 282.975C418.569 283.052 418.538 283.126 418.494 283.191C418.45 283.257 418.393 283.313 418.327 283.356C418.261 283.4 418.187 283.43 418.11 283.445C418.032 283.46 417.953 283.46 417.875 283.444C417.721 283.409 417.585 283.316 417.498 283.184C417.411 283.051 417.378 282.891 417.407 282.735C417.407 282.638 419.378 272.482 413.067 271.171C412.286 270.993 411.473 271.01 410.7 271.219C409.926 271.429 409.216 271.825 408.632 272.373C405.735 274.934 404.545 280.932 404.882 285.271C404.963 286.316 405.316 287.322 405.907 288.189C406.497 289.056 407.304 289.753 408.247 290.211C409.559 290.983 411.091 291.292 412.599 291.089C412.66 291.04 412.731 291.004 412.807 290.984C412.882 290.964 412.962 290.959 413.039 290.97C413.117 290.981 413.191 291.008 413.258 291.049C413.325 291.09 413.383 291.145 413.428 291.209C413.524 291.336 413.565 291.497 413.542 291.654C413.52 291.812 413.435 291.955 413.308 292.05C412.867 292.277 412.37 292.369 411.877 292.315Z" fill="#0F0F0F"/>
<path d="M451.351 310.633C448.956 310.529 446.608 309.936 444.452 308.89C441.971 307.764 439.358 306.956 436.675 306.486C436.518 306.462 436.377 306.379 436.281 306.253C436.185 306.128 436.14 305.97 436.158 305.813C436.179 305.655 436.261 305.512 436.388 305.415C436.514 305.318 436.673 305.276 436.831 305.296C439.624 305.743 442.347 306.551 444.932 307.7C447.01 308.737 449.294 309.296 451.615 309.335C451.694 309.328 451.774 309.336 451.85 309.36C451.925 309.383 451.995 309.422 452.056 309.473C452.117 309.523 452.167 309.586 452.204 309.656C452.241 309.726 452.263 309.803 452.271 309.882C452.278 309.961 452.269 310.04 452.246 310.116C452.222 310.191 452.184 310.262 452.133 310.322C452.082 310.383 452.02 310.434 451.95 310.47C451.879 310.507 451.803 310.53 451.724 310.537L451.351 310.633Z" fill="#0F0F0F"/>
<path d="M443.538 316.487C441.929 316.505 440.337 316.159 438.881 315.477C437.424 314.794 436.14 313.792 435.124 312.544C435.077 312.48 435.044 312.408 435.025 312.331C435.007 312.254 435.004 312.174 435.016 312.096C435.028 312.018 435.056 311.943 435.097 311.876C435.138 311.808 435.192 311.749 435.256 311.703C435.32 311.656 435.393 311.623 435.47 311.604C435.546 311.586 435.626 311.582 435.704 311.595C435.782 311.607 435.857 311.635 435.925 311.676C435.992 311.717 436.051 311.771 436.098 311.835C437.155 313.108 438.522 314.086 440.067 314.675C441.613 315.265 443.284 315.446 444.92 315.201C445.079 315.187 445.237 315.234 445.362 315.332C445.487 315.43 445.57 315.572 445.593 315.73C445.611 315.889 445.565 316.048 445.466 316.174C445.367 316.299 445.223 316.382 445.065 316.403C444.488 316.451 443.995 316.487 443.538 316.487Z" fill="#0F0F0F"/>
<path d="M414.39 317.725C414.39 317.725 411.505 310.513 411.264 306.426C411.024 302.339 411.024 298.24 411.024 298.24C411.024 298.24 407.178 306.185 406.697 312.436C406.388 316.104 406.88 319.795 408.139 323.254L414.39 317.725Z" fill="#0F0F0F"/>
<path d="M408.139 323.855H408.007C407.913 323.833 407.826 323.789 407.753 323.726C407.679 323.663 407.622 323.584 407.586 323.494C406.284 319.95 405.775 316.163 406.096 312.4C406.577 306.101 410.327 298.324 410.483 297.976C410.54 297.852 410.639 297.752 410.762 297.693C410.884 297.634 411.024 297.619 411.156 297.651C411.289 297.679 411.408 297.751 411.493 297.857C411.578 297.962 411.625 298.093 411.625 298.228C411.625 298.228 411.625 302.351 411.865 306.378C412.106 310.405 414.918 317.412 414.942 317.484C414.991 317.599 415.001 317.725 414.973 317.846C414.945 317.967 414.88 318.076 414.786 318.157L408.536 323.687C408.484 323.74 408.423 323.782 408.354 323.811C408.286 323.84 408.213 323.855 408.139 323.855ZM410.459 301.017C408.861 304.664 407.796 308.522 407.298 312.472C407.047 315.758 407.422 319.062 408.404 322.208L413.68 317.544C413.067 315.958 410.88 310.08 410.663 306.45C410.543 304.503 410.495 302.544 410.459 301.029V301.017Z" fill="#0F0F0F"/>
<path d="M409.81 455.414L409.642 457.962L414.017 465.018L411.445 459.176L411.805 458.143L409.81 455.414Z" fill="#0F0F0F"/>
<path d="M414.029 465.619C413.925 465.621 413.822 465.595 413.732 465.544C413.641 465.494 413.565 465.42 413.512 465.331L409.137 458.287C409.07 458.179 409.037 458.053 409.041 457.926L409.209 455.378C409.218 455.256 409.265 455.14 409.342 455.045C409.419 454.949 409.524 454.88 409.641 454.846C409.759 454.812 409.884 454.815 410 454.854C410.116 454.893 410.218 454.967 410.291 455.065L412.286 457.782C412.346 457.859 412.385 457.951 412.4 458.048C412.414 458.144 412.404 458.243 412.37 458.335L412.094 459.152L414.57 464.778C414.633 464.915 414.641 465.072 414.592 465.215C414.543 465.359 414.44 465.477 414.305 465.547C414.22 465.592 414.125 465.616 414.029 465.619ZM410.255 457.818L410.916 458.864L411.132 458.239L410.303 457.109L410.255 457.818Z" fill="#0F0F0F"/>
<path d="M411.572 453.065L409.652 454.256L430.046 487.123L431.967 485.932L411.572 453.065Z" fill="#FEFEFE"/>
<path d="M430.064 487.712H429.919C429.767 487.673 429.634 487.579 429.547 487.447L409.113 454.573C409.071 454.505 409.043 454.43 409.031 454.351C409.019 454.273 409.022 454.193 409.041 454.116C409.058 454.038 409.092 453.965 409.14 453.901C409.187 453.836 409.248 453.783 409.317 453.743L411.228 452.541C411.364 452.46 411.527 452.434 411.682 452.47C411.836 452.506 411.971 452.6 412.058 452.734L432.492 485.608C432.573 485.745 432.599 485.907 432.563 486.062C432.527 486.217 432.433 486.351 432.299 486.438L430.376 487.64C430.281 487.693 430.172 487.718 430.064 487.712ZM410.495 454.44L430.316 486.281L431.218 485.728L411.445 453.887L410.495 454.44Z" fill="#0F0F0F"/>
<path d="M415.315 457.469C414.979 456.856 414.618 456.267 414.233 455.606C411.553 451.291 408.608 448.262 407.658 448.851C406.709 449.44 408.103 453.419 410.784 457.746C411.18 458.371 411.577 458.948 411.986 459.537L415.315 457.469Z" fill="#0F0F0F"/>
<path d="M411.973 460.138C411.877 460.137 411.783 460.114 411.697 460.07C411.611 460.027 411.537 459.963 411.481 459.885C411.084 459.308 410.675 458.683 410.279 458.058C408.355 454.969 405.579 449.44 407.334 448.346C409.533 446.976 414.546 454.945 414.738 455.294C415.135 455.931 415.495 456.568 415.844 457.181C415.919 457.317 415.938 457.477 415.898 457.627C415.858 457.777 415.761 457.906 415.628 457.986L412.286 460.054C412.191 460.108 412.083 460.137 411.973 460.138ZM407.959 449.38C407.718 449.825 408.548 452.986 411.324 457.421C411.601 457.878 411.889 458.311 412.166 458.732L414.57 457.265C414.317 456.82 414.065 456.376 413.776 455.919C410.988 451.52 408.584 449.38 407.959 449.38Z" fill="#0F0F0F"/>
<path d="M342.306 422.227L344.217 439.055C344.217 439.055 359.398 455.558 372.452 466.797C385.505 478.035 404.172 487.327 405.663 488.337C405.663 488.337 422.779 480.572 424.643 480.355C426.506 480.139 446.483 488.613 446.483 488.613C446.483 488.613 447.505 492.688 446.795 494.503L446.074 496.33C446.074 496.33 442.721 501.414 442.036 502.616C441.35 503.818 441.29 505.02 440.269 506.847C439.247 508.674 437.516 512.268 437.516 512.268C437.516 512.268 436.482 514.071 431.205 514.42C425.929 514.769 420.64 515.406 414.185 514.769C407.73 514.132 394.172 506.907 390.818 506.114C387.465 505.321 367.427 497.772 348.532 486.582C329.636 475.391 315.273 465.967 312.652 462.77C310.032 459.573 309.815 446.231 309.13 441.555C308.445 436.879 307.592 423.525 307.592 423.525L342.306 422.227Z" fill="#FEFEFE"/>
<path d="M419.859 515.658C417.944 515.659 416.03 515.563 414.125 515.37C409.882 514.949 402.91 511.872 397.297 509.36C395.139 508.326 392.919 507.427 390.65 506.667C386.9 505.778 366.995 498.193 348.195 487.063C328.206 475.211 314.732 466.244 312.135 463.083C310.104 460.558 309.479 452.878 308.974 446.711C308.806 444.608 308.662 442.793 308.481 441.567C307.808 436.927 306.979 424.042 306.943 423.537C306.937 423.374 306.993 423.216 307.099 423.092C307.152 423.033 307.217 422.985 307.289 422.952C307.362 422.919 307.44 422.901 307.52 422.9L342.233 421.626C342.385 421.619 342.534 421.669 342.65 421.767C342.766 421.865 342.84 422.004 342.859 422.155L344.794 438.73C346.32 440.377 360.636 455.811 372.848 466.304C383.51 475.475 398.151 483.469 403.656 486.486L405.711 487.615C408.452 486.413 422.743 479.935 424.57 479.718C426.398 479.502 443.358 486.594 446.711 488.024C446.799 488.058 446.876 488.113 446.937 488.184C446.998 488.256 447.04 488.341 447.06 488.433C447.18 488.866 448.118 492.748 447.348 494.695L446.639 496.51C446.624 496.549 446.604 496.585 446.579 496.618C446.579 496.618 443.226 501.703 442.564 502.869C442.301 503.377 442.083 503.908 441.915 504.455C441.642 505.381 441.263 506.273 440.785 507.112C439.788 508.879 438.069 512.461 438.057 512.497C437.913 512.749 436.699 514.624 431.254 514.985L428.381 515.189C425.652 515.43 422.864 515.658 419.859 515.658ZM308.241 424.09C308.409 426.758 309.13 437.42 309.719 441.447C309.9 442.649 310.056 444.536 310.224 446.663C310.681 452.349 311.318 460.138 313.121 462.373C315.525 465.391 329.252 474.478 348.832 486.077C367.223 496.967 387.369 504.696 390.902 505.549C393.244 506.315 395.533 507.235 397.754 508.302C402.983 510.61 410.146 513.771 414.197 514.18C418.876 514.558 423.579 514.51 428.249 514.035L431.121 513.831C435.929 513.519 436.939 511.992 436.951 511.968C436.963 511.944 438.682 508.362 439.704 506.559C440.128 505.795 440.475 504.989 440.737 504.155C440.92 503.535 441.166 502.935 441.471 502.364C442.12 501.162 445.077 496.667 445.497 496.102L446.182 494.335C446.675 493.133 446.182 490.368 445.918 489.094C436.542 485.127 426.073 481.004 424.703 481.004C423.405 481.149 412.755 485.812 405.915 488.926C405.825 488.975 405.724 489.001 405.621 489.001C405.518 489.001 405.417 488.975 405.326 488.926C405.086 488.769 404.245 488.301 403.079 487.664C397.537 484.647 382.825 476.593 372.067 467.35C359.158 456.255 343.928 439.704 343.772 439.523C343.685 439.431 343.63 439.313 343.616 439.187L341.777 422.936L308.241 424.09Z" fill="#0F0F0F"/>
<path d="M343.592 433.321L309.13 441.519L307.039 432.829L343.592 433.321Z" fill="#0F0F0F"/>
<path d="M309.13 442.12C308.995 442.121 308.863 442.077 308.757 441.994C308.65 441.911 308.574 441.795 308.541 441.663L306.51 432.961C306.489 432.874 306.487 432.783 306.506 432.696C306.525 432.608 306.563 432.526 306.618 432.456C306.678 432.386 306.751 432.33 306.834 432.29C306.917 432.251 307.007 432.229 307.099 432.228L343.652 432.72C343.797 432.722 343.937 432.777 344.046 432.874C344.154 432.971 344.223 433.105 344.241 433.249C344.257 433.398 344.218 433.547 344.131 433.668C344.045 433.79 343.917 433.876 343.772 433.91L309.311 442.108L309.13 442.12ZM307.808 433.442L309.575 440.798L338.748 433.85L307.808 433.442Z" fill="#0F0F0F"/>
<path d="M313.578 332.87C313.578 332.87 305.512 345.131 303.144 366.658C300.776 388.186 296.642 431.891 296.642 431.891L320.682 434.547C322.45 434.742 324.231 434.786 326.006 434.68L347.546 433.321L352.511 379.76C352.511 379.76 355.984 378.39 357.126 368.557C358.268 358.725 352.258 343.243 352.258 343.243" fill="#FFC794"/>
<path d="M324.131 435.341C322.975 435.336 321.819 435.272 320.67 435.148L296.63 432.492C296.552 432.484 296.477 432.462 296.408 432.425C296.34 432.388 296.279 432.338 296.23 432.278C296.18 432.217 296.144 432.148 296.122 432.073C296.099 431.998 296.092 431.92 296.101 431.843C296.101 431.398 300.272 387.874 302.615 366.586C304.959 345.299 313.049 332.654 313.133 332.533C313.221 332.402 313.358 332.31 313.513 332.279C313.668 332.247 313.83 332.278 313.962 332.365C314.03 332.407 314.088 332.462 314.134 332.526C314.18 332.591 314.212 332.664 314.229 332.742C314.246 332.819 314.247 332.899 314.232 332.977C314.217 333.055 314.187 333.129 314.143 333.195C314.059 333.315 306.125 345.599 303.805 366.718C301.618 386.648 297.856 426.073 297.351 431.362L320.802 433.922C322.538 434.116 324.287 434.161 326.03 434.054L347.053 432.732L351.97 379.676C351.983 379.565 352.025 379.46 352.093 379.371C352.161 379.282 352.251 379.213 352.354 379.171C352.354 379.171 355.528 377.693 356.585 368.461C357.691 358.845 351.777 343.592 351.777 343.436C351.733 343.29 351.746 343.134 351.812 342.998C351.878 342.861 351.994 342.755 352.135 342.7C352.277 342.646 352.434 342.646 352.575 342.702C352.716 342.759 352.83 342.866 352.895 343.003C353.136 343.64 358.905 358.725 357.787 368.605C356.826 377.02 354.181 379.424 353.16 380.109L348.219 433.357C348.205 433.5 348.141 433.633 348.037 433.732C347.933 433.831 347.798 433.89 347.654 433.898L326.115 435.244C325.453 435.317 324.792 435.341 324.131 435.341Z" fill="#0F0F0F"/>
<path d="M351.91 375.373C351.758 375.373 351.612 375.317 351.501 375.214C351.389 375.112 351.321 374.971 351.309 374.82C351.309 374.7 350.371 362.8 347.065 357.223C347.025 357.155 346.998 357.08 346.987 357.002C346.976 356.924 346.981 356.844 347.001 356.768C347.021 356.692 347.056 356.621 347.104 356.558C347.153 356.496 347.213 356.444 347.282 356.405C347.348 356.362 347.423 356.334 347.501 356.321C347.579 356.308 347.658 356.311 347.735 356.33C347.811 356.349 347.883 356.384 347.946 356.432C348.009 356.48 348.061 356.541 348.099 356.61C351.549 362.415 352.462 374.231 352.511 374.736C352.521 374.893 352.468 375.048 352.365 375.168C352.261 375.287 352.115 375.361 351.958 375.373H351.91Z" fill="#0F0F0F"/>
<path d="M446.795 494.503C447.505 492.688 446.483 488.613 446.483 488.613C446.483 488.613 426.506 480.139 424.643 480.356C422.779 480.572 405.663 488.337 405.663 488.337C405.11 487.964 402.201 486.45 398.102 484.13C393.157 490.339 390.14 497.861 389.424 505.766C390.025 505.958 390.494 506.102 390.818 506.175C394.172 506.968 407.718 514.18 414.185 514.829C420.652 515.478 425.929 514.829 431.206 514.48C436.482 514.132 437.516 512.329 437.516 512.329C437.516 512.329 439.247 508.723 440.269 506.908C441.29 505.093 441.35 503.879 442.036 502.677C442.721 501.475 446.074 496.39 446.074 496.39L446.795 494.503Z" fill="#FFA45A"/>
<path d="M419.859 515.658C417.944 515.659 416.03 515.563 414.125 515.37C409.882 514.949 402.91 511.872 397.297 509.36C395.139 508.326 392.919 507.427 390.65 506.667C390.326 506.583 389.833 506.451 389.208 506.246C389.079 506.204 388.969 506.118 388.894 506.005C388.82 505.892 388.787 505.756 388.799 505.621C389.547 497.62 392.608 490.01 397.61 483.721C397.698 483.607 397.824 483.528 397.965 483.5C398.106 483.471 398.253 483.494 398.379 483.565C400.506 484.767 402.309 485.764 403.632 486.485L405.687 487.615C408.428 486.413 422.719 479.935 424.546 479.718C426.373 479.502 443.334 486.594 446.687 488.024C446.775 488.058 446.852 488.113 446.913 488.184C446.974 488.256 447.016 488.341 447.036 488.433C447.156 488.865 448.094 492.748 447.324 494.695L446.615 496.51C446.6 496.549 446.58 496.585 446.555 496.618C446.555 496.618 443.201 501.703 442.54 502.869C442.277 503.377 442.059 503.908 441.891 504.455C441.618 505.381 441.239 506.273 440.761 507.112C439.764 508.867 438.045 512.461 438.033 512.497C437.889 512.749 436.675 514.624 431.23 514.985L428.357 515.189C425.652 515.43 422.864 515.658 419.859 515.658ZM390.061 505.297L390.951 505.549C393.292 506.315 395.581 507.235 397.802 508.302C403.031 510.61 410.195 513.771 414.245 514.18C418.924 514.558 423.627 514.509 428.297 514.035L431.169 513.831C435.977 513.518 436.987 511.992 436.999 511.968C437.011 511.944 438.73 508.362 439.752 506.559C440.176 505.794 440.523 504.989 440.785 504.155C440.968 503.535 441.214 502.934 441.519 502.364C442.168 501.162 445.125 496.666 445.545 496.101L446.231 494.335C446.723 493.133 446.231 490.368 445.966 489.094C436.59 485.127 426.121 481.004 424.751 481.004C423.453 481.149 412.803 485.812 405.964 488.926C405.873 488.975 405.772 489.001 405.669 489.001C405.566 489.001 405.465 488.975 405.375 488.926C405.134 488.769 404.293 488.3 403.127 487.663C401.961 487.026 400.242 486.089 398.319 484.995C393.747 490.867 390.889 497.889 390.061 505.285V505.297Z" fill="#0F0F0F"/>
<path d="M443.995 497.845C443.92 497.862 443.842 497.862 443.766 497.845L427.972 491.366C427.899 491.337 427.832 491.293 427.775 491.238C427.718 491.183 427.673 491.118 427.642 491.045C427.611 490.973 427.594 490.895 427.593 490.816C427.592 490.737 427.606 490.658 427.636 490.585C427.664 490.511 427.708 490.444 427.763 490.388C427.819 490.332 427.885 490.287 427.957 490.257C428.03 490.227 428.109 490.211 428.187 490.212C428.266 490.212 428.344 490.229 428.417 490.26L444.223 496.727C444.297 496.757 444.364 496.802 444.42 496.858C444.477 496.915 444.521 496.982 444.552 497.056C444.582 497.129 444.597 497.208 444.596 497.288C444.596 497.368 444.579 497.447 444.548 497.52C444.497 497.622 444.417 497.707 444.319 497.764C444.221 497.822 444.108 497.85 443.995 497.845Z" fill="#0F0F0F"/>
<path d="M442.036 503.217H441.915L426.289 500.152C426.21 500.137 426.135 500.105 426.069 500.061C426.002 500.016 425.944 499.958 425.9 499.891C425.855 499.824 425.824 499.749 425.808 499.67C425.793 499.591 425.793 499.51 425.809 499.431C425.824 499.352 425.855 499.277 425.9 499.21C425.945 499.143 426.003 499.086 426.07 499.041C426.137 498.997 426.212 498.966 426.291 498.95C426.37 498.935 426.451 498.935 426.53 498.95L442.156 502.015C442.233 502.028 442.308 502.057 442.374 502.099C442.44 502.142 442.497 502.198 442.541 502.263C442.585 502.328 442.615 502.402 442.629 502.479C442.644 502.556 442.642 502.636 442.625 502.713C442.602 502.853 442.53 502.98 442.422 503.073C442.315 503.165 442.178 503.216 442.036 503.217Z" fill="#0F0F0F"/>
<path d="M425.953 509.48C425.797 509.48 425.648 509.42 425.536 509.313C425.424 509.205 425.358 509.058 425.352 508.903C425.349 508.743 425.408 508.587 425.519 508.47C425.629 508.353 425.78 508.284 425.941 508.278L438.55 507.978C438.705 507.977 438.854 508.037 438.966 508.145C439.079 508.253 439.145 508.399 439.151 508.555C439.154 508.634 439.141 508.714 439.113 508.789C439.085 508.864 439.043 508.933 438.988 508.991C438.933 509.049 438.867 509.096 438.794 509.128C438.721 509.161 438.642 509.178 438.562 509.18L425.953 509.48Z" fill="#0F0F0F"/>
<path d="M396.504 504.72H396.42C396.264 504.696 396.124 504.613 396.03 504.487C395.935 504.361 395.894 504.203 395.915 504.047C396.973 496.258 403.187 489.238 403.451 488.938C403.564 488.828 403.715 488.766 403.872 488.766C404.029 488.766 404.18 488.828 404.293 488.938C404.349 488.994 404.394 489.06 404.424 489.133C404.455 489.207 404.471 489.285 404.471 489.365C404.471 489.444 404.455 489.523 404.424 489.596C404.394 489.669 404.349 489.735 404.293 489.791C404.233 489.863 398.066 496.835 397.081 504.215C397.056 504.353 396.986 504.477 396.881 504.569C396.776 504.661 396.643 504.714 396.504 504.72Z" fill="#0F0F0F"/>
<path d="M393.054 500.176H392.946C392.79 500.147 392.652 500.057 392.562 499.927C392.472 499.796 392.437 499.635 392.465 499.479C393.403 494.226 399.413 488.661 399.677 488.373C399.791 488.262 399.944 488.2 400.104 488.2C400.263 488.2 400.416 488.262 400.53 488.373C400.587 488.428 400.632 488.495 400.662 488.568C400.693 488.641 400.708 488.72 400.708 488.799C400.708 488.879 400.693 488.957 400.662 489.03C400.632 489.104 400.587 489.17 400.53 489.226C400.47 489.226 394.52 494.803 393.691 499.659C393.673 499.811 393.596 499.95 393.477 500.047C393.358 500.143 393.207 500.19 393.054 500.176Z" fill="#0F0F0F"/>
</svg>
