<svg width="583" height="567" viewBox="0 0 583 567" fill="none" xmlns="http://www.w3.org/2000/svg">
<path d="M418.023 17.5407C418.023 17.5407 326.365 -24.2735 228.804 21.2178C131.244 66.7091 75.3113 168.909 27.5935 250.614C-20.1243 332.32 -4.45454 420.823 63.015 466.432C130.484 512.042 183.701 457.999 283.37 463.784C383.04 469.57 408.543 486.066 495.899 437.066C583.255 388.066 609.72 256.754 553.164 153.003C496.608 49.2514 418.023 17.5407 418.023 17.5407Z" fill="#FFA45A"/>
<path opacity="0.7" d="M418.023 17.5407C418.023 17.5407 326.365 -24.2735 228.804 21.2178C131.244 66.7091 75.3113 168.909 27.5935 250.614C-20.1243 332.32 -4.45454 420.823 63.015 466.432C130.484 512.042 183.701 457.999 283.37 463.784C383.04 469.57 408.543 486.066 495.899 437.066C583.255 388.066 609.72 256.754 553.164 153.003C496.608 49.2514 418.023 17.5407 418.023 17.5407Z" fill="white"/>
<path d="M476.334 429.645C469.907 425.192 461.541 432.9 458.353 438.23C455.705 442.65 452.298 449.464 451.505 451.066L451.404 450.678L451.589 450.527L451.404 450.628C449.95 445.052 447.856 439.664 445.163 434.57C446.563 432.883 452.247 430.876 453.596 430.336C458.859 428.059 463.936 426.238 467.09 421.059C469.519 416.961 470.616 411.192 465.302 408.881C458.134 405.744 451.437 414.936 449.329 420.773C447.642 425.36 445.804 432.175 445.196 434.368C442.867 429.982 440.223 425.771 437.286 421.768C439.312 419.598 441.575 417.663 444.033 415.999C448.553 412.457 452.972 409.404 454.642 403.602C455.941 399.014 455.519 393.161 449.801 392.284C442.076 391.086 437.994 401.696 437.404 407.869C437.033 412.204 436.931 418.31 436.898 421.177C434.671 418.141 432.478 415.392 430.471 412.879C428.464 410.365 426.49 407.818 425.023 405.744L425.546 405.508C425.349 405.589 425.134 405.618 424.922 405.592L424.837 405.491C425.9 403.602 431.129 400.549 432.276 399.773C437.033 396.568 441.671 393.835 443.746 388.185C445.433 383.698 445.433 377.828 439.748 376.529C432.124 374.843 427.233 385.064 426.254 391.187C425.478 395.977 424.888 402.994 424.703 405.288C424.45 404.917 424.213 404.563 424.011 404.209C421.313 399.811 418.918 395.235 416.842 390.512L417.399 390.411C417.194 390.459 416.98 390.459 416.775 390.411C416.691 390.243 416.623 390.057 416.539 389.888C418.175 387.434 420.082 385.171 422.223 383.141C426.103 378.908 429.982 375.18 430.657 369.192C431.197 364.452 429.847 358.751 424.062 358.802C416.235 358.802 413.857 370.002 414.329 376.192C414.616 379.97 415.324 385.064 415.797 388.185C414.464 385.047 413.486 382.416 412.879 380.679C412.575 379.819 412.356 379.194 412.238 378.807C412.093 376.152 412.155 373.49 412.423 370.845C412.676 365.127 413.25 359.763 409.927 354.737C407.312 350.739 402.589 347.248 398.12 351.009C392.165 356.069 397.512 366.19 401.847 370.575C404.9 373.696 409.471 377.778 411.63 379.667C412.204 381.353 413.553 385.216 415.594 389.905C413.349 388.335 411.244 386.575 409.303 384.643C405.001 380.847 401.189 377.035 395.185 376.462C390.445 375.99 384.761 377.474 384.929 383.209C385.149 391.019 396.332 393.178 402.505 392.587C406.975 392.149 413.25 391.103 415.999 390.647C418.097 395.468 420.531 400.135 423.286 404.614C423.437 404.883 423.623 405.153 423.792 405.406C421.198 404.449 418.697 403.258 416.319 401.847C411.259 399.216 406.587 396.467 400.633 397.378C395.91 398.103 390.765 400.937 392.351 406.486C394.493 414.026 405.845 413.351 411.698 411.259C415.915 409.741 421.734 407.194 424.23 406.064C425.731 408.24 427.604 410.652 429.797 413.351C431.989 416.05 434.384 419.12 436.813 422.476C435.127 423.185 429.021 419.491 427.654 418.799C422.594 416.168 417.939 413.418 411.968 414.329C407.262 415.054 402.117 417.888 403.703 423.438C405.845 430.977 417.197 430.303 423.033 428.211C428.481 426.254 436.527 422.577 436.813 422.476V422.746C436.797 422.662 436.797 422.577 436.813 422.493C439.655 426.402 442.22 430.505 444.488 434.772C442.312 435.262 436.611 433.659 435.278 433.372C429.678 432.175 424.483 430.741 418.968 433.187C414.616 435.11 410.399 439.192 413.385 444.151C417.416 450.898 428.211 447.221 433.288 443.678C437.319 440.862 442.869 436.341 444.572 434.941C447.211 439.971 449.271 445.285 450.712 450.78C448.351 451.066 443.122 449.599 441.857 449.329C436.257 448.148 431.062 446.698 425.546 449.143C421.194 451.083 416.977 455.148 419.963 460.107C423.994 466.854 434.789 463.177 439.866 459.635C443.661 456.97 448.806 452.804 450.813 451.201C452.717 458.775 453.327 466.617 452.618 474.394H453.377C454.097 466.574 453.499 458.688 451.606 451.066C452.972 449.616 459.416 448.654 460.816 448.351C466.432 447.153 471.746 446.343 475.777 441.857C478.897 438.483 481.073 432.951 476.334 429.645Z" fill="white"/>
<path d="M527.356 457.712C521.419 458.741 517.91 462.772 513.862 466.939C512.951 467.866 509.426 471.999 507.301 473.061C505.432 467.696 504.193 462.132 503.607 456.481C505.8 456.7 512.918 457.375 517.826 457.476C524.033 457.594 535.014 454.609 534.693 446.799C534.423 441.03 528.655 440.052 523.966 440.794C518.011 441.823 514.503 445.854 510.472 450.004C509.51 450.982 505.665 455.486 503.59 456.278C503.106 451.47 502.96 446.635 503.151 441.806L503.337 441.992L503.185 441.773C503.438 441.773 512.209 440.288 517.826 438.888C523.848 437.387 533.664 431.618 531.32 424.18C529.549 418.681 523.696 419.12 519.378 421.194C513.913 423.758 511.602 428.616 508.819 433.626C508.077 434.958 505.007 441.452 503.253 441.773C503.404 437.623 503.725 433.761 504.028 430.286C504.332 426.811 504.568 423.775 504.602 421.144C507.301 420.671 513.559 419.558 517.91 418.479C523.932 416.977 533.749 411.209 531.404 403.77C529.717 398.272 523.78 398.71 519.462 400.785C513.862 403.315 511.585 408.122 508.802 413.182C507.605 415.681 506.188 418.069 504.568 420.317C504.568 419.997 504.568 419.676 504.568 419.373C504.367 414.117 503.804 408.881 502.881 403.703C505.378 402.59 511.18 399.975 515.127 397.833C520.592 394.898 528.621 386.903 524.522 380.274C521.452 375.382 515.92 377.305 512.226 380.274C507.554 384.103 506.508 389.382 505.04 394.915C504.497 397.607 503.723 400.248 502.73 402.809C501.819 397.749 500.824 393.835 500.335 392.081C501.077 389.315 502.612 383.378 503.421 379.093C504.568 372.987 503.421 361.669 495.645 360.742C489.91 360.067 487.92 365.583 487.954 370.356C487.954 376.395 491.462 380.476 494.853 385.132C496.542 387.187 498.07 389.369 499.424 391.66C499.542 392.047 499.71 392.688 499.93 393.566C500.385 395.353 501.026 398.086 501.616 401.426C500.267 398.575 498.041 393.954 496.168 390.648C493.115 385.233 484.968 377.289 478.424 381.59C473.583 384.761 475.624 390.26 478.711 393.886C482.624 398.474 487.92 399.435 493.503 400.785C496.394 401.286 499.222 402.101 501.937 403.214L502.038 403.77C501.91 403.943 501.742 404.082 501.549 404.175L502.072 403.956C502.991 409.032 503.555 414.167 503.759 419.322C503.759 419.744 503.759 420.165 503.759 420.604C502.342 418.816 497.939 413.3 494.633 409.741C490.416 405.187 480.633 399.368 475.27 405.069C471.306 409.269 474.578 414.161 478.424 416.876C483.298 420.435 488.679 420.115 494.397 420.149C495.78 420.149 501.836 419.777 503.759 420.756V420.891C503.592 421.029 503.396 421.127 503.185 421.177L503.759 421.076C503.759 423.657 503.472 426.659 503.185 430.033C502.898 433.406 502.628 436.78 502.46 440.507C500.773 438.146 497.4 433.136 494.633 429.729C490.754 424.888 481.426 418.377 475.674 423.657C471.407 427.57 474.308 432.681 477.935 435.751C482.539 439.647 487.92 439.732 493.638 440.17C496.598 440.188 499.547 440.544 502.426 441.233C502.212 446.195 502.353 451.167 502.848 456.11C501.161 454.609 495.78 450.004 491.867 447.103C486.807 443.425 476.197 439.495 471.964 446.091C468.843 450.965 472.959 455.148 477.26 457.206C482.708 459.787 487.937 458.488 493.571 457.459C494.92 457.206 500.79 455.772 502.881 456.346C503.468 462.094 504.719 467.754 506.609 473.213L506.744 473.601C505.192 472.707 498.58 468.929 493.925 466.736C488.308 464.071 477.058 462.3 474.207 469.587C472.098 474.967 476.923 478.29 481.544 479.454C487.397 480.955 492.272 478.661 497.602 476.553C498.934 476.03 504.821 473.18 506.778 473.686C509.441 481.068 513.318 487.955 518.248 494.061L518.855 493.589C513.95 487.529 510.101 480.687 507.469 473.348C510.033 473.601 516.628 474.208 521.267 474.31C527.474 474.428 538.455 471.459 538.134 463.633C537.864 457.948 532.096 456.903 527.356 457.712Z" fill="white"/>
<path d="M71.3469 438.365C65.4265 437.184 60.6867 439.731 55.4747 442.109C54.294 442.649 49.5206 445.213 47.1423 445.483C47.3321 439.782 48.1811 434.122 49.6724 428.616C51.629 429.611 58.106 432.799 62.5928 434.671C68.3277 437.015 79.6457 438.196 82.1252 430.775C83.9469 425.276 78.9372 422.223 74.265 421.295C68.3445 420.114 63.6048 422.661 58.3928 425.057C57.1446 425.613 51.9326 428.43 49.723 428.43C50.9935 423.768 52.5943 419.202 54.5133 414.767C54.5582 414.841 54.5923 414.92 54.6145 415.004V414.734C54.8506 414.734 63.5711 416.606 69.306 417.314C75.4626 418.09 86.6963 416.252 87.1348 408.442C87.4553 402.674 81.8216 401.037 77.0144 401.358C70.9927 401.78 67.0795 405.473 62.694 409.151C61.5132 410.112 56.3181 415.088 54.5639 414.734C56.2506 410.922 57.9374 407.43 59.4048 404.293C60.8723 401.155 62.2723 398.406 63.2506 395.96C65.9494 396.517 72.1734 397.731 76.6264 398.288C82.783 399.047 94.0167 397.208 94.4553 389.399C94.7757 383.63 89.142 381.994 84.3348 382.315C78.3132 382.736 74.3999 386.43 69.9975 390.107C67.9825 391.985 65.8035 393.678 63.4867 395.168C63.6048 394.881 63.706 394.577 63.8072 394.29C65.505 389.33 66.8576 384.257 67.8554 379.11C70.6048 378.975 76.9469 378.621 81.3493 378.064C87.5059 377.288 97.9468 372.734 96.5299 365.059C95.4167 359.375 89.5637 359.189 85.0264 360.674C79.3083 362.563 76.424 367.1 73.0505 371.756C71.5579 374.07 69.8647 376.249 67.9903 378.266C68.9518 373.206 69.4409 369.225 69.6771 367.404C71.3638 365.093 74.9397 360.1 77.2336 356.389C80.4891 351.11 83.5083 340.129 76.5758 336.486C71.5156 333.77 67.6361 338.173 65.9494 342.676C63.8241 348.327 65.5446 353.421 67.0626 358.953C67.8891 361.477 68.5262 364.06 68.9686 366.678C68.9686 367.083 68.8674 367.741 68.7662 368.635C68.547 370.474 68.159 373.257 67.5686 376.613C67.3325 373.459 66.9108 368.348 66.3542 364.587C65.4602 358.447 60.7205 348.091 53.0627 349.744C47.4121 350.958 47.3278 356.828 48.9133 361.332C50.9037 367.016 55.5085 369.765 60.2145 373.139C62.7429 374.645 65.0963 376.427 67.2313 378.452C67.2018 378.634 67.1624 378.814 67.1132 378.992C66.9342 379.106 66.7329 379.18 66.5229 379.211H67.0795C66.1024 384.279 64.7723 389.273 63.0988 394.155C62.9639 394.543 62.812 394.948 62.6602 395.353C61.9687 393.16 59.8602 386.447 58.0554 381.859C55.7615 376.107 48.7278 367.151 41.6772 370.524C36.4652 373.037 37.7471 378.756 40.3278 382.77C43.5832 387.83 48.7615 389.517 54.0579 391.558C55.3398 392.064 61.1084 393.902 62.4916 395.505V395.64C62.2853 395.679 62.0737 395.679 61.8675 395.64L62.4241 395.758C61.4627 398.153 60.147 400.818 58.6627 403.905C57.1783 406.992 55.7277 409.96 54.2265 413.418C53.5687 410.618 52.1181 404.698 50.8531 400.548C48.9808 394.628 42.6218 385.182 35.3351 388.049C29.9544 390.158 30.8315 395.96 33.1086 400.143C35.9929 405.44 40.9857 407.464 46.1639 409.926C48.9173 411.018 51.542 412.409 53.9904 414.076C51.9964 418.628 50.3334 423.318 49.0145 428.11C47.9519 426.102 44.6121 419.861 42.0146 415.746C38.6411 410.517 30.2074 403.011 23.8147 407.632C19.1593 411.006 21.4701 416.437 24.7592 419.912C28.8917 424.281 34.2387 424.972 39.9399 426.018C41.2893 426.271 47.2941 427.013 49.0145 428.329C47.5077 433.89 46.6474 439.606 46.4507 445.365H46.2314L46.4507 445.483C46.4507 445.618 46.4507 445.753 46.4507 445.888C45.3374 444.505 40.5134 438.584 36.9712 434.856C32.6869 430.37 22.8364 424.652 17.54 430.42C13.6268 434.671 16.9496 439.512 20.9135 442.228C25.8219 445.719 31.2026 445.348 36.9206 445.297C38.3712 445.297 44.8652 444.808 46.5182 445.921C46.3453 453.775 47.4855 461.602 49.8916 469.08L50.6169 468.844C48.2092 461.413 47.0688 453.63 47.2435 445.82C49.5543 446.984 55.4916 449.919 59.7759 451.673C65.5277 454.035 76.8457 455.199 79.3083 447.777C81.0288 442.346 76.0192 439.293 71.3469 438.365Z" fill="white"/>
<path d="M152.125 480.989C148.195 480.213 145.058 481.9 141.6 483.485C139.84 484.446 137.971 485.193 136.034 485.712C136.167 481.943 136.733 478.202 137.721 474.563C139.019 475.22 143.27 477.346 146.289 478.577C150.084 480.129 157.607 480.922 159.243 475.996C160.458 472.353 157.135 470.329 154.031 469.705C150.101 468.929 146.964 470.616 143.506 472.201C142.68 472.572 139.222 474.445 137.754 474.428C138.606 471.34 139.665 468.314 140.925 465.37C140.936 465.426 140.936 465.483 140.925 465.539V465.353C141.094 465.353 146.863 466.601 150.675 467.04C154.757 467.546 162.212 466.331 162.482 461.153C162.701 457.324 158.957 456.228 155.735 456.447C151.754 456.734 149.157 459.18 146.239 461.608C145.463 462.266 142.005 465.555 140.841 465.319C141.921 462.789 143.034 460.478 144.046 458.387C145.058 456.295 145.935 454.49 146.593 452.871C148.381 453.225 152.513 454.035 155.465 454.406C159.547 454.912 167.002 453.698 167.272 448.503C167.492 444.674 163.747 443.594 160.525 443.813C156.545 444.083 153.947 446.546 151.029 448.975C149.687 450.226 148.237 451.355 146.694 452.348C146.694 452.146 146.846 451.943 146.913 451.758C148.044 448.452 148.941 445.07 149.595 441.637C151.417 441.553 155.634 441.317 158.586 440.946C162.668 440.423 169.583 437.404 168.588 432.31C167.863 428.548 163.966 428.413 160.964 429.409C157.169 430.657 155.263 433.676 153.019 436.746C152.025 438.287 150.896 439.738 149.646 441.081C150.287 437.707 150.607 435.076 150.725 433.878C151.839 432.344 154.217 429.038 155.786 426.575C157.945 423.067 159.952 415.78 155.364 413.368C151.99 411.563 149.427 414.515 148.313 417.467C146.897 421.211 148.044 424.601 149.039 428.262C149.597 429.912 150.026 431.604 150.321 433.322C150.321 433.592 150.236 434.03 150.169 434.621C150.034 435.835 149.781 437.691 149.376 439.9C149.224 437.809 148.937 434.418 148.583 431.922C147.976 427.857 144.839 420.992 139.762 422.088C136.017 422.898 135.95 426.777 136.995 429.763C138.328 433.541 141.381 435.397 144.501 437.572C146.182 438.567 147.744 439.75 149.157 441.098C149.157 441.216 149.157 441.334 149.157 441.452C149.035 441.53 148.896 441.576 148.752 441.587H149.123C148.475 444.951 147.59 448.265 146.475 451.505C146.391 451.758 146.289 452.028 146.188 452.298C145.733 450.847 144.333 446.394 143.135 443.392C141.617 439.58 136.945 433.642 132.273 435.886C128.899 437.572 129.658 441.334 131.379 443.999C133.538 447.372 136.945 448.452 140.487 449.835C141.347 450.156 145.159 451.387 146.121 452.449V452.534C145.987 452.557 145.85 452.557 145.716 452.534L146.087 452.618C145.446 454.204 144.569 455.992 143.591 458.016C142.612 460.04 141.634 462.03 140.639 464.324C140.2 462.469 139.239 458.539 138.378 455.789C137.13 451.859 132.913 445.669 128.089 447.49C124.514 448.89 125.087 452.753 126.605 455.519C128.511 459.028 131.834 460.377 135.258 462.013C137.092 462.722 138.836 463.645 140.453 464.763C139.112 467.778 137.985 470.883 137.08 474.057C136.388 472.741 134.162 468.608 132.441 465.876C130.232 462.401 124.564 457.442 120.364 460.495C117.277 462.755 118.812 466.331 120.988 468.625C123.738 471.526 127.28 471.999 131.024 472.69C131.918 472.859 135.899 473.348 137.046 474.208C136.05 477.898 135.484 481.69 135.359 485.51C135.359 485.594 135.359 485.695 135.359 485.779C134.617 484.869 131.429 480.939 129.068 478.459C126.234 475.49 119.706 471.712 116.198 475.524C113.6 478.341 115.793 481.563 118.374 483.384C121.629 485.712 125.205 485.459 129 485.425C129.962 485.425 134.263 485.105 135.359 485.847C135.251 491.052 136.009 496.24 137.603 501.196L138.092 501.044C136.499 496.111 135.752 490.945 135.882 485.763C137.417 486.538 141.347 488.495 144.198 489.659C147.993 491.211 155.516 492.003 157.152 487.078C158.552 483.637 155.229 481.613 152.125 480.989Z" fill="white"/>
<path d="M139.863 479.993C136.489 482.017 135.19 485.374 133.672 488.866C132.993 490.729 132.086 492.503 130.973 494.145C128.556 491.255 126.479 488.097 124.783 484.733C126.2 484.345 130.771 483.046 133.858 482C137.737 480.634 143.843 476.215 141.785 471.442C140.267 467.933 136.438 468.625 133.723 470.244C130.349 472.268 129.051 475.625 127.532 479.116C126.862 481.071 125.919 482.923 124.732 484.615C123.311 481.744 122.089 478.78 121.072 475.743H121.224L121.072 475.641C121.224 475.557 126.335 472.605 129.506 470.413C132.677 468.22 137.619 462.198 134.381 458.15C132.002 455.148 128.494 456.834 126.284 459.095C123.484 461.962 123.181 465.521 122.641 469.215C122.489 470.21 122.101 474.967 121.089 475.574C120.195 472.96 119.504 470.514 118.863 468.27C118.222 466.027 117.682 464.104 117.075 462.451C118.66 461.523 122.27 459.381 124.716 457.678C128.089 455.35 132.846 449.463 129.607 445.415C127.212 442.413 123.704 444.1 121.494 446.36C118.711 449.227 118.407 452.786 117.851 456.48C117.691 458.31 117.369 460.122 116.889 461.895C116.889 461.692 116.737 461.507 116.67 461.321C115.309 458.105 113.725 454.988 111.93 451.993C113.229 450.712 116.214 447.726 118.171 445.483C120.87 442.379 124.007 435.514 119.858 432.377C116.805 430.066 113.819 432.562 112.234 435.295C110.243 438.769 110.817 442.295 111.222 446.073C111.503 447.87 111.638 449.686 111.627 451.504C109.94 448.586 108.337 446.444 107.629 445.398C107.443 443.526 107.005 439.478 106.499 436.627C105.774 432.579 102.417 425.815 97.3736 427.063C93.6459 427.991 93.7134 431.871 94.8603 434.822C96.2941 438.567 99.4145 440.321 102.602 442.379C104.13 443.265 105.59 444.263 106.971 445.365L107.73 446.427C108.439 447.439 109.417 448.974 110.665 450.897C109.164 449.446 106.684 447.102 104.745 445.483C101.59 442.851 94.6242 439.832 91.6218 444.032C89.3616 447.136 91.9086 450.071 94.6917 451.589C98.1832 453.528 101.692 452.871 105.47 452.398C107.387 452.03 109.339 451.878 111.289 451.943C111.357 452.04 111.419 452.142 111.475 452.246C111.436 452.384 111.366 452.51 111.272 452.618L111.542 452.365C113.29 455.305 114.84 458.359 116.181 461.507L116.484 462.299C115.186 461.523 111.171 459.128 108.27 457.695C104.593 455.856 97.1543 454.54 95.164 459.381C93.6965 462.924 96.8507 465.184 99.9037 466.027C103.766 467.09 107.022 465.639 110.581 464.34C111.441 464.02 115.118 462.384 116.535 462.536C116.466 462.659 116.368 462.764 116.248 462.839L116.586 462.654C117.159 464.256 117.716 466.179 118.272 468.338C118.829 470.497 119.504 472.639 120.279 475.085C118.711 474.005 115.388 471.711 112.892 470.244C109.349 468.135 102.046 466.28 99.7013 470.919C98.0146 474.292 100.966 476.822 103.952 477.885C107.713 479.234 111.07 478.02 114.73 476.957C116.571 476.271 118.483 475.795 120.431 475.54C121.457 478.674 122.709 481.729 124.176 484.682C122.759 484.16 118.357 482.557 115.253 481.663C111.289 480.55 103.733 480.617 102.67 485.694C101.877 489.456 105.402 491.092 108.557 491.362C112.537 491.682 115.472 489.675 118.677 487.685C119.47 487.213 122.759 484.935 124.193 484.817C125.908 488.233 128.007 491.442 130.451 494.381H130.316H130.467L130.653 494.584C129.472 494.398 124.479 493.605 121.072 493.335C116.973 492.998 109.586 494.533 109.518 499.728C109.518 503.557 113.246 504.485 116.383 504.131C120.364 503.692 122.843 501.128 125.66 498.564C126.369 497.923 129.371 494.82 130.72 494.634C134.102 498.59 138.122 501.954 142.612 504.586L142.882 504.147C138.415 501.53 134.423 498.177 131.075 494.229C132.761 493.791 136.961 492.627 139.863 491.598C143.742 490.215 149.848 485.796 147.79 481.022C146.407 477.682 142.578 478.374 139.863 479.993Z" fill="white"/>
<path d="M282.779 566.675C364.356 566.675 430.487 556.481 430.487 543.905C430.487 531.328 364.356 521.134 282.779 521.134C201.203 521.134 135.072 531.328 135.072 543.905C135.072 556.481 201.203 566.675 282.779 566.675Z" fill="#263238"/>
<path d="M258.29 295.937C255.759 306.807 253.845 317.811 252.555 328.896C250.126 348.648 254.141 379.498 254.141 379.498C254.141 379.498 225.466 364.79 209.864 366.73C194.261 368.67 131.43 390.968 123.149 390.192C123.149 390.192 116.958 401.173 122.98 401.021C131.211 400.819 218.938 402.708 233.124 404.31C247.613 405.997 268.141 410.383 275.292 403.838C280.184 399.402 298.08 343.74 298.35 325.489C298.441 315.227 299.162 304.981 300.509 294.807" fill="white"/>
<path d="M258.29 295.937C255.759 306.807 253.845 317.811 252.555 328.896C250.126 348.648 254.141 379.498 254.141 379.498C254.141 379.498 225.466 364.79 209.864 366.73C194.261 368.67 131.43 390.968 123.149 390.192C123.149 390.192 116.958 401.173 122.98 401.021C131.211 400.819 218.938 402.708 233.124 404.31C247.613 405.997 268.141 410.383 275.292 403.838C280.184 399.402 298.08 343.74 298.35 325.489C298.441 315.227 299.162 304.981 300.509 294.807" stroke="#263238" stroke-linecap="round" stroke-linejoin="round"/>
<path d="M252.537 328.846C250.125 348.598 254.224 379.448 254.224 379.448C254.224 379.448 225.549 364.74 209.947 366.68C204.425 367.631 198.966 368.921 193.603 370.542C189.689 378.15 186.198 389.805 191.646 402.354C210.672 402.928 227.624 403.602 233.207 404.26C247.696 405.947 268.224 410.333 275.376 403.788C280.267 399.352 298.163 343.69 298.433 325.439C298.524 315.177 299.246 304.931 300.592 294.757L258.323 295.82C255.777 306.712 253.845 317.738 252.537 328.846Z" fill="#263238" stroke="#263238" stroke-linecap="round" stroke-linejoin="round"/>
<path d="M279.879 304.136L270.484 308.875C270.484 308.875 267.347 308.538 273.301 300.307" fill="white"/>
<path d="M279.879 304.136L270.484 308.875C270.484 308.875 267.347 308.538 273.301 300.307" stroke="#263238" stroke-linecap="round" stroke-linejoin="round"/>
<path d="M311.354 108.12C311.354 108.12 301.908 101.575 285.952 100.85C269.995 100.124 259.166 121.9 261.275 135.698C263.383 149.495 262.725 164.001 243.851 161.825C224.976 159.649 201.767 161.825 196.622 182.066C191.477 202.307 214.029 227.794 239.431 218.365C264.834 208.936 258.711 190.281 270.636 186.418C282.561 182.555 294.588 182.791 296.038 168.285C297.489 153.78 288.06 140.707 294.588 127.635C298.495 119.856 304.252 113.154 311.354 108.12Z" fill="#263238" stroke="#263238" stroke-linecap="round" stroke-linejoin="round"/>
<path d="M301.031 111.088C301.031 111.088 281.229 107.242 274.617 123.739C268.004 140.235 282.882 154.538 277.99 170.967C273.098 187.396 254.376 200.114 238.942 194.582C223.508 189.049 208.564 183.787 207.518 192.507C206.472 201.227 217.959 203.504 220.708 201.851C223.458 200.198 219.612 196.909 219.612 196.909" stroke="white" stroke-linecap="round" stroke-linejoin="round"/>
<path d="M237.627 175.521C235.328 174.918 232.979 174.523 230.61 174.341" stroke="white" stroke-linecap="round" stroke-linejoin="round"/>
<path d="M285.63 108.896C285.63 108.896 266.924 112.269 266.924 131.987C266.924 151.705 276.269 163.9 268.021 176.551C262.303 185.322 254.527 181.409 244.71 177.816" stroke="white" stroke-linecap="round" stroke-linejoin="round"/>
<path d="M322.166 127.686C322.166 127.686 322.824 138.295 320.479 144.553C318.135 150.811 307.66 160.813 308.267 166.143C308.874 171.473 324.156 182.437 329.031 180.599C333.906 178.76 337.971 151.064 337.971 151.064C337.971 151.064 329.402 131.363 322.166 127.686Z" fill="white" stroke="#263238" stroke-linecap="round" stroke-linejoin="round"/>
<path d="M330.717 146.965C333.854 152.835 336.536 157.71 343.519 158.992C353.083 160.678 356.608 148.365 357.89 135.883C358.207 136.02 358.542 136.111 358.885 136.153C360.081 136.332 361.301 136.234 362.452 135.869C363.604 135.503 364.657 134.879 365.531 134.045C366.307 133.252 365.126 131.734 363.574 130.098C359.02 125.274 358.632 121.546 358.683 114.917C358.834 111.951 358.585 108.978 357.941 106.079C357.768 105.449 357.56 104.829 357.317 104.223C350.35 87.1872 315.486 86.5631 313.596 107.597C313.056 115.036 313.926 122.51 316.16 129.626" fill="white"/>
<mask id="mask0_1_840" style="mask-type:luminance" maskUnits="userSpaceOnUse" x="313" y="91" width="53" height="69">
<path d="M330.717 146.965C333.854 152.835 336.536 157.71 343.519 158.992C353.083 160.678 356.608 148.365 357.89 135.883C358.207 136.02 358.542 136.111 358.885 136.153C360.081 136.332 361.301 136.234 362.452 135.869C363.604 135.503 364.657 134.879 365.531 134.045C366.307 133.252 365.126 131.734 363.574 130.098C359.02 125.274 358.632 121.546 358.683 114.917C358.834 111.951 358.585 108.978 357.941 106.079C357.768 105.449 357.56 104.829 357.317 104.223C350.35 87.1872 315.486 86.5631 313.596 107.597C313.056 115.036 313.926 122.51 316.16 129.626" fill="white"/>
</mask>
<g mask="url(#mask0_1_840)">
<path d="M358.683 114.968C358.835 112.002 358.585 109.029 357.941 106.129C357.768 105.5 357.56 104.88 357.317 104.274C350.351 87.238 315.486 86.6139 313.597 107.648C313.053 115.052 313.917 122.492 316.144 129.575C330.041 124.985 344.307 121.599 358.784 119.455C358.683 118.088 358.683 116.621 358.683 114.968Z" fill="#FFA45A"/>
<path opacity="0.5" d="M358.683 114.968C358.835 112.002 358.585 109.029 357.941 106.129C357.768 105.5 357.56 104.88 357.317 104.274C350.351 87.238 315.486 86.6139 313.597 107.648C313.053 115.052 313.917 122.492 316.144 129.575C330.041 124.985 344.307 121.599 358.784 119.455C358.683 118.088 358.683 116.621 358.683 114.968Z" fill="white"/>
</g>
<path d="M330.717 146.965C333.854 152.835 336.536 157.71 343.519 158.992C353.083 160.678 356.608 148.365 357.89 135.883C358.207 136.02 358.542 136.111 358.885 136.153C360.081 136.331 361.301 136.234 362.452 135.869C363.604 135.503 364.657 134.879 365.531 134.045C366.307 133.252 365.126 131.734 363.574 130.098C359.02 125.274 358.632 121.546 358.683 114.917C358.834 111.951 358.585 108.978 357.941 106.079C357.768 105.449 357.56 104.829 357.317 104.223C350.35 87.1872 315.486 86.5631 313.596 107.597C313.056 115.036 313.926 122.51 316.16 129.626" stroke="#263238" stroke-linecap="round" stroke-linejoin="round"/>
<path d="M353.859 122.693C353.859 123.975 353.505 125.038 352.898 125.071C352.291 125.105 351.751 124.093 351.667 122.811C351.582 121.529 352.021 120.466 352.628 120.433C353.235 120.399 353.792 121.377 353.859 122.693Z" fill="#263238"/>
<path d="M353.623 140.96C353.623 140.96 348.445 141.298 347.399 137.502" stroke="#263238" stroke-linecap="round" stroke-linejoin="round"/>
<path d="M355.31 100.867C345.409 87.2715 313.344 97.2064 311.59 116.671C310.713 126.505 310.342 139.712 319.788 141.247C322.706 132.088 332.135 131.835 331.831 127.129C331.409 120.146 345.325 120.382 343.469 109.823C342.002 100.664 349.272 106.197 355.31 100.867Z" fill="#263238" stroke="#263238" stroke-linecap="round" stroke-linejoin="round"/>
<path d="M311.928 124.481L360.506 108.103C360.506 108.103 354.164 91.2353 345.932 86.9172C337.701 82.5992 318.135 86.9172 311.455 95.4858C304.776 104.054 308.773 110.262 311.928 124.481Z" fill="#FFA45A"/>
<mask id="mask1_1_840" style="mask-type:luminance" maskUnits="userSpaceOnUse" x="307" y="85" width="54" height="40">
<path d="M311.928 124.481L360.506 108.103C360.506 108.103 354.164 91.2353 345.932 86.9172C337.701 82.5992 318.135 86.9172 311.455 95.4858C304.776 104.054 308.773 110.262 311.928 124.481Z" fill="white"/>
</mask>
<g mask="url(#mask1_1_840)">
<path opacity="0.2" d="M320.293 100.343C320.833 92.2807 329.25 87.0012 331.561 85.7024C323.684 86.9337 315.368 90.4758 311.455 95.4855C304.708 104.054 308.773 110.261 311.927 124.48L326.905 119.42C324.122 113.955 319.889 106.196 320.293 100.343Z" fill="black"/>
</g>
<path d="M311.928 124.481L360.506 108.103C360.506 108.103 354.164 91.2353 345.932 86.9172C337.701 82.5992 318.135 86.9172 311.455 95.4858C304.776 104.054 308.773 110.262 311.928 124.481Z" stroke="#263238" stroke-linecap="round" stroke-linejoin="round"/>
<path d="M344.278 113.956C344.278 113.956 365.194 113.23 375.5 114.293C385.806 115.356 379.413 110.076 360.505 108.103C360.505 108.103 347.888 112.59 344.278 113.956Z" fill="white" stroke="#263238" stroke-linecap="round" stroke-linejoin="round"/>
<path d="M313.648 153.965C313.648 153.965 333.248 168.302 337.465 181.24C342.727 197.415 340.518 210.471 335.474 225.095C330.431 239.719 323.836 240.393 319.889 255.945C315.537 273.116 314.677 306.665 306.226 321.964C290.54 350.386 246.701 325.017 245.959 297.759C245.15 268.292 272.424 250.699 275.578 235.89C278.952 219.832 275.224 197.601 282.646 182.555C290.067 167.509 304.253 153.425 313.648 153.965Z" fill="#263238" stroke="#263238" stroke-linecap="round" stroke-linejoin="round"/>
<path d="M307.879 167.999C302.869 169.378 298.395 172.242 295.043 176.213C286.862 185.963 276.961 224.336 274.954 230.189C272.002 238.859 266.858 270.063 268.932 270.671C271.007 271.278 283.928 270.873 306.277 273.015C328.626 275.157 370.457 263.401 370.457 263.401C370.457 263.401 377.356 268.039 383.361 266.218C384.137 265.981 384.828 265.745 385.469 265.526C387.323 264.876 388.892 263.6 389.905 261.916C390.316 261.281 390.629 260.587 390.833 259.859C391.173 258.765 391.22 257.602 390.968 256.485C390.932 254.05 390.356 251.654 389.281 249.468C387.848 247.022 386.937 248.372 384.946 247.309C382.448 246.213 379.665 245.941 377.002 246.533C375.315 247.225 369.395 255.321 369.395 255.321C369.395 255.321 344.836 258.172 323.262 251.256C303.78 245.032 299.142 245.066 299.142 245.066C299.142 245.066 317.932 201.902 324.443 189.825" fill="#FFA45A"/>
<path d="M307.879 167.999C302.869 169.378 298.395 172.242 295.043 176.213C286.862 185.963 276.961 224.336 274.954 230.189C272.002 238.859 266.858 270.063 268.932 270.671C271.007 271.278 283.928 270.873 306.277 273.015C328.626 275.157 370.457 263.401 370.457 263.401C370.457 263.401 377.356 268.039 383.361 266.218C384.137 265.981 384.828 265.745 385.469 265.526C387.323 264.876 388.892 263.6 389.905 261.916C390.316 261.281 390.629 260.587 390.833 259.859C391.173 258.765 391.22 257.602 390.968 256.485C390.932 254.05 390.356 251.654 389.281 249.468C387.848 247.022 386.937 248.372 384.946 247.309C382.448 246.213 379.665 245.941 377.002 246.533C375.315 247.225 369.395 255.321 369.395 255.321C369.395 255.321 344.836 258.172 323.262 251.256C303.78 245.032 299.142 245.066 299.142 245.066C299.142 245.066 317.932 201.902 324.443 189.825" stroke="#263238" stroke-linecap="round" stroke-linejoin="round"/>
<path d="M383.361 266.335L384.895 265.829C386.069 265.463 387.158 264.866 388.096 264.072C389.035 263.278 389.805 262.304 390.36 261.207C390.571 260.819 390.73 260.405 390.833 259.976C391.173 258.883 391.219 257.719 390.968 256.603C390.931 254.168 390.355 251.771 389.281 249.586C387.847 247.14 386.936 248.489 384.946 247.427C382.448 246.33 379.665 246.059 377.001 246.651C375.315 247.342 369.394 255.439 369.394 255.439C363.731 255.951 358.04 256.097 352.358 255.877L352.578 267.904C362.968 265.627 370.524 263.501 370.524 263.501C370.524 263.501 377.356 268.123 383.361 266.335Z" fill="white" stroke="#263238" stroke-linecap="round" stroke-linejoin="round"/>
<path d="M384.878 247.444C384.878 247.444 386.953 253.179 385.671 256.198C384.389 259.218 380.071 251.897 380.071 251.897" stroke="#263238" stroke-linecap="round" stroke-linejoin="round"/>
<path d="M383.091 261.377L382.23 255.777C382.23 255.777 375.348 263.098 372.329 260.078" stroke="#263238" stroke-linecap="round" stroke-linejoin="round"/>
<path d="M345.393 207.401C344.566 203.589 343.487 199.81 342.323 196.049C340.771 191.107 339.05 186.198 337.465 181.324C337.089 180.212 336.632 179.13 336.099 178.085V175.589C336.099 172.89 339.253 167.948 339.253 167.948C336.909 165.341 334.353 162.932 331.612 160.745C325.776 155.803 315.436 149.073 315.436 149.073L310.578 154.37C301.369 156.444 289.292 169.23 282.646 182.724C275.224 197.769 279.019 220.001 275.579 236.058C273.791 244.492 264.244 253.752 256.468 265.593C274.56 275.925 294.622 282.338 315.352 284.417C316.802 273.791 318.034 263.468 319.889 256.114C321.888 248.457 325.753 241.416 331.14 235.62C338.916 227.135 348.209 220.338 345.393 207.401Z" fill="#FFA45A"/>
<mask id="mask2_1_840" style="mask-type:luminance" maskUnits="userSpaceOnUse" x="256" y="149" width="90" height="136">
<path d="M345.393 207.401C344.566 203.589 343.487 199.81 342.323 196.049C340.771 191.107 339.05 186.198 337.465 181.324C337.089 180.212 336.632 179.13 336.099 178.085V175.589C336.099 172.89 339.253 167.948 339.253 167.948C336.909 165.341 334.353 162.932 331.612 160.745C325.776 155.803 315.436 149.073 315.436 149.073L310.578 154.37C301.369 156.444 289.292 169.23 282.646 182.724C275.224 197.769 279.019 220.001 275.579 236.058C273.791 244.492 264.244 253.752 256.468 265.593C274.56 275.925 294.622 282.338 315.352 284.417C316.802 273.791 318.034 263.468 319.889 256.114C321.888 248.457 325.753 241.416 331.14 235.62C338.916 227.135 348.209 220.338 345.393 207.401Z" fill="white"/>
</mask>
<g mask="url(#mask2_1_840)">
<path opacity="0.2" d="M283.49 273.184C283.49 270.687 300.964 251.357 304.709 246.365C308.454 241.372 289.107 245.117 285.986 245.117C282.866 245.117 294.724 230.762 302.854 215.801C310.984 200.84 309.078 197.078 309.078 197.078L287.842 187.683C287.842 187.683 284.468 189.285 279.543 191.681C276.372 205.731 278.362 222.902 275.562 235.974C273.774 244.408 264.227 253.668 256.451 265.509C264.862 270.366 273.761 274.324 283.001 277.316C283.256 275.951 283.42 274.571 283.49 273.184Z" fill="black"/>
</g>
<path d="M345.393 207.401C344.566 203.589 343.487 199.81 342.323 196.049C340.771 191.107 339.05 186.198 337.465 181.324C337.089 180.212 336.632 179.13 336.099 178.085V175.589C336.099 172.89 339.253 167.948 339.253 167.948C336.909 165.341 334.353 162.932 331.612 160.745C325.776 155.803 315.436 149.073 315.436 149.073L310.578 154.37C301.369 156.444 289.292 169.23 282.646 182.724C275.224 197.769 279.019 220.001 275.579 236.058C273.791 244.492 264.244 253.752 256.468 265.593C274.56 275.925 294.622 282.338 315.352 284.417C316.802 273.791 318.034 263.468 319.889 256.114C321.888 248.457 325.753 241.416 331.14 235.62C338.916 227.135 348.209 220.338 345.393 207.401Z" stroke="#263238" stroke-linecap="round" stroke-linejoin="round"/>
<path d="M315.301 166.177C310.422 164.44 305.134 164.205 300.12 165.502C287.824 168.758 257.631 194.447 252.605 198.107C245.2 203.488 223.036 226.039 224.318 227.81C225.6 229.581 236.463 236.598 253.515 251.222C270.568 265.846 305.804 279.087 305.804 279.087C305.804 279.087 314.44 288.077 320.395 290.034C322.183 290.624 323.633 291.012 324.831 291.282C325.168 291.4 325.522 291.518 325.86 291.603C327.033 292.03 328.3 292.129 329.525 291.888C330.749 291.647 331.885 291.076 332.809 290.236C333.708 289.539 334.411 288.621 334.85 287.571C336.209 285.543 337.102 283.239 337.464 280.824C337.701 278.008 333.517 277.451 332.505 275.477C331.1 273.134 328.977 271.306 326.45 270.265C324.763 269.894 315.183 273.065 315.183 273.065C315.183 273.065 293.592 261.258 279.879 243.092C267.532 226.798 263.72 224.15 263.72 224.15C263.72 224.15 303.932 199.676 316.161 193.502" fill="#FFA45A"/>
<mask id="mask3_1_840" style="mask-type:luminance" maskUnits="userSpaceOnUse" x="224" y="164" width="114" height="129">
<path d="M315.301 166.177C310.422 164.44 305.134 164.205 300.12 165.502C287.824 168.758 257.631 194.447 252.605 198.107C245.2 203.488 223.036 226.039 224.318 227.81C225.6 229.581 236.463 236.598 253.515 251.222C270.568 265.846 305.804 279.087 305.804 279.087C305.804 279.087 314.44 288.077 320.395 290.034C322.183 290.624 323.633 291.012 324.831 291.282C325.168 291.4 325.522 291.518 325.86 291.603C327.033 292.03 328.3 292.129 329.525 291.888C330.749 291.647 331.885 291.076 332.809 290.236C333.708 289.539 334.411 288.621 334.85 287.571C336.209 285.543 337.102 283.239 337.464 280.824C337.701 278.008 333.517 277.451 332.505 275.477C331.1 273.134 328.977 271.306 326.45 270.265C324.763 269.894 315.183 273.065 315.183 273.065C315.183 273.065 293.592 261.258 279.879 243.092C267.532 226.798 263.72 224.15 263.72 224.15C263.72 224.15 303.932 199.676 316.161 193.502" fill="white"/>
</mask>
<g mask="url(#mask3_1_840)">
<path opacity="0.2" d="M330.903 289.377C317.172 285.632 300.963 273.151 289.105 265.661C277.247 258.172 244.811 230.729 240.443 229.481C236.074 228.233 241.691 226.36 248.556 221.368C255.421 216.375 239.819 221.368 236.074 221.368C232.33 221.368 290.353 183.939 298.483 174.594C304.606 167.527 296.493 168.286 292.158 169.079C277.939 177.125 256.737 195.088 252.57 198.108C245.166 203.488 223.002 226.04 224.284 227.811C225.566 229.582 236.428 236.599 253.481 251.223C270.534 265.847 305.77 279.088 305.77 279.088C305.77 279.088 314.406 288.078 320.36 290.035C322.148 290.625 323.599 291.013 324.797 291.283C325.134 291.401 325.488 291.519 325.825 291.603C326.998 292.031 328.266 292.129 329.49 291.888C330.715 291.648 331.851 291.077 332.775 290.237L333.045 290.001L330.903 289.377Z" fill="black"/>
</g>
<path d="M315.301 166.177C310.422 164.44 305.134 164.205 300.12 165.502C287.824 168.758 257.631 194.447 252.605 198.107C245.2 203.488 223.036 226.039 224.318 227.81C225.6 229.581 236.463 236.598 253.515 251.222C270.568 265.846 305.804 279.087 305.804 279.087C305.804 279.087 314.44 288.077 320.395 290.034C322.183 290.624 323.633 291.012 324.831 291.282C325.168 291.4 325.522 291.518 325.86 291.603C327.033 292.03 328.3 292.129 329.525 291.888C330.749 291.647 331.885 291.076 332.809 290.236C333.708 289.539 334.411 288.621 334.85 287.571C336.209 285.543 337.102 283.239 337.464 280.824C337.701 278.008 333.517 277.451 332.505 275.477C331.1 273.134 328.977 271.306 326.45 270.265C324.763 269.894 315.183 273.065 315.183 273.065C315.183 273.065 293.592 261.258 279.879 243.092C267.532 226.798 263.72 224.15 263.72 224.15C263.72 224.15 303.932 199.676 316.161 193.502" stroke="#263238" stroke-linecap="round" stroke-linejoin="round"/>
<path d="M332.523 275.478C331.117 273.134 328.994 271.307 326.467 270.266C324.78 269.895 315.2 273.066 315.2 273.066C311.719 271.086 308.341 268.93 305.079 266.606L297.303 275.663C302.364 277.839 305.737 279.037 305.737 279.037C305.737 279.037 314.373 288.027 320.327 289.984C322.115 290.574 323.566 290.962 324.764 291.232C325.101 291.35 325.455 291.468 325.792 291.553C326.965 291.98 328.233 292.078 329.458 291.838C330.682 291.597 331.818 291.026 332.742 290.186C333.641 289.489 334.344 288.571 334.783 287.521C336.142 285.493 337.035 283.189 337.397 280.774C337.718 278.008 333.535 277.485 332.523 275.478Z" fill="white" stroke="#263238" stroke-linecap="round" stroke-linejoin="round"/>
<path d="M329.672 130.688C329.672 130.688 324.409 121.107 320.26 124.481C316.111 127.854 321.053 134.247 326.568 136.085C332.084 137.924 329.807 134.399 329.807 134.399" fill="white"/>
<path d="M329.672 130.688C329.672 130.688 324.409 121.107 320.26 124.481C316.111 127.854 321.053 134.247 326.568 136.085C332.084 137.924 329.807 134.399 329.807 134.399" stroke="#263238" stroke-linecap="round" stroke-linejoin="round"/>
<path d="M269.556 322.183C277.247 330.273 285.384 337.926 293.93 345.106C309.11 357.976 336.756 369.732 336.756 369.732C336.756 369.732 321.693 404.867 322.25 420.503C322.807 436.139 339.404 500.792 337.886 508.956C337.886 508.956 347.028 515.888 348.664 510.103C351.329 500.758 356.322 424.804 358.313 410.332C360.269 396.147 365.464 370.61 365.447 364.014C365.447 351.364 331.443 315.217 316.347 304.979C307.827 299.258 299.665 293.022 291.906 286.306" fill="white"/>
<path d="M269.556 322.183C277.247 330.273 285.384 337.926 293.93 345.106C309.11 357.976 336.756 369.732 336.756 369.732C336.756 369.732 321.693 404.867 322.25 420.503C322.807 436.139 339.404 500.792 337.886 508.956C337.886 508.956 347.028 515.888 348.664 510.103C351.329 500.758 356.322 424.804 358.313 410.332C360.269 396.147 365.464 370.61 365.447 364.014C365.447 351.364 331.443 315.217 316.347 304.979C307.827 299.258 299.665 293.022 291.906 286.306" stroke="#263238" stroke-linecap="round" stroke-linejoin="round"/>
<path d="M316.347 304.962C307.827 299.241 299.665 293.005 291.906 286.29L269.556 322.183C277.247 330.273 285.384 337.926 293.93 345.106C309.11 357.976 336.756 369.732 336.756 369.732C336.756 369.732 321.693 404.867 322.25 420.503C322.881 427.536 323.957 434.522 325.472 441.419C335.303 443.46 345.411 443.814 355.361 442.465C356.558 427.891 357.621 415.376 358.313 410.332C360.269 396.147 365.464 370.61 365.447 364.014C365.431 351.364 331.443 315.217 316.347 304.962Z" fill="#263238" stroke="#263238" stroke-linecap="round" stroke-linejoin="round"/>
<path d="M266.014 326.484C273.638 332.658 285.58 341.665 293.93 345.038" stroke="white" stroke-linecap="round" stroke-linejoin="round"/>
<path d="M258.609 320.312C258.609 320.312 259.908 321.442 261.983 323.23" stroke="white" stroke-linecap="round" stroke-linejoin="round"/>
<path d="M282.847 283.658L308.873 298.434" stroke="white" stroke-linecap="round" stroke-linejoin="round"/>
<path d="M266.3 274.87C266.3 274.87 255.066 280.791 255.657 286.104C256.247 291.417 269.252 282.562 268.071 288.465C266.89 294.369 260.481 295.465 266.89 297.928C273.3 300.39 301.772 323.347 319.517 335.188C337.261 347.029 355.579 362.968 353.808 367.691C352.037 372.414 335.473 414.92 339.015 442.785" stroke="white" stroke-linecap="round" stroke-linejoin="round"/>
<path d="M190.009 391.256C190.009 391.256 232.583 397.75 250.31 399.521C268.038 401.292 269.826 397.75 266.874 394.207C263.922 390.665 269.826 395.388 271.006 390.058C272.187 384.728 274.565 351.634 275.156 343.352" stroke="white" stroke-linecap="round" stroke-linejoin="round"/>
<path d="M124.767 391.103C124.767 391.103 113.82 375.788 110.227 377.609C106.634 379.431 98.0995 385.402 93.4778 387.881C88.8562 390.361 80.5911 400.363 80.6586 403.602C80.7261 406.84 89.4802 401.595 95.2826 400.431C101.085 399.267 122.979 401.122 122.979 401.122C122.979 401.122 121.798 392.706 124.767 391.103Z" fill="#FFA45A" stroke="#263238" stroke-linecap="round" stroke-linejoin="round"/>
<path d="M113.719 378.705C112.302 377.676 111.07 377.154 110.227 377.575C106.651 379.363 98.0995 385.368 93.4778 387.847C88.8562 390.327 80.5911 400.329 80.6586 403.568C80.6586 404.765 81.9068 404.799 83.7116 404.31C87.2369 397.31 94.8441 393.667 102.03 387.443C105.705 384.246 109.612 381.325 113.719 378.705Z" fill="white" stroke="#263238" stroke-linecap="round" stroke-linejoin="round"/>
<path d="M337.885 508.955C337.885 508.955 330.008 526.076 333.382 528.285C336.755 530.495 346.167 535.032 350.62 537.731C355.073 540.43 367.842 542.791 370.625 541.105C373.408 539.418 364.502 534.442 360.623 529.989C356.743 525.536 348.697 510.136 348.697 510.136C348.697 510.136 340.753 510.743 337.885 508.955Z" fill="#FFA45A" stroke="#263238" stroke-linecap="round" stroke-linejoin="round"/>
<path d="M370.592 541.071C371.79 540.346 370.795 538.996 368.905 537.343C366.38 537.638 363.833 537.689 361.298 537.495C356.407 537.006 339.657 528.083 332.624 524.237C332.337 526.194 332.455 527.729 333.298 528.285C336.672 530.512 346.084 535.032 350.537 537.731C354.99 540.43 367.809 542.741 370.592 541.071Z" fill="white" stroke="#263238" stroke-linecap="round" stroke-linejoin="round"/>
</svg>
