<svg width="1440" height="496" viewBox="0 0 1440 496" fill="none" xmlns="http://www.w3.org/2000/svg">
<path d="M-13 20.022L47.5417 41.1119C108.083 62.3352 229.167 104.515 350.25 120.8C471.333 137.084 592.417 127.207 713.5 118.397C834.583 109.454 955.667 101.445 1076.75 81.8233C1197.83 62.3352 1318.92 31.1009 1379.46 15.6172L1440 0V303H1379.46C1318.92 303 1197.83 303 1076.75 303C955.667 303 834.583 303 713.5 303C592.417 303 471.333 303 350.25 303C229.167 303 108.083 303 47.5417 303H-13V20.022Z" fill="#4648BC"/>
<path d="M1455 444.148L1393.5 449.333C1332 454.519 1209 464.889 1086 459.393C963 453.793 840 432.43 717 415.837C594 399.244 471 387.422 348 401.63C225 415.837 102 455.867 40.5 475.985L-21 496V300H40.5C102 300 225 300 348 300C471 300 594 300 717 300C840 300 963 300 1086 300C1209 300 1332 300 1393.5 300H1455V444.148Z" fill="#4648BC"/>
</svg>
