<svg width="588" height="620" viewBox="0 0 588 620" fill="none" xmlns="http://www.w3.org/2000/svg">
<path d="M22.6685 230.816C22.6685 230.816 -0.920656 334.86 67.2542 426.061C135.429 517.263 253.409 553.32 348.362 585.045C443.316 616.77 531.72 581.446 564.468 501.707C597.217 421.968 529.724 378.44 514.22 273.9C498.715 169.361 510.348 139.359 440.723 59.3809C371.099 -20.597 229.223 -19.6419 133.894 61.3765C38.5651 142.395 22.6685 230.816 22.6685 230.816Z" fill="#FFA45A"/>
<path opacity="0.7" d="M22.6685 230.816C22.6685 230.816 -0.920656 334.86 67.2542 426.061C135.429 517.263 253.409 553.32 348.362 585.045C443.316 616.77 531.72 581.446 564.468 501.707C597.217 421.968 529.724 378.44 514.22 273.9C498.715 169.361 510.348 139.359 440.723 59.3809C371.099 -20.597 229.223 -19.6419 133.894 61.3765C38.5651 142.395 22.6685 230.816 22.6685 230.816Z" fill="white"/>
<path d="M576.646 92.5212C576.646 92.5212 578.351 83.686 568.407 68.8809C558.463 54.0759 551.897 45.4453 551.897 45.4453C551.897 45.4453 541.663 64.5827 550.805 79.2172C557.562 89.579 565.173 99.358 573.559 108.452L576.646 92.5212Z" fill="#94C868"/>
<path d="M547.872 144.254C547.872 144.254 549.577 135.419 539.633 120.614C529.689 105.809 523.088 97.1783 523.088 97.1783C523.088 97.1783 512.855 116.316 522.014 130.933C528.768 141.302 536.379 151.087 544.767 160.185L547.872 144.254Z" fill="#94C868"/>
<path d="M538.457 168.44C538.457 168.44 542.004 160.15 558.566 153.515C575.128 146.88 585.413 143.435 585.413 143.435C585.413 143.435 583.076 164.977 567.333 171.97C555.921 176.743 544.127 180.549 532.078 183.347L538.457 168.44Z" fill="#94C868"/>
<path d="M528.632 240.367C528.632 240.367 530.338 231.515 545.177 221.605C560.016 211.695 569.312 206.118 569.312 206.118C569.312 206.118 571.529 227.677 557.611 237.809C547.455 244.873 536.723 251.069 525.528 256.332L528.632 240.367Z" fill="#94C868"/>
<path d="M525.033 257.68C525.033 257.68 528.001 249.151 520.257 233.101C512.513 217.051 507.209 207.516 507.209 207.516C507.209 207.516 494.416 224.999 501.324 240.777C506.536 251.995 512.681 262.756 519.694 272.945L525.033 257.68Z" fill="#94C868"/>
<path d="M502.775 306.751C502.775 306.751 504.48 297.916 519.303 287.989C534.125 278.062 543.455 272.399 543.455 272.399C543.455 272.399 545.672 293.942 531.754 304.09C521.594 311.147 510.862 317.343 499.671 322.614L502.775 306.751Z" fill="#94C868"/>
<path d="M501.921 355.021C501.921 355.021 501.358 346.032 513.162 332.643C524.965 319.254 532.589 311.629 532.589 311.629C532.589 311.629 540.196 331.91 529.297 345.248C521.257 354.652 512.442 363.364 502.945 371.293L501.921 355.021Z" fill="#94C868"/>
<path d="M578.198 90.4744C575.776 99.5657 572.855 108.517 569.448 117.287C559.607 141.627 544.188 155.545 534.824 177.428C525.46 199.312 533.766 231.497 524.266 260.101C514.765 288.705 500.165 302.742 499.602 323.006C499.039 343.269 505.845 399.606 505.845 399.606" stroke="#263238" stroke-width="0.5" stroke-linecap="round" stroke-linejoin="round"/>
<path d="M571.649 113.296L587 105.672" stroke="#263238" stroke-width="0.5" stroke-linecap="round" stroke-linejoin="round"/>
<path d="M535.761 176.525C535.761 176.525 548.588 170.333 561.704 164.193" stroke="#263238" stroke-width="0.5" stroke-linecap="round" stroke-linejoin="round"/>
<path d="M544.768 160.184C544.768 160.184 539.02 140.109 530.833 125.952" stroke="#263238" stroke-width="0.5" stroke-linecap="round" stroke-linejoin="round"/>
<path d="M526.619 253.04C535.291 242.532 545.443 233.339 556.758 225.75" stroke="#263238" stroke-width="0.5" stroke-linecap="round" stroke-linejoin="round"/>
<path d="M522.014 265.031C520.178 256.384 517.622 247.906 514.373 239.685C509.734 228.803 509.052 227.37 509.052 227.37" stroke="#263238" stroke-width="0.5" stroke-linecap="round" stroke-linejoin="round"/>
<path d="M499.602 323.006C503.802 316.53 508.495 310.388 513.64 304.636C518.689 299.35 524.166 294.489 530.014 290.104" stroke="#263238" stroke-width="0.5" stroke-linecap="round" stroke-linejoin="round"/>
<path d="M502.945 371.208C503.613 364.371 506.092 357.836 510.126 352.275C516.539 344.174 524.129 333.428 527.182 329.181" stroke="#263238" stroke-width="0.5" stroke-linecap="round" stroke-linejoin="round"/>
<path d="M472.465 194.861C472.465 194.861 472.585 189.113 480.789 181.216C488.993 173.318 494.246 168.884 494.246 168.884C494.246 168.884 497.982 182.154 490.34 190.017C484.742 195.552 478.688 200.607 472.243 205.129L472.465 194.861Z" fill="#94C868"/>
<path d="M483.33 230.918C483.33 230.918 483.467 225.187 491.654 217.273C499.841 209.359 505.128 204.941 505.128 204.941C505.128 204.941 508.847 218.211 501.222 226.091C495.617 231.62 489.557 236.669 483.108 241.186L483.33 230.918Z" fill="#94C868"/>
<path d="M472.754 204.634C472.754 204.634 472.277 198.92 463.595 191.586C454.913 184.251 449.387 180.124 449.387 180.124C449.387 180.124 446.487 193.615 454.606 200.984C460.547 206.15 466.908 210.811 473.624 214.919L472.754 204.634Z" fill="#94C868"/>
<path d="M485.922 247.224C485.922 247.224 484.831 241.595 475.433 235.284C466.034 228.973 460.082 225.375 460.082 225.375C460.082 225.375 458.632 239.02 467.467 245.569C473.917 250.11 480.735 254.103 487.85 257.509L485.922 247.224Z" fill="#94C868"/>
<path d="M482.273 293.276C482.273 293.276 482.392 287.545 474.546 279.341C466.7 271.137 461.634 266.447 461.634 266.447C461.634 266.447 457.336 279.546 464.602 287.733C469.965 293.498 475.802 298.804 482.051 303.596L482.273 293.276Z" fill="#94C868"/>
<path d="M482.17 304.533C482.17 304.533 481.47 298.854 488.48 289.899C495.491 280.944 500.045 275.81 500.045 275.81C500.045 275.81 505.622 288.415 499.192 297.284C494.431 303.553 489.153 309.413 483.415 314.801L482.17 304.533Z" fill="#94C868"/>
<path d="M488.959 352.326C488.959 352.326 490.664 346.851 500.779 341.631C510.893 336.412 517.17 333.598 517.17 333.598C517.17 333.598 517.017 347.379 507.482 352.769C500.543 356.502 493.302 359.646 485.837 362.167L488.959 352.326Z" fill="#94C868"/>
<path d="M489.368 338.067C489.368 338.067 489.487 332.336 481.624 324.131C473.761 315.927 468.712 311.237 468.712 311.237C468.712 311.237 464.414 324.336 471.697 332.523C477.06 338.289 482.897 343.595 489.146 348.386L489.368 338.067Z" fill="#94C868"/>
<path d="M483.348 368.189C483.348 368.189 484.917 362.68 479.408 352.753C473.898 342.826 470.18 337.01 470.18 337.01C470.18 337.01 462.692 348.591 467.673 358.364C471.394 365.307 475.69 371.925 480.516 378.15L483.348 368.189Z" fill="#94C868"/>
<path d="M471.732 193.36C472.007 199.341 472.611 205.303 473.54 211.218C476.371 227.677 484.063 238.508 486.929 253.313C489.794 268.118 480.26 287.068 482.29 306.188C484.319 325.309 491.483 335.986 489.112 348.642C486.741 361.298 474.887 395.428 474.887 395.428" stroke="#263238" stroke-width="0.5" stroke-linecap="round" stroke-linejoin="round"/>
<path d="M472.755 208.437L464.243 201.615" stroke="#263238" stroke-width="0.5" stroke-linecap="round" stroke-linejoin="round"/>
<path d="M472.515 200.796L476.268 194.434" stroke="#263238" stroke-width="0.5" stroke-linecap="round" stroke-linejoin="round"/>
<path d="M486.485 252.613C486.485 252.613 479.372 247.036 472.038 241.441" stroke="#263238" stroke-width="0.5" stroke-linecap="round" stroke-linejoin="round"/>
<path d="M483.108 241.236C486.874 234.332 491.331 227.828 496.412 221.826" stroke="#263238" stroke-width="0.5" stroke-linecap="round" stroke-linejoin="round"/>
<path d="M481.812 301.395C477.846 293.686 472.778 286.596 466.768 280.348" stroke="#263238" stroke-width="0.5" stroke-linecap="round" stroke-linejoin="round"/>
<path d="M483.057 309.514C485.362 304.39 488.089 299.467 491.21 294.795C495.577 288.654 496.191 287.853 496.191 287.853" stroke="#263238" stroke-width="0.5" stroke-linecap="round" stroke-linejoin="round"/>
<path d="M486.827 358.108C490.655 354.909 494.759 352.055 499.091 349.58C501.791 348.307 504.381 346.813 506.834 345.111" stroke="#263238" stroke-width="0.5" stroke-linecap="round" stroke-linejoin="round"/>
<path d="M489.128 348.608C487.399 344.008 485.318 339.549 482.903 335.27C480.476 331.303 477.726 327.544 474.682 324.029" stroke="#263238" stroke-width="0.5" stroke-linecap="round" stroke-linejoin="round"/>
<path d="M480.516 378.15C481.035 373.81 480.381 369.41 478.623 365.409C475.74 359.507 472.483 351.764 471.135 348.745" stroke="#263238" stroke-width="0.5" stroke-linecap="round" stroke-linejoin="round"/>
<path d="M60.3636 314.836C60.3636 314.836 57.6687 307.041 43.0001 299.929C28.3315 292.816 19.121 288.996 19.121 288.996C19.121 288.996 19.8715 308.781 33.7555 316.167C43.8493 321.262 54.3532 325.502 65.1565 328.84L60.3636 314.836Z" fill="#94C868"/>
<path d="M61.3691 368.905C61.3691 368.905 58.6742 361.127 44.0056 353.998C29.337 346.868 20.1265 343.064 20.1265 343.064C20.1265 343.064 20.8769 362.85 34.7609 370.253C44.8572 375.338 55.3608 379.572 66.1619 382.908L61.3691 368.905Z" fill="#94C868"/>
<path d="M64.269 328.327C64.269 328.327 62.4098 320.294 71.0916 306.461C79.7733 292.628 85.4702 284.543 85.4702 284.543C85.4702 284.543 95.3459 301.702 87.517 315.347C81.6734 325.025 75.0264 334.194 67.6462 342.757L64.269 328.327Z" fill="#94C868"/>
<path d="M65.0191 392.34C65.0191 392.34 64.0128 384.153 74.0591 371.31C84.1053 358.466 90.655 351.03 90.655 351.03C90.655 351.03 98.6886 369.126 89.4611 381.868C82.6294 390.874 75.0585 399.295 66.8271 407.043L65.0191 392.34Z" fill="#94C868"/>
<path d="M90.2623 453.675C90.2623 453.675 87.5674 445.898 94.697 431.229C101.827 416.56 106.637 407.913 106.637 407.913C106.637 407.913 118.286 423.929 111.941 438.325C107.154 448.563 101.517 458.382 95.0893 467.679L90.2623 453.675Z" fill="#94C868"/>
<path d="M95.3798 469.009C95.3798 469.009 93.8106 460.925 80.3018 451.782C66.7931 442.64 58.2819 437.591 58.2819 437.591C58.2819 437.591 56.201 457.275 68.9081 466.587C78.1709 473.08 87.9615 478.786 98.177 483.644L95.3798 469.009Z" fill="#94C868"/>
<path d="M100.292 518.013C100.292 518.013 97.5974 510.218 104.727 495.549C111.857 480.881 116.667 472.233 116.667 472.233C116.667 472.233 128.316 488.249 121.971 502.645C117.176 512.888 111.534 522.713 105.102 532.016L100.292 518.013Z" fill="#94C868"/>
<path d="M121.784 556.527C121.784 556.527 117.196 549.704 120.385 533.688C123.575 517.672 126.065 508.103 126.065 508.103C126.065 508.103 141.416 520.657 138.874 536.178C136.837 547.301 133.87 558.232 130.005 568.859L121.784 556.527Z" fill="#94C868"/>
<path d="M60.6694 312.499C62.9295 320.791 64.7288 329.201 66.0593 337.691C69.4706 361.434 63.6373 379.514 66.2981 401.108C68.9589 422.701 90.1772 444.312 95.8911 471.278C101.605 498.244 96.4369 516.068 105.255 532.306C114.073 548.544 145.321 589.991 145.321 589.991" stroke="#263238" stroke-width="0.5" stroke-linecap="round" stroke-linejoin="round"/>
<path d="M65.9408 333.53L74.5714 320.464" stroke="#263238" stroke-width="0.5" stroke-linecap="round" stroke-linejoin="round"/>
<path d="M62.9047 322.972L54.9564 315.927" stroke="#263238" stroke-width="0.5" stroke-linecap="round" stroke-linejoin="round"/>
<path d="M66.6049 399.965C66.6049 399.965 73.888 389.185 81.4441 378.32" stroke="#263238" stroke-width="0.5" stroke-linecap="round" stroke-linejoin="round"/>
<path d="M66.2132 382.908C66.2132 382.908 52.4657 369.621 39.5027 362.253" stroke="#263238" stroke-width="0.5" stroke-linecap="round" stroke-linejoin="round"/>
<path d="M94.492 464.609C96.5195 452.326 100.323 440.404 105.783 429.217" stroke="#263238" stroke-width="0.5" stroke-linecap="round" stroke-linejoin="round"/>
<path d="M96.3524 476.191C90.9413 470.208 85.0422 464.685 78.716 459.68C70.0513 453.198 68.8573 452.38 68.8573 452.38" stroke="#263238" stroke-width="0.5" stroke-linecap="round" stroke-linejoin="round"/>
<path d="M105.239 532.306C105.596 525.262 106.485 518.254 107.9 511.344C109.473 504.878 111.572 498.551 114.177 492.428" stroke="#263238" stroke-width="0.5" stroke-linecap="round" stroke-linejoin="round"/>
<path d="M130.005 568.858C127.398 563.15 126.356 556.851 126.986 550.608C128.35 541.261 129.408 529.287 129.886 524.528" stroke="#263238" stroke-width="0.5" stroke-linecap="round" stroke-linejoin="round"/>
<path d="M24.9882 443.493C24.9882 443.493 22.4467 438.905 25.3293 428.927C28.2118 418.949 30.3098 413.013 30.3098 413.013C30.3098 413.013 39.3497 421.797 36.9277 431.502C35.0341 438.445 32.5637 445.217 29.5422 451.748L24.9882 443.493Z" fill="#94C868"/>
<path d="M50.129 466.997C50.129 466.997 47.6046 462.409 50.4701 452.431C53.3356 442.452 55.4506 436.517 55.4506 436.517C55.4506 436.517 64.4906 445.301 62.0685 455.006C60.1854 461.95 57.7206 468.722 54.7001 475.252L50.129 466.997Z" fill="#94C868"/>
<path d="M29.7124 451.083C29.7124 451.083 26.7105 446.785 16.4766 444.977C6.24268 443.169 0 442.436 0 442.436C0 442.436 3.90594 454.375 13.6452 456.524C20.715 457.887 27.887 458.652 35.0852 458.81L29.7124 451.083Z" fill="#94C868"/>
<path d="M59.6639 478.782C59.6639 478.782 56.2526 474.825 45.8652 474.109C35.4778 473.392 29.201 473.324 29.201 473.324C29.201 473.324 34.3179 484.82 44.296 485.895C51.4644 486.491 58.6699 486.491 65.8383 485.895L59.6639 478.782Z" fill="#94C868"/>
<path d="M77.9141 516.768C77.9141 516.768 75.3727 512.18 65.4117 509.297C55.4507 506.415 49.2762 505.033 49.2762 505.033C49.2762 505.033 51.9029 517.365 61.4034 520.486C68.2853 522.587 75.3317 524.105 82.4682 525.023L77.9141 516.768Z" fill="#94C868"/>
<path d="M82.996 525.705C82.996 525.705 79.8406 521.527 81.2904 511.259C82.7402 500.991 83.9683 494.782 83.9683 494.782C83.9683 494.782 94.2022 502.185 93.1447 512.163C92.2618 519.302 90.7783 526.354 88.71 533.244L82.996 525.705Z" fill="#94C868"/>
<path d="M110.287 560.347C110.287 560.347 109.161 555.23 114.721 546.48C120.282 537.73 123.983 532.596 123.983 532.596C123.983 532.596 130.192 543.581 125.126 552.211C121.358 558.344 117.079 564.146 112.333 569.558L110.287 560.347Z" fill="#94C868"/>
<path d="M104.062 548.902C104.062 548.902 101.538 544.314 91.5596 541.449C81.5816 538.583 75.4412 537.167 75.4412 537.167C75.4412 537.167 78.0509 549.499 87.5684 552.638C94.449 554.758 101.495 556.299 108.633 557.243L104.062 548.902Z" fill="#94C868"/>
<path d="M113.136 575.476C113.136 575.476 111.857 570.359 102.902 565.089C93.9476 559.818 88.3872 556.868 88.3872 556.868C88.3872 556.868 87.7902 569.455 96.1991 574.896C102.323 578.669 108.754 581.921 115.422 584.619L113.136 575.476Z" fill="#94C868"/>
<path d="M23.7603 442.64C26.7256 447.234 29.9369 451.663 33.3802 455.91C43.1706 467.628 54.1891 472.592 63.2802 483.03C72.3713 493.469 73.5141 512.777 83.8503 526.917C94.1866 541.056 104.813 546.242 108.719 557.345C112.625 568.449 118.953 600.839 118.953 600.839" stroke="#263238" stroke-width="0.5" stroke-linecap="round" stroke-linejoin="round"/>
<path d="M31.4526 454.102L21.5939 452.601" stroke="#263238" stroke-width="0.5" stroke-linecap="round" stroke-linejoin="round"/>
<path d="M27.7512 448.149L27.8024 441.412" stroke="#263238" stroke-width="0.5" stroke-linecap="round" stroke-linejoin="round"/>
<path d="M62.5803 482.706C62.5803 482.706 54.3931 481.563 46.0355 480.506" stroke="#263238" stroke-width="0.5" stroke-linecap="round" stroke-linejoin="round"/>
<path d="M54.7008 475.252C54.4999 468.075 55.0371 460.896 56.3042 453.829" stroke="#263238" stroke-width="0.5" stroke-linecap="round" stroke-linejoin="round"/>
<path d="M81.291 523.42C74.6125 519.149 67.3506 515.869 59.7316 513.68" stroke="#263238" stroke-width="0.5" stroke-linecap="round" stroke-linejoin="round"/>
<path d="M85.9813 529.236C85.4492 524.137 85.3465 519.002 85.6743 513.885C86.3054 507.063 86.4247 506.125 86.4247 506.125" stroke="#263238" stroke-width="0.5" stroke-linecap="round" stroke-linejoin="round"/>
<path d="M111.26 565.89C112.79 561.597 114.696 557.448 116.956 553.49C118.5 551.236 119.863 548.863 121.033 546.395" stroke="#263238" stroke-width="0.5" stroke-linecap="round" stroke-linejoin="round"/>
<path d="M108.719 557.345C105.243 554.508 101.553 551.942 97.6833 549.67C93.9395 547.651 90.0378 545.94 86.0167 544.553" stroke="#263238" stroke-width="0.5" stroke-linecap="round" stroke-linejoin="round"/>
<path d="M115.455 584.619C113.867 580.95 111.329 577.771 108.104 575.408C103.123 572.082 97 567.477 94.4586 565.686" stroke="#263238" stroke-width="0.5" stroke-linecap="round" stroke-linejoin="round"/>
<path d="M513.076 341.648H392.982C388.733 341.648 385.289 345.092 385.289 349.341V608.378C385.289 612.626 388.733 616.07 392.982 616.07H513.076C517.325 616.07 520.769 612.626 520.769 608.378V349.341C520.769 345.092 517.325 341.648 513.076 341.648Z" fill="white" stroke="#263238" stroke-width="1.01" stroke-linecap="round" stroke-linejoin="round"/>
<path d="M509.443 377.655H396.632C392.383 377.655 388.939 381.099 388.939 385.347V601.828C388.939 606.077 392.383 609.521 396.632 609.521H509.443C513.692 609.521 517.136 606.077 517.136 601.828V385.347C517.136 381.099 513.692 377.655 509.443 377.655Z" fill="#FFA45A"/>
<path opacity="0.5" d="M509.443 377.655H396.632C392.383 377.655 388.939 381.099 388.939 385.347V601.828C388.939 606.077 392.383 609.521 396.632 609.521H509.443C513.692 609.521 517.136 606.077 517.136 601.828V385.347C517.136 381.099 513.692 377.655 509.443 377.655Z" fill="white"/>
<path d="M485.275 282.462H420.819V341.648H485.275V282.462Z" fill="#263238" stroke="#263238" stroke-width="1.01" stroke-linecap="round" stroke-linejoin="round"/>
<path d="M426.191 288.312V335.269" stroke="white" stroke-width="1.01" stroke-linecap="round" stroke-linejoin="round"/>
<path d="M436.151 288.312V335.269" stroke="white" stroke-width="1.01" stroke-linecap="round" stroke-linejoin="round"/>
<path d="M450.377 303.254V335.269" stroke="white" stroke-width="1.01" stroke-linecap="round" stroke-linejoin="round"/>
<path d="M450.377 288.312V296.141" stroke="white" stroke-width="1.01" stroke-linecap="round" stroke-linejoin="round"/>
<path d="M513.042 399.88H393.033V532.323H513.042V399.88Z" fill="white"/>
<path d="M452.236 513.971C476.785 513.971 496.685 494.07 496.685 469.521C496.685 444.973 476.785 425.072 452.236 425.072C427.687 425.072 407.787 444.973 407.787 469.521C407.787 494.07 427.687 513.971 452.236 513.971Z" fill="#263238"/>
<path d="M460.372 438.939H444.101V500.103H460.372V438.939Z" fill="#FFA45A"/>
<path d="M482.818 477.657V461.385H421.654V477.657H482.818Z" fill="#FFA45A"/>
<path d="M576.847 492.454H387.912C383.438 492.454 379.81 496.081 379.81 500.556V610.451C379.81 614.925 383.438 618.553 387.912 618.553H576.847C581.321 618.553 584.949 614.925 584.949 610.451V500.556C584.949 496.081 581.321 492.454 576.847 492.454Z" fill="white" stroke="#263238" stroke-linecap="round" stroke-linejoin="round"/>
<path d="M399.442 547.205C397.434 547.205 395.508 546.407 394.087 544.987C392.667 543.567 391.869 541.641 391.869 539.632V519.164C391.867 518.168 392.061 517.182 392.441 516.261C392.82 515.34 393.378 514.503 394.081 513.798C394.785 513.093 395.62 512.534 396.54 512.152C397.46 511.771 398.446 511.574 399.442 511.574C401.455 511.574 403.386 512.374 404.809 513.797C406.233 515.221 407.032 517.151 407.032 519.164V539.632C407.032 540.628 406.836 541.614 406.454 542.534C406.073 543.454 405.513 544.29 404.808 544.993C404.103 545.697 403.266 546.254 402.346 546.634C401.425 547.013 400.438 547.208 399.442 547.205Z" fill="#263238" stroke="#263238" stroke-width="1.01" stroke-linecap="round" stroke-linejoin="round"/>
<path d="M404.577 518.465V531.155" stroke="white" stroke-width="1.01" stroke-linecap="round" stroke-linejoin="round"/>
<path d="M404.577 534.43V541.389" stroke="white" stroke-width="1.01" stroke-linecap="round" stroke-linejoin="round"/>
<path d="M432.584 547.205C430.575 547.205 428.649 546.407 427.229 544.987C425.808 543.567 425.011 541.641 425.011 539.632V519.164C425.008 518.168 425.203 517.182 425.582 516.261C425.962 515.34 426.519 514.503 427.223 513.798C427.926 513.093 428.762 512.534 429.682 512.152C430.602 511.771 431.588 511.574 432.584 511.574C433.58 511.574 434.566 511.771 435.486 512.152C436.406 512.534 437.241 513.093 437.945 513.798C438.648 514.503 439.206 515.34 439.585 516.261C439.965 517.182 440.159 518.168 440.157 519.164V539.632C440.157 541.641 439.359 543.567 437.939 544.987C436.518 546.407 434.592 547.205 432.584 547.205Z" fill="#263238" stroke="#263238" stroke-width="1.01" stroke-linecap="round" stroke-linejoin="round"/>
<path d="M437.735 518.465V531.155" stroke="white" stroke-width="1.01" stroke-linecap="round" stroke-linejoin="round"/>
<path d="M437.735 534.43V541.389" stroke="white" stroke-width="1.01" stroke-linecap="round" stroke-linejoin="round"/>
<path d="M465.793 547.205C463.784 547.205 461.858 546.407 460.438 544.987C459.017 543.567 458.219 541.641 458.219 539.632V519.164C458.217 518.168 458.411 517.182 458.791 516.261C459.171 515.34 459.728 514.503 460.432 513.798C461.135 513.093 461.971 512.534 462.891 512.152C463.81 511.771 464.797 511.574 465.793 511.574C466.789 511.574 467.775 511.771 468.695 512.152C469.615 512.534 470.45 513.093 471.154 513.798C471.857 514.503 472.414 515.34 472.794 516.261C473.174 517.182 473.368 518.168 473.366 519.164V539.632C473.366 541.641 472.568 543.567 471.148 544.987C469.727 546.407 467.801 547.205 465.793 547.205Z" fill="#263238" stroke="#263238" stroke-width="1.01" stroke-linecap="round" stroke-linejoin="round"/>
<path d="M470.91 518.465V531.155" stroke="white" stroke-width="1.01" stroke-linecap="round" stroke-linejoin="round"/>
<path d="M470.91 534.43V541.389" stroke="white" stroke-width="1.01" stroke-linecap="round" stroke-linejoin="round"/>
<path d="M498.967 547.205C496.958 547.205 495.032 546.407 493.612 544.987C492.192 543.567 491.394 541.641 491.394 539.632V519.164C491.391 518.168 491.586 517.182 491.965 516.261C492.345 515.34 492.902 514.503 493.606 513.798C494.309 513.093 495.145 512.534 496.065 512.152C496.985 511.771 497.971 511.574 498.967 511.574C499.963 511.574 500.949 511.771 501.869 512.152C502.789 512.534 503.624 513.093 504.328 513.798C505.031 514.503 505.589 515.34 505.968 516.261C506.348 517.182 506.542 518.168 506.54 519.164V539.632C506.54 541.641 505.742 543.567 504.322 544.987C502.901 546.407 500.975 547.205 498.967 547.205Z" fill="#263238" stroke="#263238" stroke-width="1.01" stroke-linecap="round" stroke-linejoin="round"/>
<path d="M504.084 518.465V531.155" stroke="white" stroke-width="1.01" stroke-linecap="round" stroke-linejoin="round"/>
<path d="M504.084 534.43V541.389" stroke="white" stroke-width="1.01" stroke-linecap="round" stroke-linejoin="round"/>
<path d="M532.142 547.205C531.146 547.208 530.16 547.013 529.239 546.634C528.318 546.254 527.481 545.697 526.776 544.993C526.071 544.29 525.512 543.454 525.13 542.534C524.748 541.614 524.552 540.628 524.552 539.632V519.164C524.552 517.151 525.352 515.221 526.775 513.797C528.199 512.374 530.129 511.574 532.142 511.574C533.138 511.574 534.124 511.771 535.044 512.152C535.964 512.534 536.8 513.093 537.503 513.798C538.207 514.503 538.764 515.34 539.144 516.261C539.523 517.182 539.717 518.168 539.715 519.164V539.632C539.715 541.641 538.917 543.567 537.497 544.987C536.077 546.407 534.151 547.205 532.142 547.205Z" fill="#263238" stroke="#263238" stroke-width="1.01" stroke-linecap="round" stroke-linejoin="round"/>
<path d="M537.259 518.465V531.155" stroke="white" stroke-width="1.01" stroke-linecap="round" stroke-linejoin="round"/>
<path d="M537.259 534.43V541.389" stroke="white" stroke-width="1.01" stroke-linecap="round" stroke-linejoin="round"/>
<path d="M565.301 547.205C563.292 547.205 561.366 546.407 559.946 544.987C558.525 543.567 557.728 541.641 557.728 539.632V519.164C557.725 518.168 557.92 517.182 558.299 516.261C558.679 515.34 559.236 514.503 559.94 513.798C560.643 513.093 561.479 512.534 562.399 512.152C563.319 511.771 564.305 511.574 565.301 511.574C566.297 511.574 567.283 511.771 568.203 512.152C569.123 512.534 569.958 513.093 570.662 513.798C571.365 514.503 571.923 515.34 572.302 516.261C572.682 517.182 572.876 518.168 572.874 519.164V539.632C572.874 541.641 572.076 543.567 570.656 544.987C569.235 546.407 567.309 547.205 565.301 547.205Z" fill="#263238" stroke="#263238" stroke-width="1.01" stroke-linecap="round" stroke-linejoin="round"/>
<path d="M570.418 518.465V531.155" stroke="white" stroke-width="1.01" stroke-linecap="round" stroke-linejoin="round"/>
<path d="M570.418 534.43V541.389" stroke="white" stroke-width="1.01" stroke-linecap="round" stroke-linejoin="round"/>
<path d="M399.442 601.581C397.434 601.581 395.508 600.783 394.087 599.363C392.667 597.943 391.869 596.017 391.869 594.008V573.54C391.869 571.532 392.667 569.606 394.087 568.185C395.508 566.765 397.434 565.967 399.442 565.967C400.438 565.965 401.425 566.159 402.346 566.539C403.266 566.918 404.103 567.476 404.808 568.179C405.513 568.883 406.073 569.718 406.454 570.638C406.836 571.558 407.032 572.544 407.032 573.54V594.008C407.032 595.004 406.836 595.99 406.454 596.91C406.073 597.83 405.513 598.666 404.808 599.369C404.103 600.073 403.266 600.63 402.346 601.01C401.425 601.389 400.438 601.584 399.442 601.581Z" fill="#263238" stroke="#263238" stroke-width="1.01" stroke-linecap="round" stroke-linejoin="round"/>
<path d="M404.577 572.926V585.616" stroke="white" stroke-width="1.01" stroke-linecap="round" stroke-linejoin="round"/>
<path d="M404.577 588.892V595.851" stroke="white" stroke-width="1.01" stroke-linecap="round" stroke-linejoin="round"/>
<path d="M432.584 601.581C430.575 601.581 428.649 600.783 427.229 599.363C425.808 597.943 425.01 596.017 425.01 594.008V573.54C425.01 571.532 425.808 569.606 427.229 568.185C428.649 566.765 430.575 565.967 432.584 565.967C433.579 565.965 434.565 566.159 435.484 566.539C436.404 566.919 437.24 567.477 437.944 568.18C438.647 568.884 439.205 569.72 439.585 570.64C439.965 571.559 440.159 572.545 440.157 573.54V594.008C440.159 595.003 439.965 595.989 439.585 596.909C439.205 597.829 438.647 598.664 437.944 599.368C437.24 600.072 436.404 600.63 435.484 601.009C434.565 601.389 433.579 601.584 432.584 601.581Z" fill="#263238" stroke="#263238" stroke-width="1.01" stroke-linecap="round" stroke-linejoin="round"/>
<path d="M437.735 572.926V585.616" stroke="white" stroke-width="1.01" stroke-linecap="round" stroke-linejoin="round"/>
<path d="M437.735 588.892V595.851" stroke="white" stroke-width="1.01" stroke-linecap="round" stroke-linejoin="round"/>
<path d="M465.793 601.581C463.784 601.581 461.858 600.783 460.438 599.363C459.017 597.943 458.219 596.017 458.219 594.008V573.54C458.219 571.532 459.017 569.606 460.438 568.185C461.858 566.765 463.784 565.967 465.793 565.967C467.801 565.967 469.727 566.765 471.148 568.185C472.568 569.606 473.366 571.532 473.366 573.54V594.008C473.366 596.017 472.568 597.943 471.148 599.363C469.727 600.783 467.801 601.581 465.793 601.581Z" fill="#263238" stroke="#263238" stroke-width="1.01" stroke-linecap="round" stroke-linejoin="round"/>
<path d="M470.91 572.926V585.616" stroke="white" stroke-width="1.01" stroke-linecap="round" stroke-linejoin="round"/>
<path d="M470.91 588.892V595.851" stroke="white" stroke-width="1.01" stroke-linecap="round" stroke-linejoin="round"/>
<path d="M498.967 601.581C497.972 601.584 496.986 601.389 496.066 601.009C495.146 600.63 494.31 600.072 493.607 599.368C492.903 598.664 492.345 597.829 491.965 596.909C491.586 595.989 491.391 595.003 491.394 594.008V573.54C491.391 572.545 491.586 571.559 491.965 570.64C492.345 569.72 492.903 568.884 493.607 568.18C494.31 567.477 495.146 566.919 496.066 566.539C496.986 566.159 497.972 565.965 498.967 565.967C500.975 565.967 502.901 566.765 504.322 568.185C505.742 569.606 506.54 571.532 506.54 573.54V594.008C506.54 596.017 505.742 597.943 504.322 599.363C502.901 600.783 500.975 601.581 498.967 601.581Z" fill="#263238" stroke="#263238" stroke-width="1.01" stroke-linecap="round" stroke-linejoin="round"/>
<path d="M504.084 572.926V585.616" stroke="white" stroke-width="1.01" stroke-linecap="round" stroke-linejoin="round"/>
<path d="M504.084 588.892V595.851" stroke="white" stroke-width="1.01" stroke-linecap="round" stroke-linejoin="round"/>
<path d="M532.142 601.581C531.146 601.584 530.16 601.389 529.239 601.01C528.318 600.63 527.481 600.073 526.776 599.369C526.071 598.666 525.512 597.83 525.13 596.91C524.748 595.99 524.552 595.004 524.552 594.008V573.54C524.552 572.544 524.748 571.558 525.13 570.638C525.512 569.718 526.071 568.883 526.776 568.179C527.481 567.476 528.318 566.918 529.239 566.539C530.16 566.159 531.146 565.965 532.142 565.967C534.151 565.967 536.077 566.765 537.497 568.185C538.917 569.606 539.715 571.532 539.715 573.54V594.008C539.715 596.017 538.917 597.943 537.497 599.363C536.077 600.783 534.151 601.581 532.142 601.581Z" fill="#263238" stroke="#263238" stroke-width="1.01" stroke-linecap="round" stroke-linejoin="round"/>
<path d="M537.259 572.926V585.616" stroke="white" stroke-width="1.01" stroke-linecap="round" stroke-linejoin="round"/>
<path d="M537.259 588.892V595.851" stroke="white" stroke-width="1.01" stroke-linecap="round" stroke-linejoin="round"/>
<path d="M565.301 601.581C563.292 601.581 561.366 600.783 559.946 599.363C558.525 597.943 557.727 596.017 557.727 594.008V573.54C557.727 571.532 558.525 569.606 559.946 568.185C561.366 566.765 563.292 565.967 565.301 565.967C566.296 565.965 567.282 566.159 568.201 566.539C569.121 566.919 569.957 567.477 570.661 568.18C571.364 568.884 571.922 569.72 572.302 570.64C572.682 571.559 572.876 572.545 572.874 573.54V594.008C572.876 595.003 572.682 595.989 572.302 596.909C571.922 597.829 571.364 598.664 570.661 599.368C569.957 600.072 569.121 600.63 568.201 601.009C567.282 601.389 566.296 601.584 565.301 601.581Z" fill="#263238" stroke="#263238" stroke-width="1.01" stroke-linecap="round" stroke-linejoin="round"/>
<path d="M570.418 572.926V585.616" stroke="white" stroke-width="1.01" stroke-linecap="round" stroke-linejoin="round"/>
<path d="M570.418 588.892V595.851" stroke="white" stroke-width="1.01" stroke-linecap="round" stroke-linejoin="round"/>
<path d="M416.227 499.004V503.268" stroke="#263238" stroke-width="0.5" stroke-linecap="round" stroke-linejoin="round"/>
<path d="M416.227 511.182V602.178" stroke="#263238" stroke-width="0.5" stroke-linecap="round" stroke-linejoin="round" stroke-dasharray="4.64 4.64"/>
<path d="M416.227 606.135V610.399" stroke="#263238" stroke-width="0.5" stroke-linecap="round" stroke-linejoin="round"/>
<path d="M449.401 499.004V503.268" stroke="#263238" stroke-width="0.5" stroke-linecap="round" stroke-linejoin="round"/>
<path d="M449.401 511.182V602.178" stroke="#263238" stroke-width="0.5" stroke-linecap="round" stroke-linejoin="round" stroke-dasharray="4.64 4.64"/>
<path d="M449.401 606.135V610.399" stroke="#263238" stroke-width="0.5" stroke-linecap="round" stroke-linejoin="round"/>
<path d="M482.577 499.004V503.268" stroke="#263238" stroke-width="0.5" stroke-linecap="round" stroke-linejoin="round"/>
<path d="M482.577 511.182V602.178" stroke="#263238" stroke-width="0.5" stroke-linecap="round" stroke-linejoin="round" stroke-dasharray="4.64 4.64"/>
<path d="M482.577 606.135V610.399" stroke="#263238" stroke-width="0.5" stroke-linecap="round" stroke-linejoin="round"/>
<path d="M515.734 499.004V503.268" stroke="#263238" stroke-width="0.5" stroke-linecap="round" stroke-linejoin="round"/>
<path d="M515.734 511.182V602.178" stroke="#263238" stroke-width="0.5" stroke-linecap="round" stroke-linejoin="round" stroke-dasharray="4.64 4.64"/>
<path d="M515.734 606.135V610.399" stroke="#263238" stroke-width="0.5" stroke-linecap="round" stroke-linejoin="round"/>
<path d="M548.909 499.004V503.268" stroke="#263238" stroke-width="0.5" stroke-linecap="round" stroke-linejoin="round"/>
<path d="M548.909 511.182V602.178" stroke="#263238" stroke-width="0.5" stroke-linecap="round" stroke-linejoin="round" stroke-dasharray="4.64 4.64"/>
<path d="M548.909 606.135V610.399" stroke="#263238" stroke-width="0.5" stroke-linecap="round" stroke-linejoin="round"/>
<path d="M385.1 555.512H578.81" stroke="#263238" stroke-width="0.5" stroke-linecap="round" stroke-linejoin="round" stroke-dasharray="5 5"/>
<path d="M349.453 77.4098H123.096C109.418 77.4098 98.33 88.4979 98.33 102.176V591.049C98.33 604.727 109.418 615.815 123.096 615.815H349.453C363.131 615.815 374.219 604.727 374.219 591.049V102.176C374.219 88.4979 363.131 77.4098 349.453 77.4098Z" fill="#263238"/>
<mask id="mask0_1_361" style="mask-type:luminance" maskUnits="userSpaceOnUse" x="98" y="77" width="277" height="539">
<path d="M349.453 77.4098H123.096C109.418 77.4098 98.33 88.4979 98.33 102.176V591.049C98.33 604.727 109.418 615.815 123.096 615.815H349.453C363.131 615.815 374.219 604.727 374.219 591.049V102.176C374.219 88.4979 363.131 77.4098 349.453 77.4098Z" fill="white"/>
</mask>
<g mask="url(#mask0_1_361)">
<path opacity="0.2" d="M122.073 77.4099C115.767 77.4099 109.72 79.915 105.261 84.374C100.802 88.833 98.2965 94.8807 98.2965 101.187V592.038C98.2932 595.517 99.0556 598.954 100.529 602.105C102.003 605.256 104.153 608.044 106.825 610.272L267.787 77.4099H122.073Z" fill="white"/>
<path d="M245.665 600.243C245.665 598.387 245.115 596.574 244.084 595.031C243.053 593.488 241.588 592.286 239.874 591.576C238.159 590.866 236.273 590.68 234.454 591.042C232.634 591.404 230.962 592.297 229.65 593.609C228.338 594.921 227.445 596.593 227.083 598.412C226.721 600.232 226.907 602.118 227.617 603.833C228.327 605.547 229.529 607.012 231.072 608.043C232.615 609.074 234.428 609.624 236.284 609.624C238.772 609.624 241.158 608.635 242.917 606.876C244.676 605.117 245.665 602.731 245.665 600.243Z" stroke="white" stroke-linecap="round" stroke-linejoin="round"/>
</g>
<path d="M349.453 77.4098H123.096C109.418 77.4098 98.33 88.4979 98.33 102.176V591.049C98.33 604.727 109.418 615.815 123.096 615.815H349.453C363.131 615.815 374.219 604.727 374.219 591.049V102.176C374.219 88.4979 363.131 77.4098 349.453 77.4098Z" stroke="#263238" stroke-linecap="round" stroke-linejoin="round"/>
<path d="M361.973 113.979H110.612V583.868H361.973V113.979Z" fill="#94C868"/>
<mask id="mask1_1_361" style="mask-type:luminance" maskUnits="userSpaceOnUse" x="110" y="113" width="252" height="471">
<path d="M361.973 113.979H110.612V583.868H361.973V113.979Z" fill="white"/>
</mask>
<g mask="url(#mask1_1_361)">
<path d="M314.812 345.845L274.968 309.839L236.284 310.504L197.6 309.839L157.756 345.845L63.5361 407.897V590.981H231.304H241.265H409.032V407.897L314.812 345.845Z" fill="white" stroke="#263238" stroke-width="1.01" stroke-linecap="round" stroke-linejoin="round"/>
<path d="M233.059 481.291L215.883 505.647C215.883 505.647 236.351 496.369 256.068 488.335C275.786 480.302 300.569 454.956 306.129 445.694C311.69 436.432 319.774 422.821 319.774 422.821L295.008 403.735H321.634C321.634 403.735 321.003 374.739 312.969 351.184" stroke="#263238" stroke-width="1.01" stroke-linecap="round" stroke-linejoin="round"/>
<path d="M225.213 491.934C222.33 490.723 219.413 489.512 216.497 488.335C196.728 480.302 171.996 454.956 166.436 445.694C160.876 436.432 152.791 422.821 152.791 422.821L177.574 403.735H151.068C151.068 403.735 151.699 374.739 159.733 351.184" stroke="#263238" stroke-width="1.01" stroke-linecap="round" stroke-linejoin="round"/>
<path d="M194.171 312.568C194.171 312.568 186.478 434.709 233.06 481.291C233.06 481.291 282.2 447.553 282.2 314.035L194.171 312.568Z" fill="white"/>
<mask id="mask2_1_361" style="mask-type:luminance" maskUnits="userSpaceOnUse" x="193" y="312" width="90" height="170">
<path d="M194.171 312.568C194.171 312.568 186.478 434.709 233.06 481.291C233.06 481.291 282.2 447.553 282.2 314.035L194.171 312.568Z" fill="white"/>
</mask>
<g mask="url(#mask2_1_361)">
<path d="M220.183 173.574H259.805C271.164 173.574 282.058 178.087 290.09 186.119C298.122 194.151 302.634 205.044 302.634 216.403V305.285C302.636 312.835 301.151 320.313 298.264 327.289C295.376 334.266 291.143 340.606 285.805 345.947C280.468 351.287 274.131 355.524 267.156 358.416C260.18 361.308 252.704 362.797 245.154 362.799H234.92C227.369 362.799 219.892 361.312 212.916 358.423C205.94 355.533 199.602 351.298 194.263 345.959C188.924 340.619 184.688 334.281 181.799 327.305C178.909 320.329 177.422 312.852 177.422 305.302V216.403C177.422 205.044 181.935 194.151 189.966 186.119C197.998 178.087 208.892 173.574 220.251 173.574H220.183Z" fill="#4648BC"/>
<path opacity="0.5" d="M220.183 173.574H259.805C271.164 173.574 282.058 178.087 290.09 186.119C298.122 194.151 302.634 205.044 302.634 216.403V305.285C302.636 312.835 301.151 320.313 298.264 327.289C295.376 334.266 291.143 340.606 285.805 345.947C280.468 351.287 274.131 355.524 267.156 358.416C260.18 361.308 252.704 362.797 245.154 362.799H234.92C227.369 362.799 219.892 361.312 212.916 358.423C205.94 355.533 199.602 351.298 194.263 345.959C188.924 340.619 184.688 334.281 181.799 327.305C178.909 320.329 177.422 312.852 177.422 305.302V216.403C177.422 205.044 181.935 194.151 189.966 186.119C197.998 178.087 208.892 173.574 220.251 173.574H220.183Z" fill="white"/>
</g>
<path d="M194.171 312.568C194.171 312.568 186.478 434.709 233.06 481.291C233.06 481.291 282.2 447.553 282.2 314.035L194.171 312.568Z" stroke="#263238" stroke-width="1.01" stroke-linecap="round" stroke-linejoin="round"/>
<path d="M213.769 302.163C213.769 302.163 209.505 355.465 235.243 375.796C235.243 375.796 262.397 361.076 262.397 302.811L213.769 302.163Z" stroke="#263238" stroke-width="1.01" stroke-linecap="round" stroke-linejoin="round"/>
<path d="M205.173 392.529L235.244 375.796L268.999 399.13" stroke="#263238" stroke-width="1.01" stroke-linecap="round" stroke-linejoin="round"/>
<path d="M243.328 402.797L249.195 385.928L235.243 375.796L216.908 385.928L226.442 401.279L211.398 446.461C216.822 459.97 223.884 472.046 233.06 481.24C233.06 481.24 246.125 472.268 258.781 445.268L243.328 402.797Z" fill="#4648BC" stroke="#263238" stroke-width="1.01" stroke-linecap="round" stroke-linejoin="round"/>
<path d="M303.432 494.89C316.792 492.711 325.857 480.115 323.679 466.755C321.5 453.395 308.904 444.33 295.544 446.508C282.184 448.686 273.119 461.283 275.297 474.643C277.475 488.003 290.072 497.068 303.432 494.89Z" fill="white" stroke="#263238" stroke-width="1.01" stroke-linecap="round" stroke-linejoin="round"/>
<path d="M315.76 477.387C319.46 468.387 315.164 458.091 306.164 454.391C297.164 450.691 286.868 454.987 283.168 463.987C279.468 472.987 283.764 483.282 292.764 486.983C301.764 490.683 312.059 486.387 315.76 477.387Z" fill="white" stroke="#263238" stroke-width="1.01" stroke-linecap="round" stroke-linejoin="round"/>
<path d="M299.461 474.451C298.466 474.451 297.511 474.056 296.808 473.352C296.104 472.648 295.709 471.694 295.709 470.699V326.691C295.709 325.695 296.104 324.741 296.808 324.037C297.511 323.334 298.466 322.938 299.461 322.938C300.456 322.938 301.411 323.334 302.114 324.037C302.818 324.741 303.213 325.695 303.213 326.691V470.699C303.216 471.192 303.12 471.681 302.932 472.137C302.745 472.594 302.468 473.008 302.119 473.357C301.771 473.706 301.356 473.982 300.9 474.17C300.443 474.358 299.954 474.453 299.461 474.451Z" fill="#263238"/>
<path d="M181.037 526.678H180.679C177.268 526.098 144.536 494.27 141.449 485.742C138.362 477.214 139.232 463.569 139.266 463.057C139.298 462.559 139.526 462.095 139.9 461.765C140.274 461.436 140.764 461.269 141.262 461.3C141.759 461.332 142.224 461.56 142.553 461.934C142.883 462.308 143.05 462.798 143.018 463.296C143.018 463.415 142.251 476.685 144.98 484.514C147.487 491.661 176.62 520.196 181.225 522.976C183.783 522.175 193.164 513.766 196.576 505.152C196.666 504.923 196.802 504.713 196.973 504.536C197.145 504.359 197.35 504.217 197.576 504.119C197.803 504.02 198.046 503.968 198.293 503.964C198.54 503.96 198.785 504.004 199.015 504.095C199.244 504.186 199.454 504.321 199.631 504.492C199.809 504.664 199.951 504.869 200.049 505.095C200.147 505.322 200.2 505.566 200.204 505.812C200.208 506.059 200.163 506.304 200.072 506.534C196.525 515.659 185.353 526.678 181.037 526.678Z" fill="white" stroke="#263238" stroke-width="1.01" stroke-linecap="round" stroke-linejoin="round"/>
<path d="M151.956 526.678C147.624 526.678 136.469 515.66 132.853 506.432C132.67 505.969 132.678 505.451 132.877 504.994C133.075 504.536 133.447 504.177 133.911 503.993C134.374 503.81 134.892 503.819 135.349 504.017C135.806 504.215 136.166 504.587 136.35 505.051C139.761 513.664 149.125 522.107 151.7 522.875C156.306 520.095 185.438 491.559 187.945 484.412C190.675 476.584 189.924 463.314 189.907 463.194C189.875 462.697 190.043 462.207 190.372 461.833C190.702 461.458 191.166 461.23 191.664 461.199C192.161 461.167 192.651 461.334 193.025 461.664C193.4 461.993 193.628 462.458 193.659 462.955C193.659 463.535 194.478 477.112 191.476 485.641C188.474 494.169 155.811 526.064 152.246 526.576L151.956 526.678Z" fill="white" stroke="#263238" stroke-width="1.01" stroke-linecap="round" stroke-linejoin="round"/>
<path d="M166.949 399.386C165.956 399.381 165.004 398.984 164.301 398.282C163.598 397.579 163.202 396.627 163.197 395.633V332.814C163.197 331.819 163.592 330.865 164.296 330.161C165 329.457 165.954 329.062 166.949 329.062C167.945 329.062 168.899 329.457 169.603 330.161C170.307 330.865 170.702 331.819 170.702 332.814V395.633C170.702 396.126 170.605 396.614 170.416 397.069C170.228 397.525 169.951 397.938 169.603 398.287C169.254 398.635 168.841 398.911 168.385 399.1C167.93 399.289 167.442 399.386 166.949 399.386Z" fill="#263238"/>
<path d="M191.459 470.63C190.466 470.626 189.514 470.229 188.811 469.526C188.108 468.823 187.711 467.871 187.707 466.878V421.678C187.707 415.969 185.439 410.494 181.402 406.457C177.366 402.42 171.891 400.153 166.182 400.153C160.473 400.153 154.998 402.42 150.961 406.457C146.924 410.494 144.656 415.969 144.656 421.678V466.843C144.656 467.839 144.261 468.793 143.557 469.497C142.854 470.201 141.899 470.596 140.904 470.596C139.909 470.596 138.954 470.201 138.251 469.497C137.547 468.793 137.151 467.839 137.151 466.843V421.644C137.151 413.954 140.206 406.578 145.644 401.14C151.082 395.703 158.457 392.648 166.148 392.648C173.838 392.648 181.213 395.703 186.651 401.14C192.089 406.578 195.144 413.954 195.144 421.644V466.843C195.148 467.832 194.765 468.782 194.076 469.49C193.387 470.198 192.447 470.608 191.459 470.63Z" fill="#263238"/>
<path d="M129.386 499.445L128.753 499.937C126.849 501.416 126.504 504.16 127.983 506.064L130.756 509.634C132.236 511.538 134.979 511.883 136.883 510.403L137.516 509.911C139.421 508.432 139.765 505.689 138.286 503.785L135.513 500.215C134.034 498.311 131.291 497.966 129.386 499.445Z" fill="white" stroke="#263238" stroke-width="1.01" stroke-linecap="round" stroke-linejoin="round"/>
<path d="M194.819 509.889L195.452 510.381C197.357 511.861 200.1 511.516 201.579 509.612L204.352 506.042C205.831 504.137 205.487 501.394 203.582 499.915L202.949 499.423C201.045 497.944 198.302 498.288 196.822 500.193L194.049 503.762C192.57 505.667 192.915 508.41 194.819 509.889Z" fill="white" stroke="#263238" stroke-width="1.01" stroke-linecap="round" stroke-linejoin="round"/>
<path d="M174.113 233.63H172.527C167.61 233.63 163.624 237.616 163.624 242.534V258.516C163.624 263.433 167.61 267.419 172.527 267.419H174.113C179.031 267.419 183.017 263.433 183.017 258.516V242.534C183.017 237.616 179.031 233.63 174.113 233.63Z" fill="white" stroke="#263238" stroke-width="1.01" stroke-linecap="round" stroke-linejoin="round"/>
<path d="M305.175 233.63H303.589C298.672 233.63 294.685 237.616 294.685 242.534V258.516C294.685 263.433 298.672 267.419 303.589 267.419H305.175C310.092 267.419 314.079 263.433 314.079 258.516V242.534C314.079 237.616 310.092 233.63 305.175 233.63Z" fill="white" stroke="#263238" stroke-width="1.01" stroke-linecap="round" stroke-linejoin="round"/>
<path d="M220.181 148.979H259.804C271.163 148.979 282.056 153.491 290.088 161.523C298.12 169.555 302.633 180.449 302.633 191.808V280.689C302.633 295.938 296.575 310.563 285.792 321.346C275.009 332.129 260.384 338.187 245.135 338.187H234.901C227.351 338.187 219.874 336.699 212.898 333.81C205.922 330.92 199.583 326.685 194.244 321.346C188.905 316.007 184.67 309.668 181.78 302.692C178.891 295.717 177.404 288.24 177.404 280.689V191.808C177.404 180.458 181.909 169.572 189.93 161.541C197.951 153.511 208.831 148.992 220.181 148.979Z" fill="white" stroke="#263238" stroke-width="1.01" stroke-linecap="round" stroke-linejoin="round"/>
<path d="M225.265 223.772H205.514C203.734 223.772 202.29 225.215 202.29 226.995V227.575C202.29 229.356 203.734 230.799 205.514 230.799H225.265C227.046 230.799 228.489 229.356 228.489 227.575V226.995C228.489 225.215 227.046 223.772 225.265 223.772Z" fill="#263238" stroke="#263238" stroke-width="1.01" stroke-linecap="round" stroke-linejoin="round"/>
<path d="M277.032 223.772H257.281C255.5 223.772 254.057 225.215 254.057 226.995V227.575C254.057 229.356 255.5 230.799 257.281 230.799H277.032C278.813 230.799 280.256 229.356 280.256 227.575V226.995C280.256 225.215 278.813 223.772 277.032 223.772Z" fill="#263238" stroke="#263238" stroke-width="1.01" stroke-linecap="round" stroke-linejoin="round"/>
<path d="M222.707 245.195C222.707 249.254 220.848 252.529 218.545 252.529C216.243 252.529 214.401 249.254 214.401 245.195C214.401 241.135 216.26 237.843 218.545 237.843C220.831 237.843 222.707 241.135 222.707 245.195Z" fill="#263238" stroke="#263238" stroke-width="1.01" stroke-linecap="round" stroke-linejoin="round"/>
<path d="M269.406 245.195C269.406 249.254 267.547 252.529 265.244 252.529C262.942 252.529 261.083 249.254 261.083 245.195C261.083 241.135 262.942 237.843 265.244 237.843C267.547 237.843 269.406 241.135 269.406 245.195Z" fill="#263238" stroke="#263238" stroke-width="1.01" stroke-linecap="round" stroke-linejoin="round"/>
<path d="M262.397 148.979H217.589C206.918 148.979 196.684 153.218 189.138 160.764C181.592 168.31 177.353 178.544 177.353 189.215V283.759C177.353 298.194 183.087 312.038 193.295 322.245C203.502 332.452 217.345 338.187 231.78 338.187H248.291C255.439 338.189 262.518 336.783 269.122 334.048C275.727 331.314 281.728 327.305 286.782 322.25C291.837 317.196 295.846 311.195 298.58 304.59C301.314 297.986 302.721 290.908 302.718 283.759V189.215C302.718 183.924 301.675 178.685 299.647 173.798C297.62 168.911 294.649 164.471 290.903 160.734C287.158 156.996 282.712 154.034 277.821 152.017C272.929 150 267.688 148.968 262.397 148.979ZM293.099 270.438C293.099 270.438 293.099 281.934 281.603 293.447C281.603 293.447 269.458 277.466 264.341 276.186C261.032 275.368 248.718 275.606 240.36 275.879C232.019 275.606 219.687 275.368 216.481 276.186C211.364 277.466 199.22 293.447 199.22 293.447C187.724 281.934 187.724 270.438 187.724 270.438V218.024L193.71 210.144C196 207.214 197.313 203.64 197.462 199.925C197.612 196.21 196.592 192.541 194.546 189.437C192.396 186.14 191.46 182.197 191.898 178.285C192.337 174.373 194.124 170.736 196.951 167.997L197.071 167.895C199.809 165.246 203.36 163.596 207.151 163.213C210.941 162.829 214.751 163.733 217.965 165.78L226.902 172.79C230.8 175.833 235.603 177.486 240.548 177.486C245.492 177.486 250.295 175.833 254.193 172.79L263.096 165.78C266.327 163.721 270.158 162.81 273.97 163.194C277.782 163.577 281.354 165.233 284.11 167.895L284.212 167.997C287.043 170.789 288.816 174.478 289.227 178.432C289.638 182.387 288.661 186.362 286.464 189.676C284.488 192.771 283.524 196.403 283.704 200.07C283.885 203.737 285.201 207.257 287.47 210.144L293.661 218.024L293.099 270.438Z" fill="#263238" stroke="#263238" stroke-width="1.01" stroke-linecap="round" stroke-linejoin="round"/>
<path d="M249.587 268.255C249.587 268.255 257.263 267.232 257.263 271.667C257.263 276.101 252.777 279.325 243.839 276.135" fill="white"/>
<path d="M249.587 268.255C249.587 268.255 257.263 267.232 257.263 271.667C257.263 276.101 252.777 279.325 243.839 276.135" stroke="#263238" stroke-width="1.01" stroke-linecap="round" stroke-linejoin="round"/>
<path d="M248.939 232.078V269.159C248.939 271.192 248.133 273.142 246.697 274.581C245.261 276.019 243.313 276.83 241.281 276.835H234.458C229.58 277.176 227.874 275.982 227.294 273.918C227.113 273.231 227.077 272.513 227.189 271.811C227.301 271.11 227.557 270.439 227.942 269.841C227.942 267.931 236.095 267.931 236.095 267.931" fill="white"/>
<path d="M248.939 232.078V269.159C248.939 271.192 248.133 273.142 246.697 274.581C245.261 276.019 243.313 276.83 241.281 276.835H234.458C229.58 277.176 227.874 275.982 227.294 273.918C227.113 273.231 227.077 272.513 227.189 271.811C227.301 271.11 227.557 270.439 227.942 269.841C227.942 267.931 236.095 267.931 236.095 267.931" stroke="#263238" stroke-width="1.01" stroke-linecap="round" stroke-linejoin="round"/>
<path d="M240.906 297.985C233.787 298.024 226.782 296.195 220.592 292.68C219.983 292.272 219.557 291.643 219.405 290.926C219.253 290.209 219.387 289.461 219.778 288.841C220.169 288.221 220.787 287.778 221.499 287.606C222.212 287.434 222.963 287.548 223.594 287.921C228.955 290.85 234.972 292.371 241.081 292.341C247.191 292.311 253.193 290.732 258.525 287.751C258.852 287.558 259.215 287.434 259.592 287.385C259.968 287.337 260.351 287.365 260.716 287.468C261.081 287.571 261.422 287.747 261.718 287.985C262.013 288.223 262.257 288.519 262.436 288.854C262.614 289.189 262.723 289.556 262.756 289.934C262.789 290.313 262.744 290.693 262.626 291.054C262.508 291.415 262.318 291.748 262.067 292.033C261.817 292.318 261.511 292.55 261.169 292.714C254.958 296.128 247.993 297.939 240.906 297.985Z" fill="white" stroke="#263238" stroke-width="1.01" stroke-linecap="round" stroke-linejoin="round"/>
<path d="M261.442 256.281H273.825" stroke="#263238" stroke-width="1.01" stroke-linecap="round" stroke-linejoin="round"/>
<path d="M212.251 256.281H224.634" stroke="#263238" stroke-width="1.01" stroke-linecap="round" stroke-linejoin="round"/>
<path d="M163.196 573.003C175.424 573.003 185.336 563.091 185.336 550.864C185.336 538.637 175.424 528.725 163.196 528.725C150.969 528.725 141.057 538.637 141.057 550.864C141.057 563.091 150.969 573.003 163.196 573.003Z" stroke="#263238" stroke-width="0.724166" stroke-linecap="round" stroke-linejoin="round"/>
<path d="M163.162 556.34C161.977 556.34 160.84 555.869 160.002 555.031C159.164 554.193 158.694 553.056 158.694 551.871V537.714C158.694 536.529 159.164 535.392 160.002 534.554C160.84 533.716 161.977 533.245 163.162 533.245C164.348 533.245 165.484 533.716 166.322 534.554C167.16 535.392 167.631 536.529 167.631 537.714V551.871C167.631 553.056 167.16 554.193 166.322 555.031C165.484 555.869 164.348 556.34 163.162 556.34Z" fill="#263238"/>
<path d="M163.196 559.563C161.103 559.558 159.097 558.725 157.617 557.245C156.137 555.765 155.304 553.759 155.299 551.666V545.014C155.299 544.797 155.385 544.588 155.539 544.435C155.693 544.281 155.901 544.195 156.118 544.195C156.226 544.193 156.334 544.212 156.434 544.253C156.534 544.293 156.626 544.353 156.702 544.43C156.778 544.506 156.839 544.597 156.879 544.698C156.919 544.798 156.939 544.906 156.937 545.014V551.666C157.02 553.272 157.717 554.784 158.884 555.891C160.05 556.998 161.597 557.615 163.205 557.615C164.813 557.615 166.36 556.998 167.526 555.891C168.692 554.784 169.389 553.272 169.473 551.666V545.014C169.471 544.906 169.49 544.798 169.531 544.698C169.571 544.597 169.631 544.506 169.708 544.43C169.784 544.353 169.875 544.293 169.976 544.253C170.076 544.212 170.184 544.193 170.292 544.195C170.509 544.195 170.717 544.281 170.871 544.435C171.024 544.588 171.111 544.797 171.111 545.014V551.666C171.106 553.762 170.27 555.77 168.787 557.251C167.303 558.731 165.292 559.563 163.196 559.563Z" fill="#263238"/>
<path d="M163.197 568.057C163.09 568.057 162.984 568.036 162.886 567.994C162.788 567.953 162.699 567.892 162.624 567.816C162.549 567.74 162.491 567.65 162.451 567.55C162.412 567.451 162.393 567.345 162.395 567.238V558.71C162.395 558.484 162.485 558.267 162.645 558.107C162.805 557.947 163.022 557.857 163.248 557.857C163.474 557.857 163.691 557.947 163.851 558.107C164.011 558.267 164.101 558.484 164.101 558.71V567.238C164.104 567.354 164.083 567.469 164.037 567.576C163.992 567.683 163.924 567.778 163.838 567.856C163.752 567.934 163.65 567.992 163.539 568.027C163.429 568.062 163.312 568.072 163.197 568.057Z" fill="#263238"/>
<path d="M168.654 568.5H157.755C157.54 568.496 157.334 568.408 157.181 568.256C157.029 568.103 156.941 567.897 156.937 567.681C156.937 567.464 157.023 567.256 157.176 567.103C157.33 566.949 157.538 566.863 157.755 566.863H168.654C168.872 566.863 169.08 566.949 169.233 567.103C169.387 567.256 169.473 567.464 169.473 567.681C169.469 567.897 169.381 568.103 169.229 568.256C169.076 568.408 168.87 568.496 168.654 568.5Z" fill="#263238"/>
<path d="M309.797 573.003C322.024 573.003 331.937 563.091 331.937 550.864C331.937 538.637 322.024 528.725 309.797 528.725C297.57 528.725 287.658 538.637 287.658 550.864C287.658 563.091 297.57 573.003 309.797 573.003Z" stroke="#263238" stroke-width="0.724166" stroke-linecap="round" stroke-linejoin="round"/>
<path d="M323.459 544.382L316.995 548.118V545.048C316.991 544.349 316.71 543.681 316.215 543.189C315.719 542.697 315.05 542.421 314.351 542.421H299.751C299.405 542.419 299.061 542.485 298.74 542.616C298.42 542.747 298.128 542.94 297.883 543.184C297.637 543.428 297.442 543.719 297.309 544.039C297.176 544.358 297.107 544.701 297.107 545.048V556.817C297.105 557.164 297.172 557.509 297.304 557.831C297.436 558.153 297.631 558.445 297.876 558.691C298.122 558.937 298.415 559.132 298.737 559.264C299.058 559.396 299.403 559.463 299.751 559.46H314.351C314.698 559.46 315.042 559.392 315.363 559.259C315.684 559.126 315.975 558.932 316.221 558.686C316.466 558.441 316.661 558.149 316.794 557.828C316.927 557.508 316.995 557.164 316.995 556.817V553.832L323.459 557.567V544.382Z" fill="#263238"/>
<path d="M236.505 573.003C248.732 573.003 258.644 563.091 258.644 550.864C258.644 538.637 248.732 528.725 236.505 528.725C224.277 528.725 214.365 538.637 214.365 550.864C214.365 563.091 224.277 573.003 236.505 573.003Z" fill="#263238" stroke="#263238" stroke-width="0.724166" stroke-linecap="round" stroke-linejoin="round"/>
<path d="M247.712 546.191H225.299C224.679 546.19 224.066 546.327 223.503 546.59C222.941 546.853 222.444 547.237 222.047 547.714C221.65 548.191 221.362 548.749 221.205 549.35C221.048 549.95 221.025 550.578 221.138 551.188L221.786 554.702C221.833 554.94 221.96 555.154 222.146 555.31C222.333 555.465 222.567 555.551 222.809 555.555H229.632C229.912 555.555 230.181 555.443 230.38 555.245C230.578 555.047 230.689 554.778 230.689 554.497V550.694H242.458V554.497C242.458 554.778 242.57 555.047 242.768 555.245C242.966 555.443 243.235 555.555 243.516 555.555H250.338C250.584 555.555 250.822 555.471 251.012 555.315C251.201 555.159 251.331 554.943 251.379 554.702L252.027 551.188C252.142 550.565 252.116 549.924 251.951 549.312C251.785 548.7 251.484 548.133 251.069 547.653C250.655 547.173 250.138 546.793 249.557 546.54C248.976 546.287 248.345 546.167 247.712 546.191Z" fill="#4648BC"/>
<path d="M352.08 118.857H331.237V130.285H352.08V118.857Z" stroke="#263238" stroke-width="0.821067" stroke-linecap="round" stroke-linejoin="round"/>
<path d="M347.492 118.857H331.237V130.285H347.492V118.857Z" fill="#263238" stroke="#263238" stroke-width="0.725073" stroke-linecap="round" stroke-linejoin="round"/>
<path d="M354.963 122.047H352.029V127.079H354.963V122.047Z" fill="#263238" stroke="#263238" stroke-width="0.725073" stroke-linecap="round" stroke-linejoin="round"/>
<path d="M118.748 122.388H114.927V128.937H118.748V122.388Z" fill="#263238" stroke="#263238" stroke-width="0.883086" stroke-linecap="round" stroke-linejoin="round"/>
<path d="M124.751 120.102H120.93V128.955H124.751V120.102Z" fill="#263238" stroke="#263238" stroke-width="0.883086" stroke-linecap="round" stroke-linejoin="round"/>
<path d="M130.754 117.373H126.934V128.938H130.754V117.373Z" fill="#263238" stroke="#263238" stroke-width="0.883086" stroke-linecap="round" stroke-linejoin="round"/>
</g>
<path d="M361.973 113.979H110.612V583.868H361.973V113.979Z" stroke="#263238" stroke-linecap="round" stroke-linejoin="round"/>
</svg>
