<svg width="1440" height="971" viewBox="0 0 1440 971" fill="none" xmlns="http://www.w3.org/2000/svg">
<path d="M-3 971L77.6667 932.534C158.333 894.285 319.667 817.353 481 784.754C642.333 752.156 803.667 763.891 965 789.97C1126.33 816.049 1287.67 856.471 1368.33 876.899L1449 897.11V419H1368.33C1287.67 419 1126.33 419 965 419C803.667 419 642.333 419 481 419C319.667 419 158.333 419 77.6667 419H-3V971Z" fill="#4648BC"/>
<path d="M1605 0L1513.78 29.1981C1422.56 58.2311 1240.11 116.627 1057.67 141.371C875.222 166.115 692.778 157.207 510.333 137.412C327.889 117.617 145.444 86.9342 54.2223 71.4279L-37 56.0866V419H54.2223C145.444 419 327.889 419 510.333 419C692.778 419 875.222 419 1057.67 419C1240.11 419 1422.56 419 1513.78 419H1605V0Z" fill="#4648BC"/>
</svg>
