<svg width="636" height="636" viewBox="0 0 636 636" fill="none" xmlns="http://www.w3.org/2000/svg">
<path d="M567.732 184.809C567.732 184.809 465.463 37.5751 337.78 21.9931C225.068 8.15373 120.446 62.0611 105.881 178.525C100.692 220.056 91.4568 265.937 75.048 303.792C56.6422 346.251 25.2365 381.6 49.29 463.224C73.3435 544.849 174.925 618.561 248.765 618.408C322.605 618.256 391.967 551.132 449.194 490.089C506.421 429.046 688.661 371.64 567.732 184.809Z" fill="#FFA45A"/>
<path opacity="0.7" d="M567.732 184.809C567.732 184.809 465.463 37.5751 337.78 21.9931C225.068 8.15373 120.446 62.0611 105.881 178.525C100.692 220.056 91.4568 265.937 75.048 303.792C56.6422 346.251 25.2365 381.6 49.29 463.224C73.3435 544.849 174.925 618.561 248.765 618.408C322.605 618.256 391.967 551.132 449.194 490.089C506.421 429.046 688.661 371.64 567.732 184.809Z" fill="#FFA45A"/>
<g opacity="0.3">
<path d="M157.575 225.945H62.0863L63.053 207.514H158.542L157.575 225.945Z" stroke="#F9F8F4" stroke-width="4" stroke-linecap="round" stroke-linejoin="round"/>
<path d="M157.575 251.755H62.0863L63.053 233.323H158.542L157.575 251.755Z" stroke="#F9F8F4" stroke-width="4" stroke-linecap="round" stroke-linejoin="round"/>
<path d="M157.575 277.563H62.0863L63.053 259.132H158.542L157.575 277.563Z" stroke="#F9F8F4" stroke-width="4" stroke-linecap="round" stroke-linejoin="round"/>
<path d="M157.575 303.372H62.0863L63.053 284.941H158.542L157.575 303.372Z" stroke="#F9F8F4" stroke-width="4" stroke-linecap="round" stroke-linejoin="round"/>
<path d="M157.575 329.193H62.0863L63.053 310.75H158.542L157.575 329.193Z" stroke="#F9F8F4" stroke-width="4" stroke-linecap="round" stroke-linejoin="round"/>
<path d="M157.575 355.003H62.0863L63.053 336.559H158.542L157.575 355.003Z" stroke="#F9F8F4" stroke-width="4" stroke-linecap="round" stroke-linejoin="round"/>
<path d="M157.575 380.812H62.0863L63.053 362.368H158.542L157.575 380.812Z" stroke="#F9F8F4" stroke-width="4" stroke-linecap="round" stroke-linejoin="round"/>
<path d="M157.575 406.62H62.0863L63.053 388.176H158.542L157.575 406.62Z" stroke="#F9F8F4" stroke-width="4" stroke-linecap="round" stroke-linejoin="round"/>
<path d="M157.575 432.429H62.0863L63.053 413.985H158.542L157.575 432.429Z" stroke="#F9F8F4" stroke-width="4" stroke-linecap="round" stroke-linejoin="round"/>
<path d="M157.575 458.238H62.0863L63.053 439.794H158.542L157.575 458.238Z" stroke="#F9F8F4" stroke-width="4" stroke-linecap="round" stroke-linejoin="round"/>
<path d="M157.575 484.047H62.0863L63.053 465.616H158.542L157.575 484.047Z" stroke="#F9F8F4" stroke-width="4" stroke-linecap="round" stroke-linejoin="round"/>
<path d="M258.547 225.945H163.058L164.024 207.514H259.513L258.547 225.945Z" stroke="#F9F8F4" stroke-width="4" stroke-linecap="round" stroke-linejoin="round"/>
<path d="M258.547 251.755H163.058L164.024 233.323H259.513L258.547 251.755Z" stroke="#F9F8F4" stroke-width="4" stroke-linecap="round" stroke-linejoin="round"/>
<path d="M258.547 277.563H163.058L164.024 259.132H259.513L258.547 277.563Z" stroke="#F9F8F4" stroke-width="4" stroke-linecap="round" stroke-linejoin="round"/>
<path d="M258.547 303.372H163.058L164.024 284.941H259.513L258.547 303.372Z" stroke="#F9F8F4" stroke-width="4" stroke-linecap="round" stroke-linejoin="round"/>
<path d="M258.547 329.193H163.058L164.024 310.75H259.513L258.547 329.193Z" stroke="#F9F8F4" stroke-width="4" stroke-linecap="round" stroke-linejoin="round"/>
<path d="M258.547 355.003H163.058L164.024 336.559H259.513L258.547 355.003Z" stroke="#F9F8F4" stroke-width="4" stroke-linecap="round" stroke-linejoin="round"/>
<path d="M258.547 380.812H163.058L164.024 362.368H259.513L258.547 380.812Z" stroke="#F9F8F4" stroke-width="4" stroke-linecap="round" stroke-linejoin="round"/>
<path d="M258.547 406.62H163.058L164.024 388.176H259.513L258.547 406.62Z" stroke="#F9F8F4" stroke-width="4" stroke-linecap="round" stroke-linejoin="round"/>
<path d="M258.547 432.429H163.058L164.024 413.985H259.513L258.547 432.429Z" stroke="#F9F8F4" stroke-width="4" stroke-linecap="round" stroke-linejoin="round"/>
<path d="M258.547 458.238H163.058L164.024 439.794H259.513L258.547 458.238Z" stroke="#F9F8F4" stroke-width="4" stroke-linecap="round" stroke-linejoin="round"/>
<path d="M258.547 484.047H163.058L164.024 465.616H259.513L258.547 484.047Z" stroke="#F9F8F4" stroke-width="4" stroke-linecap="round" stroke-linejoin="round"/>
</g>
<g opacity="0.3">
<path d="M552.162 245.025H428.906V338.276H552.162V245.025Z" stroke="#FEFEFE" stroke-width="4" stroke-linecap="round" stroke-linejoin="round"/>
<path d="M545.459 252.734H435.584V330.58H545.459V252.734Z" stroke="#FEFEFE" stroke-width="4" stroke-linecap="round" stroke-linejoin="round"/>
<path d="M471.416 264.996H509.64" stroke="#FEFEFE" stroke-width="4" stroke-linecap="round" stroke-linejoin="round"/>
<path d="M446.663 276.291H534.393" stroke="#FEFEFE" stroke-width="4" stroke-linecap="round" stroke-linejoin="round"/>
<path d="M466.213 298.869H514.842" stroke="#FEFEFE" stroke-width="4" stroke-linecap="round" stroke-linejoin="round"/>
<path d="M447.528 321.46H466.646" stroke="#FEFEFE" stroke-width="4" stroke-linecap="round" stroke-linejoin="round"/>
<path d="M514.41 321.46H533.515" stroke="#FEFEFE" stroke-width="4" stroke-linecap="round" stroke-linejoin="round"/>
</g>
<g opacity="0.3">
<path d="M585.629 357.941H494.91V426.578H585.629V357.941Z" stroke="#FEFEFE" stroke-width="4" stroke-linecap="round" stroke-linejoin="round"/>
<path d="M580.706 363.614H499.832V420.918H580.706V363.614Z" stroke="#FEFEFE" stroke-width="4" stroke-linecap="round" stroke-linejoin="round"/>
<path d="M526.214 372.645H554.338" stroke="#FEFEFE" stroke-width="4" stroke-linecap="round" stroke-linejoin="round"/>
<path d="M507.986 380.951H572.565" stroke="#FEFEFE" stroke-width="4" stroke-linecap="round" stroke-linejoin="round"/>
<path d="M522.372 397.577H558.179" stroke="#FEFEFE" stroke-width="4" stroke-linecap="round" stroke-linejoin="round"/>
<path d="M508.622 414.202H522.69" stroke="#FEFEFE" stroke-width="4" stroke-linecap="round" stroke-linejoin="round"/>
<path d="M557.848 414.202H571.917" stroke="#FEFEFE" stroke-width="4" stroke-linecap="round" stroke-linejoin="round"/>
</g>
<path d="M480.536 406.226L348.846 401.647C343.419 401.46 337.992 401.46 332.564 401.647L209.88 406.226L215.324 233.972C215.528 227.451 215.528 220.921 215.324 214.383L209.88 51.8467H480.536V406.226Z" fill="#263238" stroke="#263238" stroke-linecap="round" stroke-linejoin="round"/>
<path d="M484.886 45.7666H214.23V400.146H484.886V45.7666Z" fill="white" stroke="#263238" stroke-linecap="round" stroke-linejoin="round"/>
<path d="M466.888 142.35H232.216V379.908H466.888V142.35Z" fill="white" stroke="#263238" stroke-linecap="round" stroke-linejoin="round"/>
<path d="M234.417 106.848V63.4093H247.137C249.349 63.3121 251.546 63.8131 253.497 64.8594C255.127 65.8288 256.392 67.3086 257.097 69.0697C257.913 71.199 258.302 73.4682 258.241 75.7477C258.343 78.1106 257.844 80.4606 256.791 82.5784C255.902 84.2627 254.48 85.6047 252.746 86.3944C250.807 87.2249 248.712 87.6283 246.603 87.5773H242.316V106.848H234.417ZM242.354 81.9678H245.356C246.508 82.0205 247.657 81.8072 248.714 81.3445C249.111 81.1453 249.463 80.8663 249.748 80.5248C250.032 80.1834 250.243 79.7869 250.368 79.3602C250.711 78.1661 250.865 76.9259 250.826 75.6841C250.852 74.4034 250.737 73.1236 250.482 71.8681C250.394 71.4224 250.215 70.9995 249.957 70.6254C249.698 70.2514 249.367 69.9341 248.981 69.693C247.853 69.1536 246.604 68.9128 245.356 68.9934H242.354V81.9678Z" fill="#92E3A9"/>
<path d="M244.071 127.798L252.81 104.749L244.338 84.3975H251.742L257.364 97.8552L262.299 84.3975H269.168L260.76 106.25L269.766 127.798H262.414L256.244 113.208L250.877 127.785L244.071 127.798Z" fill="#92E3A9"/>
<path d="M365.789 76.8032H466.112" stroke="#263238" stroke-linecap="round" stroke-linejoin="round"/>
<path d="M365.789 98.4526H466.112" stroke="#263238" stroke-linecap="round" stroke-linejoin="round"/>
<path d="M387.451 89.0781H466.112" stroke="#263238" stroke-linecap="round" stroke-linejoin="round"/>
<path d="M387.451 108.565H466.112" stroke="#263238" stroke-linecap="round" stroke-linejoin="round"/>
<path d="M240.204 168.464H318.878" stroke="#263238" stroke-linecap="round" stroke-linejoin="round"/>
<path d="M240.204 189.006H318.878" stroke="#263238" stroke-linecap="round" stroke-linejoin="round"/>
<path d="M240.204 179.085H359.302" stroke="#263238" stroke-linecap="round" stroke-linejoin="round"/>
<path d="M240.204 214.04H318.878" stroke="#263238" stroke-linecap="round" stroke-linejoin="round"/>
<path d="M240.204 234.583H318.878" stroke="#263238" stroke-linecap="round" stroke-linejoin="round"/>
<path d="M240.204 224.661H359.302" stroke="#263238" stroke-linecap="round" stroke-linejoin="round"/>
<path d="M238.525 367.099H313.103" stroke="#263238" stroke-linecap="round" stroke-linejoin="round"/>
<path d="M379.946 367.099H454.524" stroke="#263238" stroke-linecap="round" stroke-linejoin="round"/>
<path d="M249.045 285.22C244.585 288.05 241.065 292.138 238.928 296.967C236.79 301.797 236.133 307.152 237.038 312.355C237.944 317.558 240.371 322.376 244.014 326.2C247.657 330.024 252.351 332.683 257.504 333.839C262.657 334.996 268.038 334.599 272.965 332.699C277.893 330.799 282.147 327.481 285.189 323.164C288.232 318.847 289.926 313.725 290.059 308.445C290.191 303.166 288.755 297.965 285.933 293.501C284.056 290.533 281.613 287.964 278.743 285.942C275.873 283.919 272.632 282.482 269.206 281.713C265.78 280.943 262.236 280.857 258.776 281.459C255.317 282.061 252.01 283.339 249.045 285.22ZM274.676 325.632C271.151 327.865 267.042 329.004 262.87 328.903C258.698 328.802 254.65 327.466 251.237 325.064C247.824 322.663 245.2 319.303 243.696 315.41C242.192 311.517 241.877 307.266 242.789 303.193C243.701 299.121 245.801 295.411 248.821 292.531C251.842 289.652 255.649 287.733 259.76 287.017C263.871 286.301 268.103 286.82 271.919 288.508C275.736 290.197 278.966 292.979 281.201 296.503C282.686 298.844 283.695 301.454 284.171 304.185C284.646 306.916 284.579 309.714 283.973 312.419C283.367 315.124 282.234 317.684 280.639 319.951C279.044 322.218 277.017 324.148 274.676 325.632Z" fill="#92E3A9"/>
<path d="M273.292 299.109L250.546 313.522L252.868 317.186L275.614 302.773L273.292 299.109Z" fill="#92E3A9"/>
<path d="M250.47 358.704C250.47 358.704 250.838 367.176 261.918 352.064C272.997 336.953 271.508 338.072 268.557 346.544C266.296 352.408 263.305 357.964 259.653 363.08C259.653 363.08 272.933 342.066 272.933 347.956C272.933 353.845 260.391 378.929 262.973 376.716C265.555 374.502 273.671 363.449 273.671 363.449C273.671 363.449 272.564 370.814 275.502 367.494C278.441 364.174 281.773 357.547 281.405 361.236C281.036 364.924 276.24 369.338 281.036 364.924C285.831 360.511 289.52 354.965 288.413 359.022C287.307 363.08 284.356 364.555 287.307 363.08C290.258 361.604 306.845 333.951 301.68 337.271C296.516 340.591 286.938 369.338 291.364 367.125C295.791 364.912 300.942 353.858 300.574 359.391C300.205 364.924 301.68 364.924 303.118 363.08" stroke="#263238" stroke-linecap="round" stroke-linejoin="round"/>
<path d="M614.49 591.798H33.7716" stroke="#263238" stroke-linecap="round" stroke-linejoin="round"/>
<path d="M614.49 603.958H33.7716" stroke="#263238" stroke-linecap="round" stroke-linejoin="round"/>
<path d="M582.678 457.666H459.548C457.605 457.664 455.727 458.362 454.257 459.633C452.788 460.904 451.826 462.662 451.547 464.585L433.129 590.513H579.549L590.73 466.442C590.827 465.326 590.69 464.203 590.33 463.142C589.969 462.082 589.392 461.108 588.635 460.282C587.877 459.457 586.957 458.798 585.931 458.348C584.906 457.897 583.798 457.665 582.678 457.666Z" fill="#263238" stroke="#263238" stroke-linecap="round" stroke-linejoin="round"/>
<path d="M415.944 437.11C415.944 437.11 382.63 453.646 371.195 458.212C359.76 462.779 356.949 464.827 355.931 467.625C354.913 470.424 310.419 540.345 305.344 546.705C300.268 553.065 289.316 566.79 290.843 576.19C292.369 585.591 304.58 593.744 316.283 593.49C327.985 593.235 335.363 590.946 336.635 587.638C337.907 584.331 370.203 526.582 370.203 526.582L380.379 590.907H510.314C510.314 590.907 520.49 502.936 520.49 489.962C520.49 476.987 523.034 461.736 517.691 458.429C512.349 455.121 490.229 447.502 473.947 442.16C457.666 436.817 452.59 435.8 448.787 435.8C444.984 435.8 415.944 437.11 415.944 437.11Z" fill="white" stroke="#263238" stroke-linecap="round" stroke-linejoin="round"/>
<path d="M412.421 437.568C412.421 437.568 408.096 445.709 407.841 452.323C407.587 458.938 406.569 471.136 402.753 478.514C398.937 485.891 396.139 489.962 398.174 489.186C400.209 488.41 411.899 475.461 413.171 472.65C414.443 469.839 416.478 475.194 416.478 475.194C416.478 475.194 412.662 486.12 412.153 487.647C411.645 489.173 428.168 510.276 428.168 510.276C428.168 510.276 442.414 499.095 445.722 496.551C449.029 494.007 448.011 491.972 448.266 488.664C448.52 485.357 449.537 480.536 451.306 477.738C453.074 474.94 458.187 485.904 461.736 490.992C465.285 496.08 468.859 497.861 468.35 494.045C467.842 490.229 466.061 482.851 464.789 469.877C463.517 456.903 463.771 441.397 460.464 436.563C457.157 431.73 439.807 430.776 428.422 429.962C425.311 429.615 422.165 430.143 419.338 431.487C416.511 432.83 414.116 434.937 412.421 437.568Z" fill="white" stroke="#263238" stroke-linecap="round" stroke-linejoin="round"/>
<path d="M361.057 480.879L370.216 526.621L358.386 496.207" stroke="#263238" stroke-linecap="round" stroke-linejoin="round"/>
<path d="M413.693 449.83C413.693 449.83 417.254 469.661 420.561 484.912C422.38 493.593 424.933 502.104 428.193 510.352C428.193 510.352 444.984 482.126 449.817 467.384C452.563 459.25 454.689 450.92 456.177 442.465H413.693V449.83Z" stroke="#263238" stroke-linecap="round" stroke-linejoin="round"/>
<path d="M432.251 456.648L423.105 468.096L429.465 480.307L423.207 495.457C424.587 500.495 426.252 505.451 428.193 510.301C428.193 510.301 433.434 501.499 438.891 491.221L434.299 480.625L439.896 467.905L432.251 456.648Z" fill="#92E3A9" stroke="#263238" stroke-linecap="round" stroke-linejoin="round"/>
<path d="M413.693 442.453V449.83C413.693 449.83 416.147 463.517 418.87 476.886L431.742 463.301L445.314 478.336C447.012 474.767 448.511 471.106 449.805 467.371C452.55 459.237 454.676 450.907 456.165 442.453H413.693Z" fill="white" stroke="#263238" stroke-linecap="round" stroke-linejoin="round"/>
<path d="M302.838 554.236C302.838 554.236 326.586 545.561 339.395 566.663" stroke="#263238" stroke-linecap="round" stroke-linejoin="round"/>
<path d="M339.815 560.15C339.815 560.15 326.548 563.152 319.463 574.46C312.378 585.768 326.79 587.028 330.771 587.028C334.752 587.028 338.517 584.357 338.734 582.97C338.95 581.584 344.165 568.177 343.962 565.048C343.938 563.879 343.513 562.755 342.758 561.863C342.002 560.971 340.963 560.366 339.815 560.15Z" fill="white" stroke="#263238" stroke-linecap="round" stroke-linejoin="round"/>
<path d="M333.709 564.832C333.709 564.832 326.37 571.192 326.866 573.736C327.362 576.28 338.25 586.074 340.349 584.662C340.728 584.469 341.065 584.204 341.341 583.881C341.617 583.558 341.826 583.184 341.957 582.78C342.088 582.376 342.139 581.95 342.105 581.526C342.071 581.103 341.954 580.69 341.761 580.312C341.163 579.358 333.709 564.832 333.709 564.832Z" fill="#FADCCD" stroke="#263238" stroke-linecap="round" stroke-linejoin="round"/>
<path d="M326.904 573.672C326.904 573.672 322.592 578.264 324.004 580.363C325.416 582.461 335.274 587.817 337.83 586.201C340.387 584.586 338.734 582.932 338.734 582.932L326.904 573.672Z" fill="#FADCCD" stroke="#263238" stroke-linecap="round" stroke-linejoin="round"/>
<path d="M352.166 564.59L343.338 563.063L345.412 575.771L354.43 576.051L352.166 564.59Z" fill="white" stroke="#263238" stroke-linecap="round" stroke-linejoin="round"/>
<path d="M336.279 544.607L346.62 580.846L351.644 585.413V578.964L340.705 543.348C340.616 543.051 340.468 542.776 340.269 542.539C340.071 542.301 339.826 542.106 339.551 541.966C339.275 541.826 338.973 541.743 338.665 541.722C338.356 541.702 338.046 541.744 337.754 541.847C337.206 542.036 336.749 542.426 336.475 542.937C336.202 543.449 336.131 544.045 336.279 544.607Z" fill="#263238" stroke="#263238" stroke-linecap="round" stroke-linejoin="round"/>
<path d="M339.815 560.151C339.815 560.151 333.709 563.725 334.32 566.435C334.93 569.144 341.519 581.813 343.898 581.978C346.277 582.144 347.714 580.706 347.37 577.959C347.027 575.211 344.826 565.239 343.338 563.064C341.85 560.889 341.685 560.024 339.815 560.151Z" fill="#FADCCD" stroke="#263238" stroke-linecap="round" stroke-linejoin="round"/>
<path d="M352.166 564.59C352.166 564.59 358.666 565.404 359.798 567.388C360.93 569.373 356.389 577.284 354.939 579.091C353.489 580.897 350.894 580.821 350.818 576.241C350.94 572.327 351.391 568.429 352.166 564.59Z" fill="#FADCCD" stroke="#263238" stroke-linecap="round" stroke-linejoin="round"/>
<path d="M317.008 579.892H388.329C390.322 579.895 392.232 580.689 393.641 582.098C395.05 583.507 395.843 585.417 395.846 587.41C395.846 589.096 395.176 590.714 393.984 591.907C392.791 593.1 391.173 593.77 389.486 593.77H318C316.448 593.77 314.96 593.153 313.863 592.056C312.765 590.959 312.149 589.47 312.149 587.918V584.738C312.149 584.101 312.275 583.47 312.519 582.881C312.763 582.292 313.121 581.757 313.573 581.307C314.024 580.857 314.56 580.5 315.149 580.257C315.739 580.015 316.37 579.89 317.008 579.892Z" fill="white" stroke="#263238" stroke-linecap="round" stroke-linejoin="round"/>
<path d="M443.928 563.496C443.928 563.496 425.37 561.461 420.79 559.934C416.211 558.408 408.834 557.136 406.29 559.171C403.746 561.206 391.293 575.707 391.026 577.475C390.758 579.243 388.227 585.107 389.499 586.634C390.565 587.697 391.875 588.483 393.315 588.923C393.315 588.923 409.851 593.502 411.619 593.757C413.387 594.011 430.432 593.248 430.432 593.248L439.336 589.941L451.789 589.686C451.789 589.686 452.043 593.757 452.298 583.835C452.552 573.914 443.928 563.496 443.928 563.496Z" fill="#FADCCD" stroke="#263238" stroke-linecap="round" stroke-linejoin="round"/>
<path d="M393.353 588.936C393.353 588.936 393.608 583.085 394.88 580.541C396.152 577.997 410.64 565.035 410.64 565.035" stroke="#263238" stroke-linecap="round" stroke-linejoin="round"/>
<path d="M398.136 590.437C398.136 590.437 400.68 584.077 401.698 583.568C402.715 583.059 414.659 575.427 414.659 575.427" stroke="#263238" stroke-linecap="round" stroke-linejoin="round"/>
<path d="M406.824 592.218C406.824 592.218 407.333 589.674 408.605 589.165C409.877 588.656 420.561 583.823 420.561 583.823" stroke="#263238" stroke-linecap="round" stroke-linejoin="round"/>
<path d="M418.272 593.49L423.105 592.218L422.597 589.928L417.509 591.2" stroke="#263238" stroke-linecap="round" stroke-linejoin="round"/>
<path d="M502.173 481.605C502.173 481.605 488.702 509.83 489.453 519.765C490.203 529.699 493.536 546.197 493.536 546.197C493.536 546.197 472.179 554.579 464.802 557.645C457.424 560.71 443.928 563.496 443.928 563.496L450.784 590.45L449.779 593.248H523.759C523.759 593.248 529.355 592.23 530.373 590.958C531.391 589.686 532.408 589.178 532.917 585.107C533.426 581.037 536.733 545.446 535.97 535.499C535.207 525.552 524.776 473.973 523.504 468.63C522.232 463.288 519.955 459.726 517.666 458.454C515.376 457.182 505.455 456.177 505.455 456.177" fill="white"/>
<path d="M502.173 481.605C502.173 481.605 488.702 509.83 489.453 519.765C490.203 529.699 493.536 546.197 493.536 546.197C493.536 546.197 472.179 554.579 464.802 557.645C457.424 560.71 443.928 563.496 443.928 563.496L450.784 590.45L449.779 593.248H523.759C523.759 593.248 529.355 592.23 530.373 590.958C531.391 589.686 532.408 589.178 532.917 585.107C533.426 581.037 536.733 545.446 535.97 535.499C535.207 525.552 524.776 473.973 523.504 468.63C522.232 463.288 519.955 459.726 517.666 458.454C515.376 457.182 505.455 456.177 505.455 456.177" stroke="#263238" stroke-linecap="round" stroke-linejoin="round"/>
<path d="M495.317 546.706C495.317 546.706 514.893 547.723 524.573 553.816" stroke="#263238" stroke-linecap="round" stroke-linejoin="round"/>
<path d="M498.866 544.162C498.866 544.162 512.603 543.398 519.981 545.688" stroke="#263238" stroke-linecap="round" stroke-linejoin="round"/>
<path d="M495.062 480.816C495.062 480.816 488.194 496.843 487.939 502.949C487.685 509.054 487.176 512.616 487.176 512.616" stroke="#263238" stroke-linecap="round" stroke-linejoin="round"/>
<path d="M463.784 438.382C463.784 438.382 479.29 460.464 466.824 522.041" stroke="#263238" stroke-width="2" stroke-linecap="round" stroke-linejoin="round"/>
<path d="M474.202 523.822C474.202 522.313 473.754 520.837 472.915 519.582C472.077 518.327 470.885 517.349 469.49 516.771C468.096 516.194 466.561 516.043 465.081 516.337C463.6 516.632 462.24 517.358 461.173 518.426C460.106 519.493 459.379 520.853 459.084 522.334C458.79 523.814 458.941 525.349 459.519 526.743C460.096 528.138 461.074 529.33 462.329 530.168C463.585 531.007 465.06 531.454 466.57 531.454C468.594 531.454 470.535 530.65 471.966 529.219C473.398 527.788 474.202 525.847 474.202 523.822Z" fill="white" stroke="#263238" stroke-linecap="round" stroke-linejoin="round"/>
<path d="M410.856 440.672C410.856 440.672 402.982 445.76 401.71 466.354" stroke="#263238" stroke-width="2" stroke-linecap="round" stroke-linejoin="round"/>
<path d="M412.65 497.556C410.729 511.446 408.108 526.366 407.562 529.636C406.29 536.632 397.983 539.074 392.641 536.784" stroke="#263238" stroke-width="2" stroke-linecap="round" stroke-linejoin="round"/>
<path d="M392.73 498.472C390.987 490.687 389.919 483.933 390.3 480.842C392.081 466.608 401.748 466.354 401.748 466.354C401.748 466.354 413.196 467.88 413.947 480.091C414.026 485.938 413.6 491.782 412.675 497.556" stroke="#263238" stroke-width="2" stroke-linecap="round" stroke-linejoin="round"/>
<path d="M414.201 535.766C414.201 535.766 408.859 538.819 405.297 536.784C402.893 535.41 396.393 514.702 392.73 498.471" stroke="#263238" stroke-width="2" stroke-linecap="round" stroke-linejoin="round"/>
<path d="M416.063 533.01L413.96 533.916C412.948 534.353 412.48 535.528 412.917 536.54L412.942 536.599C413.379 537.612 414.554 538.079 415.567 537.642L417.669 536.736C418.682 536.299 419.149 535.124 418.713 534.111L418.687 534.053C418.251 533.04 417.076 532.573 416.063 533.01Z" stroke="#263238" stroke-linecap="round" stroke-linejoin="round"/>
<path d="M393.3 534.389L391.338 533.21C390.392 532.642 389.165 532.948 388.597 533.894L388.565 533.948C387.997 534.894 388.303 536.12 389.248 536.688L391.211 537.867C392.157 538.435 393.384 538.129 393.951 537.184L393.984 537.129C394.552 536.184 394.246 534.957 393.3 534.389Z" stroke="#263238" stroke-linecap="round" stroke-linejoin="round"/>
<path d="M401.748 379.145C401.748 379.145 397.678 388.8 398.441 394.905C399.204 401.011 407.345 407.625 407.345 407.625C407.345 407.625 410.144 380.417 410.144 379.4C410.144 378.382 405.043 376.092 401.748 379.145Z" fill="#263238" stroke="#263238" stroke-linecap="round" stroke-linejoin="round"/>
<path d="M398.823 413.73L404.229 409.953" stroke="#263238" stroke-width="2" stroke-linecap="round" stroke-linejoin="round"/>
<path d="M404.789 380.926C404.789 380.926 403.771 407.88 404.28 412.955C404.789 418.03 406.824 434.312 408.605 439.4C410.385 444.488 416.237 460.757 420.816 462.537C425.395 464.318 434.541 465.59 437.593 463.555C440.646 461.52 451.827 453.901 454.88 446.523C456.69 442.221 457.889 437.687 458.442 433.052C460.98 431.698 463.172 429.777 464.849 427.439C466.525 425.101 467.641 422.408 468.109 419.569C469.635 409.902 465.565 407.116 465.565 407.116L465.819 390.326C465.819 390.326 463.021 378.636 455.643 372.276C448.265 365.916 439.629 365.408 430.725 370.241C421.821 375.075 404.789 380.926 404.789 380.926Z" fill="#FADCCD" stroke="#263238" stroke-linecap="round" stroke-linejoin="round"/>
<path d="M452.59 379.399C452.59 379.399 452.845 372.785 446.497 375.075C440.15 377.364 438.611 381.689 429.198 385.505C419.785 389.321 407.333 384.996 403.02 382.452C398.708 379.908 395.643 376.347 401.494 369.732C407.345 363.118 421.07 356.516 435.838 356.516C450.606 356.516 462.029 368.715 466.862 373.803C471.696 378.891 472.459 385.251 470.678 389.817C468.897 394.384 465.59 407.116 465.59 407.116C465.59 407.116 463.555 406.862 462.792 409.902C462.029 412.942 462.283 416.262 458.976 416.516C455.669 416.771 455.923 407.879 455.923 407.879C455.923 407.879 447.795 405.335 446.777 399.484C445.76 393.633 452.59 384.996 452.59 379.399Z" fill="#263238" stroke="#263238" stroke-linecap="round" stroke-linejoin="round"/>
<path d="M422.304 417.877L398.785 413.73L400.146 424.275C400.229 424.931 400.522 425.542 400.98 426.019C401.438 426.495 402.038 426.812 402.69 426.921L416.987 429.173C417.773 429.299 418.578 429.116 419.231 428.66C419.883 428.204 420.333 427.512 420.485 426.73L422.304 417.877Z" stroke="#263238" stroke-width="2" stroke-linecap="round" stroke-linejoin="round"/>
<path d="M426.591 418.323L453.862 417.534L451.191 427.405C450.961 428.07 450.522 428.642 449.94 429.036C449.357 429.431 448.663 429.626 447.96 429.593L431.424 429.822C430.567 429.881 429.717 429.629 429.031 429.113C428.344 428.597 427.866 427.85 427.685 427.011L426.591 418.323Z" stroke="#263238" stroke-width="2" stroke-linecap="round" stroke-linejoin="round"/>
<path d="M422.342 417.877L426.591 418.323" stroke="#263238" stroke-width="2" stroke-linecap="round" stroke-linejoin="round"/>
<path d="M453.862 417.534L462.766 409.902" stroke="#263238" stroke-width="2" stroke-linecap="round" stroke-linejoin="round"/>
<path d="M430.216 415.245C430.216 415.245 437.848 409.406 444.971 412.955" stroke="#263238" stroke-width="2" stroke-linecap="round" stroke-linejoin="round"/>
<path d="M418.781 413.972C418.781 413.972 412.929 407.612 406.315 411.937" stroke="#263238" stroke-width="2" stroke-linecap="round" stroke-linejoin="round"/>
<path d="M420.307 436.092C420.307 436.092 419.035 441.435 420.307 442.452C422.472 443.648 424.972 444.095 427.417 443.724" stroke="#263238" stroke-linecap="round" stroke-linejoin="round"/>
<path d="M416.491 446.472C416.491 446.472 421.579 450.288 426.413 450.543C431.246 450.797 436.83 447.235 436.83 447.235" stroke="#263238" stroke-linecap="round" stroke-linejoin="round"/>
<path d="M435.304 420.587C435.304 420.587 438.357 424.149 443.445 420.333" stroke="#263238" stroke-linecap="round" stroke-linejoin="round"/>
<path d="M410.258 419.022C410.258 419.022 412.802 422.966 418.348 419.875" stroke="#263238" stroke-linecap="round" stroke-linejoin="round"/>
<path d="M252.492 379.374C252.492 379.374 254.107 403.606 252.886 405.628L249.312 411.683C249.312 411.683 250.927 429.058 247.697 431.068C245.193 432.409 242.447 433.235 239.619 433.498C239.619 433.498 236.388 446.421 235.167 448.037C233.946 449.652 226.683 454.905 224.266 455.669C221.849 456.432 214.167 456.941 195.99 445.976C177.813 435.011 170.944 431.437 171.351 425.382C171.758 419.328 172.623 412.459 172.623 412.459C172.623 412.459 174.646 383.368 178.283 374.49C181.921 365.611 227.968 360.752 238.067 363.182C248.167 365.611 252.492 379.374 252.492 379.374Z" fill="white" stroke="#263238" stroke-linecap="round" stroke-linejoin="round"/>
<path d="M205.632 419.353L208.468 421.376C208.468 421.376 206.039 431.068 207.196 435.52" stroke="#263238" stroke-linecap="round" stroke-linejoin="round"/>
<path d="M246.018 411.238C245.61 413.095 244.631 414.443 243.842 414.265C243.054 414.087 242.736 412.459 243.156 410.602C243.575 408.745 244.542 407.396 245.331 407.574C246.119 407.752 246.437 409.393 246.018 411.238Z" fill="#263238"/>
<path d="M241.896 403.822C241.896 403.822 246.297 399.421 249.973 403.58" stroke="#263238" stroke-linecap="round" stroke-linejoin="round"/>
<path d="M236.338 376.143C236.338 376.143 241.578 385.836 241.184 387.858C240.79 389.881 224.215 394.727 224.215 394.727C224.215 394.727 222.6 404.42 220.17 405.628L217.754 406.836C215.816 404.205 214.19 401.358 212.907 398.352C210.084 392.298 206.039 390.72 201.599 396.737C197.16 402.753 200.785 416.936 203.215 418.145L205.632 419.353C205.632 419.353 203.609 421.375 195.939 422.597C188.269 423.818 182.608 425.42 176.961 423.805C171.313 422.19 163.223 406.837 160.425 387.044C157.626 367.252 166.479 350.296 178.233 345.068C189.986 339.84 216.609 344.661 218.619 345.87C220.628 347.078 234.379 340.629 242.456 344.661C250.533 348.693 250.088 353.145 252.149 355.969C254.209 358.793 264.665 355.168 265.479 365.268C266.293 375.367 262.248 381.422 256.995 382.223C251.742 383.025 236.338 376.143 236.338 376.143Z" fill="#263238" stroke="#263238" stroke-linecap="round" stroke-linejoin="round"/>
<path d="M140.696 439.553C140.696 439.553 101.989 460.197 94.6113 464.28C87.2337 468.363 86.1271 472.027 85.7073 475.728C85.2876 479.43 85.7073 604.009 85.7073 604.009H294.786C294.786 604.009 263.075 508.8 262.032 498.166C260.989 487.532 258.725 468.669 255.774 466.455C252.823 464.242 211.152 445.811 211.152 445.811C211.152 445.811 201.192 435.126 177.609 435.126C154.026 435.126 140.696 439.553 140.696 439.553Z" fill="#8E857E" stroke="#263238" stroke-linecap="round" stroke-linejoin="round"/>
<path d="M164.66 515.402C165.754 515.834 166.861 516.229 167.968 516.598" stroke="#263238" stroke-linecap="round" stroke-linejoin="round"/>
<path d="M123.384 481.21C123.384 481.21 138.648 502.504 159.496 513.01" stroke="#263238" stroke-linecap="round" stroke-linejoin="round"/>
<path d="M136.638 505.9C136.638 505.9 145.11 514.384 162.803 519.18" stroke="#263238" stroke-linecap="round" stroke-linejoin="round"/>
<path d="M241.68 475.346C235.791 482.037 227.497 492.734 224.75 502.58" stroke="#263238" stroke-linecap="round" stroke-linejoin="round"/>
<path d="M247.964 468.668C247.964 468.668 246.793 469.801 244.962 471.747" stroke="#263238" stroke-linecap="round" stroke-linejoin="round"/>
<path d="M226.95 490.789C226.95 490.789 221.417 501.473 220.323 508.113" stroke="#263238" stroke-linecap="round" stroke-linejoin="round"/>
<path d="M138.483 441.384C138.483 441.384 159.865 440.646 180.141 441.015C200.416 441.384 213.696 447.655 213.696 447.655C213.696 447.655 201.523 432.912 196.002 429.592C190.482 426.272 173.513 420.688 159.509 425.166C150.881 428.064 143.477 433.775 138.483 441.384Z" fill="#8E857E" stroke="#263238" stroke-linecap="round" stroke-linejoin="round"/>
<path d="M77.681 603.869L58.194 529.152C58.0048 528.245 58.0204 527.306 58.2395 526.406C58.4587 525.506 58.8759 524.665 59.4608 523.946C60.0456 523.227 60.7835 522.648 61.6205 522.25C62.4576 521.852 63.3728 521.646 64.2996 521.647H219.344C220.768 521.648 222.15 522.136 223.26 523.028C224.37 523.921 225.142 525.166 225.449 526.557L242.659 603.945" fill="#263238"/>
<path d="M77.681 603.869L58.194 529.152C58.0048 528.245 58.0204 527.306 58.2395 526.406C58.4587 525.506 58.8759 524.665 59.4608 523.946C60.0456 523.227 60.7835 522.648 61.6205 522.25C62.4576 521.852 63.3728 521.646 64.2996 521.647H219.344C220.768 521.648 222.15 522.136 223.26 523.028C224.37 523.921 225.142 525.166 225.449 526.557L242.659 603.945" stroke="#263238" stroke-linecap="round" stroke-linejoin="round"/>
</svg>
