<svg width="44" height="44" viewBox="0 0 44 44" fill="none" xmlns="http://www.w3.org/2000/svg">
<path fill-rule="evenodd" clip-rule="evenodd" d="M12.223 20.9487H12.2457H12.223Z" fill="#038062"/>
<path fill-rule="evenodd" clip-rule="evenodd" d="M21.1688 20.9487H21.1915H21.1688Z" fill="#038062"/>
<path fill-rule="evenodd" clip-rule="evenodd" d="M30.1599 20.9487H30.1826H30.1599Z" fill="#038062"/>
<path d="M12.223 20.9487H12.2457M21.1688 20.9487H21.1915M30.1599 20.9487H30.1826M1.99993 11.019C1.99993 6.03795 6.0649 2.00003 11.0793 2.00003L31.5909 2.00005C36.6053 2.00005 40.6703 6.03796 40.6703 11.019L40.6705 33.7106L41.9764 39.4244C42.2089 41.0416 40.687 42.36 39.1058 41.9113L26.269 39.7047L10.297 39.7047C5.2826 39.7047 2.00013 36.4369 2.00013 31.4559L1.99993 11.019Z" stroke="#FEFEFE" stroke-width="4" stroke-linecap="round" stroke-linejoin="round"/>
</svg>
