<svg width="1190" height="603" viewBox="0 0 1190 603" fill="none" xmlns="http://www.w3.org/2000/svg">
<path d="M899.937 57.6562C949.678 58.2731 999.186 100.86 1046.64 153.99C1094.09 207.12 1139.41 270.87 1128.26 322.739C1117.11 374.608 1049.35 414.607 978.67 445.634C908.055 476.584 834.448 498.498 771.287 475.915C708.203 453.397 655.563 386.383 653.845 322.934C652.063 259.563 701.278 199.821 750.796 149.209C800.313 98.5974 850.274 57.1035 899.937 57.6562Z" fill="#FFA45A"/>
<path d="M278.194 232.752C314.694 264.552 344.794 315.552 334.694 356.252C324.494 396.952 274.094 427.452 221.894 451.652C169.594 475.952 115.494 493.952 74.0936 477.252C32.6936 460.552 3.99356 409.052 0.393562 361.052C-3.20644 313.152 18.2936 268.652 48.3936 238.352C78.4936 208.052 116.994 191.952 157.794 190.152C198.594 188.452 241.594 200.952 278.194 232.752Z" fill="#4648BC"/>
</svg>
