<svg width="90" height="79" viewBox="0 0 90 79" fill="none" xmlns="http://www.w3.org/2000/svg">
<path d="M52.5054 37.3135C53.0173 23.8334 62.4875 15.131 67.7772 16.9654C89.0211 24.3453 86.8029 68.7103 80.1482 72.5922C74.3039 76.0049 58.9042 71.6964 55.3635 63.6339C54.0411 60.6051 53.1453 55.7847 52.7187 50.3244" stroke="#FAFAFA" stroke-width="8.53172" stroke-linecap="round" stroke-linejoin="round"/>
<path d="M36.721 37.3135C36.2091 23.8334 26.7389 15.131 21.4492 16.9654C0.205217 24.3453 2.42348 68.7103 9.07822 72.5922C14.9224 76.0049 30.3222 71.6964 33.8629 63.6339C35.1853 60.6051 36.0811 55.7847 36.5077 50.3244" stroke="#FAFAFA" stroke-width="8.53172" stroke-linecap="round" stroke-linejoin="round"/>
<path d="M44.6134 4.97827V24.6013C44.6134 29.4217 42.1393 33.9008 38.0867 36.4603L28.7871 42.3472" stroke="#FAFAFA" stroke-width="8.53172" stroke-linecap="round" stroke-linejoin="round"/>
<path d="M44.6133 4.97827V24.6013C44.6133 29.4217 47.0875 33.9008 51.14 36.4603L60.4396 42.3472" stroke="#FAFAFA" stroke-width="8.53172" stroke-linecap="round" stroke-linejoin="round"/>
</svg>
