<svg width="19" height="18" viewBox="0 0 19 18" fill="none" xmlns="http://www.w3.org/2000/svg">
<path d="M11.4839 9C11.4839 9.98184 10.6503 10.7778 9.62209 10.7778C8.59387 10.7778 7.76033 9.98184 7.76033 9C7.76033 8.01816 8.59387 7.22222 9.62209 7.22222C10.6503 7.22222 11.4839 8.01816 11.4839 9Z" stroke="white" stroke-width="2" stroke-linecap="round" stroke-linejoin="round"/>
<path d="M7.9465 2.6C7.9465 1.71634 8.69669 1 9.62209 1C10.5475 1 11.2977 1.71634 11.2977 2.6C11.2977 2.71868 11.382 2.82176 11.5013 2.85498C11.9718 2.98595 12.4209 3.16485 12.8424 3.38578C12.9517 3.44306 13.0881 3.42705 13.1762 3.34287C13.8306 2.71803 14.8918 2.71831 15.5462 3.34315C16.2005 3.96799 16.2008 4.98134 15.5465 5.60618C15.4583 5.69035 15.4415 5.82057 15.5015 5.92492C15.7329 6.32743 15.9203 6.75628 16.0574 7.20556C16.0922 7.31949 16.2002 7.4 16.3245 7.4C17.2499 7.4 18 8.11634 18 9C18 9.88366 17.2499 10.6 16.3245 10.6C16.2002 10.6 16.0922 10.6805 16.0574 10.7944C15.9208 11.2418 15.7345 11.669 15.5044 12.07C15.4442 12.175 15.4611 12.306 15.5498 12.3906C16.2041 13.0155 16.2005 14.0321 15.5461 14.6569C14.8917 15.2818 13.8271 15.2853 13.1728 14.6604C13.0841 14.5757 12.9469 14.5596 12.8369 14.6171C12.4169 14.8367 11.9697 15.0146 11.5013 15.145C11.382 15.1782 11.2977 15.2813 11.2977 15.4C11.2977 16.2837 10.5475 17 9.62209 17C8.69669 17 7.9465 16.2837 7.9465 15.4C7.9465 15.2813 7.86219 15.1782 7.74288 15.145C7.27239 15.0141 6.8233 14.8352 6.40178 14.6142C6.29247 14.5569 6.15607 14.5729 6.06789 14.6571C5.41353 15.282 4.35231 15.2817 3.69795 14.6569C3.04359 14.032 3.0433 13.0187 3.69766 12.3938C3.78583 12.3096 3.80261 12.1794 3.74261 12.075C3.51125 11.6725 3.32391 11.2437 3.18676 10.7944C3.15197 10.6805 3.04401 10.6 2.91973 10.6C1.99433 10.6 1.24414 9.88366 1.24414 9C1.24414 8.11634 1.99433 7.4 2.91973 7.4C3.04401 7.4 3.15197 7.31949 3.18676 7.20556C3.32331 6.75828 3.50961 6.33126 3.73956 5.93031C3.79983 5.82523 3.78291 5.6942 3.69419 5.60948C3.03983 4.98464 3.04352 3.96805 3.69788 3.34321C4.35224 2.71837 5.41686 2.71485 6.07122 3.33968C6.15991 3.42438 6.29709 3.44053 6.4071 3.38299C6.82707 3.16335 7.27437 2.9854 7.74288 2.85498C7.86219 2.82176 7.9465 2.71868 7.9465 2.6Z" stroke="white" stroke-width="2" stroke-linecap="round" stroke-linejoin="round"/>
</svg>
