<svg width="280" height="295" viewBox="0 0 280 295" fill="none" xmlns="http://www.w3.org/2000/svg">
<path d="M10.7744 109.706C10.7744 109.706 -0.437503 159.159 31.9659 202.506C64.3692 245.854 120.445 262.992 165.576 278.071C210.707 293.15 252.725 276.36 268.291 238.46C283.856 200.561 251.777 179.872 244.408 130.184C237.039 80.4971 242.567 66.237 209.475 28.2236C176.383 -9.78974 108.949 -9.33575 63.6396 29.1721C18.33 67.68 10.7744 109.706 10.7744 109.706Z" fill="#FFA45A"/>
<path opacity="0.7" d="M10.7744 109.706C10.7744 109.706 -0.437503 159.159 31.9659 202.506C64.3692 245.854 120.445 262.992 165.576 278.071C210.707 293.15 252.725 276.36 268.291 238.46C283.856 200.561 251.777 179.872 244.408 130.184C237.039 80.4971 242.567 66.237 209.475 28.2236C176.383 -9.78974 108.949 -9.33575 63.6396 29.1721C18.33 67.68 10.7744 109.706 10.7744 109.706Z" fill="white"/>
<path d="M274.079 43.975C274.079 43.975 274.89 39.7756 270.163 32.7388C265.437 25.702 262.316 21.5999 262.316 21.5999C262.316 21.5999 257.452 30.6959 261.797 37.6516C265.008 42.5766 268.626 47.2245 272.612 51.5469L274.079 43.975Z" fill="#94C868"/>
<path d="M260.402 68.5636C260.402 68.5636 261.213 64.3643 256.486 57.3274C251.76 50.2906 248.623 46.1885 248.623 46.1885C248.623 46.1885 243.759 55.2845 248.112 62.2321C251.322 67.1606 254.94 71.8114 258.927 76.1355L260.402 68.5636Z" fill="#94C868"/>
<path d="M255.927 80.059C255.927 80.059 257.614 76.119 265.486 72.9654C273.357 69.8119 278.246 68.1743 278.246 68.1743C278.246 68.1743 277.135 78.4133 269.652 81.7371C264.228 84.0056 258.623 85.8143 252.896 87.1444L255.927 80.059Z" fill="#94C868"/>
<path d="M251.258 114.246C251.258 114.246 252.068 110.039 259.121 105.328C266.174 100.618 270.593 97.9673 270.593 97.9673C270.593 97.9673 271.647 108.214 265.031 113.03C260.204 116.387 255.103 119.333 249.782 121.834L251.258 114.246Z" fill="#94C868"/>
<path d="M249.547 122.475C249.547 122.475 250.958 118.421 247.277 110.792C243.597 103.164 241.075 98.6321 241.075 98.6321C241.075 98.6321 234.995 106.942 238.279 114.441C240.756 119.773 243.676 124.887 247.01 129.73L249.547 122.475Z" fill="#94C868"/>
<path d="M238.968 145.798C238.968 145.798 239.778 141.599 246.823 136.88C253.868 132.162 258.303 129.471 258.303 129.471C258.303 129.471 259.357 139.71 252.741 144.533C247.912 147.887 242.811 150.832 237.492 153.337L238.968 145.798Z" fill="#94C868"/>
<path d="M238.562 168.741C238.562 168.741 238.295 164.468 243.905 158.105C249.515 151.741 253.138 148.117 253.138 148.117C253.138 148.117 256.754 157.756 251.574 164.096C247.752 168.565 243.563 172.706 239.048 176.475L238.562 168.741Z" fill="#94C868"/>
<path d="M274.816 43.0021C273.665 47.3232 272.276 51.5777 270.657 55.7462C265.98 67.3148 258.651 73.93 254.2 84.3312C249.75 94.7324 253.698 110.03 249.182 123.625C244.667 137.221 237.727 143.893 237.46 153.524C237.192 163.155 240.427 189.932 240.427 189.932" stroke="#263238" stroke-width="0.5" stroke-linecap="round" stroke-linejoin="round"/>
<path d="M271.704 53.8494L279 50.2256" stroke="#263238" stroke-width="0.5" stroke-linecap="round" stroke-linejoin="round"/>
<path d="M254.646 83.9018C254.646 83.9018 260.743 80.959 266.977 78.0405" stroke="#263238" stroke-width="0.5" stroke-linecap="round" stroke-linejoin="round"/>
<path d="M258.927 76.1352C258.927 76.1352 256.195 66.5934 252.304 59.8646" stroke="#263238" stroke-width="0.5" stroke-linecap="round" stroke-linejoin="round"/>
<path d="M250.301 120.269C254.423 115.275 259.248 110.905 264.626 107.298" stroke="#263238" stroke-width="0.5" stroke-linecap="round" stroke-linejoin="round"/>
<path d="M248.112 125.968C247.24 121.859 246.025 117.829 244.481 113.922C242.275 108.749 241.951 108.068 241.951 108.068" stroke="#263238" stroke-width="0.5" stroke-linecap="round" stroke-linejoin="round"/>
<path d="M237.46 153.524C239.456 150.446 241.687 147.527 244.132 144.793C246.532 142.28 249.135 139.97 251.915 137.885" stroke="#263238" stroke-width="0.5" stroke-linecap="round" stroke-linejoin="round"/>
<path d="M239.049 176.434C239.367 173.185 240.545 170.079 242.462 167.436C245.51 163.585 249.118 158.478 250.569 156.459" stroke="#263238" stroke-width="0.5" stroke-linecap="round" stroke-linejoin="round"/>
<path d="M224.561 92.6168C224.561 92.6168 224.618 89.8848 228.518 86.1313C232.417 82.3778 234.914 80.27 234.914 80.27C234.914 80.27 236.689 86.5771 233.058 90.3144C230.397 92.9453 227.519 95.348 224.456 97.4972L224.561 92.6168Z" fill="#94C868"/>
<path d="M229.726 109.755C229.726 109.755 229.791 107.031 233.682 103.269C237.573 99.5076 240.087 97.4079 240.087 97.4079C240.087 97.4079 241.854 103.715 238.23 107.46C235.566 110.088 232.686 112.488 229.621 114.635L229.726 109.755Z" fill="#94C868"/>
<path d="M224.699 97.262C224.699 97.262 224.472 94.5461 220.345 91.0602C216.219 87.5742 213.592 85.6123 213.592 85.6123C213.592 85.6123 212.214 92.0249 216.073 95.5271C218.897 97.9826 221.92 100.198 225.112 102.15L224.699 97.262Z" fill="#94C868"/>
<path d="M230.958 117.505C230.958 117.505 230.439 114.83 225.973 111.83C221.506 108.831 218.676 107.12 218.676 107.12C218.676 107.12 217.987 113.605 222.187 116.719C225.252 118.877 228.493 120.775 231.874 122.393L230.958 117.505Z" fill="#94C868"/>
<path d="M229.224 139.394C229.224 139.394 229.281 136.67 225.551 132.77C221.822 128.871 219.414 126.641 219.414 126.641C219.414 126.641 217.372 132.868 220.825 136.759C223.374 139.499 226.148 142.021 229.118 144.298L229.224 139.394Z" fill="#94C868"/>
<path d="M229.174 144.744C229.174 144.744 228.841 142.045 232.173 137.788C235.505 133.532 237.67 131.092 237.67 131.092C237.67 131.092 240.321 137.083 237.264 141.299C235.002 144.278 232.493 147.063 229.766 149.625L229.174 144.744Z" fill="#94C868"/>
<path d="M232.401 167.46C232.401 167.46 233.212 164.857 238.019 162.377C242.827 159.896 245.81 158.558 245.81 158.558C245.81 158.558 245.737 165.109 241.205 167.67C237.907 169.445 234.466 170.939 230.917 172.137L232.401 167.46Z" fill="#94C868"/>
<path d="M232.596 160.682C232.596 160.682 232.653 157.958 228.915 154.059C225.178 150.16 222.778 147.93 222.778 147.93C222.778 147.93 220.735 154.156 224.197 158.048C226.746 160.788 229.52 163.31 232.49 165.587L232.596 160.682Z" fill="#94C868"/>
<path d="M229.734 174.999C229.734 174.999 230.48 172.381 227.861 167.662C225.243 162.944 223.475 160.18 223.475 160.18C223.475 160.18 219.916 165.684 222.284 170.33C224.052 173.629 226.094 176.775 228.388 179.734L229.734 174.999Z" fill="#94C868"/>
<path d="M224.213 91.9033C224.344 94.7462 224.631 97.5798 225.073 100.391C226.418 108.214 230.075 113.362 231.437 120.399C232.799 127.436 228.267 136.443 229.232 145.531C230.196 154.618 233.601 159.693 232.474 165.709C231.347 171.724 225.713 187.946 225.713 187.946" stroke="#263238" stroke-width="0.5" stroke-linecap="round" stroke-linejoin="round"/>
<path d="M224.7 99.0698L220.654 95.827" stroke="#263238" stroke-width="0.5" stroke-linecap="round" stroke-linejoin="round"/>
<path d="M224.585 95.4379L226.368 92.414" stroke="#263238" stroke-width="0.5" stroke-linecap="round" stroke-linejoin="round"/>
<path d="M231.225 120.067C231.225 120.067 227.845 117.416 224.359 114.757" stroke="#263238" stroke-width="0.5" stroke-linecap="round" stroke-linejoin="round"/>
<path d="M229.621 114.659C231.41 111.377 233.529 108.286 235.944 105.433" stroke="#263238" stroke-width="0.5" stroke-linecap="round" stroke-linejoin="round"/>
<path d="M229.004 143.253C227.119 139.589 224.71 136.218 221.854 133.249" stroke="#263238" stroke-width="0.5" stroke-linecap="round" stroke-linejoin="round"/>
<path d="M229.596 147.112C230.692 144.676 231.988 142.336 233.471 140.115C235.547 137.197 235.839 136.816 235.839 136.816" stroke="#263238" stroke-width="0.5" stroke-linecap="round" stroke-linejoin="round"/>
<path d="M231.388 170.208C233.208 168.688 235.158 167.331 237.217 166.155C238.501 165.55 239.732 164.839 240.898 164.031" stroke="#263238" stroke-width="0.5" stroke-linecap="round" stroke-linejoin="round"/>
<path d="M232.482 165.693C231.66 163.506 230.671 161.387 229.523 159.353C228.369 157.468 227.062 155.681 225.615 154.01" stroke="#263238" stroke-width="0.5" stroke-linecap="round" stroke-linejoin="round"/>
<path d="M228.388 179.734C228.635 177.671 228.324 175.58 227.489 173.678C226.119 170.873 224.57 167.192 223.93 165.758" stroke="#263238" stroke-width="0.5" stroke-linecap="round" stroke-linejoin="round"/>
<path d="M28.6904 149.641C28.6904 149.641 27.4095 145.936 20.4376 142.555C13.4656 139.175 9.08789 137.359 9.08789 137.359C9.08789 137.359 9.4446 146.763 16.0436 150.273C20.8412 152.695 25.8337 154.71 30.9685 156.297L28.6904 149.641Z" fill="#94C868"/>
<path d="M29.1689 175.34C29.1689 175.34 27.888 171.643 20.9161 168.254C13.9441 164.866 9.56641 163.058 9.56641 163.058C9.56641 163.058 9.92311 172.462 16.5221 175.98C21.3209 178.397 26.3132 180.41 31.447 181.996L29.1689 175.34Z" fill="#94C868"/>
<path d="M30.5472 156.053C30.5472 156.053 29.6636 152.235 33.79 145.66C37.9164 139.085 40.6241 135.243 40.6241 135.243C40.6241 135.243 45.318 143.398 41.597 149.884C38.8195 154.484 35.6602 158.841 32.1524 162.912L30.5472 156.053Z" fill="#94C868"/>
<path d="M30.9035 186.478C30.9035 186.478 30.4251 182.587 35.2001 176.483C39.9751 170.378 43.0882 166.843 43.0882 166.843C43.0882 166.843 46.9065 175.445 42.5207 181.501C39.2736 185.781 35.6751 189.784 31.7628 193.467L30.9035 186.478Z" fill="#94C868"/>
<path d="M42.902 215.631C42.902 215.631 41.6211 211.934 45.0098 204.962C48.3985 197.99 50.6846 193.88 50.6846 193.88C50.6846 193.88 56.2216 201.492 53.2059 208.335C50.9305 213.201 48.2512 217.868 45.1962 222.287L42.902 215.631Z" fill="#94C868"/>
<path d="M45.3339 222.919C45.3339 222.919 44.588 219.076 38.1674 214.731C31.7467 210.386 27.7013 207.986 27.7013 207.986C27.7013 207.986 26.7123 217.341 32.7519 221.768C37.1546 224.854 41.808 227.566 46.6634 229.875L45.3339 222.919Z" fill="#94C868"/>
<path d="M47.6686 246.21C47.6686 246.21 46.3877 242.505 49.7764 235.533C53.1651 228.561 55.4512 224.451 55.4512 224.451C55.4512 224.451 60.9882 232.064 57.9725 238.906C55.6935 243.775 53.0116 248.444 49.9547 252.866L47.6686 246.21Z" fill="#94C868"/>
<path d="M57.8835 264.516C57.8835 264.516 55.7027 261.273 57.2187 253.661C58.7347 246.048 59.9183 241.5 59.9183 241.5C59.9183 241.5 67.2146 247.467 66.0066 254.844C65.0382 260.131 63.6281 265.327 61.791 270.377L57.8835 264.516Z" fill="#94C868"/>
<path d="M28.8364 148.53C29.9106 152.471 30.7659 156.468 31.3982 160.504C33.0196 171.789 30.247 180.382 31.5117 190.645C32.7764 200.909 42.8614 211.18 45.5772 223.997C48.293 236.814 45.8366 245.286 50.0279 253.004C54.2192 260.722 69.0711 280.421 69.0711 280.421" stroke="#263238" stroke-width="0.5" stroke-linecap="round" stroke-linejoin="round"/>
<path d="M31.3418 158.526L35.4439 152.316" stroke="#263238" stroke-width="0.5" stroke-linecap="round" stroke-linejoin="round"/>
<path d="M29.8989 153.508L26.1211 150.16" stroke="#263238" stroke-width="0.5" stroke-linecap="round" stroke-linejoin="round"/>
<path d="M31.6572 190.102C31.6572 190.102 35.1189 184.979 38.7102 179.815" stroke="#263238" stroke-width="0.5" stroke-linecap="round" stroke-linejoin="round"/>
<path d="M31.4708 181.995C31.4708 181.995 24.9366 175.68 18.7754 172.178" stroke="#263238" stroke-width="0.5" stroke-linecap="round" stroke-linejoin="round"/>
<path d="M44.9116 220.827C45.8753 214.99 47.6832 209.323 50.2784 204.006" stroke="#263238" stroke-width="0.5" stroke-linecap="round" stroke-linejoin="round"/>
<path d="M45.7964 226.332C43.2245 223.489 40.4207 220.864 37.4138 218.485C33.2955 215.404 32.728 215.015 32.728 215.015" stroke="#263238" stroke-width="0.5" stroke-linecap="round" stroke-linejoin="round"/>
<path d="M50.02 253.004C50.1894 249.656 50.6122 246.325 51.2847 243.041C52.032 239.967 53.0298 236.96 54.2681 234.05" stroke="#263238" stroke-width="0.5" stroke-linecap="round" stroke-linejoin="round"/>
<path d="M61.7914 270.377C60.5522 267.664 60.057 264.67 60.3565 261.703C61.0051 257.26 61.5077 251.569 61.7347 249.307" stroke="#263238" stroke-width="0.5" stroke-linecap="round" stroke-linejoin="round"/>
<path d="M11.8766 210.791C11.8766 210.791 10.6687 208.61 12.0388 203.868C13.4088 199.125 14.406 196.304 14.406 196.304C14.406 196.304 18.7027 200.479 17.5515 205.092C16.6514 208.392 15.4772 211.611 14.0412 214.715L11.8766 210.791Z" fill="#94C868"/>
<path d="M23.8262 221.962C23.8262 221.962 22.6263 219.782 23.9883 215.039C25.3503 210.297 26.3555 207.475 26.3555 207.475C26.3555 207.475 30.6522 211.65 29.501 216.263C28.606 219.564 27.4344 222.783 25.9988 225.886L23.8262 221.962Z" fill="#94C868"/>
<path d="M14.1223 214.399C14.1223 214.399 12.6954 212.356 7.83129 211.497C2.96713 210.637 0 210.289 0 210.289C0 210.289 1.85648 215.964 6.48554 216.985C9.84578 217.633 13.2546 217.996 16.6759 218.071L14.1223 214.399Z" fill="#94C868"/>
<path d="M28.3584 227.564C28.3584 227.564 26.737 225.683 21.7999 225.343C16.8627 225.002 13.8794 224.97 13.8794 224.97C13.8794 224.97 16.3115 230.434 21.054 230.945C24.4611 231.228 27.8859 231.228 31.2931 230.945L28.3584 227.564Z" fill="#94C868"/>
<path d="M37.0329 245.619C37.0329 245.619 35.825 243.438 31.0905 242.068C26.3561 240.698 23.4214 240.041 23.4214 240.041C23.4214 240.041 24.6699 245.902 29.1854 247.386C32.4563 248.384 35.8055 249.106 39.1975 249.542L37.0329 245.619Z" fill="#94C868"/>
<path d="M39.4483 249.867C39.4483 249.867 37.9485 247.88 38.6376 243C39.3267 238.12 39.9104 235.169 39.9104 235.169C39.9104 235.169 44.7746 238.687 44.2719 243.43C43.8523 246.823 43.1472 250.175 42.1641 253.45L39.4483 249.867Z" fill="#94C868"/>
<path d="M52.419 266.332C52.419 266.332 51.8839 263.899 54.5268 259.741C57.1696 255.582 58.9288 253.142 58.9288 253.142C58.9288 253.142 61.8797 258.362 59.472 262.465C57.6812 265.379 55.6473 268.137 53.3918 270.709L52.419 266.332Z" fill="#94C868"/>
<path d="M49.4608 260.892C49.4608 260.892 48.261 258.711 43.5185 257.349C38.7759 255.987 35.8574 255.315 35.8574 255.315C35.8574 255.315 37.0978 261.176 41.6214 262.668C44.8918 263.676 48.2409 264.408 51.6335 264.856L49.4608 260.892Z" fill="#94C868"/>
<path d="M53.7734 273.523C53.7734 273.523 53.1654 271.091 48.9092 268.586C44.6531 266.081 42.0102 264.678 42.0102 264.678C42.0102 264.678 41.7265 270.661 45.7232 273.247C48.6341 275.04 51.6903 276.586 54.8597 277.868L53.7734 273.523Z" fill="#94C868"/>
<path d="M11.2935 210.386C12.7029 212.569 14.2292 214.675 15.8658 216.693C20.5191 222.263 25.7562 224.622 30.0772 229.583C34.3982 234.545 34.9413 243.722 39.8541 250.442C44.7669 257.163 49.8175 259.627 51.674 264.905C53.5305 270.183 56.5382 285.578 56.5382 285.578" stroke="#263238" stroke-width="0.5" stroke-linecap="round" stroke-linejoin="round"/>
<path d="M14.949 215.834L10.2632 215.12" stroke="#263238" stroke-width="0.5" stroke-linecap="round" stroke-linejoin="round"/>
<path d="M13.1904 213.004L13.2148 209.802" stroke="#263238" stroke-width="0.5" stroke-linecap="round" stroke-linejoin="round"/>
<path d="M29.7441 229.429C29.7441 229.429 25.8528 228.886 21.8804 228.384" stroke="#263238" stroke-width="0.5" stroke-linecap="round" stroke-linejoin="round"/>
<path d="M25.999 225.886C25.9035 222.475 26.1588 219.063 26.7611 215.704" stroke="#263238" stroke-width="0.5" stroke-linecap="round" stroke-linejoin="round"/>
<path d="M38.6373 248.78C35.463 246.751 32.0114 245.191 28.3901 244.151" stroke="#263238" stroke-width="0.5" stroke-linecap="round" stroke-linejoin="round"/>
<path d="M40.8667 251.545C40.6139 249.121 40.5651 246.68 40.7208 244.249C41.0208 241.006 41.0775 240.56 41.0775 240.56" stroke="#263238" stroke-width="0.5" stroke-linecap="round" stroke-linejoin="round"/>
<path d="M52.8813 268.966C53.6088 266.926 54.5149 264.954 55.5891 263.073C56.3228 262.001 56.9706 260.874 57.5266 259.7" stroke="#263238" stroke-width="0.5" stroke-linecap="round" stroke-linejoin="round"/>
<path d="M51.6736 264.905C50.0214 263.556 48.2678 262.337 46.4284 261.257C44.649 260.297 42.7945 259.484 40.8833 258.825" stroke="#263238" stroke-width="0.5" stroke-linecap="round" stroke-linejoin="round"/>
<path d="M54.8756 277.868C54.1206 276.124 52.9145 274.613 51.3815 273.49C49.0143 271.909 46.1039 269.72 44.896 268.869" stroke="#263238" stroke-width="0.5" stroke-linecap="round" stroke-linejoin="round"/>
<path d="M243.864 162.385H186.784C184.764 162.385 183.127 164.022 183.127 166.041V289.161C183.127 291.18 184.764 292.817 186.784 292.817H243.864C245.884 292.817 247.521 291.18 247.521 289.161V166.041C247.521 164.022 245.884 162.385 243.864 162.385Z" fill="white" stroke="#263238" stroke-width="1.01" stroke-linecap="round" stroke-linejoin="round"/>
<path d="M242.137 179.498H188.518C186.499 179.498 184.862 181.135 184.862 183.155V286.048C184.862 288.067 186.499 289.704 188.518 289.704H242.137C244.156 289.704 245.793 288.067 245.793 286.048V183.155C245.793 181.135 244.156 179.498 242.137 179.498Z" fill="#FFA45A"/>
<path opacity="0.5" d="M242.137 179.498H188.518C186.499 179.498 184.862 181.135 184.862 183.155V286.048C184.862 288.067 186.499 289.704 188.518 289.704H242.137C244.156 289.704 245.793 288.067 245.793 286.048V183.155C245.793 181.135 244.156 179.498 242.137 179.498Z" fill="white"/>
<path d="M230.65 134.254H200.014V162.385H230.65V134.254Z" fill="#263238" stroke="#263238" stroke-width="1.01" stroke-linecap="round" stroke-linejoin="round"/>
<path d="M202.568 137.034V159.353" stroke="white" stroke-width="1.01" stroke-linecap="round" stroke-linejoin="round"/>
<path d="M207.302 137.034V159.353" stroke="white" stroke-width="1.01" stroke-linecap="round" stroke-linejoin="round"/>
<path d="M214.063 144.136V159.353" stroke="white" stroke-width="1.01" stroke-linecap="round" stroke-linejoin="round"/>
<path d="M214.063 137.034V140.755" stroke="white" stroke-width="1.01" stroke-linecap="round" stroke-linejoin="round"/>
<path d="M243.848 190.062H186.808V253.012H243.848V190.062Z" fill="white"/>
<path d="M214.947 244.289C226.615 244.289 236.074 234.831 236.074 223.163C236.074 211.495 226.615 202.036 214.947 202.036C203.28 202.036 193.821 211.495 193.821 223.163C193.821 234.831 203.28 244.289 214.947 244.289Z" fill="#263238"/>
<path d="M218.814 208.627H211.08V237.698H218.814V208.627Z" fill="#FFA45A"/>
<path d="M229.483 227.029V219.295H200.412V227.029H229.483Z" fill="#FFA45A"/>
<path d="M274.175 234.062H184.374C182.247 234.062 180.523 235.787 180.523 237.913V290.146C180.523 292.273 182.247 293.997 184.374 293.997H274.175C276.301 293.997 278.025 292.273 278.025 290.146V237.913C278.025 235.787 276.301 234.062 274.175 234.062Z" fill="white" stroke="#263238" stroke-linecap="round" stroke-linejoin="round"/>
<path d="M189.854 260.086C188.9 260.086 187.984 259.706 187.309 259.031C186.634 258.356 186.255 257.441 186.255 256.486V246.758C186.254 246.284 186.346 245.816 186.527 245.378C186.707 244.94 186.972 244.543 187.306 244.207C187.641 243.872 188.038 243.606 188.475 243.425C188.912 243.244 189.381 243.15 189.854 243.15C190.811 243.15 191.729 243.53 192.405 244.207C193.082 244.883 193.462 245.801 193.462 246.758V256.486C193.462 256.96 193.369 257.428 193.187 257.865C193.006 258.303 192.74 258.7 192.405 259.034C192.07 259.369 191.672 259.634 191.234 259.814C190.797 259.994 190.328 260.087 189.854 260.086Z" fill="#263238" stroke="#263238" stroke-width="1.01" stroke-linecap="round" stroke-linejoin="round"/>
<path d="M192.294 246.425V252.457" stroke="white" stroke-width="1.01" stroke-linecap="round" stroke-linejoin="round"/>
<path d="M192.294 254.014V257.321" stroke="white" stroke-width="1.01" stroke-linecap="round" stroke-linejoin="round"/>
<path d="M205.606 260.086C204.651 260.086 203.736 259.706 203.061 259.031C202.386 258.356 202.006 257.441 202.006 256.486V246.758C202.005 246.284 202.098 245.816 202.278 245.378C202.458 244.94 202.723 244.543 203.058 244.207C203.392 243.872 203.789 243.606 204.227 243.425C204.664 243.244 205.132 243.15 205.606 243.15C206.079 243.15 206.548 243.244 206.985 243.425C207.422 243.606 207.82 243.872 208.154 244.207C208.488 244.543 208.753 244.94 208.934 245.378C209.114 245.816 209.206 246.284 209.205 246.758V256.486C209.205 257.441 208.826 258.356 208.151 259.031C207.476 259.706 206.56 260.086 205.606 260.086Z" fill="#263238" stroke="#263238" stroke-width="1.01" stroke-linecap="round" stroke-linejoin="round"/>
<path d="M208.055 246.425V252.457" stroke="white" stroke-width="1.01" stroke-linecap="round" stroke-linejoin="round"/>
<path d="M208.055 254.014V257.321" stroke="white" stroke-width="1.01" stroke-linecap="round" stroke-linejoin="round"/>
<path d="M221.39 260.086C220.436 260.086 219.52 259.706 218.845 259.031C218.17 258.356 217.791 257.441 217.791 256.486V246.758C217.79 246.284 217.882 245.816 218.063 245.378C218.243 244.94 218.508 244.543 218.842 244.207C219.177 243.872 219.574 243.606 220.011 243.425C220.448 243.244 220.917 243.15 221.39 243.15C221.864 243.15 222.333 243.244 222.77 243.425C223.207 243.606 223.604 243.872 223.939 244.207C224.273 244.543 224.538 244.94 224.718 245.378C224.899 245.816 224.991 246.284 224.99 246.758V256.486C224.99 257.441 224.611 258.356 223.936 259.031C223.261 259.706 222.345 260.086 221.39 260.086Z" fill="#263238" stroke="#263238" stroke-width="1.01" stroke-linecap="round" stroke-linejoin="round"/>
<path d="M223.823 246.425V252.457" stroke="white" stroke-width="1.01" stroke-linecap="round" stroke-linejoin="round"/>
<path d="M223.823 254.014V257.321" stroke="white" stroke-width="1.01" stroke-linecap="round" stroke-linejoin="round"/>
<path d="M237.158 260.086C236.203 260.086 235.288 259.706 234.613 259.031C233.938 258.356 233.559 257.441 233.559 256.486V246.758C233.558 246.284 233.65 245.816 233.83 245.378C234.011 244.94 234.276 244.543 234.61 244.207C234.944 243.872 235.341 243.606 235.779 243.425C236.216 243.244 236.685 243.15 237.158 243.15C237.631 243.15 238.1 243.244 238.537 243.425C238.975 243.606 239.372 243.872 239.706 244.207C240.04 244.543 240.305 244.94 240.486 245.378C240.666 245.816 240.759 246.284 240.758 246.758V256.486C240.758 257.441 240.378 258.356 239.703 259.031C239.028 259.706 238.113 260.086 237.158 260.086Z" fill="#263238" stroke="#263238" stroke-width="1.01" stroke-linecap="round" stroke-linejoin="round"/>
<path d="M239.59 246.425V252.457" stroke="white" stroke-width="1.01" stroke-linecap="round" stroke-linejoin="round"/>
<path d="M239.59 254.014V257.321" stroke="white" stroke-width="1.01" stroke-linecap="round" stroke-linejoin="round"/>
<path d="M252.926 260.086C252.453 260.087 251.984 259.994 251.546 259.814C251.109 259.634 250.711 259.369 250.376 259.034C250.041 258.7 249.775 258.303 249.594 257.865C249.412 257.428 249.319 256.96 249.319 256.486V246.758C249.319 245.801 249.699 244.883 250.375 244.207C251.052 243.53 251.97 243.15 252.926 243.15C253.4 243.15 253.869 243.244 254.306 243.425C254.743 243.606 255.14 243.872 255.474 244.207C255.809 244.543 256.074 244.94 256.254 245.378C256.435 245.816 256.527 246.284 256.526 246.758V256.486C256.526 257.441 256.147 258.356 255.472 259.031C254.797 259.706 253.881 260.086 252.926 260.086Z" fill="#263238" stroke="#263238" stroke-width="1.01" stroke-linecap="round" stroke-linejoin="round"/>
<path d="M255.358 246.425V252.457" stroke="white" stroke-width="1.01" stroke-linecap="round" stroke-linejoin="round"/>
<path d="M255.358 254.014V257.321" stroke="white" stroke-width="1.01" stroke-linecap="round" stroke-linejoin="round"/>
<path d="M268.686 260.086C267.731 260.086 266.816 259.706 266.141 259.031C265.466 258.356 265.086 257.441 265.086 256.486V246.758C265.085 246.284 265.178 245.816 265.358 245.378C265.539 244.94 265.803 244.543 266.138 244.207C266.472 243.872 266.869 243.606 267.307 243.425C267.744 243.244 268.213 243.15 268.686 243.15C269.159 243.15 269.628 243.244 270.065 243.425C270.502 243.606 270.9 243.872 271.234 244.207C271.568 244.543 271.833 244.94 272.014 245.378C272.194 245.816 272.286 246.284 272.285 246.758V256.486C272.285 257.441 271.906 258.356 271.231 259.031C270.556 259.706 269.641 260.086 268.686 260.086Z" fill="#263238" stroke="#263238" stroke-width="1.01" stroke-linecap="round" stroke-linejoin="round"/>
<path d="M271.119 246.425V252.457" stroke="white" stroke-width="1.01" stroke-linecap="round" stroke-linejoin="round"/>
<path d="M271.119 254.014V257.321" stroke="white" stroke-width="1.01" stroke-linecap="round" stroke-linejoin="round"/>
<path d="M189.854 285.93C188.9 285.93 187.984 285.551 187.309 284.876C186.634 284.201 186.255 283.286 186.255 282.331V272.603C186.255 271.648 186.634 270.732 187.309 270.057C187.984 269.382 188.9 269.003 189.854 269.003C190.328 269.002 190.797 269.094 191.234 269.275C191.672 269.455 192.07 269.72 192.405 270.055C192.74 270.389 193.006 270.786 193.187 271.223C193.369 271.661 193.462 272.129 193.462 272.603V282.331C193.462 282.804 193.369 283.273 193.187 283.71C193.006 284.148 192.74 284.545 192.405 284.879C192.07 285.213 191.672 285.478 191.234 285.659C190.797 285.839 190.328 285.932 189.854 285.93Z" fill="#263238" stroke="#263238" stroke-width="1.01" stroke-linecap="round" stroke-linejoin="round"/>
<path d="M192.294 272.311V278.342" stroke="white" stroke-width="1.01" stroke-linecap="round" stroke-linejoin="round"/>
<path d="M192.294 279.899V283.207" stroke="white" stroke-width="1.01" stroke-linecap="round" stroke-linejoin="round"/>
<path d="M205.606 285.93C204.651 285.93 203.736 285.551 203.061 284.876C202.386 284.201 202.006 283.286 202.006 282.331V272.603C202.006 271.648 202.386 270.732 203.061 270.057C203.736 269.382 204.651 269.003 205.606 269.003C206.079 269.002 206.547 269.094 206.985 269.275C207.422 269.456 207.819 269.721 208.153 270.055C208.488 270.39 208.753 270.787 208.933 271.224C209.114 271.661 209.206 272.13 209.205 272.603V282.331C209.206 282.804 209.114 283.273 208.933 283.71C208.753 284.147 208.488 284.544 208.153 284.879C207.819 285.213 207.422 285.478 206.985 285.659C206.547 285.839 206.079 285.932 205.606 285.93Z" fill="#263238" stroke="#263238" stroke-width="1.01" stroke-linecap="round" stroke-linejoin="round"/>
<path d="M208.055 272.311V278.342" stroke="white" stroke-width="1.01" stroke-linecap="round" stroke-linejoin="round"/>
<path d="M208.055 279.899V283.207" stroke="white" stroke-width="1.01" stroke-linecap="round" stroke-linejoin="round"/>
<path d="M221.39 285.93C220.436 285.93 219.52 285.551 218.845 284.876C218.17 284.201 217.791 283.286 217.791 282.331V272.603C217.791 271.648 218.17 270.732 218.845 270.057C219.52 269.382 220.436 269.003 221.39 269.003C222.345 269.003 223.261 269.382 223.936 270.057C224.611 270.732 224.99 271.648 224.99 272.603V282.331C224.99 283.286 224.611 284.201 223.936 284.876C223.261 285.551 222.345 285.93 221.39 285.93Z" fill="#263238" stroke="#263238" stroke-width="1.01" stroke-linecap="round" stroke-linejoin="round"/>
<path d="M223.823 272.311V278.342" stroke="white" stroke-width="1.01" stroke-linecap="round" stroke-linejoin="round"/>
<path d="M223.823 279.899V283.207" stroke="white" stroke-width="1.01" stroke-linecap="round" stroke-linejoin="round"/>
<path d="M237.158 285.93C236.685 285.932 236.217 285.839 235.779 285.659C235.342 285.478 234.945 285.213 234.61 284.879C234.276 284.544 234.011 284.147 233.83 283.71C233.65 283.273 233.558 282.804 233.559 282.331V272.603C233.558 272.13 233.65 271.661 233.83 271.224C234.011 270.787 234.276 270.39 234.61 270.055C234.945 269.721 235.342 269.456 235.779 269.275C236.217 269.094 236.685 269.002 237.158 269.003C238.113 269.003 239.028 269.382 239.703 270.057C240.378 270.732 240.758 271.648 240.758 272.603V282.331C240.758 283.286 240.378 284.201 239.703 284.876C239.028 285.551 238.113 285.93 237.158 285.93Z" fill="#263238" stroke="#263238" stroke-width="1.01" stroke-linecap="round" stroke-linejoin="round"/>
<path d="M239.59 272.311V278.342" stroke="white" stroke-width="1.01" stroke-linecap="round" stroke-linejoin="round"/>
<path d="M239.59 279.899V283.207" stroke="white" stroke-width="1.01" stroke-linecap="round" stroke-linejoin="round"/>
<path d="M252.926 285.93C252.453 285.932 251.984 285.839 251.546 285.659C251.109 285.478 250.711 285.213 250.376 284.879C250.041 284.545 249.775 284.148 249.594 283.71C249.412 283.273 249.319 282.804 249.319 282.331V272.603C249.319 272.129 249.412 271.661 249.594 271.223C249.775 270.786 250.041 270.389 250.376 270.055C250.711 269.72 251.109 269.455 251.546 269.275C251.984 269.094 252.453 269.002 252.926 269.003C253.881 269.003 254.797 269.382 255.472 270.057C256.147 270.732 256.526 271.648 256.526 272.603V282.331C256.526 283.286 256.147 284.201 255.472 284.876C254.797 285.551 253.881 285.93 252.926 285.93Z" fill="#263238" stroke="#263238" stroke-width="1.01" stroke-linecap="round" stroke-linejoin="round"/>
<path d="M255.358 272.311V278.342" stroke="white" stroke-width="1.01" stroke-linecap="round" stroke-linejoin="round"/>
<path d="M255.358 279.899V283.207" stroke="white" stroke-width="1.01" stroke-linecap="round" stroke-linejoin="round"/>
<path d="M268.686 285.93C267.731 285.93 266.816 285.551 266.141 284.876C265.466 284.201 265.086 283.286 265.086 282.331V272.603C265.086 271.648 265.466 270.732 266.141 270.057C266.816 269.382 267.731 269.003 268.686 269.003C269.159 269.002 269.627 269.094 270.065 269.275C270.502 269.456 270.899 269.721 271.233 270.055C271.568 270.39 271.833 270.787 272.014 271.224C272.194 271.661 272.286 272.13 272.285 272.603V282.331C272.286 282.804 272.194 283.273 272.014 283.71C271.833 284.147 271.568 284.544 271.233 284.879C270.899 285.213 270.502 285.478 270.065 285.659C269.627 285.839 269.159 285.932 268.686 285.93Z" fill="#263238" stroke="#263238" stroke-width="1.01" stroke-linecap="round" stroke-linejoin="round"/>
<path d="M271.119 272.311V278.342" stroke="white" stroke-width="1.01" stroke-linecap="round" stroke-linejoin="round"/>
<path d="M271.119 279.899V283.207" stroke="white" stroke-width="1.01" stroke-linecap="round" stroke-linejoin="round"/>
<path d="M197.832 237.176V239.202" stroke="#263238" stroke-width="0.5" stroke-linecap="round" stroke-linejoin="round"/>
<path d="M197.832 242.964V286.214" stroke="#263238" stroke-width="0.5" stroke-linecap="round" stroke-linejoin="round" stroke-dasharray="4.64 4.64"/>
<path d="M197.832 288.095V290.122" stroke="#263238" stroke-width="0.5" stroke-linecap="round" stroke-linejoin="round"/>
<path d="M213.599 237.176V239.202" stroke="#263238" stroke-width="0.5" stroke-linecap="round" stroke-linejoin="round"/>
<path d="M213.599 242.964V286.214" stroke="#263238" stroke-width="0.5" stroke-linecap="round" stroke-linejoin="round" stroke-dasharray="4.64 4.64"/>
<path d="M213.599 288.095V290.122" stroke="#263238" stroke-width="0.5" stroke-linecap="round" stroke-linejoin="round"/>
<path d="M229.368 237.176V239.202" stroke="#263238" stroke-width="0.5" stroke-linecap="round" stroke-linejoin="round"/>
<path d="M229.368 242.964V286.214" stroke="#263238" stroke-width="0.5" stroke-linecap="round" stroke-linejoin="round" stroke-dasharray="4.64 4.64"/>
<path d="M229.368 288.095V290.122" stroke="#263238" stroke-width="0.5" stroke-linecap="round" stroke-linejoin="round"/>
<path d="M245.127 237.176V239.202" stroke="#263238" stroke-width="0.5" stroke-linecap="round" stroke-linejoin="round"/>
<path d="M245.127 242.964V286.214" stroke="#263238" stroke-width="0.5" stroke-linecap="round" stroke-linejoin="round" stroke-dasharray="4.64 4.64"/>
<path d="M245.127 288.095V290.122" stroke="#263238" stroke-width="0.5" stroke-linecap="round" stroke-linejoin="round"/>
<path d="M260.896 237.176V239.202" stroke="#263238" stroke-width="0.5" stroke-linecap="round" stroke-linejoin="round"/>
<path d="M260.896 242.964V286.214" stroke="#263238" stroke-width="0.5" stroke-linecap="round" stroke-linejoin="round" stroke-dasharray="4.64 4.64"/>
<path d="M260.896 288.095V290.122" stroke="#263238" stroke-width="0.5" stroke-linecap="round" stroke-linejoin="round"/>
<path d="M183.037 264.034H275.107" stroke="#263238" stroke-width="0.5" stroke-linecap="round" stroke-linejoin="round" stroke-dasharray="5 5"/>
<path d="M166.094 36.7927H58.5071C52.006 36.7927 46.7358 42.0629 46.7358 48.564V280.925C46.7358 287.426 52.006 292.696 58.5071 292.696H166.094C172.595 292.696 177.865 287.426 177.865 280.925V48.564C177.865 42.0629 172.595 36.7927 166.094 36.7927Z" fill="#263238"/>
<mask id="mask0_793_1312" style="mask-type:luminance" maskUnits="userSpaceOnUse" x="46" y="36" width="132" height="257">
<path d="M166.094 36.7927H58.5071C52.006 36.7927 46.7358 42.0629 46.7358 48.564V280.925C46.7358 287.426 52.006 292.696 58.5071 292.696H166.094C172.595 292.696 177.865 287.426 177.865 280.925V48.564C177.865 42.0629 172.595 36.7927 166.094 36.7927Z" fill="white"/>
</mask>
<g mask="url(#mask0_793_1312)">
<path opacity="0.2" d="M58.0208 36.7928C55.0236 36.7928 52.1491 37.9834 50.0297 40.1028C47.9104 42.2221 46.7197 45.0966 46.7197 48.0938V281.395C46.7182 283.048 47.0805 284.682 47.7811 286.179C48.4816 287.677 49.5031 289.002 50.7732 290.061L127.278 36.7928H58.0208Z" fill="white"/>
<path d="M116.764 285.294C116.764 284.412 116.502 283.55 116.012 282.817C115.522 282.084 114.826 281.512 114.011 281.175C113.197 280.837 112.3 280.749 111.435 280.921C110.57 281.093 109.776 281.518 109.152 282.141C108.529 282.765 108.104 283.559 107.932 284.424C107.76 285.289 107.848 286.186 108.186 287.001C108.523 287.815 109.095 288.512 109.828 289.002C110.561 289.492 111.423 289.753 112.305 289.753C113.488 289.753 114.622 289.283 115.458 288.447C116.294 287.611 116.764 286.477 116.764 285.294Z" stroke="white" stroke-linecap="round" stroke-linejoin="round"/>
</g>
<path d="M166.094 36.7927H58.5071C52.006 36.7927 46.7358 42.0629 46.7358 48.564V280.925C46.7358 287.426 52.006 292.696 58.5071 292.696H166.094C172.595 292.696 177.865 287.426 177.865 280.925V48.564C177.865 42.0629 172.595 36.7927 166.094 36.7927Z" stroke="#263238" stroke-linecap="round" stroke-linejoin="round"/>
<path d="M172.045 54.1738H52.5737V277.511H172.045V54.1738Z" fill="#94C868"/>
<mask id="mask1_793_1312" style="mask-type:luminance" maskUnits="userSpaceOnUse" x="52" y="54" width="121" height="224">
<path d="M172.045 54.1738H52.5737V277.511H172.045V54.1738Z" fill="white"/>
</mask>
<g mask="url(#mask1_793_1312)">
<path d="M149.629 164.379L130.692 147.266L112.305 147.582L93.9186 147.266L74.9809 164.379L30.1982 193.872V280.892H109.938H114.672H194.412V193.872L149.629 164.379Z" fill="white" stroke="#263238" stroke-width="1.01" stroke-linecap="round" stroke-linejoin="round"/>
<path d="M110.773 228.757L102.609 240.333C102.609 240.333 112.338 235.923 121.709 232.105C131.081 228.286 142.86 216.24 145.503 211.837C148.146 207.435 151.989 200.966 151.989 200.966L140.217 191.894H152.872C152.872 191.894 152.572 178.113 148.754 166.917" stroke="#263238" stroke-width="1.01" stroke-linecap="round" stroke-linejoin="round"/>
<path d="M107.044 233.815C105.673 233.24 104.287 232.664 102.901 232.105C93.505 228.286 81.7499 216.24 79.1071 211.837C76.4642 207.435 72.6215 200.966 72.6215 200.966L84.4009 191.894H71.8027C71.8027 191.894 72.1027 178.113 75.9211 166.917" stroke="#263238" stroke-width="1.01" stroke-linecap="round" stroke-linejoin="round"/>
<path d="M92.2893 148.563C92.2893 148.563 88.6331 206.617 110.773 228.757C110.773 228.757 134.129 212.721 134.129 149.26L92.2893 148.563Z" fill="white"/>
<mask id="mask2_793_1312" style="mask-type:luminance" maskUnits="userSpaceOnUse" x="92" y="148" width="43" height="81">
<path d="M92.2893 148.563C92.2893 148.563 88.6331 206.617 110.773 228.757C110.773 228.757 134.129 212.721 134.129 149.26L92.2893 148.563Z" fill="white"/>
</mask>
<g mask="url(#mask2_793_1312)">
<path d="M104.653 82.4996H123.485C128.884 82.4996 134.062 84.6443 137.879 88.4619C141.697 92.2795 143.842 97.4572 143.842 102.856V145.101C143.843 148.69 143.137 152.244 141.764 155.56C140.392 158.876 138.38 161.889 135.843 164.428C133.306 166.966 130.294 168.98 126.979 170.354C123.663 171.729 120.11 172.437 116.521 172.438H111.657C108.068 172.438 104.515 171.731 101.199 170.358C97.8833 168.984 94.8706 166.971 92.3329 164.434C89.7952 161.896 87.7823 158.883 86.4089 155.568C85.0355 152.252 84.3286 148.698 84.3286 145.109V102.856C84.3286 97.4572 86.4733 92.2795 90.2909 88.4619C94.1085 84.6443 99.2862 82.4996 104.685 82.4996H104.653Z" fill="#4648BC"/>
<path opacity="0.5" d="M104.653 82.4996H123.485C128.884 82.4996 134.062 84.6443 137.879 88.4619C141.697 92.2795 143.842 97.4572 143.842 102.856V145.101C143.843 148.69 143.137 152.244 141.764 155.56C140.392 158.876 138.38 161.889 135.843 164.428C133.306 166.966 130.294 168.98 126.979 170.354C123.663 171.729 120.11 172.437 116.521 172.438H111.657C108.068 172.438 104.515 171.731 101.199 170.358C97.8833 168.984 94.8706 166.971 92.3329 164.434C89.7952 161.896 87.7823 158.883 86.4089 155.568C85.0355 152.252 84.3286 148.698 84.3286 145.109V102.856C84.3286 97.4572 86.4733 92.2795 90.2909 88.4619C94.1085 84.6443 99.2862 82.4996 104.685 82.4996H104.653Z" fill="white"/>
</g>
<path d="M92.2893 148.563C92.2893 148.563 88.6331 206.617 110.773 228.757C110.773 228.757 134.129 212.721 134.129 149.26L92.2893 148.563Z" stroke="#263238" stroke-width="1.01" stroke-linecap="round" stroke-linejoin="round"/>
<path d="M101.604 143.618C101.604 143.618 99.5773 168.952 111.811 178.615C111.811 178.615 124.717 171.619 124.717 143.926L101.604 143.618Z" stroke="#263238" stroke-width="1.01" stroke-linecap="round" stroke-linejoin="round"/>
<path d="M97.5181 186.568L111.811 178.615L127.854 189.705" stroke="#263238" stroke-width="1.01" stroke-linecap="round" stroke-linejoin="round"/>
<path d="M115.653 191.449L118.442 183.431L111.811 178.615L103.096 183.431L107.627 190.727L100.477 212.202C103.055 218.623 106.411 224.363 110.773 228.732C110.773 228.732 116.983 224.468 122.998 211.635L115.653 191.449Z" fill="#4648BC" stroke="#263238" stroke-width="1.01" stroke-linecap="round" stroke-linejoin="round"/>
<path d="M144.221 235.22C150.571 234.185 154.879 228.198 153.844 221.848C152.809 215.498 146.822 211.189 140.471 212.224C134.121 213.26 129.813 219.247 130.848 225.597C131.884 231.947 137.871 236.255 144.221 235.22Z" fill="white" stroke="#263238" stroke-width="1.01" stroke-linecap="round" stroke-linejoin="round"/>
<path d="M150.08 226.901C151.839 222.623 149.797 217.73 145.52 215.971C141.242 214.213 136.349 216.254 134.59 220.532C132.831 224.81 134.873 229.703 139.151 231.462C143.428 233.221 148.322 231.179 150.08 226.901Z" fill="white" stroke="#263238" stroke-width="1.01" stroke-linecap="round" stroke-linejoin="round"/>
<path d="M142.333 225.506C141.86 225.506 141.407 225.318 141.072 224.983C140.738 224.649 140.55 224.195 140.55 223.722V155.275C140.55 154.802 140.738 154.349 141.072 154.014C141.407 153.68 141.86 153.492 142.333 153.492C142.806 153.492 143.26 153.68 143.594 154.014C143.929 154.349 144.117 154.802 144.117 155.275V223.722C144.118 223.957 144.073 224.189 143.983 224.406C143.894 224.623 143.763 224.82 143.597 224.986C143.431 225.151 143.234 225.283 143.017 225.372C142.8 225.461 142.568 225.507 142.333 225.506Z" fill="#263238"/>
<path d="M86.0471 250.329H85.8768C84.2554 250.053 68.6982 234.926 67.2309 230.872C65.7635 226.819 66.177 220.333 66.1932 220.09C66.2083 219.853 66.3166 219.633 66.4945 219.476C66.6724 219.319 66.9052 219.24 67.1417 219.255C67.3782 219.27 67.5991 219.378 67.7557 219.556C67.9122 219.734 67.9918 219.967 67.9767 220.204C67.9767 220.26 67.6119 226.567 68.909 230.288C70.1007 233.685 83.9473 247.248 86.1362 248.57C87.3523 248.189 91.8111 244.192 93.4324 240.098C93.4756 239.989 93.5398 239.889 93.6214 239.805C93.7029 239.721 93.8003 239.653 93.908 239.606C94.0156 239.56 94.1314 239.535 94.2488 239.533C94.3661 239.531 94.4826 239.552 94.5917 239.595C94.7009 239.638 94.8004 239.703 94.8847 239.784C94.9691 239.866 95.0365 239.963 95.0831 240.071C95.1298 240.178 95.1548 240.294 95.1568 240.412C95.1587 240.529 95.1375 240.645 95.0944 240.755C93.4081 245.092 88.0981 250.329 86.0471 250.329Z" fill="white" stroke="#263238" stroke-width="1.01" stroke-linecap="round" stroke-linejoin="round"/>
<path d="M72.2248 250.329C70.1656 250.329 64.8637 245.092 63.145 240.706C63.058 240.486 63.062 240.24 63.1563 240.023C63.2505 239.805 63.4273 239.634 63.6477 239.547C63.868 239.46 64.114 239.464 64.3314 239.558C64.5488 239.653 64.7199 239.829 64.8069 240.05C66.4283 244.144 70.879 248.157 72.1032 248.522C74.292 247.2 88.1387 233.637 89.3304 230.24C90.6275 226.519 90.2708 220.212 90.2627 220.155C90.2476 219.919 90.3271 219.686 90.4837 219.508C90.6403 219.33 90.8612 219.222 91.0977 219.207C91.3342 219.192 91.567 219.271 91.7449 219.428C91.9228 219.585 92.0312 219.805 92.0462 220.042C92.0462 220.318 92.4353 226.771 91.0085 230.824C89.5817 234.878 74.0569 250.037 72.3626 250.281L72.2248 250.329Z" fill="white" stroke="#263238" stroke-width="1.01" stroke-linecap="round" stroke-linejoin="round"/>
<path d="M79.3509 189.827C78.8785 189.825 78.4261 189.636 78.0921 189.302C77.7581 188.968 77.5695 188.516 77.5674 188.044V158.186C77.5674 157.713 77.7553 157.259 78.0898 156.925C78.4242 156.59 78.8779 156.402 79.3509 156.402C79.8239 156.402 80.2776 156.59 80.612 156.925C80.9465 157.259 81.1344 157.713 81.1344 158.186V188.044C81.1344 188.278 81.0883 188.51 80.9987 188.726C80.909 188.943 80.7777 189.139 80.612 189.305C80.4464 189.47 80.2498 189.602 80.0334 189.691C79.817 189.781 79.5851 189.827 79.3509 189.827Z" fill="#263238"/>
<path d="M91.0004 223.689C90.5281 223.687 90.0757 223.499 89.7416 223.165C89.4076 222.831 89.219 222.378 89.2169 221.906V200.423C89.2169 197.709 88.139 195.107 86.2203 193.188C84.3017 191.27 81.6994 190.192 78.986 190.192C76.2726 190.192 73.6703 191.27 71.7516 193.188C69.8329 195.107 68.755 197.709 68.755 200.423V221.89C68.755 222.363 68.5671 222.816 68.2327 223.151C67.8982 223.485 67.4445 223.673 66.9715 223.673C66.4985 223.673 66.0448 223.485 65.7104 223.151C65.3759 222.816 65.188 222.363 65.188 221.89V200.406C65.188 196.751 66.64 193.246 69.2246 190.661C71.8092 188.077 75.3146 186.625 78.9698 186.625C82.6249 186.625 86.1303 188.077 88.7149 190.661C91.2995 193.246 92.7515 196.751 92.7515 200.406V221.89C92.7538 222.359 92.5715 222.811 92.244 223.148C91.9165 223.484 91.4699 223.679 91.0004 223.689Z" fill="#263238"/>
<path d="M61.497 237.385L61.1961 237.619C60.2909 238.322 60.1271 239.626 60.8303 240.531L62.1482 242.228C62.8514 243.133 64.1552 243.297 65.0603 242.593L65.3612 242.36C66.2664 241.657 66.4302 240.353 65.7271 239.448L64.4091 237.751C63.706 236.846 62.4022 236.682 61.497 237.385Z" fill="white" stroke="#263238" stroke-width="1.01" stroke-linecap="round" stroke-linejoin="round"/>
<path d="M92.5972 242.349L92.8981 242.583C93.8033 243.286 95.1071 243.123 95.8103 242.217L97.1282 240.521C97.8313 239.616 97.6675 238.312 96.7624 237.609L96.4615 237.375C95.5563 236.672 94.2525 236.836 93.5493 237.741L92.2314 239.437C91.5283 240.342 91.692 241.646 92.5972 242.349Z" fill="white" stroke="#263238" stroke-width="1.01" stroke-linecap="round" stroke-linejoin="round"/>
<path d="M82.7558 111.044H82.0018C79.6647 111.044 77.77 112.939 77.77 115.276V122.872C77.77 125.209 79.6647 127.104 82.0018 127.104H82.7558C85.0929 127.104 86.9876 125.209 86.9876 122.872V115.276C86.9876 112.939 85.0929 111.044 82.7558 111.044Z" fill="white" stroke="#263238" stroke-width="1.01" stroke-linecap="round" stroke-linejoin="round"/>
<path d="M145.05 111.044H144.296C141.959 111.044 140.064 112.939 140.064 115.276V122.872C140.064 125.209 141.959 127.104 144.296 127.104H145.05C147.387 127.104 149.282 125.209 149.282 122.872V115.276C149.282 112.939 147.387 111.044 145.05 111.044Z" fill="white" stroke="#263238" stroke-width="1.01" stroke-linecap="round" stroke-linejoin="round"/>
<path d="M104.652 70.8094H123.484C128.883 70.8094 134.061 72.9541 137.879 76.7717C141.696 80.5892 143.841 85.767 143.841 91.1659V133.411C143.841 140.659 140.962 147.61 135.837 152.735C130.711 157.86 123.76 160.739 116.512 160.739H111.648C108.059 160.739 104.506 160.033 101.19 158.659C97.8745 157.286 94.8618 155.273 92.3241 152.735C89.7865 150.197 87.7735 147.185 86.4001 143.869C85.0267 140.554 84.3198 137 84.3198 133.411V91.1659C84.3198 85.7712 86.4612 80.5971 90.2735 76.7802C94.0858 72.9634 99.2573 70.8158 104.652 70.8094Z" fill="white" stroke="#263238" stroke-width="1.01" stroke-linecap="round" stroke-linejoin="round"/>
<path d="M107.068 106.358H97.6806C96.8344 106.358 96.1484 107.044 96.1484 107.89V108.166C96.1484 109.012 96.8344 109.698 97.6806 109.698H107.068C107.915 109.698 108.601 109.012 108.601 108.166V107.89C108.601 107.044 107.915 106.358 107.068 106.358Z" fill="#263238" stroke="#263238" stroke-width="1.01" stroke-linecap="round" stroke-linejoin="round"/>
<path d="M131.672 106.358H122.285C121.438 106.358 120.752 107.044 120.752 107.89V108.166C120.752 109.012 121.438 109.698 122.285 109.698H131.672C132.519 109.698 133.205 109.012 133.205 108.166V107.89C133.205 107.044 132.519 106.358 131.672 106.358Z" fill="#263238" stroke="#263238" stroke-width="1.01" stroke-linecap="round" stroke-linejoin="round"/>
<path d="M105.852 116.541C105.852 118.47 104.969 120.027 103.874 120.027C102.78 120.027 101.904 118.47 101.904 116.541C101.904 114.611 102.788 113.046 103.874 113.046C104.961 113.046 105.852 114.611 105.852 116.541Z" fill="#263238" stroke="#263238" stroke-width="1.01" stroke-linecap="round" stroke-linejoin="round"/>
<path d="M128.048 116.541C128.048 118.47 127.165 120.027 126.07 120.027C124.976 120.027 124.092 118.47 124.092 116.541C124.092 114.611 124.976 113.046 126.07 113.046C127.165 113.046 128.048 114.611 128.048 116.541Z" fill="#263238" stroke="#263238" stroke-width="1.01" stroke-linecap="round" stroke-linejoin="round"/>
<path d="M124.717 70.8094H103.42C98.3481 70.8094 93.4837 72.8243 89.8973 76.4108C86.3108 79.9973 84.2959 84.8616 84.2959 89.9337V134.87C84.2959 141.731 87.0214 148.311 91.8728 153.163C96.7242 158.014 103.304 160.74 110.165 160.74H118.013C121.41 160.741 124.774 160.072 127.914 158.773C131.053 157.473 133.905 155.567 136.307 153.165C138.71 150.763 140.615 147.91 141.915 144.771C143.214 141.632 143.883 138.268 143.882 134.87V89.9337C143.882 87.4188 143.386 84.9287 142.422 82.6058C141.459 80.2829 140.046 78.1728 138.266 76.3964C136.486 74.6201 134.373 73.2122 132.048 72.2535C129.723 71.2948 127.232 70.8041 124.717 70.8094ZM139.309 128.539C139.309 128.539 139.309 134.003 133.845 139.475C133.845 139.475 128.073 131.879 125.641 131.271C124.068 130.882 118.215 130.995 114.243 131.125C110.279 130.995 104.417 130.882 102.893 131.271C100.461 131.879 94.689 139.475 94.689 139.475C89.2249 134.003 89.2249 128.539 89.2249 128.539V103.626L92.0704 99.8809C93.1588 98.4885 93.7825 96.7897 93.8538 95.0239C93.9251 93.2581 93.4402 91.5146 92.4677 90.039C91.4456 88.4719 91.0006 86.5979 91.2092 84.7386C91.4177 82.8792 92.2668 81.1504 93.6107 79.8486L93.6675 79.8C94.9691 78.5409 96.6569 77.757 98.4586 77.5746C100.26 77.3922 102.071 77.8221 103.598 78.7948L107.847 82.1267C109.699 83.573 111.982 84.3586 114.332 84.3586C116.682 84.3586 118.965 83.573 120.818 82.1267L125.049 78.7948C126.585 77.8162 128.406 77.3832 130.218 77.5656C132.029 77.748 133.727 78.535 135.037 79.8L135.086 79.8486C136.431 81.1755 137.274 82.9289 137.469 84.8086C137.664 86.6883 137.2 88.5775 136.156 90.1525C135.217 91.6235 134.759 93.35 134.844 95.0929C134.93 96.8359 135.556 98.5091 136.634 99.8809L139.577 103.626L139.309 128.539Z" fill="#263238" stroke="#263238" stroke-width="1.01" stroke-linecap="round" stroke-linejoin="round"/>
<path d="M118.628 127.501C118.628 127.501 122.276 127.015 122.276 129.123C122.276 131.23 120.144 132.763 115.896 131.247" fill="white"/>
<path d="M118.628 127.501C118.628 127.501 122.276 127.015 122.276 129.123C122.276 131.23 120.144 132.763 115.896 131.247" stroke="#263238" stroke-width="1.01" stroke-linecap="round" stroke-linejoin="round"/>
<path d="M118.321 110.306V127.931C118.321 128.897 117.937 129.824 117.255 130.508C116.572 131.191 115.647 131.577 114.68 131.579H111.438C109.119 131.741 108.308 131.174 108.033 130.193C107.947 129.866 107.93 129.525 107.983 129.191C108.036 128.858 108.158 128.539 108.341 128.255C108.341 127.347 112.216 127.347 112.216 127.347" fill="white"/>
<path d="M118.321 110.306V127.931C118.321 128.897 117.937 129.824 117.255 130.508C116.572 131.191 115.647 131.577 114.68 131.579H111.438C109.119 131.741 108.308 131.174 108.033 130.193C107.947 129.866 107.93 129.525 107.983 129.191C108.036 128.858 108.158 128.539 108.341 128.255C108.341 127.347 112.216 127.347 112.216 127.347" stroke="#263238" stroke-width="1.01" stroke-linecap="round" stroke-linejoin="round"/>
<path d="M114.502 141.632C111.119 141.65 107.789 140.781 104.847 139.11C104.558 138.916 104.355 138.617 104.283 138.276C104.211 137.936 104.274 137.58 104.46 137.285C104.646 136.991 104.94 136.78 105.278 136.699C105.617 136.617 105.974 136.671 106.274 136.848C108.822 138.241 111.682 138.963 114.586 138.949C117.489 138.935 120.342 138.184 122.877 136.767C123.032 136.676 123.205 136.617 123.384 136.594C123.562 136.571 123.744 136.584 123.918 136.633C124.092 136.682 124.253 136.766 124.394 136.879C124.534 136.992 124.651 137.132 124.735 137.292C124.82 137.451 124.872 137.626 124.887 137.805C124.903 137.985 124.882 138.166 124.826 138.337C124.77 138.509 124.679 138.667 124.56 138.803C124.441 138.938 124.296 139.048 124.133 139.127C121.181 140.749 117.871 141.61 114.502 141.632Z" fill="white" stroke="#263238" stroke-width="1.01" stroke-linecap="round" stroke-linejoin="round"/>
<path d="M124.263 121.81H130.148" stroke="#263238" stroke-width="1.01" stroke-linecap="round" stroke-linejoin="round"/>
<path d="M100.882 121.81H106.768" stroke="#263238" stroke-width="1.01" stroke-linecap="round" stroke-linejoin="round"/>
<path d="M77.5672 272.347C83.3788 272.347 88.09 267.636 88.09 261.825C88.09 256.013 83.3788 251.302 77.5672 251.302C71.7556 251.302 67.0444 256.013 67.0444 261.825C67.0444 267.636 71.7556 272.347 77.5672 272.347Z" stroke="#263238" stroke-width="0.724166" stroke-linecap="round" stroke-linejoin="round"/>
<path d="M77.5513 264.427C76.9879 264.427 76.4477 264.203 76.0494 263.805C75.651 263.407 75.4272 262.866 75.4272 262.303V255.574C75.4272 255.011 75.651 254.471 76.0494 254.072C76.4477 253.674 76.9879 253.45 77.5513 253.45C78.1146 253.45 78.6548 253.674 79.0532 254.072C79.4515 254.471 79.6753 255.011 79.6753 255.574V262.303C79.6753 262.866 79.4515 263.407 79.0532 263.805C78.6548 264.203 78.1146 264.427 77.5513 264.427Z" fill="#263238"/>
<path d="M77.567 265.959C76.5722 265.957 75.6187 265.561 74.9152 264.857C74.2118 264.154 73.8156 263.2 73.8135 262.206V259.044C73.8135 258.941 73.8545 258.842 73.9275 258.769C74.0004 258.696 74.0994 258.655 74.2026 258.655C74.254 258.654 74.3051 258.663 74.3528 258.682C74.4005 258.701 74.4439 258.73 74.4802 258.766C74.5166 258.803 74.5452 258.846 74.5644 258.894C74.5835 258.941 74.5929 258.992 74.5917 259.044V262.206C74.6316 262.969 74.9628 263.688 75.5172 264.214C76.0716 264.74 76.8067 265.033 77.571 265.033C78.3354 265.033 79.0705 264.74 79.6249 264.214C80.1792 263.688 80.5105 262.969 80.5503 262.206V259.044C80.5492 258.992 80.5585 258.941 80.5777 258.894C80.5969 258.846 80.6255 258.803 80.6618 258.766C80.6982 258.73 80.7415 258.701 80.7893 258.682C80.837 258.663 80.8881 258.654 80.9395 258.655C81.0427 258.655 81.1416 258.696 81.2146 258.769C81.2876 258.842 81.3286 258.941 81.3286 259.044V262.206C81.3265 263.202 80.9292 264.157 80.224 264.86C79.5188 265.564 78.5632 265.959 77.567 265.959Z" fill="#263238"/>
<path d="M77.5671 269.997C77.5164 269.997 77.4662 269.986 77.4194 269.967C77.3727 269.947 77.3303 269.918 77.2948 269.882C77.2593 269.846 77.2314 269.803 77.2128 269.756C77.1941 269.709 77.185 269.658 77.1861 269.607V265.554C77.1861 265.446 77.2288 265.343 77.3049 265.267C77.3809 265.191 77.484 265.149 77.5915 265.149C77.699 265.149 77.8021 265.191 77.8781 265.267C77.9541 265.343 77.9968 265.446 77.9968 265.554V269.607C77.9984 269.662 77.9881 269.717 77.9665 269.768C77.9449 269.819 77.9126 269.864 77.8717 269.901C77.8309 269.938 77.7825 269.966 77.7299 269.982C77.6773 269.999 77.6218 270.004 77.5671 269.997Z" fill="#263238"/>
<path d="M80.1612 270.207H74.9809C74.8784 270.205 74.7806 270.163 74.7081 270.091C74.6355 270.018 74.5939 269.92 74.5918 269.818C74.5918 269.715 74.6328 269.616 74.7058 269.543C74.7787 269.47 74.8777 269.429 74.9809 269.429H80.1612C80.2645 269.429 80.3634 269.47 80.4364 269.543C80.5094 269.616 80.5504 269.715 80.5504 269.818C80.5483 269.92 80.5066 270.018 80.4341 270.091C80.3616 270.163 80.2638 270.205 80.1612 270.207Z" fill="#263238"/>
<path d="M147.246 272.347C153.057 272.347 157.769 267.636 157.769 261.825C157.769 256.013 153.057 251.302 147.246 251.302C141.434 251.302 136.723 256.013 136.723 261.825C136.723 267.636 141.434 272.347 147.246 272.347Z" stroke="#263238" stroke-width="0.724166" stroke-linecap="round" stroke-linejoin="round"/>
<path d="M153.74 258.744L150.668 260.519V259.06C150.665 258.728 150.532 258.411 150.297 258.177C150.061 257.943 149.743 257.812 149.411 257.812H142.471C142.307 257.811 142.144 257.842 141.991 257.904C141.839 257.967 141.7 258.058 141.583 258.174C141.467 258.291 141.374 258.429 141.311 258.581C141.247 258.733 141.215 258.896 141.215 259.06V264.654C141.214 264.819 141.246 264.983 141.308 265.136C141.371 265.289 141.464 265.428 141.581 265.545C141.697 265.662 141.836 265.754 141.989 265.817C142.142 265.88 142.306 265.912 142.471 265.91H149.411C149.576 265.91 149.739 265.878 149.892 265.815C150.044 265.752 150.183 265.659 150.3 265.542C150.416 265.426 150.509 265.287 150.572 265.135C150.635 264.982 150.668 264.819 150.668 264.654V263.235L153.74 265.011V258.744Z" fill="#263238"/>
<path d="M112.41 272.347C118.222 272.347 122.933 267.636 122.933 261.825C122.933 256.013 118.222 251.302 112.41 251.302C106.598 251.302 101.887 256.013 101.887 261.825C101.887 267.636 106.598 272.347 112.41 272.347Z" fill="#263238" stroke="#263238" stroke-width="0.724166" stroke-linecap="round" stroke-linejoin="round"/>
<path d="M117.737 259.603H107.084C106.789 259.603 106.498 259.668 106.231 259.793C105.963 259.918 105.727 260.101 105.538 260.327C105.35 260.554 105.213 260.82 105.138 261.105C105.064 261.39 105.053 261.689 105.106 261.979L105.414 263.649C105.436 263.762 105.497 263.864 105.586 263.938C105.674 264.011 105.785 264.053 105.901 264.054H109.143C109.277 264.054 109.405 264.001 109.499 263.907C109.593 263.813 109.646 263.685 109.646 263.552V261.744H115.24V263.552C115.24 263.685 115.293 263.813 115.387 263.907C115.481 264.001 115.609 264.054 115.742 264.054H118.985C119.102 264.054 119.215 264.014 119.305 263.94C119.395 263.866 119.457 263.763 119.48 263.649L119.788 261.979C119.843 261.683 119.83 261.378 119.751 261.087C119.673 260.796 119.53 260.527 119.333 260.299C119.136 260.071 118.89 259.89 118.614 259.769C118.338 259.649 118.038 259.592 117.737 259.603Z" fill="#4648BC"/>
<path d="M167.343 56.4926H157.436V61.9242H167.343V56.4926Z" stroke="#263238" stroke-width="0.821067" stroke-linecap="round" stroke-linejoin="round"/>
<path d="M165.162 56.4926H157.436V61.9242H165.162V56.4926Z" fill="#263238" stroke="#263238" stroke-width="0.725073" stroke-linecap="round" stroke-linejoin="round"/>
<path d="M168.713 58.0087H167.318V60.4002H168.713V58.0087Z" fill="#263238" stroke="#263238" stroke-width="0.725073" stroke-linecap="round" stroke-linejoin="round"/>
<path d="M56.4405 58.1706H54.6245V61.2836H56.4405V58.1706Z" fill="#263238" stroke="#263238" stroke-width="0.883086" stroke-linecap="round" stroke-linejoin="round"/>
<path d="M59.294 57.0844H57.478V61.2919H59.294V57.0844Z" fill="#263238" stroke="#263238" stroke-width="0.883086" stroke-linecap="round" stroke-linejoin="round"/>
<path d="M62.1475 55.7873H60.3315V61.2838H62.1475V55.7873Z" fill="#263238" stroke="#263238" stroke-width="0.883086" stroke-linecap="round" stroke-linejoin="round"/>
</g>
<path d="M172.045 54.1738H52.5737V277.511H172.045V54.1738Z" stroke="#263238" stroke-linecap="round" stroke-linejoin="round"/>
</svg>
